<?xml version="1.0" encoding="utf-8"?>
<!-- Generator: Adobe Illustrator 18.0.0, SVG Export Plug-In . SVG Version: 6.00 Build 0)  -->
<!DOCTYPE svg PUBLIC "-//W3C//DTD SVG 1.1//EN" "http://www.w3.org/Graphics/SVG/1.1/DTD/svg11.dtd">
<svg version="1.1" id="Layer_1" xmlns="http://www.w3.org/2000/svg" xmlns:xlink="http://www.w3.org/1999/xlink" x="0px" y="0px"
	 viewBox="0 0 350 350" enable-background="new 0 0 350 350" xml:space="preserve">
<g>
	<circle fill="#D2D7E7" cx="175" cy="175" r="175"/>
	<g>
		<g>
			<path fill="#4B505E" d="M237.8,65.7h-96.6v100v3.1v9.6h87.8v8c-15.5,0.3-36.6,1.2-36.6,1.2c-0.5,0-1.1,0.4-1.3,0.8l-1.9,4.2
				c-0.2,0.4-0.4,1.2-0.4,1.7v1.1c0,0.5,0.4,0.9,0.9,0.9h49.2h46.9c0.5,0,0.9-0.4,0.9-0.9v-1.1c0-0.5-0.2-1.2-0.4-1.7l-1.9-4.2
				c-0.2-0.4-0.8-0.8-1.3-0.8c0,0-21.1-0.9-36.6-1.2v-8h87.2v-9.6v-3.1v-100H237.8z"/>
		</g>
		<polyline fill="#3FA8DF" points="151.4,117.6 151.4,160 323.5,160 323.5,117.6 		"/>
		<polyline fill="#5ABBEA" points="323.5,118.2 323.5,74.6 151.4,74.6 151.4,118.2 		"/>
		<path fill="#7AB142" d="M250.3,170.2c0,1.1-0.9,2-2,2h-21.1c-1.1,0-2-0.9-2-2v-3.8c0-1.1,25.1-1.1,25.1,0V170.2z"/>
	</g>
	<g>
		<g>
			<path fill="#4B505E" d="M200.6,270.4c0-0.8-0.2-1.6-0.8-2.5l-20-35.9c-0.1-0.2-0.3-0.4-0.4-0.6V147c0-1.6-1.3-2.9-2.9-2.9h-71.9
				H32.7c-1.6,0-2.9,1.3-2.9,2.9v84.4h0.3c-0.1,0.2-0.3,0.3-0.4,0.5l-20.4,36c-0.6,1-0.9,2-0.8,2.8h0v2.1h0c0.2,1.7,1.7,2.9,4.2,2.9
				h91.7h91.7c2.8,0,4.4-1.4,4.3-3.5h0L200.6,270.4L200.6,270.4z"/>
		</g>
		<polyline fill="#3FA8DF" points="36.9,187.5 36.9,225.7 172.2,225.7 172.2,187.5 		"/>
		<polyline fill="#5ABBEA" points="172.2,187.5 172.2,149.9 36.9,149.9 36.9,187.5 		"/>
		<g>
			<path fill="#3FA8DF" d="M131,267.9c0.1,0.5-0.2,0.9-0.7,0.9H78.8c-0.5,0-0.8-0.4-0.7-0.9l1.9-9.3c0.1-0.5,0.6-0.9,1.1-0.9H128
				c0.5,0,1,0.4,1.1,0.9L131,267.9z"/>
		</g>
		<polygon fill="#7AB142" points="145.2,251.6 28.1,251.6 35.2,236.7 140.8,236.7 		"/>
		<polygon fill="#7AB142" points="181.2,251.6 151.3,251.6 146.6,236.7 173.7,236.7 		"/>
	</g>
</g>
</svg>
