<?xml version="1.0" encoding="utf-8"?>
<!-- Generator: Adobe Illustrator 18.0.0, SVG Export Plug-In . SVG Version: 6.00 Build 0)  -->
<!DOCTYPE svg PUBLIC "-//W3C//DTD SVG 1.1//EN" "http://www.w3.org/Graphics/SVG/1.1/DTD/svg11.dtd">
<svg version="1.1" id="Layer_1" xmlns="http://www.w3.org/2000/svg" xmlns:xlink="http://www.w3.org/1999/xlink" x="0px" y="0px"
	 viewBox="0 0 350 350" enable-background="new 0 0 350 350" xml:space="preserve">
<g>
	<circle fill="#D2D7E7" cx="175" cy="175" r="175"/>
	<g>
		<path fill="#3FA8DF" d="M316.8,197.8c-0.1-2.8-0.4-5-3-13.3c-2.7-8.3-4.2-10.4-4.2-10.4c-0.4-0.5-1.2-1.1-1.7-1.3
			c0,0-13.9-4.5-35.6-4.5s-35,5.1-35,5.1c-0.6,0.2-1.3,0.8-1.5,1.4c0,0-5.5,13-6.5,17.5c-0.9,4.5-1,7.6-0.9,9.4
			c0.1,1.8,0.9,3.2,3.6,5.2c2.7,2,5,2.2,5,2.2c0.6,0.1,1.6,0.2,2.3,0.2c0,0,3,0.3,7.3,0.6v0.2c0,1.3,1,2.3,2.3,2.3h3.4
			c1.1,0,2.1-0.8,2.2-1.9c6,0.4,12.5,0.7,17.4,0.6c5.3,0,12.1-0.3,18.3-0.5c0.2,1,1.1,1.8,2.2,1.8h3.4c1.2,0,2.2-1,2.3-2.2
			c3.8-0.2,6.8-0.4,8-0.5c3.6-0.3,4.8-0.7,8.5-3.5C318.2,203.3,316.9,200.6,316.8,197.8z"/>
		<path fill="#4B505E" d="M282.6,70.5h-10.2h-10.1c-4.9,0-8.9,4-8.8,8.9c0,0-0.2,3.6,0.3,40.8c0,38.1,1.4,64,1.4,64
			c0,2,10.9,4.5,11.5,4.5h5.2h5.7c2.3,0,12-2.9,12-4.5c0,0,1.4-33.3,1.4-66c0.3-32.8,0.3-37.3,0.3-37.3
			C291.5,74.5,287.5,70.5,282.6,70.5z"/>
		<circle fill="#7AB142" cx="272.5" cy="89.2" r="9.9"/>
		<g>
			<circle fill="#FFFFFF" cx="269.7" cy="89.2" r="1"/>
			<circle fill="#FFFFFF" cx="272.5" cy="89.2" r="1"/>
			<circle fill="#FFFFFF" cx="275.3" cy="89.2" r="1"/>
		</g>
		<path fill="#3FA8DF" d="M258,119.7v8.5c0,0.8,0.7,1.5,1.5,1.5H285c0.8,0,1.5-0.7,1.5-1.5v-8.5"/>
		<path fill="#5ABBEA" d="M286.5,120.5v-7.7c0-0.8-0.7-1.5-1.5-1.5h-25.5c-0.8,0-1.5,0.7-1.5,1.5v7.7"/>
		<g>
			<g>
				<path fill="#7AB142" d="M266.1,145.9c0,1-0.8,1.8-1.8,1.8h-3.2c-1,0-1.8-0.8-1.8-1.8v-1.6c0-1,0.8-1.8,1.8-1.8h3.2
					c1,0,1.8,0.8,1.8,1.8V145.9z"/>
			</g>
			<g>
				<path fill="#7AB142" d="M275.8,145.9c0,1-0.8,1.8-1.8,1.8h-3.2c-1,0-1.8-0.8-1.8-1.8v-1.6c0-1,0.8-1.8,1.8-1.8h3.2
					c1,0,1.8,0.8,1.8,1.8V145.9z"/>
			</g>
			<g>
				<path fill="#7AB142" d="M285.4,145.9c0,1-0.8,1.8-1.8,1.8h-3.2c-1,0-1.8-0.8-1.8-1.8v-1.6c0-1,0.8-1.8,1.8-1.8h3.2
					c1,0,1.8,0.8,1.8,1.8V145.9z"/>
			</g>
			<g>
				<path fill="#7AB142" d="M266.1,153.4c0,1-0.8,1.8-1.8,1.8h-3.2c-1,0-1.8-0.8-1.8-1.8v-1.6c0-1,0.8-1.8,1.8-1.8h3.2
					c1,0,1.8,0.8,1.8,1.8V153.4z"/>
			</g>
			<g>
				<path fill="#7AB142" d="M275.8,153.4c0,1-0.8,1.8-1.8,1.8h-3.2c-1,0-1.8-0.8-1.8-1.8v-1.6c0-1,0.8-1.8,1.8-1.8h3.2
					c1,0,1.8,0.8,1.8,1.8V153.4z"/>
			</g>
			<g>
				<path fill="#7AB142" d="M285.4,153.4c0,1-0.8,1.8-1.8,1.8h-3.2c-1,0-1.8-0.8-1.8-1.8v-1.6c0-1,0.8-1.8,1.8-1.8h3.2
					c1,0,1.8,0.8,1.8,1.8V153.4z"/>
			</g>
			<g>
				<path fill="#7AB142" d="M266.1,161.3c0,1-0.8,1.8-1.8,1.8h-3.2c-1,0-1.8-0.8-1.8-1.8v-1.6c0-1,0.8-1.8,1.8-1.8h3.2
					c1,0,1.8,0.8,1.8,1.8V161.3z"/>
			</g>
			<g>
				<path fill="#7AB142" d="M275.8,161.3c0,1-0.8,1.8-1.8,1.8h-3.2c-1,0-1.8-0.8-1.8-1.8v-1.6c0-1,0.8-1.8,1.8-1.8h3.2
					c1,0,1.8,0.8,1.8,1.8V161.3z"/>
			</g>
			<g>
				<path fill="#7AB142" d="M285.4,161.3c0,1-0.8,1.8-1.8,1.8h-3.2c-1,0-1.8-0.8-1.8-1.8v-1.6c0-1,0.8-1.8,1.8-1.8h3.2
					c1,0,1.8,0.8,1.8,1.8V161.3z"/>
			</g>
			<g>
				<path fill="#7AB142" d="M266.1,169.1c0,1-0.8,1.8-1.8,1.8h-3.2c-1,0-1.8-0.8-1.8-1.8v-1.6c0-1,0.8-1.8,1.8-1.8h3.2
					c1,0,1.8,0.8,1.8,1.8V169.1z"/>
			</g>
			<g>
				<path fill="#7AB142" d="M275.8,169.1c0,1-0.8,1.8-1.8,1.8h-3.2c-1,0-1.8-0.8-1.8-1.8v-1.6c0-1,0.8-1.8,1.8-1.8h3.2
					c1,0,1.8,0.8,1.8,1.8V169.1z"/>
			</g>
			<g>
				<path fill="#7AB142" d="M285.4,169.1c0,1-0.8,1.8-1.8,1.8h-3.2c-1,0-1.8-0.8-1.8-1.8v-1.6c0-1,0.8-1.8,1.8-1.8h3.2
					c1,0,1.8,0.8,1.8,1.8V169.1z"/>
			</g>
		</g>
		<path fill="#4B505E" d="M287.1,58.9c0-1.3-1-2.3-2.3-2.3h-0.7c-1.3,0-2.3,1-2.3,2.3v13.6c0,1.3,1,2.3,2.3,2.3h0.7
			c1.3,0,2.3-1,2.3-2.3V58.9z"/>
	</g>
	<g>
		<g>
			<path fill="#4B505E" d="M223.3,270.5c0-0.8-0.3-1.8-0.9-2.8l-22-39.5c-0.1-0.2-0.3-0.4-0.5-0.6v-92.8c0-1.7-1.4-3.2-3.2-3.2
				h-79.1H38.5c-1.7,0-3.2,1.4-3.2,3.2v92.9h0.4c-0.1,0.2-0.3,0.4-0.4,0.5l-22.4,39.6c-0.7,1.1-1,2.2-0.9,3.1h0v2.3h0
				c0.2,1.9,1.9,3.2,4.7,3.2h101h100.9c3.1,0,4.8-1.6,4.7-3.9h0L223.3,270.5L223.3,270.5z"/>
		</g>
		<polyline fill="#3FA8DF" points="43.1,179.3 43.1,221.2 192.1,221.2 192.1,179.3 		"/>
		<polyline fill="#5ABBEA" points="192.1,179.3 192.1,137.9 43.1,137.9 43.1,179.3 		"/>
		<g>
			<path fill="#3FA8DF" d="M146.8,267.8c0.1,0.5-0.2,0.9-0.7,0.9H89.2c-0.5,0-0.8-0.4-0.7-0.9l2.2-10.5c0.1-0.5,0.6-0.9,1.1-0.9
				h51.8c0.5,0,1,0.4,1.1,0.9L146.8,267.8z"/>
		</g>
		<polygon fill="#7AB142" points="162.3,249.8 33.4,249.8 41.3,233.4 157.5,233.4 		"/>
		<polygon fill="#7AB142" points="202,249.8 169.1,249.8 163.9,233.4 193.8,233.4 		"/>
	</g>
</g>
</svg>
