<?xml version="1.0" encoding="utf-8"?>
<!-- Generator: Adobe Illustrator 18.0.0, SVG Export Plug-In . SVG Version: 6.00 Build 0)  -->
<!DOCTYPE svg PUBLIC "-//W3C//DTD SVG 1.1//EN" "http://www.w3.org/Graphics/SVG/1.1/DTD/svg11.dtd">
<svg version="1.1" id="Layer_1" xmlns="http://www.w3.org/2000/svg" xmlns:xlink="http://www.w3.org/1999/xlink" x="0px" y="0px"
	 viewBox="0 0 350 350" enable-background="new 0 0 350 350" xml:space="preserve">
<g>
	<circle fill="#D2D7E7" cx="175" cy="175" r="175"/>
	<g>
		<g>
			<path fill="#4B505E" d="M133.7,66.3h-112v115.9v3.6v11.1h101.7v9.3c-18,0.4-42.4,1.4-42.4,1.4c-0.6,0-1.2,0.5-1.5,1l-2.2,4.9
				c-0.2,0.5-0.4,1.4-0.4,2v1.3c0,0.6,0.5,1,1,1h57h54.4c0.6,0,1-0.5,1-1v-1.3c0-0.6-0.2-1.4-0.4-2l-2.2-4.9c-0.2-0.5-0.9-1-1.5-1
				c0,0-24.4-1-42.4-1.4v-9.3h101v-11.1v-3.6V66.3H133.7z"/>
		</g>
		<polyline fill="#3FA8DF" points="33.6,126.4 33.6,175.6 233,175.6 233,126.4 		"/>
		<polyline fill="#5ABBEA" points="233,127.2 233,76.6 33.6,76.6 33.6,127.2 		"/>
		<path fill="#7AB142" d="M148.2,187.3c0,1.3-1,2.3-2.3,2.3h-24.5c-1.3,0-2.3-1-2.3-2.3v-4.4c0-1.3,29.1-1.3,29.1,0V187.3z"/>
	</g>
	<g>
		<path fill="#3FA8DF" d="M332.9,268c-0.1-2.8-0.4-5.2-3.1-13.7c-2.7-8.5-4.4-10.7-4.4-10.7c-0.4-0.5-1.2-1.1-1.8-1.4
			c0,0-14.4-4.7-36.8-4.7c-22.5,0-36.2,5.2-36.2,5.2c-0.6,0.2-1.3,0.8-1.6,1.4c0,0-5.7,13.4-6.7,18c-1,4.6-1.1,7.8-1,9.7
			c0.1,1.9,1,3.3,3.7,5.4c2.7,2.1,5.2,2.3,5.2,2.3c0.6,0.1,1.7,0.2,2.3,0.2c0,0,3.1,0.3,7.6,0.6v0.2c0,1.3,1.1,2.4,2.4,2.4h3.5
			c1.2,0,2.2-0.9,2.3-2c6.2,0.4,13,0.7,18,0.6c5.4,0,12.5-0.3,19-0.5c0.2,1.1,1.2,1.9,2.3,1.9h3.5c1.3,0,2.3-1,2.3-2.3
			c3.9-0.2,7-0.4,8.2-0.5c3.7-0.3,5-0.7,8.8-3.6C334.3,273.7,333,270.8,332.9,268z"/>
		<path fill="#4B505E" d="M297.6,136.3h-10.5h-10.5c-5.1,0-9.2,4.2-9.1,9.2c0,0-0.2,3.7,0.4,42.2c0,39.4,1.5,66.1,1.5,66.1
			c0,2.1,11.2,4.6,11.9,4.6h5.4h5.9c2.4,0,12.4-2.9,12.4-4.6c0,0,1.5-34.4,1.5-68.3c0.3-34,0.3-38.5,0.3-38.5
			C306.8,140.5,302.7,136.3,297.6,136.3z"/>
		<circle fill="#7AB142" cx="287.1" cy="155.7" r="10.3"/>
		<g>
			<circle fill="#FFFFFF" cx="284.2" cy="155.7" r="1.1"/>
			<circle fill="#FFFFFF" cx="287.1" cy="155.7" r="1.1"/>
			<circle fill="#FFFFFF" cx="290" cy="155.7" r="1.1"/>
		</g>
		<path fill="#3FA8DF" d="M272.1,187.2v8.8c0,0.8,0.7,1.5,1.5,1.5h26.4c0.8,0,1.5-0.7,1.5-1.5v-8.8"/>
		<path fill="#5ABBEA" d="M301.6,188v-7.9c0-0.8-0.7-1.5-1.5-1.5h-26.4c-0.8,0-1.5,0.7-1.5,1.5v7.9"/>
		<g>
			<g>
				<path fill="#7AB142" d="M280.5,214.3c0,1-0.8,1.8-1.8,1.8h-3.5c-1,0-1.8-0.8-1.8-1.8v-1.7c0-1,0.8-1.8,1.8-1.8h3.5
					c1,0,1.8,0.8,1.8,1.8V214.3z"/>
			</g>
			<g>
				<path fill="#7AB142" d="M290.5,214.3c0,1-0.8,1.8-1.8,1.8h-3.5c-1,0-1.8-0.8-1.8-1.8v-1.7c0-1,0.8-1.8,1.8-1.8h3.5
					c1,0,1.8,0.8,1.8,1.8V214.3z"/>
			</g>
			<g>
				<path fill="#7AB142" d="M300.5,214.3c0,1-0.8,1.8-1.8,1.8h-3.5c-1,0-1.8-0.8-1.8-1.8v-1.7c0-1,0.8-1.8,1.8-1.8h3.5
					c1,0,1.8,0.8,1.8,1.8V214.3z"/>
			</g>
			<g>
				<path fill="#7AB142" d="M280.5,222.1c0,1-0.8,1.8-1.8,1.8h-3.5c-1,0-1.8-0.8-1.8-1.8v-1.7c0-1,0.8-1.8,1.8-1.8h3.5
					c1,0,1.8,0.8,1.8,1.8V222.1z"/>
			</g>
			<g>
				<path fill="#7AB142" d="M290.5,222.1c0,1-0.8,1.8-1.8,1.8h-3.5c-1,0-1.8-0.8-1.8-1.8v-1.7c0-1,0.8-1.8,1.8-1.8h3.5
					c1,0,1.8,0.8,1.8,1.8V222.1z"/>
			</g>
			<g>
				<path fill="#7AB142" d="M300.5,222.1c0,1-0.8,1.8-1.8,1.8h-3.5c-1,0-1.8-0.8-1.8-1.8v-1.7c0-1,0.8-1.8,1.8-1.8h3.5
					c1,0,1.8,0.8,1.8,1.8V222.1z"/>
			</g>
			<g>
				<path fill="#7AB142" d="M280.5,230.3c0,1-0.8,1.8-1.8,1.8h-3.5c-1,0-1.8-0.8-1.8-1.8v-1.7c0-1,0.8-1.8,1.8-1.8h3.5
					c1,0,1.8,0.8,1.8,1.8V230.3z"/>
			</g>
			<g>
				<path fill="#7AB142" d="M290.5,230.3c0,1-0.8,1.8-1.8,1.8h-3.5c-1,0-1.8-0.8-1.8-1.8v-1.7c0-1,0.8-1.8,1.8-1.8h3.5
					c1,0,1.8,0.8,1.8,1.8V230.3z"/>
			</g>
			<g>
				<path fill="#7AB142" d="M300.5,230.3c0,1-0.8,1.8-1.8,1.8h-3.5c-1,0-1.8-0.8-1.8-1.8v-1.7c0-1,0.8-1.8,1.8-1.8h3.5
					c1,0,1.8,0.8,1.8,1.8V230.3z"/>
			</g>
			<g>
				<path fill="#7AB142" d="M280.5,238.4c0,1-0.8,1.8-1.8,1.8h-3.5c-1,0-1.8-0.8-1.8-1.8v-1.7c0-1,0.8-1.8,1.8-1.8h3.5
					c1,0,1.8,0.8,1.8,1.8V238.4z"/>
			</g>
			<g>
				<path fill="#7AB142" d="M290.5,238.4c0,1-0.8,1.8-1.8,1.8h-3.5c-1,0-1.8-0.8-1.8-1.8v-1.7c0-1,0.8-1.8,1.8-1.8h3.5
					c1,0,1.8,0.8,1.8,1.8V238.4z"/>
			</g>
			<g>
				<path fill="#7AB142" d="M300.5,238.4c0,1-0.8,1.8-1.8,1.8h-3.5c-1,0-1.8-0.8-1.8-1.8v-1.7c0-1,0.8-1.8,1.8-1.8h3.5
					c1,0,1.8,0.8,1.8,1.8V238.4z"/>
			</g>
		</g>
		<path fill="#4B505E" d="M302.2,124.3c0-1.3-1.1-2.4-2.4-2.4h-0.7c-1.3,0-2.4,1.1-2.4,2.4v14c0,1.3,1.1,2.4,2.4,2.4h0.7
			c1.3,0,2.4-1.1,2.4-2.4V124.3z"/>
	</g>
</g>
</svg>
