<?xml version="1.0" encoding="utf-8"?>
<!-- Generator: Adobe Illustrator 18.0.0, SVG Export Plug-In . SVG Version: 6.00 Build 0)  -->
<!DOCTYPE svg PUBLIC "-//W3C//DTD SVG 1.1//EN" "http://www.w3.org/Graphics/SVG/1.1/DTD/svg11.dtd">
<svg version="1.1" xmlns="http://www.w3.org/2000/svg" xmlns:xlink="http://www.w3.org/1999/xlink" x="0px" y="0px"
	 viewBox="0 0 350 350" enable-background="new 0 0 350 350" xml:space="preserve">
<g id="Layer_6">
</g>
<g id="Layer_1">
</g>
<g id="Layer_2">
</g>
<g id="Layer_3">
</g>
<g id="Layer_4">
</g>
<g id="Layer_5">
</g>
<g id="Layer_7">
	<g>
		<circle fill="#D1D6E6" cx="175" cy="175" r="175"/>
		<path fill="#6B7384" d="M249.5,297.3H99.6c-6.4,0-11.6-5.2-11.6-11.6V95.4c0-6.4,5.2-11.6,11.6-11.6h149.9
			c6.4,0,11.6,5.2,11.6,11.6v190.3C261.1,292.1,255.9,297.3,249.5,297.3z"/>
		<rect x="101.7" y="99.5" fill="#FFFFFF" width="147.1" height="179.7"/>
		
			<rect x="119.6" y="150.5" fill="none" stroke="#D1D6E6" stroke-width="4.1322" stroke-miterlimit="10" width="111.4" height="69.8"/>
		<rect x="198.5" y="232.7" fill="#19388A" width="33.1" height="32.4"/>
		
			<rect x="119.6" y="117.9" fill="none" stroke="#D1D6E6" stroke-width="3.3147" stroke-miterlimit="10" width="111.4" height="20.3"/>
		<path fill="#FFFFFF" d="M211.2,254.1l5.3-5.3l-5.3-5.3l2.2-2.2l5.3,5.3l2.2,2.2l-7.5,7.5L211.2,254.1z"/>
		<g>
			<polygon fill="#0C8FD0" points="194.5,183.8 200.8,183.8 175.2,164.9 163.7,173.5 163.7,170.8 157.6,170.8 157.6,178 
				149.7,183.8 156,183.8 156,200.9 150.5,200.9 150.5,204.7 200,204.7 200,200.9 194.5,200.9 			"/>
			<rect x="159.3" y="186.6" fill="#FFFFFF" width="8" height="7"/>
			<rect x="183.1" y="186.6" fill="#FFFFFF" width="8" height="7"/>
			<rect x="170.8" y="186.7" fill="#FFFFFF" width="8.9" height="14.4"/>
		</g>
		<circle fill="#7BB227" cx="175.2" cy="82" r="48.3"/>
		<path fill="#FFFFFF" d="M188.3,57.3c3.5,2.5,5.2,6.2,5.2,11.2c0,2.6-0.8,5.1-2.5,7.5c-0.5,0.8-2.3,2.4-5.3,4.9l-2.8,1.8
			c-1.6,1.4-2.6,2.6-2.9,3.6c-0.2,0.6-0.4,1.5-0.5,2.7c0,0.6-0.3,0.8-1,0.8h-7.8c-0.6,0-1-0.2-1-0.7c0.2-4,0.7-6.5,1.7-7.5
			c0.6-0.9,1.6-1.9,2.9-2.9c1.3-1.1,2.4-1.9,3.4-2.6l1.5-0.8c0.9-0.6,1.6-1.3,2.1-2.1c1.1-1.8,1.7-3.2,1.7-4.3
			c0-1.6-0.5-3.2-1.6-4.7c-1.1-1.5-3-2.2-5.6-2.2c-2.8,0-4.7,0.9-5.7,2.7c-1.1,1.7-1.7,3.6-1.7,5.6h-10.1c0.2-6.6,2.5-11.2,6.9-14.1
			c2.8-1.7,6.2-2.5,10.1-2.5C180.6,53.7,184.9,54.9,188.3,57.3z M175.2,95.9c1.8,0,3.3,0.6,4.4,1.8c1.2,1.2,1.7,2.7,1.6,4.6
			c-0.1,1.8-0.7,3.3-1.9,4.4c-1.2,1.1-2.7,1.6-4.5,1.6s-3.3-0.6-4.4-1.8c-1.2-1.2-1.7-2.7-1.6-4.6c0.1-1.9,0.7-3.3,1.9-4.4
			C172,96.3,173.5,95.8,175.2,95.9z"/>
	</g>
</g>
</svg>
