<?xml version="1.0" encoding="utf-8"?>
<!-- Generator: Adobe Illustrator 18.0.0, SVG Export Plug-In . SVG Version: 6.00 Build 0)  -->
<!DOCTYPE svg PUBLIC "-//W3C//DTD SVG 1.1//EN" "http://www.w3.org/Graphics/SVG/1.1/DTD/svg11.dtd">
<svg version="1.1" xmlns="http://www.w3.org/2000/svg" xmlns:xlink="http://www.w3.org/1999/xlink" x="0px" y="0px"
	 viewBox="0 0 350 350" enable-background="new 0 0 350 350" xml:space="preserve">
<g id="Layer_6">
</g>
<g id="Layer_1">
</g>
<g id="Layer_2">
</g>
<g id="Layer_3">
</g>
<g id="Layer_4">
</g>
<g id="Layer_5">
</g>
<g id="Layer_7">
	<g>
		<circle fill="#D1D6E6" cx="175" cy="175" r="175"/>
		<path fill="#6B7384" d="M249.5,297.3H99.6c-6.4,0-11.6-5.2-11.6-11.6V95.4c0-6.4,5.2-11.6,11.6-11.6h149.9
			c6.4,0,11.6,5.2,11.6,11.6v190.3C261.1,292.1,255.9,297.3,249.5,297.3z"/>
		<rect x="101.7" y="99.5" fill="#FFFFFF" width="147.1" height="179.7"/>
		
			<rect x="119.6" y="150.5" fill="none" stroke="#D1D6E6" stroke-width="4.1322" stroke-miterlimit="10" width="111.4" height="69.8"/>
		<rect x="198.5" y="232.7" fill="#19388A" width="33.1" height="32.4"/>
		
			<rect x="119.6" y="117.9" fill="none" stroke="#D1D6E6" stroke-width="3.3147" stroke-miterlimit="10" width="111.4" height="20.3"/>
		<path fill="#FFFFFF" d="M211.2,254.1l5.3-5.3l-5.3-5.3l2.2-2.2l5.3,5.3l2.2,2.2l-7.5,7.5L211.2,254.1z"/>
		<g>
			<polygon fill="#0C8FD0" points="194.5,183.8 200.8,183.8 175.2,164.9 163.7,173.5 163.7,170.8 157.6,170.8 157.6,178 
				149.7,183.8 156,183.8 156,200.9 150.5,200.9 150.5,204.7 200,204.7 200,200.9 194.5,200.9 			"/>
			<rect x="159.3" y="186.6" fill="#FFFFFF" width="8" height="7"/>
			<rect x="183.1" y="186.6" fill="#FFFFFF" width="8" height="7"/>
			<rect x="170.8" y="186.7" fill="#FFFFFF" width="8.9" height="14.4"/>
		</g>
		<g>
			<circle fill="#7BB227" cx="175.2" cy="82" r="48.3"/>
			<g>
				<path fill="#FFFFFF" d="M193.7,103.6l7.3-7.8l6.8,6.3c0.8-3.6-0.3-7.5-3.2-10.2c-3.3-3.1-8-3.7-11.8-2l-25.8-24.1
					c1.5-4,0.5-8.6-2.8-11.6c-2.9-2.7-6.9-3.5-10.4-2.5l6.9,6.4l-7.3,7.8l-7-6.6c-1,3.7,0.1,7.8,3.1,10.6c3.3,3.1,8.1,3.7,12,1.9
					l25.7,24c-1.6,4-0.7,8.7,2.7,11.9c3,2.8,7.2,3.6,10.8,2.4L193.7,103.6z"/>
				<path fill="#FFFFFF" d="M205,68.1c-1-3.6-3.2-5.4-3.2-5.4l-7.9-7.4c-1.5,0.9-3.5,0.8-4.9-0.5c-1.4-1.3-1.7-3.3-0.8-4.9l-2-1.9
					l-7.3,7.8l2.1,2c1.5-0.8,3.4-0.5,4.6,0.7c1.3,1.2,1.6,3.1,1,4.6l1.6,1.5l-19.4,20.7l5,4.7l19.4-20.7l1.4,1.3l1-1
					c0.4-0.1,1.9-0.5,3.3,0.3c1.6,1,2.8,3.3,3.6,5.2s1.6,4.6,1.6,4.6l2.6-0.8C206.5,78.7,206.5,73.6,205,68.1z"/>
				<path fill="#FFFFFF" d="M173.6,93.1c2.1-2.2,2-5.7-0.3-7.8c-2.2-2.1-5.7-2-7.8,0.3c-0.1,0.1-0.1,0.1-0.2,0.2l0,0l-15.5,16.6l0,0
					c-1.7,2.2-1.4,5.4,0.7,7.4c2.1,1.9,5.3,2,7.4,0.2l0,0l15.5-16.6l0,0C173.5,93.2,173.6,93.1,173.6,93.1z"/>
			</g>
		</g>
	</g>
</g>
</svg>
