<?xml version="1.0" encoding="utf-8"?>
<!-- Generator: Adobe Illustrator 18.0.0, SVG Export Plug-In . SVG Version: 6.00 Build 0)  -->
<!DOCTYPE svg PUBLIC "-//W3C//DTD SVG 1.1//EN" "http://www.w3.org/Graphics/SVG/1.1/DTD/svg11.dtd">
<svg version="1.1" xmlns="http://www.w3.org/2000/svg" xmlns:xlink="http://www.w3.org/1999/xlink" x="0px" y="0px"
	 viewBox="0 0 350 350" enable-background="new 0 0 350 350" xml:space="preserve">
<g id="Layer_6">
</g>
<g id="Layer_1">
</g>
<g id="Layer_2">
</g>
<g id="Layer_3">
</g>
<g id="Layer_4">
</g>
<g id="Layer_5">
	<g>
		<circle fill="#D1D6E6" cx="175" cy="175" r="175"/>
		<g>
			<path fill="#4B505E" d="M295.7,254.5c0-1-0.3-2-1-3.2L269,205.5V99.4c0-2-1.6-3.6-3.6-3.6H175H84.6c-2,0-3.6,1.6-3.6,3.6v106.1
				l-25.7,45.8c-0.8,1.3-1.1,2.5-1,3.5h0v2.6h0c0.3,2.2,2.2,3.6,5.3,3.6H175h115.2c3.5,0,5.5-1.8,5.4-4.4h0L295.7,254.5L295.7,254.5
				z"/>
		</g>
		<polygon fill="#FFFFFF" points="89.9,103 89.9,150.3 89.9,198.2 260.1,198.2 260.1,150.3 260.1,103 		"/>
		<g>
			<path fill="#6B7384" d="M208.4,251.7c0.1,0.4-0.2,0.7-0.6,0.7h-65.6c-0.4,0-0.7-0.3-0.6-0.7l2.6-12.5c0.1-0.4,0.5-0.7,0.9-0.7
				h59.8c0.4,0,0.8,0.3,0.9,0.7L208.4,251.7z"/>
		</g>
		<polygon fill="#6B7384" points="226,230.8 78.9,230.8 87.8,212.1 220.5,212.1 		"/>
		<polygon fill="#6B7384" points="271.4,230.8 233.7,230.8 227.9,212.1 261.9,212.1 		"/>
		<g>
			<path fill="#0C8FD0" d="M203.9,121.1h-56.2c-1,0-2.6,0-3.8,0v-3.5c0-1.3-1-2.3-2.3-2.3h-31.9c-1.3,0-2.3,1-2.3,2.3v5.9v3.5
				c0,1.3,0,3.4,0,4.6v3.8v47.1c0,1.3,1,2.3,2.3,2.3h94.2c1.3,0,2.3-1,2.3-2.3v-59C206.2,122.2,205.2,121.1,203.9,121.1z"/>
			<path fill="#5CC1F5" d="M211,132.3c0.1-1.3-0.8-2.3-2.1-2.3H104.7c-1.3,0-2.2,1-2.1,2.3l4.7,50.2c0.1,1.2,1.2,2.3,2.5,2.3h94.3
				c1.3,0,2.4-1,2.5-2.3L211,132.3z"/>
		</g>
		<g>
			<path fill="#FFFFFF" d="M177.2,177.3c0,0.5,0,1.3-0.1,2.4h-40.7v-1.2c0-0.5,0-0.9,0-1.2c0-0.8,0-1.2,0-1.4
				c0.3-1.2,1.1-2.3,2.4-3.2c1.3-0.9,2.7-1.6,4.3-2c1.5-0.4,3.1-1,4.8-1.8c1.7-0.8,2.9-1.6,3.7-2.5c0.4-0.6,0.6-1,0.6-1.4
				c0-0.6-0.1-1.5-0.4-2.8c-0.1-0.5-0.2-1-0.4-1.4c-0.2-0.4-0.4-0.8-0.6-1.3c-0.3-0.4-0.5-0.8-0.6-1.2c-0.4-0.9-0.8-2.6-1.3-5
				c-0.2-1-0.2-1.9-0.2-2.9c0-2.7,0.7-4.8,2.1-6.4c1.4-1.6,3.4-2.4,6-2.4s4.6,0.8,6,2.4c1.4,1.6,2.1,3.7,2,6.4
				c0,0.8-0.1,1.7-0.3,2.9c-0.4,2.3-0.8,3.9-1.2,5c-0.2,0.4-0.3,0.8-0.6,1.2s-0.4,0.9-0.6,1.3c-0.2,0.4-0.3,0.9-0.4,1.4
				c-0.3,1.3-0.4,2.2-0.4,2.8c0,0.5,0.2,0.9,0.6,1.4c0.8,0.9,2,1.7,3.7,2.5c1.7,0.7,3.3,1.3,4.8,1.8c1.5,0.5,2.9,1.1,4.2,2
				c1.3,0.9,2.1,2,2.4,3.2C177.2,176,177.2,176.5,177.2,177.3z"/>
		</g>
		<path fill="#7BB227" d="M274.9,165.8c-1.1-6,1.3-11.9,5.7-15.5c-1-2.1-2.1-4.1-3.3-6c-5.4,2.1-11.7,1.3-16.5-2.7
			c-4.8-4-6.7-10.3-5.4-16c-2.2-1-4.5-1.8-6.8-2.5c-2.7,5.2-8.2,8.7-14.5,8.7c-6.1,0-11.5-3.4-14.3-8.4c-2.4,0.7-4.7,1.6-6.9,2.7
			c1,5.6-0.9,11.5-5.5,15.4c-4.4,3.7-10.2,4.7-15.3,3.1c-1.3,2.1-2.5,4.2-3.5,6.5c3.8,3.7,5.7,9.1,4.7,14.6c-1,5.2-4.3,9.5-8.7,11.7
			c0.3,3,0.9,5.9,1.8,8.8c4.8,0.6,9.3,3.4,11.9,7.9c2.6,4.4,2.9,9.4,1.3,13.8c2,1.9,4.1,3.7,6.3,5.2c4.1-2.3,9.1-2.9,13.8-1.1
			c4.7,1.8,8.2,5.5,9.7,9.9c1.8,0.2,3.6,0.3,5.5,0.3c1.3,0,2.6-0.1,4-0.2c1.5-4.5,5-8.3,9.8-10.1c5-1.9,10.4-1.1,14.6,1.6
			c2.1-1.4,4.1-3,5.9-4.7c-2-4.6-1.9-10.1,0.8-14.9c2.9-5,8.1-7.8,13.5-8.1c0.8-2.6,1.3-5.3,1.7-8
			C279.9,176.1,275.9,171.6,274.9,165.8z M234.8,197.7c-13.8,0-25-11.2-25-25c0-13.8,11.2-25,25-25c13.8,0,25,11.2,25,25
			C259.7,186.5,248.5,197.7,234.8,197.7z"/>
	</g>
</g>
<g id="Layer_7">
</g>
</svg>
