<?xml version="1.0" encoding="utf-8"?>
<!-- Generator: Adobe Illustrator 18.0.0, SVG Export Plug-In . SVG Version: 6.00 Build 0)  -->
<!DOCTYPE svg PUBLIC "-//W3C//DTD SVG 1.1//EN" "http://www.w3.org/Graphics/SVG/1.1/DTD/svg11.dtd">
<svg version="1.1" xmlns="http://www.w3.org/2000/svg" xmlns:xlink="http://www.w3.org/1999/xlink" x="0px" y="0px"
	 viewBox="0 0 350 350" enable-background="new 0 0 350 350" xml:space="preserve">
<g id="Layer_6">
</g>
<g id="Layer_1">
</g>
<g id="Layer_2">
	<circle fill="#D1D6E6" cx="175" cy="175" r="175"/>
	<g>
		<path fill="#0C8FD0" d="M179,206.2c-1.9,1.5-5.1,1.5-7,0l-85.9-50.5c-1.9-1.5-1.9-4,0.1-5.4l85.8-64.2c2-1.5,5.2-1.5,7.1,0
			l84.8,64.2c2,1.5,2,3.9,0.1,5.5L179,206.2z"/>
	</g>
	<g>
		<path fill="#F0F0F0" d="M178.7,211.9c-1.8,1.4-4.8,1.4-6.6,0l-80.5-47.3c-1.8-1.4-1.8-3.7,0.1-5.1l80.4-60.2
			c1.8-1.4,4.9-1.4,6.7,0l79.5,60.2c1.8,1.4,1.9,3.7,0.1,5.1L178.7,211.9z"/>
	</g>
	<g>
		<g>
			<path fill="#4B505E" d="M263.9,150.3c0.1,0,0.1,0.1,0.2,0.1c-0.3-0.3-0.6-0.6-1-0.8L263.9,150.3z"/>
			<path fill="#4B505E" d="M86.1,150.3l1-0.7c-0.5,0.2-0.9,0.6-1.3,1C85.9,150.5,86,150.4,86.1,150.3z"/>
			<path fill="#4B505E" d="M263.9,155.8l-85,50.4c-1.9,1.5-5.1,1.5-7,0l-85.9-50.5c-0.8-0.6-1.3-1.4-1.4-2.3c0,0,0,0,0,0.1l0,100.7
				c0,2.5,2,4.5,4.5,4.5h171.6c2.5,0,4.5-2,4.5-4.5l0.1-100.7C265.2,154.3,264.7,155.1,263.9,155.8z"/>
		</g>
		<path fill="#6B7384" d="M84.7,255.3c0,1.8,2,3.4,4.5,3.4h171.6c2.5,0,4.5-1.3,4.5-2.9s-1.7-3.9-3.8-5.1l-82.1-48.4
			c-2.1-1.2-5.6-1.3-7.7-0.1l-83,47.5C86.4,251,84.7,253.5,84.7,255.3z"/>
	</g>
</g>
<g id="Layer_3">
</g>
<g id="Layer_4">
</g>
<g id="Layer_5">
	<path fill="#7BB227" d="M215.6,168.8c-1.1-6,1.3-11.9,5.7-15.5c-1-2.1-2.1-4.1-3.3-6c-5.4,2.1-11.7,1.3-16.5-2.7
		c-4.8-4-6.7-10.3-5.4-16c-2.2-1-4.5-1.8-6.8-2.5c-2.7,5.2-8.2,8.7-14.5,8.7c-6.1,0-11.5-3.4-14.3-8.4c-2.4,0.7-4.7,1.6-6.9,2.7
		c1,5.6-0.9,11.5-5.5,15.4c-4.4,3.7-10.2,4.7-15.3,3.1c-1.3,2.1-2.5,4.2-3.5,6.5c3.8,3.7,5.7,9.1,4.7,14.6c-1,5.2-4.3,9.5-8.7,11.7
		c0.3,3,0.9,5.9,1.8,8.8c4.8,0.6,9.3,3.4,11.9,7.9c2.6,4.4,2.9,9.4,1.3,13.8c2,1.9,4.1,3.7,6.3,5.2c4.1-2.3,9.1-2.9,13.8-1.1
		c4.7,1.8,8.2,5.5,9.7,9.9c1.8,0.2,3.6,0.3,5.5,0.3c1.3,0,2.6-0.1,4-0.2c1.5-4.5,5-8.3,9.8-10.1c5-1.9,10.4-1.1,14.6,1.6
		c2.1-1.4,4.1-3,5.9-4.7c-2-4.6-1.9-10.1,0.8-14.9c2.9-5,8.1-7.8,13.5-8.1c0.8-2.6,1.3-5.3,1.7-8
		C220.6,179.1,216.6,174.6,215.6,168.8z M175.5,200.7c-13.8,0-25-11.2-25-25c0-13.8,11.2-25,25-25c13.8,0,25,11.2,25,25
		C200.4,189.5,189.3,200.7,175.5,200.7z"/>
</g>
<g id="Layer_7">
</g>
</svg>
