<?xml version="1.0" encoding="utf-8"?>
<!-- Generator: Adobe Illustrator 18.0.0, SVG Export Plug-In . SVG Version: 6.00 Build 0)  -->
<!DOCTYPE svg PUBLIC "-//W3C//DTD SVG 1.1//EN" "http://www.w3.org/Graphics/SVG/1.1/DTD/svg11.dtd">
<svg version="1.1" id="icon-internet-id-adult" xmlns="http://www.w3.org/2000/svg" xmlns:xlink="http://www.w3.org/1999/xlink"
	 x="0px" y="0px" viewBox="0 0 114 114" enable-background="new 0 0 114 114" xml:space="preserve">
<g>
	<circle fill="#D1D6E6" cx="57" cy="57" r="57"/>
	<g>
		<path fill="#4B505E" d="M110.7,30.7c0-2.9-2.3-5.2-5.2-5.2H8.6c-2.9,0-5.2,2.3-5.2,5.2v52.7c0,2.9,2.3,5.2,5.2,5.2h96.9
			c2.9,0,5.2-2.3,5.2-5.2V62c0-2.9,0-7.6,0-10.4V30.7z"/>
		<polygon fill="none" points="110.7,25.5 3.3,25.5 3.3,88.5 110.7,88.5 110.7,56.8 110.7,25.5 		"/>
		<path fill="none" d="M110.7,30.7c0-2.9-2.3-5.2-5.2-5.2H8.6c-2.9,0-5.2,2.3-5.2,5.2v52.7c0,2.9,2.3,5.2,5.2,5.2h96.9
			c2.9,0,5.2-2.3,5.2-5.2V62c0-2.9,0-7.6,0-10.4V30.7z"/>
		<g>
			<defs>
				<path id="SVGID_3_" d="M110.7,30.7c0-2.9-2.3-5.2-5.2-5.2H8.6c-2.9,0-5.2,2.3-5.2,5.2v52.7c0,2.9,2.3,5.2,5.2,5.2h96.9
					c2.9,0,5.2-2.3,5.2-5.2V62c0-2.9,0-7.6,0-10.4V30.7z"/>
			</defs>
			<clipPath id="SVGID_1_">
				<use xlink:href="#SVGID_3_"  overflow="visible"/>
			</clipPath>
			<g clip-path="url(#SVGID_1_)">
				<path fill="#6B7384" d="M84.4,99.6C84,99.1,83.8,98,83.1,98c-0.1,0.1,0.1,0.4,0,0.5c-0.3,0.3-0.9,0.9-1.4,1.1
					c-0.6,0.3-1.5,0.2-1.3,1.1c0.1,0.3,0.5,0.7,0.5,0.9c0,0-0.3,0.8-0.3,0.8c0,0-0.4,0.3-0.4,0.3c0,0.3,0.1,0.5,0.4,0.7
					c0,0.1,0,0.2,0,0.4c0.1,0.4,0.7,0.9,1.3,0.9c1.5,0,1.5-1.1,1.7-1.9c0.3-1,0.6-1.8,0.4-3c0,0,0.3,0,0.4,0.1L84.4,99.6z"/>
				<path fill="#6B7384" d="M98.8,87.4c0.2,0.5,0.1,0.9,0.3,1.4c0.1,0.2,0.4,0.5,0.7,0.5c0.4,0,0.5-0.4,0.4-0.7
					C99.9,88,99.2,87.8,98.8,87.4z"/>
				<path fill="#6B7384" d="M117.8,94.1l-0.4-0.7c-0.1-0.2-0.4-0.2-0.6-0.3c-0.3-0.2-0.7-0.3-0.9-0.6c-0.2,0-0.4-0.1-0.6-0.3l0-0.2
					c-0.1-0.1-0.2-0.2-0.3-0.2h-0.2c0,0,0-0.1,0-0.1c-0.1-0.3-0.6-0.3-0.9-0.4c-0.7-0.2-1-0.4-1.6-0.7c-0.3-0.2-0.6-0.4-0.9-0.5
					c-0.1,0-0.2,0-0.3-0.1c-0.3-0.3-0.6-0.5-1.1-0.6l-0.7,0c-0.2-0.1-0.3-0.2-0.5-0.2h-0.1l0.1,0.1c0.2,0.2,0.7,0.6,0.9,0.7
					c0.2,0,0.4,0,0.6,0.1c0.2,0.2,0.4,0.3,0.6,0.5c0.3,0.2,0.7,0.2,1.1,0.6c0.1,0.1,0.5,0.5,0.6,0.6c0.1,0,0.3,0.1,0.4,0.1
					c0.1,0.1,0.1,0.1,0.1,0.1c0.1,0,0.5,0.3,0.6,0.4c0.5,0.4,0.8,0.7,1.4,1c0.6,0.3,1,0.4,1.6,0.8c0,0,0.7,0.5,0.8,0.5
					c0.2,0,0.6,0,0.5-0.2C117.8,94.4,117.6,94.1,117.8,94.1z"/>
				<path fill="#6B7384" d="M118.9,92.3c0.1,0,0.2,0,0.3,0.1c0,0,0,0.1,0,0.1c0.5,0.3,0.5,0.9,1.3,0.9c0.2,0,0.2-0.1,0.4-0.1
					c0.1,0.1,0.2,0.3,0.2,0.3c0.1,0,0.2,0.1,0.2,0.1c0.3,0,0.3-0.2,0.4-0.2c0.4,0,0.7,0.2,1.1,0.3c0.1,0.1,0.2,0.2,0.4,0.2
					c0.3,0,0.2-0.2,0.5-0.3c-0.1-0.2,0-0.4-0.1-0.6c-0.1-0.1-0.2-0.1-0.3-0.2c-0.1-0.1,0-0.4,0.2-0.4c-0.2-0.3-0.1-0.4-0.2-0.8
					l0-0.2c0.1,0,0.1,0,0.2,0c0.2,0,0.5,0.1,0.4-0.2c-0.4,0-1.5-0.8-1.7-1.1c0-0.1,0-0.1,0.1-0.1c-0.1-0.1-0.1-0.1-0.2-0.2
					c0,0,0.4-0.2,0.5-0.2c0,0-0.1,0-0.1-0.1c-0.1-0.1,0.4,0,0.3-0.2c-0.2-0.3-1-0.1-1.2-0.5c-0.2-0.3-0.2-0.4-0.6-0.4
					c-0.3,0-0.4,0.6-0.4,0.9c0,0.1-0.5,0.1-0.6,0.2c0,0,0,0.1,0,0.1c-0.1,0,0,0.1-0.1,0.1c0,0-0.1,0.1,0,0.2c-0.1,0.1,0,0.3-0.3,0.4
					c-0.2,0-0.4,0-0.5,0.1c-0.1,0.2,0.3,0.8-0.4,0.8c-0.3,0-0.8-0.1-0.6,0.2C118.2,91.7,118.8,92.3,118.9,92.3z"/>
				<path fill="#6B7384" d="M128.2,94c-0.1,0-0.4-0.2-0.5-0.3c0,0,0-0.1,0-0.1c-0.2-0.1-1-0.7-1-0.7c0.6,0,0.4-0.4,0.8-0.5l-0.1-0.1
					c-0.1,0-1.1,0.3-1.1,0.3l0-0.1c0,0.1,0,0.2-0.1,0.2c-0.3,0-0.7-0.3-0.8-0.6c-0.2-0.3,0.2-0.3,0.5-0.3c0.4,0,0.5-0.1,0.8-0.1
					c0.3,0,0.6,0.1,0.8,0.1c0.4,0,0.4-0.3,0.3-0.5c0.1,0,0-0.1,0-0.1l-0.1,0c-0.2,0.1-0.4,0.3-0.4,0.4l-0.2,0l-1.6-0.2
					c-0.6,0-0.4,0.6-0.2,1c0.1,0.1,0,0.2,0,0.3c0.1,0.4,0,0.5,0.2,0.9c0.1,0.2,0.4,0.2,0.6,0.2l0.5,0.8c0.1,0.1,0.3,0.2,0.5,0.2
					c0.2,0-0.1-0.6-0.1-0.7c-0.2-0.2-0.4-0.3-0.6-0.6c-0.1-0.1,0-0.2,0.2-0.2c0.1,0,0.1,0,0.2,0l0.2,0.4c0.1,0.2,0.6,0.3,0.7,0.5
					c0,0.1,0.1,0.1,0.1,0.2l0.3,0C127.8,94.1,128.3,94.1,128.2,94z"/>
				<path fill="#6B7384" d="M124.1,95.8c-0.1,0-0.1-0.2-0.3-0.2c-0.4,0-0.7,0-1.1-0.2c0.1,0,0.8,0,0.7-0.1l-0.2,0l-0.6,0.1
					c-0.4,0-0.7-0.3-1.2-0.3c-0.3,0-0.2,0.3-0.5,0.3c-0.7,0-1.3-0.5-2-0.5c-0.1,0-0.2,0.1-0.3,0.1c-0.1,0-0.2-0.1-0.2-0.1
					c-0.1,0-0.4,0.3-0.3,0.4c0.3,0,0.6,0.2,1,0.4c0.3,0.2,0.6,0,0.9,0.1c0.5,0.1,0.9,0.1,1.3,0.1c0.2,0,0.4,0.2,0.7,0.2
					c0.9,0,1.7,0,2.5,0.3c-0.1-0.1-0.2-0.2-0.1-0.2c0.3,0,0.3,0.1,0.5,0.1c0,0,0.1-0.1,0.1-0.2c-0.2,0-0.2-0.1-0.5-0.2
					C124.5,95.8,124.4,95.9,124.1,95.8z"/>
				<path fill="#6B7384" d="M128.2,96c-0.2,0-0.4,0-0.3,0.1c0.1,0.2,0.4,0.2,0.6,0.2V96C128.4,96,128.3,96,128.2,96z"/>
				<path fill="#6B7384" d="M127.3,96l-0.5,0c0,0.1,0,0.1,0.1,0.1c-0.1,0-0.3-0.1-0.5-0.1c-0.2,0-0.4,0-0.3,0.2
					c0,0.1,0.3,0.1,0.5,0.1c0.2,0,0.2-0.1,0.4-0.2l0.2,0.1h0.2C127.4,96.2,127.3,96.1,127.3,96z"/>
				<path fill="#6B7384" d="M128.3,96.5h-0.2c-0.2,0-0.4,0-0.4,0.1c0.1,0.2,0.5,0.2,0.7,0.2c0,0,0,0,0,0v-0.2
					C128.4,96.6,128.4,96.5,128.3,96.5z"/>
				<path fill="#6B7384" d="M125.6,96h-0.2l0.1,0.2c0,0,0.2,0.1,0.3,0.1c0.1,0,0.2-0.1,0.1-0.2C125.7,96.1,125.7,96,125.6,96z"/>
				<path fill="#6B7384" d="M125.1,87.3c0,0,0.2,0.2,0.2,0.3c0,0.1-0.4,0-0.2,0.2c-0.1,0-0.1,0.1,0,0.2c0,0-0.1,0-0.1,0
					c-0.1,0-0.3-0.2-0.5-0.2c-0.3,0,0,0.3-0.4,0.3c0.1,0.1,0,0.2,0.1,0.4c0,0,0.1,0.1,0.2,0.1c0,0.1,0.1,0.3,0.2,0.3
					c0.2,0-0.2-0.5-0.1-0.6c0,0,0.2,0.1,0.3,0.1c0,0,0-0.1,0-0.1c0.1,0,0.1,0.1,0.2,0.1c0,0-0.1-0.1-0.1-0.1l0.3,0
					c0,0,0.1,0.1,0.2,0.1c0,0,0,0.1,0,0.2c0.2,0.3,0.6,0.5,0.9,0.5c0.1,0,0.1,0,0.2,0c0,0,0.1,0.1,0.2,0.1c0.1,0,0.1-0.1,0.1-0.2
					c-0.1-0.2-0.4-0.2-0.4-0.3c-0.1-0.1,0-0.1,0-0.2c0.1,0,0.1,0.1,0.2,0.1l0,0c0.1,0.1,0.4,0.3,0.5,0.3c-0.2-0.2,0-0.3-0.1-0.5
					c-0.1-0.1-1-1-1.3-1.1C125.4,87.3,125.2,87.3,125.1,87.3z"/>
				<path fill="#6B7384" d="M121.9,87c-0.1-0.1-0.2-0.1-0.3-0.2c0,0,0,0.1,0,0.2c0,0.3-0.5,0.5-0.4,0.9l0.1,0
					c0.2-0.1,0.4-0.3,0.2-0.6c0.2,0,0.3,0,0.2-0.2C121.8,87.1,121.8,87,121.9,87z"/>
				<path fill="#6B7384" d="M123.3,86C123.3,86,123.3,85.9,123.3,86c0-0.1,0-0.2-0.1-0.2c-0.1,0-0.3-0.1-0.4-0.2c0,0-0.1,0-0.1,0
					c-0.1-0.1,0-0.1,0-0.2c0,0-0.1,0-0.1,0c-0.1,0,0,0.1-0.1,0.1c-0.1,0-0.4-0.3-0.6-0.3c-0.1,0-0.2,0.1-0.1,0.1c0,0,0,0.1,0,0.1
					c-0.3-0.1-0.8-0.4-0.9-0.7c-0.2-0.3,0.1-0.3-0.1-0.6c-0.2-0.2-0.6-0.5-0.7-0.7c0,0-0.1-0.1-0.1-0.1c0,0-0.1-0.1-0.1-0.1
					c-0.1,0,0,0.1-0.1,0.1c-0.2,0-0.3-0.3-0.5-0.3c-0.1,0-0.1,0.1,0,0.3c0.1,0.2,0.3,0.3,0.4,0.5c0.1,0.1,0.2,0.3,0.2,0.4
					c-0.2,0,0.1,0.3,0.2,0.5c0.1,0.1,0.5,0.3,0.6,0.3c0.1,0,0.1-0.1,0.1-0.1l0.1,0l0.1,0.1c0,0-0.1,0.1,0,0.2c0,0.1,0.3,0.2,0.4,0.2
					c0.1,0,0.1-0.1,0.2-0.1c0.3,0,0.5,0.3,0.8,0.3c-0.1-0.1-0.2-0.2-0.2-0.3c0.2,0.1,0.7,0.3,1,0.4C123.1,85.9,123.2,86,123.3,86z"
					/>
				<path fill="#6B7384" d="M124.7,86.6c0,0-0.2-0.1-0.2-0.1s-0.1-0.1-0.2-0.2c0,0-0.1,0-0.1,0c0,0-0.1-0.1-0.1-0.1
					c-0.1,0-0.3-0.1-0.4-0.1c-0.1,0-0.1,0-0.1,0.1c0.1,0.1,0.6,0.2,0.7,0.4c0,0,0,0.1,0,0.1c0,0-0.1,0-0.2,0l0.1,0.1
					c0,0,0.3,0.2,0.4,0.2l0.1,0.1c0,0.1,0.1,0.2,0.2,0.2c0.1,0,0.1,0,0.2,0l-0.1-0.1c-0.1,0-0.3-0.2-0.4-0.3l0.3,0
					C124.7,86.7,124.7,86.7,124.7,86.6z"/>
				<path fill="#6B7384" d="M123,87.1c0.1-0.1,0.5-0.2,0.3-0.5c-0.1-0.1-0.4-0.2-0.6-0.2c0,0-0.1,0-0.1,0c0,0-0.1,0-0.1,0.1
					C122.6,86.5,122.9,86.8,123,87.1z"/>
				<path fill="#6B7384" d="M123.5,87.3c0.1,0.1,0.6,0.4,0.7,0.4c0,0,0.1,0,0.1-0.1c-0.1-0.1-0.1-0.1-0.2-0.2
					c-0.1-0.2,0-0.3-0.1-0.5c-0.1-0.1-0.2-0.2-0.4-0.2c-0.1,0,0.1,0.4,0.1,0.4C123.6,87.2,123.5,87.3,123.5,87.3z"/>
				<path fill="#6B7384" d="M124.1,86.8c-0.1,0-0.1,0-0.2,0c0.2,0.3,0.1,0.4,0.2,0.6h0.1C124.1,87.2,124.3,87.1,124.1,86.8z"/>
				<path fill="#6B7384" d="M124.3,87.2c0,0.1-0.1,0.1,0,0.2c0,0,0.1,0.1,0.2,0.1c0.2,0,0.2-0.1,0.1-0.3
					C124.6,87.2,124.4,87.2,124.3,87.2z"/>
				<path fill="#6B7384" d="M123.6,86.4c-0.1-0.2-0.4-0.2-0.5-0.4l-0.2,0c0,0.1,0.1,0.1,0.1,0.2c0.1,0,0.2,0,0.3,0
					C123.4,86.3,123.7,86.5,123.6,86.4z"/>
				<path fill="#6B7384" d="M121.9,85.8c-0.2-0.2-0.4-0.1-0.7-0.3l-0.2,0c0,0,0.8,0.6,0.9,0.6C122,86.1,122,85.9,121.9,85.8z"/>
				<path fill="#6B7384" d="M121.8,85.6c0.1,0,0.2,0,0.2,0C122,85.6,121.9,85.6,121.8,85.6z"/>
				<path fill="#6B7384" d="M117.4,79.6c-0.3,0-0.2,0.7,0,1c0.2,0.3,0.3,0.5,0.6,0.5C118.4,81.1,117.8,79.6,117.4,79.6z"/>
				<path fill="#6B7384" d="M113.2,82.2c-0.3,0-0.7,0.4-0.8,0.4c-0.1,0,0.1,0.2,0.2,0.3c0.1,0.2,0.3,0.3,0.6,0.3
					c0.3,0,0.6-0.5,0.4-0.8C113.6,82.3,113.3,82.2,113.2,82.2z"/>
				<path fill="#6B7384" d="M117,92.7c-0.1,0-0.4,0.1-0.3,0.2c0.1,0.1,0.4,0,0.5,0.2c0.1,0.1,0.2,0.2,0.3,0.2c0.1,0,0.2,0.1,0.3,0.1
					l0.2,0c-0.1,0-0.1-0.1-0.1-0.2C117.5,93.2,117.2,92.9,117,92.7z"/>
				<path fill="#6B7384" d="M118.4,93.2C118.4,93.2,118.5,93.3,118.4,93.2c0.1,0.2,0.2,0.3,0.3,0.3c0.1,0,0.2-0.1,0.1-0.2
					c-0.1,0-0.2-0.1-0.3-0.1H118.4z"/>
				<path fill="#6B7384" d="M112.7,92.6L112.7,92.6l-0.2-0.1l0,0.1c0.1,0.1,0.5,0.4,0.6,0.4C113.1,92.8,112.9,92.7,112.7,92.6z"/>
				<path fill="#6B7384" d="M111.3,91.4L111.3,91.4L111.3,91.4c0,0.1,0.4,0.4,0.5,0.4C111.9,91.8,111.4,91.5,111.3,91.4z"/>
				<path fill="#6B7384" d="M119.1,75.7c0.1,0,0.1-0.1,0.2-0.1c-0.1,0-0.1-0.1-0.1-0.1c0.1,0.1,0.2,0.2,0.3,0.2l0.1,0.2
					c0,0,0,0.2,0,0.3c0,0.1,0.3,0.3,0.5,0.3l-0.1-0.1c0,0.1,0.1,0.2,0.2,0.2c0.3,0,0-0.5-0.2-0.8c0.1,0,0.1,0,0.2,0
					c-0.1-0.1-0.1-0.1-0.1-0.2l-0.3-0.1c-0.1,0-0.1-0.1-0.1-0.2c-0.2,0-0.4-0.1-0.6-0.1c-0.1,0-0.3,0.3-0.2,0.4
					C118.9,75.6,119,75.7,119.1,75.7z"/>
				<path fill="#6B7384" d="M121,75.4c0.2,0-0.1-0.6-0.5-0.6c-0.2,0-0.1,0.3-0.4,0.2c0,0-0.1,0.3-0.1,0.3c0.1,0.1,0.1,0.1,0.3,0.2
					c0,0.1,0.2,0.3,0.3,0.3c0.2,0,0.1-0.3,0.1-0.4C120.7,75.3,120.9,75.4,121,75.4z"/>
				<path fill="#6B7384" d="M121.2,71c-0.1-0.1-0.2-0.1-0.3-0.1c0,0,0.1,0.2,0.2,0.2C121.1,71.1,121.1,71.1,121.2,71
					c-0.1,0.3-0.3,0-0.3,0c-0.2,0,0,0.4,0.1,0.6c0.1,0.1,0.1,0.1,0.2,0.2c0.4,0.5,0.4,1.2,0.2,1.4c-0.2,0.1-0.1,0.2-0.3,0.2
					c0,0-0.1,0-0.2-0.1c-0.1-0.1-0.1-0.1-0.1-0.2c0,0,0.1,0.4,0,0.4c-0.2,0,0.1,0.5-0.2,0.5l-1.1,0c-0.5,0-0.3,0.4-0.5,0.7
					c0,0-0.2,0.1-0.1,0.1c0,0.1,0.2,0.1,0.3,0.1c0.4,0,0.6-0.1,0.7-0.2c0.1-0.1,0.3,0,0.3-0.1c0,0,0-0.1,0.1-0.1
					c0.2,0,0.4,0.1,0.6,0.2c0.1,0.1,0.1,0.2,0.2,0.3c0,0,0.1,0.1,0.1,0.1c0.1,0,0.2,0.1,0.4,0.2c0-0.2,0-0.4,0.1-0.4
					c0.1,0,0.1,0,0.2,0c0,0-0.3-0.2-0.4-0.3c0,0-0.1-0.1,0-0.1c0.2,0,0.4,0.3,0.7,0.3c0.1,0,0.2-0.1,0.2-0.2l0.2,0
					c0,0,0.1,0.1,0.2,0.1c-0.1-0.2,0-0.3,0.1-0.4c0.1,0.1,0,0.1,0.2,0.3c0.2-0.1,0-0.2,0.1-0.3c-0.1-0.1-0.2-0.2-0.3-0.3
					c-0.2-0.2-0.1-0.3-0.2-0.5c-0.2-0.2-0.6-0.7-0.5-0.8c0,0,0.1,0,0.1,0l-0.1-0.1c-0.2-0.2,0-0.3-0.2-0.5c-0.2-0.2-0.5-0.4-0.7-0.6
					C121.4,71.2,121.3,71.1,121.2,71z"/>
				<path fill="#6B7384" d="M121.6,69.3c-0.2-0.1-0.2,0-0.3,0c-0.6,0-1.3-0.5-2-0.8c0,0.1,0,0.1,0.1,0.2c0.1,0.1,0.2,0.1,0.2,0.2
					c0.2,0.2,0.6,0.9,0.3,0.9c0,0-0.1,0-0.2,0l0.1,0c-0.1,0-0.1-0.1-0.2-0.1l0.1,0.1c0.1,0.1-0.1,0.2,0,0.4c0.1,0.1,0.2,0.1,0.2,0.2
					l0.3,0.4h0.1c0-0.1,0.2-0.1,0.2-0.3c-0.1-0.1-0.4-0.1-0.5-0.2c-0.2-0.3,0.2-0.1,0.4-0.1c0-0.1,0-0.1,0-0.1
					c0.4,0.2,0.6,0.2,1,0.4c0-0.2-0.2-0.6,0.1-0.6c0.2,0,0.3-0.1,0.4-0.2c-0.1,0-0.3-0.1-0.4-0.2C121.6,69.5,121.7,69.4,121.6,69.3z
					"/>
				<path fill="#6B7384" d="M121.7,69.4c0,0.1,0.1,0.1,0.1,0.1c0.1,0,0.1-0.2,0.1-0.4l-0.1,0C121.8,69.1,121.7,69.3,121.7,69.4z"/>
				<path fill="#6B7384" d="M121.8,69.1L121.8,69.1C121.9,69.1,121.9,69.1,121.8,69.1L121.8,69.1z"/>
				<path fill="#6B7384" d="M122.3,69c0.2,0-0.1-0.3,0.3-0.3l-0.1-0.1c-0.1,0-0.1,0-0.2,0C122,68.5,122.2,68.9,122.3,69
					C122.2,68.9,122.2,69,122.3,69z"/>
				<path fill="#6B7384" d="M122.9,68.4c0.1,0,0.1-0.2,0-0.3c0,0-0.2,0-0.2,0.1c0,0,0.1,0.1,0.1,0.1
					C122.7,68.3,122.8,68.4,122.9,68.4z"/>
				<path fill="#6B7384" d="M115.8,64.3c0.2,0.3,0.5,0.4,0.7,0.6l0.8,1c0.2,0.2,0.1,0.3,0.3,0.5c0.2,0.2,0.3,0.2,0.5,0.5
					c0.2,0.3,0.3,0.5,0.6,0.8c0.1,0.1,0.4,0.5,0.4,0.5c0.2,0-0.1-0.4,0.1-0.4l0.2,0c0.1,0.1,0.3,0.2,0.3,0.2c0,0,0,0,0,0
					c-0.4-0.3-0.9-0.5-1.2-0.9c-0.4-0.4-0.8-1-0.3-1c0.1,0,0.3,0.1,0.5,0.2c-0.4-0.4-0.9-0.7-1.4-1.2c-0.1-0.1-0.4-0.3-0.5-0.5
					l-0.3-0.4c-0.3-0.2-0.3-0.4-0.6-0.6c-0.2-0.2-0.5-0.4-0.8-0.8l-0.1,0l0.3,0.4c0.1,0.1,0,0.1,0.1,0.2
					C115.2,63.5,115.5,64,115.8,64.3z"/>
				<path fill="#6B7384" d="M73,50.1c0,0,0.3,0,0.4,0c0.2,0.1,0.2,0.4,0.3,0.6c0,0.1,0.2,0,0.3,0c0,0,0.1,0.1,0.1,0.1l1,0
					c0,0,0-0.1-0.1-0.1c-0.4-0.3-0.8-0.5-1-1.1c-0.3-1.1,0.2-2.2,0.7-2.4c0.2-0.1,0.1-0.5,0.4-0.5c0.1,0,0.1-0.3,0.1-0.4
					c0.3-0.3,0.6-0.1,0.9-0.4c0.2-0.2,1-0.3,0.8-0.9c-0.1-0.2-0.5-0.4-0.6-0.4c-0.5,0-0.7,1-1.3,1c-0.1,0-0.3-0.2-0.4-0.2
					c-0.2,0-0.2,0.2-0.3,0.2c-0.4,0-0.5,0.8-0.8,0.8c-0.2,0-0.3,0.1-0.4,0.1c-0.1,0-0.1,0.1-0.1,0.2c0,0.1,0.1,0.2,0.2,0.3
					c0.1,0.5-0.4,0.7-0.3,1c0,0.1,0.2,0.2,0.3,0.4c-0.2,0.1-0.5,0.2-0.4,0.5l0.1,0.3c0.1,0.3-0.3,0.3-0.2,0.7
					C72.8,50,73,50.1,73,50.1z"/>
				<path fill="#6B7384" d="M75,50.7C75.1,50.7,75.1,50.8,75,50.7C75.1,50.8,75.1,50.8,75,50.7L75,50.7z"/>
				<path fill="#6B7384" d="M109.4,87.1L109.4,87.1h-0.1c0.1,0.2,0.1,0.4,0.2,0.6c0,0,0,0.1,0.1,0.1c0.2,0.1,0.1,0,0.3,0
					c0.3,0,0.8,0.6,1.1,0.8c0.4,0.4,0.7,0.7,1.1,1.2c0.5,0.6,1.4,1.1,2.2,1.2c0.1,0,0.2,0.1,0.4,0.1c0.1,0,0-0.1,0.1-0.1
					c0.1,0,0.1,0,0.3,0c-0.2-0.2-0.3-0.3-0.5-0.5c-0.2-0.2-0.6-0.3-0.8-0.6c-0.1-0.2,0-0.2-0.1-0.3c-0.5-0.8-1.8-0.9-2.6-1.4
					c-0.2-0.1-0.4-0.4-0.5-0.5h0c-0.3-0.5-0.9-0.3-1.1-0.8c-0.2-0.5,0.3-0.6,0-1.1c-0.1-0.1-0.2-0.2-0.3-0.3c0-0.1-0.1-0.2,0-0.2
					c0.2,0,0.5,0,0.6,0.2c0,0,0.2,0.2,0.2,0.2c0.4,0.1,0.7,0.1,1.1,0.3c0.4,0.2,0.3,0.5,0.7,0.5c0.1,0.3,0.6,0.3,0.9,0.3
					c0.1,0.1,0.2,0.2,0.3,0.3c-0.1,0,0,0.1,0.1,0.2c0.1,0.1,0.3,0.3,0.4,0.3c0.1,0,0.3-0.3,0.2-0.4l-0.1-0.2c0,0.1,0.1,0.2,0.2,0.2
					c0.2,0,0-0.3,0.2-0.4c0.4-0.2,0.3-0.4,0.9-0.5c-0.2-0.3,0-0.5-0.3-0.8c-0.3-0.6-1.1-1.3-1.7-1.6c-0.7-0.3-1.1-0.7-1.8-1.1
					c-0.1-0.1-0.2-0.1-0.3-0.2c-0.4-0.7,0.4-0.8,0.5-1.4c0.4,0.1,0.6,0,1,0.2c0,0.1,0.2,0.4,0.4,0.4c0.2,0,0-0.2,0-0.4
					c0.1-0.1,0.4-0.2,0.5-0.2c0.3-0.2,0.7-0.1,0.8-0.3c0,0,0-0.3,0-0.3c0.2,0,0.4,0.1,0.6,0.1c0.9,0,0.8-0.5,1.1-0.7
					c0.1-0.1,0.2-0.1,0.1-0.3c0.5,0,0.2-0.6,0.1-0.9c0-0.2,0-0.9,0.3-0.9c-0.3-0.4-0.1-0.5-0.4-1c-0.5-0.7-0.9-1-1.5-1.4
					c-0.1-0.1-0.3-0.3-0.5-0.4l0,0h0c0,0-0.2-0.3-0.2-0.3c-0.2,0-0.6-0.2-0.8-0.4c-0.1-0.2,0.2-0.2,0.1-0.4
					c-0.2-0.5,0.6-0.5,0.7-0.8c-0.3-0.2-0.4,0-0.7-0.2c-0.2-0.1-0.3-0.2-0.5-0.2c-0.1,0,0.1,0.4,0,0.4c-0.1,0-0.3,0-0.5,0
					c-0.3-0.1-0.3-0.3-0.6-0.5c-0.1-0.1-0.4-0.1-0.6-0.3c-0.2-0.4,0.3-0.2,0.5-0.4c0.1-0.2,0.3-0.4,0.3-0.6c0-0.1,0-0.2,0.1-0.2
					c0.1,0,0.5,0.2,0.5,0.3c0.2,0.3-0.1,0.4,0.2,0.7c0.5,0,0.5-0.5,1.1-0.5c0.2,0,0.4,0.2,0.7,0.2c0,0.2,0.1,0.2,0.3,0.4
					c0.1,0.2-0.1,0.1,0.1,0.4c0.1,0.1,0.3,0.3,0.4,0.3c0.1,0,0.1-0.1,0.2-0.1c0.2,0,0.6,0.1,0.7,0.3c0.1,0.1,0,0.2-0.1,0.2l0.1,0.2
					c0.1,0,0.1,0.1,0.3,0.1c0.1,0.1,0.2,0.2,0.3,0.3c0,0.1,0,0.3,0.1,0.4c0,0.1,0.1,0.2,0.2,0.2c0,0.1,0,0.1,0.1,0.2l0.3,0
					c0-0.1,0.1-0.1,0.2-0.2c-0.1-0.2,0.3-0.2,0.4-0.2c0.2-0.1,0.2-0.3-0.1-0.6c-0.5-0.7-1-1-1.7-1.4c-0.3-0.2-0.5-0.3-0.7-0.6
					c0.2,0,0.3-0.1,0.3-0.3c0-0.1,0.2-0.3,0.2-0.4c-0.1-0.5-0.2-0.7,0-1v0c0,0,0.8,0.2,1.3,0.2c0.9,0,0.2-2,0.4-2.7
					c0-0.3,0-0.8-0.3-1.2c-0.3-0.5-0.7-0.8-0.9-1.3c-0.1-0.2-0.2-0.6-0.5-0.9c-0.4-0.5-1.7-1.3-1.8-1.1c-0.3,0.7-1.7-0.4-1.7-0.5
					c-0.4-0.5,0-1,0-1.3c0-0.5-0.1-1.4,0.4-1.6c0.4-0.2,2-0.3,2.4-0.3c0.6,0,1.1,0.3,1.5,0.3l0.8,0c-0.8-1.1-0.9-1.8,0-1.8
					c0.2,0,0.3-0.1,0.8,0c0,0.2,1.2,1.7,0.6-0.6c0.1,0,1.2,0.3,0.9,1.2c-0.1,0.3-0.6,0.1-0.4,0.6c0.2,0.5,0.5,1.1,0.3,1.4
					c-0.1,0.2-0.3,0.6,0.4,1.3c0.6,0.6,2.6,2.6,3.4,3c-0.2-0.5-0.8-1.4-0.3-1.6c-0.5-0.5,0.1-0.6-0.3-0.9c-0.5-0.6-0.2-0.7-0.4-1
					c-0.2-0.2-0.5-0.4-0.7-0.8c-1.6-2.9,0.9-1.3,1.3-1.3c1.3,0,0.2-1.9,1.2-1.9c2,0-0.6-1-0.9-1.3c-0.8-0.7,0.1-0.6-0.1-1
					c-0.1-0.2-0.7-0.6-0.4-0.6c0.8,0,3.1,1.4,3.7,1.4c0.3,0-0.4-0.6-0.5-0.8c-0.1-0.3,0.1-0.3,0.3-0.5c-1.4-0.8-3.4-1.3-4.7-1.8
					c-1.8-0.8-4-1.6-5.4-1.6c-0.4,0-0.6,0.1-0.3,0.3c2,1.6-0.6,0-0.8,0l-2.9-0.1c-1-0.9-1.7-1.2-2.5-1.2c-0.5,0-0.9,0.2-1.5-0.1
					c-0.5-0.3-0.9-0.7-1.3-0.8c-1-0.3-2-0.6-2.9-0.6c-0.9,0-0.5,0.7,0,1.3l-1.9,0c-0.3,0-0.7-0.4-1.1-0.4c0.1,0.2,0.5,0.8,0.3,0.8
					c-0.5,0-1.4-0.9-1.7-1.3c-0.1-0.1,0.2-1-2.4-1.3c-0.3,0-0.4,0.1,0,0.7l-1.3,0c-0.5-0.2-2.7-0.5-3.4-1.1
					c-0.4,1.8-0.8,0.7-0.8,0.7c0-0.7,2.5-2-0.9-3L89,45c-0.4-0.5-0.9-0.9-1.4-0.9c-0.6,0-0.4,0.7-0.5,1c-0.1,0.3-1.1,1.1-1.3,0.3
					c-0.3,0.2-1.8,0.3-2.1,1.4c-0.1,0.2,0.2,0.9-0.1,0.9c-0.4,0-1.9-0.2-1.5,0.8c0.1,0.2,0.3,0.4,0.5,0.7c-0.2,0.2-0.4,0-1.2,0
					c-0.2,1.3-0.7-0.2-1-0.5c0.2,0.5,0,0.8-0.2,1c0.3,0.5,1,1,0.8,1.5c-0.1,0.4,1.2,1.6,0.7,1.6c-0.5,0-1.6-2.5-1.8-3.1
					c-0.2-0.6,0.4-0.8-0.8-1.1c-0.6-0.1-1.1,1-0.9,1.7c0.3,0.8,0.7,1.3,1.1,1.7c1.2,1.5-1-0.2-1.7-0.4c-1.9-0.6-1.1,0.2-1.1,0.3
					c0.3,1.3-0.4,0.3-0.6,0.3c-0.4,0-1,0.7-1.7,0.3c-0.5-1-1.9,1.3-2.4,1.3c-0.2,0-0.4-0.1-0.4-0.3c0.1-0.7-0.5-2.1-0.6,0.1
					c0,0.1,0.2,0.2,0.3,0.5c0.1,0.6-0.6,0.2-1,0.3c-0.3,0.2,0.1,1.8-1.6,0.9l0.1,0.7c-0.8-0.1-0.8-1.1-1.2-1.6c0.6,0,0.9,0,1.4,0.2
					c0.8,0.2,2-0.9-0.3-1.8c-0.7-0.3-2.2-1.2-2.6-1.2c0,0-0.1-0.1-0.3,0c0,0-0.3,0-0.4-0.1c0-0.1-0.1-0.1-0.2-0.3
					c0.3-0.1,0.4,0,0.5-0.4c-0.1-0.1-0.4-0.3-0.5-0.3c-0.1,0-0.1,0.1-0.2,0.3c-0.1,0-0.1-0.2-0.2-0.4c-0.2,0.2-0.3,0.2-0.4,0.5
					c0-0.1,0-0.2-0.1-0.3c-0.2,0.2-0.2,0.5-0.5,0.5c0-0.2,0.2-0.3,0.2-0.5c0-0.2-0.5,0.2-0.6,0.2c-0.1,0-0.2-0.1-0.3-0.3
					c0,0.1-0.2,0.2-0.2,0.3c0,0.1,0.1,0.2,0.2,0.2c-0.2,0.2-0.4,0.1-0.6,0.5l0-0.3c-0.3,0-0.3,0.4-0.4,0.5l0-0.2
					c-0.2,0-0.4,0-0.5,0.2c0.1,0.1,0,0.1,0.1,0.1c-0.1,0.1-0.2,0-0.2,0c-0.1,0-0.2,0.1-0.3,0.3c0.1,0,0.1,0,0.2,0
					c0,0-0.2,0.4-0.2,0.4c-0.2,0-0.2-0.2-0.4-0.2c0-0.1,0-0.2,0-0.3c0,0.1-0.1,0.1-0.1,0.2c0,0-0.1,0-0.1,0c-0.1,0-0.2,0.1-0.2,0.3
					c0,0,0.1,0.1,0.2,0.1c0,0-0.2,0.1-0.3,0.2c0.3,0,0.4-0.2,0.7-0.3c-0.1,0.4-0.4,0.9-0.7,1.1c-0.3,0.1-0.4,0.4-0.6,0.7
					c0,0-0.1,0.4-0.1,0.4c-0.1,0-0.1,0.5-0.2,0.7c-0.4,0.4-0.6,1-1.2,1.2c0.1,0,0.2,0.1,0.3,0.1c-0.5-0.1-0.6,0.3-0.8,0.4
					c-0.3,0.1-0.5,0.3-0.6,0.6c-0.1,0.2-0.3,0.1-0.3,0.4c0,0.5,0,0.9,0.2,1.2c-0.1,0.1-0.2,0.3-0.2,0.4c0.2-0.1,0.2-0.1,0.4-0.1
					l0,0.3c-0.1,0-0.2,0.1-0.3,0.3c0,0.1,0.5,0.5,0.6,0.5c0.6,0,1.1-0.6,1.4-1.1c0.1,0.2,0.1,0.3,0.3,0.4c0,0.1-0.1,0.2-0.1,0.2
					c0,0.3,0.2,0.4,0.3,0.6c0.1,0.4,0.1,0.6,0.3,0.9c0,0,0,0.1,0,0.2c0,0.1,0.2,0.8,0.3,0.8c0.4,0,0.5-0.5,0.7-0.5l0.4,0
					c0-0.3,0.4-0.4,0.4-0.8C61.1,61,61,61,61,60.8c0-0.4,0.1-0.8,0.4-0.8c0.1,0,0.6-0.4,0.5-0.7c0-0.3-0.4-0.6-0.7-0.7
					c0-0.1,0-0.2-0.1-0.3l0-0.3c0.2-0.1,0.1-0.4,0.2-0.7c0.1-0.3,0.4-0.4,0.6-0.5c0.3-0.2,0.9-0.5,0.9-0.9c0-0.1,0-0.2,0-0.4
					c0-0.5,0.3-0.7,0.8-0.7c0.3,0,0.8,0.1,0.8,0.5c0,0.3-0.3,0.4-0.5,0.5c-0.3,0.3-0.6,1.2-1.1,1.2c0,0.1,0,0.2,0,0.3
					c0,0.2,0.2,0.6,0.3,0.6c0,0.1-0.2,0.2-0.2,0.4c0,0.4,0.3,0.6,0.6,0.6c0,0.2,0.1,0.2,0.3,0.2c0.2,0,0.6-0.1,0.8-0.3
					c0.3,0,0.9,0,1-0.3c0.1,0.2,0.3,0.3,0.4,0.6c-0.2,0.1-0.6,0.4-0.7,0.4c-0.2,0-0.4-0.1-0.7-0.1c-0.3,0-1,0.3-0.8,0.6
					c0.8,0.8,0.4,1.1,0.3,1.1c-0.3,0-0.4-0.4-0.6-0.4c-0.3,0-0.5,0.8-0.5,1.2c0,0.7-0.4,0.6-0.4,1.2c-0.2,0-0.4,0-0.5,0
					c0,0,0-0.1,0.1-0.2c-0.1-0.1-0.3-0.1-0.5-0.1c-0.2,0-0.4,0.3-0.5,0.3c-0.2,0.1-0.4,0.1-0.7,0.2c-0.1,0-0.1,0.1-0.3,0.1
					c0,0-0.3-0.2-0.3-0.2c0-0.1,0.1-0.1,0.1-0.2c-0.3,0-0.6,0.3-1,0.3c0,0-0.1-0.1-0.1-0.2c-0.1,0-0.2-0.1-0.4-0.1c0,0,0-0.1,0-0.2
					c-0.1,0-0.2-0.1-0.2-0.3c0-0.3,0.2-0.5,0.3-0.6c0-0.1,0.2-0.1,0.2-0.2l0-0.1c-0.1,0-0.3,0-0.3-0.2c0-0.2,0-0.3,0.1-0.4l0-0.2
					c-0.4,0.3-0.9,0.4-1,1.1c0,0.4,0.2,0.5,0.3,1c0,0,0.1,0.3,0.1,0.4c0,0.1-0.2,0.3-0.3,0.3c-0.1,0-0.3-0.1-0.4,0
					c0,0-0.1,0.2-0.1,0.1c-0.1,0.1,0,0-0.2,0c-0.3,0-0.6,0.3-0.8,0.5c0,0-0.2,0.1-0.2,0.2c0,0.2,0,0.4-0.1,0.5
					c-0.1,0.1-0.7,0.3-0.8,0.4c-0.1,0-0.1,0-0.2,0c-0.1,0.4-0.3,0.8-0.7,0.8c0,0.1-0.2,0.2-0.3,0.2c-0.2,0-0.3-0.1-0.5-0.2l-0.2,0
					l0,0.1c0,0.1-0.1,0.3,0.1,0.3l0,0.1c-0.1,0-0.2,0.1-0.4,0.1c-0.1,0-0.4-0.1-0.4-0.2c-0.2,0.1-0.6,0.2-0.6,0.3c0,0,0,0.1,0,0.1
					c0,0.3,0.7,0.4,0.9,0.5c0.1,0,0.1,0.1,0.2,0.1c0,0.3,0,0.6,0.4,0.6c0,0.1,0.1,0.1,0.1,0.3c0,0.1,0,0.2-0.1,0.3l0,0
					c0,0.1,0,0.4,0,0.5c0,0.3-0.2,0.4-0.3,0.8c-0.1,0-0.3,0.1-0.4,0.1c-0.2,0-0.3-0.1-0.5-0.1l-0.8,0c-0.1,0-0.2,0-0.3-0.1l-0.7,0
					c-0.1,0-0.2-0.1-0.2-0.1c-0.1,0-0.7,0.4-0.7,0.5c0,0.2,0.1,0.4,0.1,0.6c-0.1,0.4-0.3,0.9-0.3,1.3c0,0.1-0.2,0.2-0.2,0.4
					c0,0.1,0.1,0.2,0.2,0.2L49,73.3c0,0.1,0,0.1,0.1,0.1c0.3,0,0.5-0.1,0.8-0.1c0.4,0,0.3,0.6,0.6,0.6c0.4,0,0.6-0.3,1.1-0.3
					c0.1,0,0.4-0.1,0.5,0l0,0c0.3,0.1,0.4-0.3,0.6-0.4c0.4-0.2,0.5-0.4,0.7-0.7c-0.1,0-0.2-0.1-0.2-0.2c0-0.4,0.6-1.1,0.9-1.1
					c0.4-0.1,0.7-0.2,0.9-0.5L55,70.2c0-0.3,0.3-0.4,0.5-0.4c0.3,0,0.6,0.2,0.9,0.2c0.4,0,0.6-0.3,0.9-0.5c0.2-0.1,0.2-0.3,0.5-0.3
					c0.6,0,0.7,0.7,1,1.1c0,0.1,0.3,0.2,0.4,0.3c0.3,0.3,0.4,0.4,0.9,0.6c0,0.1,0.3,0.2,0.3,0.2c0,0.1,0.4,0.5,0.5,0.5
					c0,0.1,0.2,0.2,0.2,0.5c0,0.2-0.1,0.5-0.3,0.5c0,0.1,0.1,0.1,0.2,0.1c0.2,0,0.2-0.4,0.3-0.5c0,0,0.2,0,0.2-0.1
					c0-0.2-0.3-0.3-0.3-0.5c0-0.2,0.2-0.3,0.4-0.3c0.3,0,0.4,0.2,0.6,0.3c0-0.4-0.4-0.5-0.7-0.7c-0.1,0-0.5-0.1-0.4-0.3
					c0,0,0-0.1,0-0.1c-0.3,0-0.4,0.1-0.7,0c-0.1-0.1-0.3-0.3-0.3-0.6c-0.1-0.2-0.2-0.4-0.4-0.5c-0.2-0.1-0.3-0.2-0.3-0.4
					c0-0.1,0-0.2,0.1-0.3c0,0-0.1-0.1-0.1-0.1c0-0.2,0.4-0.2,0.5-0.3c0.1,0.1,0,0.5,0.2,0.5l0.5,0c0,0.4,0.4,1,0.8,1h0.2
					c0,0.2,0.3,0.3,0.5,0.4c0.2,0.1,0.6,0.5,0.6,0.7l0,0.4c0,0.4,0.3,0.5,0.5,0.7c0.2,0.1,0.3,0.3,0.4,0.5c0,0,0,0.2,0.1,0.2H64
					c0,0.1-0.2,0.1-0.2,0.3c0,0.3,0.3,0.6,0.6,0.6h0.2c-0.2-0.1,0-0.3,0-0.4c0-0.1-0.1-0.2-0.1-0.3l0-0.1c0.1,0.1,0.3,0.2,0.5,0.3
					l0,0c0-0.1,0.2-0.1,0.3-0.1c0,0-0.1-0.1-0.1-0.2c-0.1,0-0.6-0.4-0.6-0.5c0,0,0-0.1,0.1-0.2l-0.3-0.4c0-0.1,0.1-0.2,0.2-0.2
					c0.2,0,0.2,0.3,0.5,0.3c0-0.1,0-0.2,0-0.4c0.2-0.1,0.3-0.2,0.5-0.2c0.3,0,0.5,0.3,0.7,0.3c0.2,0,0.3-0.2,0.5-0.3
					c0.1-0.1,0.3,0,0.4-0.1c0.1,0,0.2,0,0.2-0.1c-0.1-0.2-0.6-0.4-0.6-0.7c0-0.2,0.2-0.6,0.4-0.7l0-0.4c0-0.1,0,0,0.1-0.2
					c0-0.2,0.1-0.2,0.3-0.3c0-0.1,0-0.2,0-0.3c0.3-0.1,0.3-0.5,0.7-0.5c0.3,0,1.2,1.3,1.4,1.3c0.2,0,1-0.4,1.1-0.5
					c0,0-0.5-0.1-0.5-0.1c-0.1,0-0.3,0-0.3-0.3c0-0.1,1.1-0.6,1.5-0.8c0,0-0.2,0.3-0.2,0.3c0,0.1,0.5,0.6-0.4,0.8
					c0.6,1,2.4,0.8,2.7,2.1l0.1,0c0,0,0,0,0,0c-0.3,0.1-0.4,0.4-0.8,0.4l-1,0c-0.2,0-0.9-0.1-0.9-0.3c-0.4,0-0.4-0.3-0.9-0.3
					c-0.3,0-0.8,0-1,0.2c-0.2,0.1-0.4,0.3-0.6,0.3l-0.5,0c-0.1,0-0.4-0.1-0.4,0.1c0,0.1,0.1,0.1,0.2,0.2c-0.3,0.2-1.5,0.1-1.5,0.6
					c0,0.1,0.2,0.1,0.3,0.1c0,0.1,0,0.1,0,0.2c0,0.3-0.2,0.3-0.3,0.5c0.2,0.1,0.4,0.1,0.6,0.3c-0.2,0.2,0.4,0.4,0.5,0.5
					c0,0-0.1,0.1-0.1,0.1l0.2,0c0.3-0.2,0.5,0.3,0.9,0.3c0.3,0,0.2-0.4,0.6-0.4c0.4,0,0.6,0.4,0.9,0.4c0.5,0,0.6-0.2,0.8-0.4
					c0.1,0.1,0.2,0.1,0.4,0.1c0.1,0,0.2-0.1,0.3-0.1l0,0.2c0,0-0.1,0.1-0.1,0.2c0,0.2,0.2,0.4,0.2,0.7c0.1,0.4-0.3,0.5-0.3,0.8
					c-0.1,0.3-0.1,0.5-0.2,0.9c0,0.1-0.1,0.1-0.1,0.2l0.1,0.2c0,0-0.1-0.1-0.1-0.1c-0.2,0-0.2,0.1-0.5,0.1c-0.4,0-0.6-0.2-1-0.2
					c-0.6,0-0.7,0.2-1.3,0.2c-0.6,0-1.5-0.3-2.1-0.5c-0.3-0.1-0.7,0-0.9-0.2c-0.1-0.1-0.3-0.2-0.3-0.4h-0.4l-0.1,0
					c-0.5,0.2-1,0.2-0.9,0.7l0,0.3c0,0.1-0.2,0.3-0.4,0.3c-1.3,0-1.8-1.3-2.9-1.3l-0.5,0c-0.3,0-0.8-0.4-0.8-0.8
					c0-0.3,0.2-0.4,0.2-0.6c0-0.2-0.2-0.2-0.2-0.4c0-0.2,0.2-0.2,0.3-0.4c-0.1,0-0.2,0.1-0.3,0.1c-0.3,0-0.2-0.3-0.5-0.3
					c-0.3,0-0.4,0.2-0.7,0.2c-0.2,0-0.3-0.1-0.5-0.1c-0.3,0-0.5,0.3-0.7,0.3c-0.1,0-0.4-0.2-0.6-0.2c-0.8,0-2.1,0.5-2.8,0.8
					c-0.2,0.1-0.3,0.3-0.7,0.3c-0.6,0-1-0.1-1.4-0.4c-0.2,0.1-0.2,0.3-0.4,0.5h0c-0.5,0.5-1.2,1-1.7,1.6c-0.4,0.4-0.2,0.7-0.5,1.3
					c-0.1,0.3-0.6,0.6-0.9,0.8c-0.4,0.2-0.8,0.1-1.1,0.5c-0.5,0.6-1.2,1.4-1.6,2.1c-0.1,0.3-0.6,0.5-0.7,0.8
					c-0.1,0.7,0.2,1.1,0.1,1.9c-0.1,0.4-0.6,1.3-1.1,1.5c0.1,0.2,0.2,0.3,0.2,0.6c0,0.2,0.1,0.3,0,0.5h-0.1c0.1,0.1,0.1,0.1,0.2,0.2
					c0,0.1,0.9,0.9,1.1,0.9c0.5,0.3,0.5,0.7,0.8,1.2c0.4,0.5,1.5,1.1,2,1.5c0.1,0.1,0.4,0.1,0.6,0.1c0.8,0,1.2-0.3,2-0.3
					c0.4,0,0.9,0.3,1.2,0.3c0.3,0,0.4-0.2,0.8-0.3c0.8-0.2,1.6-0.6,2.7-0.6c0.9,0,1,1,1.6,1l0.9,0c0.7,0,1.1,0.3,1.3,0.7
					c-0.2,0.1-0.2,0.6-0.2,0.8c0,0.1-0.1,0.1,0,0.3c-0.2,0.1-0.5,0.5-0.5,0.7c0,0.8,1.2,1.4,1.8,1.9c0.3,0.3,0.2,0.7,0.4,1
					c0.2,0.4,0.4,0.7,0.6,1.4c0.1,0.4,0.3,0.5,0.3,1c0,0.9-1.4,1.2-1.4,2.3c0,1.1,0.7,1.7,1.4,2.5c0.2,0.2,0.5,0.3,0.5,0.6l0,0.5
					c0,1.5,1.2,2.5,2.1,3.5c0.1,0.1,0.8,0.7,0.9,0.9c0,0.2-0.1,0.3-0.3,0.5c0.2,0.1,0.5,0.5,0.5,0.8c0.1,0,0.1-0.1,0.3-0.1
					c0.2,0.2,0.4,0.3,0.8,0.3c1,0,1.6-0.5,2.6-0.5c0.3,0,0.4,0.2,0.7,0.2c0.2,0,0.4-0.1,0.7-0.1c0.1-0.3,0.7-0.2,1.1-0.3
					c1-0.3,1.2-0.8,1.8-1.3c0.4-0.3,0.4-0.7,0.9-1.1c0.3-0.2,0.9-0.6,0.8-1c0-0.2-0.2-0.3-0.4-0.4c0.2-0.4,0.6-0.6,1.1-0.8
					c0.2,0,0.6,0,0.7-0.1c0.1-0.2,0.1-0.7,0.1-1c-0.1-0.5-0.8-0.8-0.8-1.1c0-0.2,0.3-0.5,0.6-0.5c0.1-1.1,3.2-1,3-2.3
					c0-0.1-0.1-0.2-0.2-0.3c-0.1-0.5-0.1-0.8-0.1-1.1l-0.1-0.4c0,0,0.1-0.2,0.1-0.3c-0.1-0.3-0.9-0.6-1-1.2
					c-0.1-0.5-0.3-0.7-0.4-1.3c-0.1-0.5,0.5-0.6,0.6-1c0.3-1.5,1.8-1.8,3-2.6c0.7-0.5,0.8-1.1,1.3-1.8c0.4-0.6,1-1.8,0.8-2.8
					c0-0.1-0.1-0.2-0.2-0.3c-0.7,0.2-1.4,0.4-2.1,0.5c-0.3,0-0.5-0.1-0.8,0c-0.2,0.1-0.2,0.3-0.6,0.3c-0.3,0-0.7-0.5-1-0.7
					c0.2-0.2,0-0.2-0.1-0.5c-0.7,0-1-0.7-1.3-0.9c-0.4-0.2-0.6-0.2-1-0.5c-0.4-0.3-0.3-0.7-0.7-1.1c-0.3-0.3-0.7-0.3-1-0.8l-0.1-0.9
					c-0.3-0.2-1-0.9-1-1.3l-2.2-2.8l0-0.3c0.3,0.3,0.8,1,1.2,1.1c0-0.2,0.2-0.6,0.2-0.8c0,0.2,0,0.4,0,0.5c0,0.1,0.3,0.3,0.4,0.4
					c0.2,0.3,0.5,0.5,0.7,0.8c0.1,0.1,0.2,0.2,0.3,0.4c0.1,0.1,0.1,0.4,0.2,0.5c0.1,0,0.3,0,0.4,0.1c0.1,0.1,0.2,0.2,0.3,0.2
					c0.1,0.3,0.4,0.4,0.5,0.8c0.1,0.6,0.3,1,1,1.1c0.1,0.4,0.7,1,1,1.2c0.3,0.2,0.6,0.3,0.6,0.7c0,0.1-0.1,0.5,0.1,0.5
					c0.1,0.3,0.3,0.6,0.5,0.9c0.2,0.2,0,0.2,0.1,0.2c0.1,0,0.6,0.2,0.7,0.2l0.1-0.1c0.4,0,0.4-0.1,0.7-0.3l0.6,0
					c0.2-0.1,0.9-0.6,1.2-0.6c0.5-0.1,1-0.2,1.5-0.4c0,0-0.1-0.1-0.1-0.2c-0.1-0.4,1.1-0.6,1.6-0.6c-0.1-0.2,0.2-0.5,0.4-0.5
					c0.3,0,0.1-0.5,0.4-0.5c0.2,0,0.1-0.3,0.2-0.5c0-0.2,0.2-0.3,0.5-0.3c-0.1-0.4,0.4-0.5,0.3-0.9c0-0.2-0.3-0.1-0.4-0.3l0,0
					c-0.2-0.1-0.3-0.4-0.5-0.4c-0.6-0.2-1-0.2-1.4-0.7l-0.2-0.6c-0.5,0.5-0.5,1.1-1.7,1.1c-0.3,0-0.8-0.1-0.9-0.4c0-0.2,0-0.3,0-0.5
					c0-0.1,0-0.1-0.1-0.2c-0.2,0-0.1,0.3-0.3,0.3c-0.1-0.2-0.2-0.2-0.2-0.4c-0.4-0.1-1.1-0.8-1.3-1.2c-0.1-0.1-0.1-0.2-0.1-0.4
					c-0.1-0.2,0-0.5,0.2-0.5c0.5,0,1,0.5,1.3,0.9c0.1,0.1,0,0.2,0.2,0.3c0.2,0.2,0.5,0.1,0.8,0.3c0.2,0.2,0.4,0.4,0.8,0.5l0.9,0
					c0.1-0.1,0.1-0.3,0.3-0.3c0.4,0,0.5,0.5,0.8,0.7c0,0,0.6,0.2,0.7,0.2c0.5,0,1.4,0.2,1.7,0.2c0,0,0.1,0,0.1,0l0.6,0
					c0,0,0.1-0.1,0.1-0.1l0.5,0.1c0.2,0,0.2-0.1,0.4-0.1c0.2,0,0.3,0,0.6,0c0.2,0.1,0.5,0.5,0.7,0.7c0.3,0.3,0.9,0.6,1.3,0.6
					c0.2,0,0.3,0,0.5,0c-0.1,0.1,0,0.2-0.2,0.3c-0.2,0.1-0.3,0-0.5,0.1c0.4,0.3,0.8,0.8,1.4,0.8c0.5,0,0.3-0.6,0.5-0.8H92
					c0,0.1,0,0.2,0,0.2c0.1,0.2,0.4,0.4,0.5,0.7c0.1,0.2,0,0.3,0.1,0.5l0,0c0,0,0.1,0.2,0.1,0.2c0.1,0.3,0.5,0.6,0.7,1
					c0.3,0.4,0.9,0.9,1.1,1.2c0.2,0.2,0.2,0.3,0.5,0.5c0.2,0.2,0.2,0.4,0.5,0.7c0.1,0.1,0.5,0.3,0.7,0.5c0.3,0.4,0.6,0.7,1,1.1
					c0,0,0.2,0.2,0.3,0.2c0.1,0.1,0.2,0.2,0.4,0.2c0.2,0,0.1-0.2,0.1-0.3c0-0.2,0.1-0.1,0.3-0.2c0.1-0.1-0.1-0.5,0.2-0.6
					c0.1,0,0.2,0,0.2-0.1l0.1,0l-0.3-0.4c-0.1-0.3,0-0.6-0.2-1c-0.1-0.3-0.3-0.4-0.5-0.7c-0.2-0.4,0.2-0.4,0.6-0.5
					c0.1,0,0.3-0.2,0.4-0.4c0.2-0.3,0.4-0.7,0.7-1c0.2-0.3,0.7-0.3,0.9-0.7c0.1-0.2,0-0.3,0-0.6c0-0.1,0.4-0.2,0.4-0.4
					c0.2,0.1,0.2,0.2,0.5,0.2c0.5,0,1-0.1,0.7-0.6c0.3,0.1,0.7,0.2,0.9,0.4c0.2,0.2,0.3,0.5,0.5,0.7c0.3,0.2,0.5,0.4,0.9,0.5
					c0.3,0.3,0.7,0.5,1,0.9c0.1,0.1,0.2,0.1,0.2,0.2c0.1,0.2,0,0.3,0.2,0.5c0.1,0.2,0.2,0.4,0.5,0.4c0.6,0,0.4-0.5,0.6-0.8
					c0.2,0.1,0.1,0.2,0.3,0.3c0.1,0,0.2,0,0.3,0.1c0.3,0.3,0.3,0.8,0.5,0.8c0.3,0.5,1,1,1.5,1.7C109.2,86.7,109.2,87.1,109.4,87.1z
					 M114.7,69c0.3,0.1,0.4,0.3,0.5,0.4C115.1,69.3,115,69.1,114.7,69C114.7,69,114.6,69,114.7,69C114.6,69,114.7,69,114.7,69z
					 M114.6,66.7L114.6,66.7c-0.4,0-0.4,0.2-0.5,0.3C114.2,66.8,114.2,66.7,114.6,66.7z M112.2,66.3c0.1,0.1,0.2,0.2,0.4,0.3
					C112.4,66.5,112.3,66.4,112.2,66.3c-0.4-0.2-0.9-0.3-1.3-0.5C111.4,66,111.9,66.1,112.2,66.3z M65.6,53.8c0-0.3,0.2-0.4,0.2-0.7
					c0-0.4-0.5-0.4-0.5-0.7c0,0.3,0.5,0.3,0.5,0.7C65.7,53.3,65.5,53.5,65.6,53.8c0,0.3,0.3,0.5,0.4,0.8
					C65.9,54.3,65.6,54.1,65.6,53.8z M64,66.6C64,66.6,64,66.6,64,66.6c0,0.3,0.2,0.4,0.4,0.4C64.2,67,64,67,64,66.6z M64.2,65.6
					c0.1-0.1,0.3-0.2,0.3-0.3c0-0.3-0.3-0.5-0.3-0.8c0.1,0.3,0.3,0.5,0.3,0.8C64.5,65.5,64.3,65.5,64.2,65.6z M79.1,73.6
					c-0.2,0-0.7,0-0.8-0.1c-0.1-0.1-0.2-0.3-0.4-0.3c-0.2,0-0.4,0.1-0.5-0.1c-0.1-0.2,0-0.3-0.2-0.5c-0.1-0.1-0.3-0.1-0.3-0.3
					c0,0,0-0.1,0-0.1c-0.1-0.1-0.1-0.2-0.2-0.3c-0.1,0-0.1,0-0.2,0.1c-0.2,0.1-0.2,0.4-0.5,0.4h0c0.4,0,0.3-0.3,0.5-0.4
					c0.1-0.1,0.1,0,0.2-0.1c0.1,0.1,0.1,0.2,0.2,0.3c0,0,0,0.1,0,0.1l0.2,0c0.1-0.3,0-0.7,0.3-0.8c-0.5-0.3-1.4-1.3-1.6-1.8
					c0-0.2-0.5-0.4-0.5-0.7c0-0.1,0.2-0.7,0.2-0.8c0.1,0.1,0.5-0.2,0.6-0.3c0.4-0.2,0.6-0.3,1.1-0.3c0.9,0,1.1,0.4,1.6,0.9
					c-0.2,0.2-0.6,0-0.9,0c-0.4,0-1,0.4-1,0.4c0.1,0.3,0.4,0.3,0.5,0.5c0.4,0.6,1,0.8,1.1,1.4c0.1-0.1,0.4-0.2,0.5-0.3
					c0.1,0.3,0.4,0.4,0.5,0.6l-0.5,0c-0.2,0-0.3,0.2-0.2,0.4c0.4,0,0.7,0.4,0.8,0.7c0,0.2-0.1,0.2,0,0.4c0,0.2,0.2,0.3,0.3,0.4
					l0.1,0.3C79.7,73.5,79.4,73.6,79.1,73.6z M80.8,72.7c0.1,0,0.2,0,0.3-0.1C81,72.7,80.9,72.7,80.8,72.7z M83.9,74.2
					C83.9,74.2,83.9,74.3,83.9,74.2c-0.1,0.1-0.2,0.5-0.2,0.7C83.7,74.7,83.8,74.3,83.9,74.2c-0.1,0-0.2-0.1-0.2-0.3
					C83.7,74,83.8,74.1,83.9,74.2c0.1-0.2,0.3,0.1,0.5,0.1C84.2,74.3,84.1,74.2,83.9,74.2z M85.3,73.2c0.1-0.1,0.1-0.1,0.3-0.1
					c0,0,0,0,0,0C85.5,73,85.4,73.1,85.3,73.2z M86.9,73.4c-0.1,0-0.3-0.2-0.4-0.2c-0.1,0-0.5,0.1-0.6-0.1c0.1,0.2,0.5,0.1,0.6,0.1
					C86.6,73.2,86.8,73.4,86.9,73.4L86.9,73.4z M87.6,72.9C87.6,72.9,87.6,73,87.6,72.9C87.6,73,87.6,72.9,87.6,72.9
					c0.1,0,0.1-0.1,0.1-0.2C87.7,72.9,87.7,72.9,87.6,72.9z M88.7,73.4c-0.1,0-0.2-0.1-0.2-0.1C88.5,73.4,88.6,73.4,88.7,73.4
					C88.7,73.4,88.7,73.4,88.7,73.4z M89.2,73.3c0.1-0.1,0.2-0.1,0.3-0.1c0,0,0,0,0,0C89.3,73.1,89.2,73.2,89.2,73.3z M90.6,73.5
					c-0.3-0.1-0.4,0-0.5-0.3c-0.2,0-0.4-0.1-0.6-0.1c0.2,0,0.3,0,0.6,0.1l0-0.1l0,0.1C90.2,73.5,90.3,73.4,90.6,73.5
					c0.1,0,0.1,0.1,0.1,0.1C90.7,73.5,90.7,73.5,90.6,73.5z M89.5,71.4c-0.3,0-0.3,0.8-0.3,1.1c0.1,0,0.1,0,0.1,0c0,0-0.1,0-0.1,0
					C89.2,72.2,89.2,71.4,89.5,71.4c1.5,0,2.2-0.7,1.6-2.3C91.7,70.7,91,71.4,89.5,71.4z M91,68.7C91,68.7,91,68.7,91,68.7
					c0.2,0,0.4-0.2,0.4-0.3C91.3,68.6,91.2,68.7,91,68.7z M92.5,73.9c0.2,0,0.7,0.3,0.8,0.5C93.2,74.2,92.7,73.9,92.5,73.9z
					 M93.8,76.6c-0.1,0-0.3,0-0.3-0.1C93.6,76.6,93.7,76.5,93.8,76.6c0.1,0,0.1,0,0.2,0.1C93.9,76.6,93.9,76.6,93.8,76.6z
					 M94.3,65.6c-0.5,0.5-1.5,0.5-1.8,1.1c-0.1,0.2,0.8,1.2-0.6,1c-0.2,0-0.3,0.1-0.3,0.3c0-0.2,0.1-0.4,0.3-0.3
					c1.4,0.2,0.4-0.8,0.6-1C92.8,66.1,93.7,66,94.3,65.6C94.3,65.5,94.3,65.5,94.3,65.6C94.3,65.5,94.3,65.5,94.3,65.6z M97.5,64.4
					c-0.2,0-0.3,0-0.4,0C97.2,64.4,97.3,64.4,97.5,64.4z M96.6,65.6c-0.7,0-1.6-0.5-2-0.5c-0.2,0-0.2,0.1-0.3,0.2
					c0.1-0.1,0.2-0.3,0.3-0.3C95.1,65.1,96,65.6,96.6,65.6c0.4,0,0.4-0.3,0.4-0.6C97.1,65.4,97.1,65.6,96.6,65.6z M98.9,78.2l-0.8,0
					c-0.4,0-0.7-0.3-1.1-0.4c0.4,0.2,0.6,0.4,1.1,0.4L98.9,78.2c0.2,0,0.2-0.1,0.3-0.1C99.1,78.1,99.1,78.2,98.9,78.2z M103.1,66.2
					c-1,0-1.7-0.7-2.6-0.8C101.4,65.4,102.2,66.2,103.1,66.2c0.6,0,1.1-0.5,1.9-0.5C104.3,65.7,103.8,66.2,103.1,66.2z M104.9,78.7
					c0.4,0.7-0.1,0.7,0.2,1.3C104.8,79.4,105.3,79.4,104.9,78.7z M109.5,86.2C109.5,86.2,109.5,86.2,109.5,86.2
					C109.5,86.2,109.5,86.2,109.5,86.2c0-0.1-0.2-0.2-0.3-0.4C109.3,85.9,109.4,86.1,109.5,86.2z M109.4,86.9c0-0.2,0-0.3,0-0.5
					C109.4,86.5,109.4,86.7,109.4,86.9z M110.4,80.8c-0.2,0-0.5-0.1-0.7-0.2C109.9,80.7,110.1,80.8,110.4,80.8
					c0.1,0.1,0.2,0.3,0.3,0.3C110.6,81,110.4,80.9,110.4,80.8z M110.5,65.7L110.5,65.7c0,0,0.1,0.1,0.1,0.1
					C110.6,65.7,110.6,65.7,110.5,65.7z M107.2,63.6c-0.8,0-0.8,0.4-0.7,0.9C106.4,64,106.4,63.6,107.2,63.6z M106.6,82.5
					c0,0.1,0,0.2,0.1,0.4C106.6,82.8,106.5,82.6,106.6,82.5z M106.5,80.9c0.2,0.2,0.5,0.4,0.8,0.4c0.1,0,0.2,0,0.3,0h0
					c0,0.1,0,0.1-0.1,0.2c0-0.1,0-0.1,0.1-0.2c-0.1,0-0.2,0-0.3,0C107.1,81.3,106.8,81.1,106.5,80.9z M107.9,84.6L107.9,84.6
					c0,0,0.1-0.2,0-0.4c-0.1-0.2-0.3-0.6-0.6-0.7c-0.1-0.1-0.3-0.1-0.5-0.3c0.1,0.1,0.3,0.2,0.5,0.3c0.2,0.2,0.5,0.5,0.6,0.7
					C107.9,84.4,107.9,84.6,107.9,84.6z M107.8,81.3c0,0.1,0.1,0.1,0.1,0.1C107.9,81.4,107.8,81.4,107.8,81.3z M107.9,84.7
					c0.1,0.2,0.4,0.3,0.6,0.4C108.3,85,108,84.9,107.9,84.7z M108.3,63.8c0.7,0.4,1.4,1.1,2.1,1.7C109.6,64.9,109,64.2,108.3,63.8z"
					/>
				<path fill="#6B7384" d="M117.4,50.5c0.1,0,1-0.1,0.8-0.3c-0.3-0.3-0.9-0.4-1.1-0.4c-0.2,0-0.2,0.3,0,0.6
					C117.1,50.4,117.3,50.5,117.4,50.5z"/>
				<path fill="#6B7384" d="M114.9,51.4c-0.1-0.1-0.2-0.1-0.3-0.2l-0.4,0c0.3,0.2,0.6,0.4,0.7,0.4C115,51.6,115,51.5,114.9,51.4z"/>
				<path fill="#6B7384" d="M98.9,46.2c0.1,0,0-0.1-0.1-0.2l0,0l0,0c0,0,0,0,0,0h0l-0.2-0.1c0,0.1,0,0.2,0.1,0.3
					C98.8,46.2,98.8,46.2,98.9,46.2z"/>
				<path fill="#6B7384" d="M91.9,47.3c0.1,0.2,0.3,0.2,0.4,0.2c0.1,0,0.1,0,0.2-0.1c0,0,0-0.1,0-0.1c-0.1-0.2-0.3-0.3-0.4-0.3
					C91.9,47.1,91.8,47.1,91.9,47.3z"/>
				<path fill="#6B7384" d="M92.5,47.5l0-0.1c0,0,0,0,0,0C92.5,47.5,92.5,47.5,92.5,47.5z"/>
				<path fill="#6B7384" d="M85.8,43.6c0.1,0.2,0.2,0.3,0.3,0.3l0.4-0.3c0,0,0.3-0.1,0.3-0.1c0.2,0.1,0.7,0,0.5-0.4
					c-0.1-0.2-0.8-0.7-1-0.7c-0.1,0,0,0.1-0.1,0.2c0-0.1,0-0.1-0.2-0.4l-0.1,0c-0.4,0-0.2,0.6-0.2,1C85.8,43.3,85.6,43.3,85.8,43.6z
					"/>
				<path fill="#6B7384" d="M82.6,42c0.1,0,0.4,0,0.3-0.3c-0.1,0-0.5-0.3-0.5-0.3c-0.1,0-0.3,0-0.2,0.2C82.3,41.7,82.5,42,82.6,42z"
					/>
				<path fill="#6B7384" d="M83.6,41.5c-0.2,0.2-0.2,0.4-0.5,0.5c0.2,0.1,0.7,0.6,0.9,0.6c0.4,0,0.9,0.3,1.3,0.3
					c0.1,0,0.2-0.1,0.1-0.3c-0.1-0.1-0.2-0.2-0.3-0.2c0,0,0.2,0,0.1-0.2c-0.1-0.2-0.1-0.2-0.1-0.3c-0.3-0.2-0.3-0.3-0.5-0.3l-0.2,0
					c-0.1,0-0.3-0.2-0.4-0.2c-0.1,0-0.1-0.1-0.2,0c0-0.1,0.1-0.2,0-0.3c0-0.1-0.1-0.1-0.2-0.3c0,0,0,0.1,0.1,0
					c-0.3-0.2-0.7-0.7-0.9-0.7c-0.5,0-0.2,0.8-0.5,1c0.4,0.2,0.6,0.4,0.9,0.4C83.2,41.5,83.5,41.5,83.6,41.5z"/>
				<path fill="#6B7384" d="M85.2,44.6c0,0.1,0,0.1-0.1,0.2c0.1,0.1,0.1,0.2,0.2,0.2c0.1,0,0.1-0.1,0-0.3L85.2,44.6z"/>
				<path fill="#6B7384" d="M81.7,40.4l-0.1-0.1l-0.4,0C81.4,40.4,81.6,40.4,81.7,40.4z"/>
				<path fill="#6B7384" d="M88.3,43.5c-0.1,0.1-0.1,0-0.3,0c0.1,0.1,0.2,0.2,0.3,0.2C88.3,43.7,88.3,43.6,88.3,43.5z"/>
				<path fill="#6B7384" d="M70.2,41.1C70.2,41.2,70.2,41.2,70.2,41.1l0,0.1L70.2,41.1z"/>
				<path fill="#6B7384" d="M69.1,40.8c0.1,0,0.2,0.1,0.3,0.2c0,0.1-0.1,0.1-0.1,0.2c0,0,0.1,0,0.2,0c-0.1,0-0.1,0.1-0.2,0.1
					c0.1,0.2,0.2,0.2,0.3,0.2h0c0,0.1,0.1,0.1,0.1,0.2c0.1,0,0-0.3,0.1-0.4c0.1-0.1,0.2,0,0.3-0.1l0-0.1c0,0,0.1,0,0.1,0
					c0.1-0.2,0.3,0,0.2-0.3c-0.1,0-0.2-0.2-0.3-0.2c-0.2,0-0.2,0.2-0.3,0.2c-0.2,0-0.4-0.2-0.6-0.2c-0.2,0-0.7,0-0.7,0.3
					c0.1,0,0.2,0.1,0.2,0.1C68.8,41,69,40.8,69.1,40.8z"/>
				<path fill="#6B7384" d="M73.9,40.7c0.1,0,0.4-0.1,0.5-0.2L74,40c-0.1,0-0.5,0.3-0.4,0.5C73.7,40.6,73.7,40.7,73.9,40.7z"/>
				<path fill="#6B7384" d="M72.9,41.1c0,0.1,0.5,0.1,0.6,0l-0.1-0.2c0.1,0,0.2,0.1,0.2-0.1c0-0.1,0-0.1-0.1-0.3c-0.1,0-0.3,0-0.3,0
					c0,0,0.1-0.1,0.1-0.1l-0.3,0c0,0,0,0.1,0.1,0.2C72.8,40.7,72.8,40.9,72.9,41.1z"/>
				<path fill="#6B7384" d="M71.9,41.4c0,0.1,0.1,0.1,0.1,0.1c0.1,0,0.1,0,0.1-0.2c0.1,0,0.2,0.2,0.3,0.2c0.1,0,0.1-0.3,0.3-0.3
					c-0.1-0.1-0.2-0.2-0.3-0.2C72.3,41.1,71.9,41.2,71.9,41.4z"/>
				<path fill="#6B7384" d="M72.2,40.8c0.1,0,0.2,0,0.3-0.1c-0.3-0.2-0.3-0.2-0.6-0.3c0.1-0.2,0.2-0.3,0.3-0.4c0-0.1,0-0.2,0-0.2
					c0-0.1-0.1-0.2-0.1-0.2c-0.1,0-0.1,0.1-0.1,0.3c-0.3,0-0.2,0.3-0.5,0.3l0.1,0.2c0.1-0.1,0.1,0,0.2,0l-0.4,0c0,0.1,0,0.1-0.1,0.2
					c0,0,0.5,0.3,0.6,0.3C72,41,72.1,40.8,72.2,40.8z"/>
				<path fill="#6B7384" d="M59.1,42.6C59.1,42.6,59.1,42.6,59.1,42.6c0,0.3,0.2,0.5,0.4,0.6c0,0-0.1,0-0.1,0
					c0.1,0.2,0.2,0.3,0.3,0.3c0.2,0,0.2-0.4,0.3-0.5l0.1,0c0,0,0.1,0.2,0.2,0.2l0.3,0c-0.1,0.2-0.4,0.4-0.5,0.4
					c-0.1,0-0.3,0-0.3,0.2c0,0.4,0.3,0.2,0.4,0.2c0.1,0,0.4,0,0.5,0.1c-0.1,0-0.2,0-0.4,0.1c0,0-0.3-0.1-0.4,0
					c0,0.6,0.6,0.8,0.9,1.1c0.1-0.2,0.1-0.7,0.3-0.9c0.1-0.1,0.1,0,0.2-0.1c0.1-0.4,0.2-1.2,0.5-1.2c0,0,0.1,0.2,0.3,0.3
					c-0.1,0-0.1,0-0.1,0c0,0.1,0.2,0.4,0.2,0.5c0,0.3-0.1,0.2-0.1,0.5c0.1,0,0.4,0,0.5,0c0,0.1,0,0.2,0,0.3c0.3-0.1,0.4-0.4,0.6-0.6
					c-0.1-0.2-0.4-0.1-0.5-0.6l-0.3,0c0-0.1,0-0.2,0-0.3c-0.1,0-0.1,0-0.2,0c0,0,0.1,0,0.1,0c-0.1-0.2-0.7-0.7-0.9-0.7
					c0,0-0.1,0-0.1,0c0-0.1,0-0.4-0.1-0.4c-0.1,0-0.1,0.1-0.2,0.2c0-0.1,0-0.2,0-0.3c0-0.2-0.3-0.3-0.4-0.3c-0.1,0-0.2,0-0.2,0.2
					c0,0.3,0.1,0.5,0.1,0.7c-0.3-0.2-0.2-0.7-0.5-0.7c-0.1,0-0.2,0.1-0.2,0.3c0,0.1,0,0.2,0.1,0.2c-0.1-0.1-0.2-0.1-0.3-0.3
					c0-0.1,0.1-0.1,0.1-0.2c-0.2-0.1-0.4-0.1-0.5-0.1c-0.1,0-0.3,0.3-0.4,0.4C58.9,42.3,59,42.6,59.1,42.6z"/>
				<path fill="#6B7384" d="M61.5,41.9c0,0,0.4,0.1,0.5,0.1c-0.1,0-0.2,0-0.3,0.1c0,0-0.1,0-0.2,0c0,0.1,0.1,0.2,0.1,0.3l0.6,0
					c0.1,0.2,0.2,0.3,0.4,0.3c0.3,0,0.8-0.6,1-0.9c-0.1-0.2-0.3-0.5-0.5-0.5l-0.3,0c-0.2,0-0.2,0.2-0.3,0.2c0-0.1,0-0.2,0-0.4
					l-0.1,0c0,0.1-0.1,0.4-0.2,0.4c-0.1,0-0.4-0.2-0.4-0.3l-0.3,0l0.1,0.2l-0.2,0l0,0.1c-0.1,0.1-0.1,0-0.2-0.1l-0.2,0
					c0,0.2,0.1,0.3,0.2,0.4C61.1,42.1,61.3,41.9,61.5,41.9z"/>
				<path fill="#6B7384" d="M59.2,43.5c-0.1-0.4-0.2-0.4-0.3-0.7C58.6,43,58.9,43.4,59.2,43.5z"/>
				<path fill="#6B7384" d="M58.8,42.8C58.8,42.8,58.8,42.8,58.8,42.8L58.8,42.8L58.8,42.8z"/>
				<path fill="#6B7384" d="M58.8,42.8C58.8,42.8,58.8,42.8,58.8,42.8C58.8,42.8,58.8,42.8,58.8,42.8L58.8,42.8z"/>
				<path fill="#6B7384" d="M51.4,63.4c0-0.1,0.3-0.1,0.3-0.3c0-0.3-0.1-0.7-0.4-0.7H51c-0.1,0-0.5,0.2-0.5,0.3c0,0.1,0,0.1,0.1,0.2
					c-0.1,0.1-0.4,0.2-0.5,0.2c0,0-0.2,0-0.2,0.2c0,0.2,0.1,0.3,0.2,0.4c-0.1,0.4-0.5,0.4-0.6,0.9c0,0.2,0.1,0.4,0.3,0.4
					c0.1,0,0.2,0,0.3-0.1c0.1-0.1,0.4-0.4,0.6-0.4c0.2,0,0.3,0,0.4-0.1c0.1-0.1,0.1-0.3,0.1-0.5L51.4,63.4z"/>
				<path fill="#6B7384" d="M51.4,60.5c0,0.1,0,0.2,0.1,0.2c0.2,0,0.3-0.2,0.3-0.4C51.7,60.3,51.4,60.4,51.4,60.5z"/>
				<path fill="#6B7384" d="M53.6,62.7c-0.2-0.2-0.1-0.6-0.4-0.7c-0.1,0-0.2,0-0.3,0c0-0.1,0.1-0.1,0.1-0.1c0-0.4,0.5-0.6,0.5-1
					l-0.9,0c0,0,0-0.1,0-0.1c0.1-0.2,0.4-0.2,0.4-0.4c0,0-0.1-0.2-0.1-0.2l-0.4,0c-0.1,0-0.2,0.1-0.3,0.2c0,0.1-0.1,0.2-0.1,0.3
					c-0.1,0-0.2,0.1-0.2,0.2c0,0,0,0.1,0.1,0.1c0,0,0,0.1-0.1,0.1c0,0-0.1,0-0.1-0.1l-0.2,0c0,0.2,0.1,0.3,0.3,0.3l0,0.1
					c0,0-0.1,0.1-0.1,0.2c0,0.1,0.1,0.1,0.2,0.1l0,0.1c0,0-0.1,0.1-0.1,0.1l0,0.3l0.1,0c0-0.1-0.1-0.1,0-0.3c0,0,0.1,0.1,0.2,0.1
					c-0.1,0.1,0,0.2,0,0.3c0,0.1-0.2,0.2-0.2,0.4c0,0.1,0.1,0.1,0.2,0.1c0.1,0,0.2-0.1,0.4-0.1c0,0,0.1,0,0.1,0
					c0,0.1-0.1,0.1-0.1,0.2c0,0.2,0.2,0.2,0.3,0.2l0,0.3c-0.1,0.2-0.4,0.3-0.7,0.3c0,0.2,0.1,0.3,0.1,0.5c0,0.2-0.5,0.3-0.5,0.5
					c0,0,0,0.1,0.1,0.1c0.1,0,0.1-0.1,0.2-0.1c0.2,0,0.2,0.2,0.4,0.2c0.1,0,0.2-0.1,0.3-0.2c0,0,0,0.1,0,0.1c0,0.2-0.3,0.2-0.5,0.2
					c0,0-0.6,0.6-0.6,0.6l0,0.1l0.1,0c0.1-0.1,0.1-0.1,0.2-0.1h0.2c0-0.1,0.1-0.3,0.3-0.3c0.1,0,0.2,0.1,0.3,0.1
					c0.2,0,0.7-0.2,0.8-0.1l0.6,0c0.2,0,0.3-0.1,0.5-0.3l0-0.1c-0.1,0-0.2,0-0.3-0.1c0.1-0.2,0.5-0.4,0.5-0.7c0-0.2-0.1-0.3-0.3-0.3
					c-0.1,0-0.1,0-0.2,0.1l0.1-0.1c-0.1,0-0.1,0.1-0.2,0.1l0-0.1c0,0,0.1-0.1,0.1-0.1c0-0.1-0.1-0.2-0.1-0.4
					C54.2,63.1,53.8,63,53.6,62.7z"/>
				<path fill="#6B7384" d="M52.3,63.1L52.3,63.1c-0.2,0.1-0.2,0.1-0.2,0.2l0.2,0C52.2,63.2,52.3,63.1,52.3,63.1z"/>
				<path fill="#6B7384" d="M47.9,58.9c0.3,0,0.4,0.2,0.6,0.3c0.4,0.2,0.7,0.3,1.2,0.3c0.5,0,0.8-0.3,1.2-0.4
					c0.2-0.1,0.6-0.4,0.7-0.6l0,0c0.1-0.5-0.5-0.4-0.4-0.8c0-0.1,0.1-0.1,0.1-0.2c-0.1,0-0.2,0.1-0.3,0.1c-0.1,0-0.2,0-0.2-0.2
					c-0.1,0.1-0.1,0-0.2,0c0,0.1-0.1,0.1-0.1,0.3c-0.1-0.2-0.3,0-0.5,0c-0.1,0-0.2-0.1-0.4-0.1c0,0.1,0,0.1,0,0.2
					c0,0-0.1-0.1-0.2-0.1L49,57.7c-0.1,0-0.1-0.1-0.2-0.2c-0.1,0.1,0,0.1,0,0.2c-0.1,0-0.2,0.1-0.3,0.1c-0.1,0-0.2-0.2-0.1-0.3
					c0-0.1,0-0.2,0-0.3h-0.1c-0.1,0-0.2,0.2-0.3,0.2l0,0.1c-0.1-0.1-0.1-0.1-0.3,0c0,0.2,0.5,0.4,0.6,0.4c0,0.1,0,0.1,0,0.1
					c-0.2,0.1-0.5,0.2-0.8,0.1c0.1,0.2,0.4,0,0.6,0.1c-0.1,0.2-0.1,0.3-0.2,0.5C48,58.8,48,58.8,47.9,58.9z"/>
				<path fill="#6B7384" d="M11.7,82.4c-0.1,0-0.1-0.3-0.3-0.3l-0.3,0c0,0,0-0.1,0.1-0.1c-0.4,0-0.8-0.2-1-0.4c0,0-0.1-0.2-0.2-0.2
					c-0.6,0-0.8-0.4-1.6-0.4c-0.9,0-1.4,0.3-2,0.7h0.2c0.3-0.2,1-0.4,1.3-0.4c0.1,0,0.2,0,0.2,0.1c-0.1,0-0.1,0.1-0.1,0.2l0.6,0
					c0.3,0,0.3,0.2,0.5,0.2c0.2,0,0.3,0,0.4,0c0.1,0,0,0.2,0.1,0.2c-0.1,0.3,0.2,0.2,0.5,0.4c-0.1,0.1-0.2,0.1-0.3,0.1l-0.1,0.1
					c0.4,0,0.6,0.1,1.1,0.1C11.1,82.6,11.5,82.6,11.7,82.4z"/>
				<path fill="#6B7384" d="M7.4,81.6c-0.1,0-0.2,0-0.3,0.2c0,0,0.2,0,0.3,0c0.1-0.1,0.1-0.2,0.2-0.3l0,0h0L7.4,81.6z"/>
				<path fill="#6B7384" d="M9.1,83.3c-0.1,0.1,0,0.3,0.2,0.3c0.2,0,0.5-0.1,0.7-0.1c0-0.1,0-0.1-0.1-0.2l0,0
					c-0.1,0-0.3-0.1-0.5-0.1C9.3,83.2,9.2,83.3,9.1,83.3z"/>
				<path fill="#6B7384" d="M15.3,83.3c-0.1,0.2,0.2,0.2,0.4,0.2c0.1,0,0.3,0,0.4-0.1c0-0.1-0.4-0.2-0.5-0.2
					C15.5,83.2,15.4,83.2,15.3,83.3z"/>
				<path fill="#6B7384" d="M12.7,83.6c0.2,0,0.4-0.3,0.6-0.3c0.1,0,0,0.1,0.2,0.1c0.1,0,0.3-0.1,0.4-0.1l0.7,0
					c-0.1-0.2-0.2-0.2-0.3-0.4l0.1,0.1c-0.3-0.2-0.2-0.4-0.9-0.4c-0.2,0-0.4,0.1-0.6,0.1c-0.2,0-0.2-0.1-0.4-0.1
					c-0.1,0-0.2,0.1-0.2,0.1c-0.1,0.1,0,0.2,0.2,0.2c-0.1,0.1-0.1,0.3-0.1,0.4c-0.3,0.1-0.4,0-0.9,0c0,0-0.1,0.1-0.1,0.1
					c-0.1,0.1,0,0.3,0.1,0.3c0,0,0.1-0.1,0.1-0.1c0.1,0.1,0.1,0,0.2,0c0.2,0,0.7,0,0.9,0.1C12.7,83.5,12.5,83.6,12.7,83.6z"/>
				<path fill="#6B7384" d="M16.4,87.4c0,0.1,0.1,0,0.2,0c0.1,0,0.3-0.2,0.3-0.2l0.1-0.1h-0.2C16.7,87.1,16.5,87.2,16.4,87.4z"/>
				<path fill="#6B7384" d="M21.4,92.1C21.4,92.1,21.4,92.1,21.4,92.1c-0.3,0-0.6,0.2-0.7,0.4c-0.1,0.2,0.4,0.5,0.7,0.5
					c0.3,0,0.7-0.4,0.8-0.5c0,0,0-0.2-0.1-0.2c-0.1,0-0.4,0.2-0.3,0C21.7,92.3,21.5,92.2,21.4,92.1z"/>
				<path fill="#6B7384" d="M-5.2,114.7l0.3-0.5c0.1-0.1,0.2-0.1,0.2-0.2c0.1-0.1,0.1-0.3-0.2-0.3c-0.2,0-0.6,0.5-0.6,0.5l-0.1,0.2
					c0,0.1,0,0.2,0.2,0.2H-5.2z"/>
				<path fill="#6B7384" d="M11,80.2c0.1-0.1,0.1-0.2-0.1-0.2c0,0-0.1,0-0.1,0c-0.1,0.1-0.2,0.3,0,0.3C10.9,80.3,11,80.2,11,80.2z"
					/>
				<path fill="#6B7384" d="M11.6,79.1c0-0.1,0-0.1-0.1-0.1c-0.1,0-0.3,0.1-0.3,0.1C11.2,79.1,11.4,79.2,11.6,79.1z"/>
				<path fill="#6B7384" d="M11.9,79.2c0,0,0,0.2,0,0.1L11.9,79.2z"/>
				<path fill="#6B7384" d="M12.7,81.9l0.1-0.2c-0.1,0.1-0.3,0.2-0.5,0.2L12.3,82c0,0,0.1,0,0.1,0C12.4,82,12.6,81.9,12.7,81.9z"/>
				<path fill="#6B7384" d="M-2.5,62.6c0,0-0.2,0.4,0,0.4c0.1,0,0.2,0,0.3-0.2c0.3-0.4,0-0.4,0.4-0.9c-0.2-0.1-0.3-0.1-0.7,0.3
					c0.3-0.1,0.1-0.1,0.3,0C-2.3,62.3-2.3,62.5-2.5,62.6z"/>
				<path fill="#6B7384" d="M-2,61.3c0,0-0.2,0-0.1,0C-2,61-1.9,61-1.5,60.6c-0.3,0.1-0.1,0-0.3,0c-0.1,0-0.2,0-0.3,0.2
					c-0.2,0.3-0.3,0.5-0.1,0.5c-0.3,0.3-0.4,0.5-0.4,0.7C-2.3,61.7-2.3,61.5-2,61.3z"/>
				<path fill="#6B7384" d="M19,48.7l-0.3,0c0.1-0.2,0-0.3,0-0.3c-0.1,0-0.1-0.1-0.4,0c-0.1,0.1-0.1,0.1,0,0.2c0,0,0,0,0,0
					c-0.1,0-0.3,0.1-0.4,0.2c0,0,0,0.1,0.1,0.1c0,0,0,0-0.1,0c0,0-0.1,0-0.2,0l-0.2,0.3c0,0,0.1,0,0.1,0.1c0,0-0.1,0-0.1,0
					c-0.1,0-0.3,0.1-0.4,0.2c0,0.1-0.1,0.1-0.2,0.3c-0.1,0.1-0.1,0.3,0,0.3c0.1,0,0.2,0.1,0.3,0.1c0.1,0,0.4-0.1,0.6-0.1
					c0.1-0.1,0.2-0.2,0.3-0.2C17.9,49.8,18,49.9,18,50c-0.2,0-0.3-0.1-0.5,0.2c-0.1,0.1,0,0.3,0.2,0.3c0.3,0,0.6-0.1,1-0.3
					c0,0,1-0.3,1-0.3c0,0,0.7,0.1,0.8,0c0.1,0,0.8-0.6,1-0.8c0.1-0.2,0.2-0.4,0-0.4c-0.2,0-0.4,0.2-0.5,0.2c-0.2,0-0.2-0.4,0-0.6
					c0,0,0-0.1,0.2-0.2c-0.1,0-0.1-0.1-0.1-0.1c-0.2,0.1-0.6,0.3-0.8,0.5c-0.1,0.2,0,0.2,0.1,0.3L20.1,49c0,0-0.1,0-0.2,0.1
					c0,0,0.1,0,0.2,0c-0.2,0.2-0.3,0.2-0.4,0.2C19.1,49.4,19.4,48.7,19,48.7z M18.2,49c0.1,0,0.1,0,0.2,0C18.3,49,18.2,49,18.2,49z"
					/>
				<path fill="#6B7384" d="M16.9,46.4c0.1,0,0.6-0.4,0.8-0.6c-0.1,0-0.6,0.1-0.8,0.4C16.8,46.3,16.8,46.4,16.9,46.4z"/>
				<path fill="#6B7384" d="M18.9,48.3l0.3,0l0.2-0.2L19,48C18.8,48.2,18.9,48.3,18.9,48.3z"/>
				<path fill="#6B7384" d="M16.3,48.9c0,0.1-0.1,0.3,0,0.3c0.1,0,0.4-0.2,0.5-0.4c0.2,0,0.6-0.2,0.8-0.5c0,0.1-0.3,0.5-0.1,0.5
					l0.9-0.5c0.1-0.1,0-0.2,0.2-0.3c0.1,0,0.3-0.2,0.4-0.3c0.2-0.3-0.7,0-0.7,0c-0.1,0-0.1,0-0.2,0c-0.3,0-0.7,0.4-1.1,0.6
					c-0.3,0.2-0.5,0.2-0.8,0.3c-0.1,0-0.5,0.3-0.5,0.3c0,0,0,0.1-0.1,0.3c0.1,0,0.2-0.1,0.3-0.1C16.1,48.9,16,49,16.3,48.9z"/>
				<path fill="#6B7384" d="M21,46.7l0.5,0c0.1,0,0.3-0.1,0.4-0.2c0.1-0.2,0.1-0.4-0.2-0.4c-0.1,0-1.1,0.4-1.3,0.6
					c0.1,0,0.2-0.1,0.3-0.1C20.9,46.5,20.8,46.7,21,46.7z"/>
				<path fill="#6B7384" d="M20.1,47.6c0.3,0,0.7-0.1,1-0.5l-0.3,0c0.2,0,0.4-0.1,0.6-0.2c0-0.1,0-0.2-0.1-0.2c-0.2,0-1,0-1.3,0.4
					C20,47.3,20,47.6,20.1,47.6z"/>
				<path fill="#6B7384" d="M19.7,47.3c0.1,0,0.2-0.1,0.3-0.2c0-0.1,0-0.5-0.4-0.1C19.6,47.1,19.6,47.3,19.7,47.3z"/>
				<path fill="#6B7384" d="M22.2,48.9l-0.1,0.2l0.2,0c-0.1,0.1-0.1,0.2,0,0.2c0.2,0,0.8-0.2,1-0.2c0,0,0.1,0,0.1,0.1
					c-0.1,0.1-0.4,0.1-0.5,0.3c0,0.1-0.1,0.1-0.1,0.2c-0.1,0-0.2,0.1-0.2,0.2c-0.1,0.2,0.3,0.1,0.3,0.1c0,0,0.3,0,0.5-0.1
					c0.3-0.5,0.5-0.7,0.8-1.1c0.2-0.3,0.3-0.4,0-0.4c-0.1,0-0.2,0.1-0.3,0.1c-0.2,0-0.2-0.2-0.4-0.2c-0.1,0-0.1,0-0.2,0
					c-0.1,0.2,0.1,0.2,0.3,0.2l-0.2,0.4c-0.3,0-0.1-0.4-0.4-0.4l-0.1,0.2c0,0.1,0,0.2,0,0.3c-0.5,0.2-0.1-0.7-0.4-0.7l-0.1,0
					c-0.1,0.1-0.1,0.1-0.1,0.2l0,0L22,48.8C22,48.9,22,49,22.2,48.9z"/>
				<path fill="#6B7384" d="M22.5,47.8c0.1,0,0.2-0.1,0.3-0.2c-0.2-0.1,0.1-0.5-0.2-0.5C22.4,47.3,22.4,47.8,22.5,47.8z"/>
				<path fill="#6B7384" d="M21,49.8c0.1,0,0.1,0,0.2,0c0.1,0,0.2,0,0.3-0.2c0.1-0.1,0.1-0.2,0.1-0.3C21.5,49.5,21.3,49.6,21,49.8z"
					/>
				<path fill="#6B7384" d="M23.4,46.4c0,0.2,0.1,0.1,0.2,0.1c0.2,0,0.4-0.1,0.3,0.1c0.2,0,0.3,0.1,0.5,0.1c0.3,0,0,0.4,0.2,0.4
					c0.1,0,0.2,0,0.4-0.2c0.1-0.2,0-0.3,0-0.5c0.1-0.1,0.1-0.1,0.2-0.2c0-0.1,0.1-0.4-0.1-0.4c-0.1,0-0.2,0.1-0.3,0.1
					c-0.1,0,0.2-0.4-0.1-0.4c-0.1,0-0.2,0.1-0.3,0.1c-0.1,0,0-0.3-0.2-0.3c-0.1,0-0.3,0.1-0.5,0.1c-0.1,0.2-0.1,0.3,0,0.3
					c-0.1,0.1-0.1,0.1-0.2,0.2c0,0.1,0.1,0,0.4,0c-0.1,0.1-0.1,0.2-0.1,0.2C23.7,46.3,23.6,46.3,23.4,46.4z"/>
				<path fill="#6B7384" d="M23.8,47.1c0.2,0,0.3,0,0.4-0.1c-0.1,0,0-0.1-0.2-0.1C24,46.9,23.6,47.1,23.8,47.1z"/>
				<path fill="#6B7384" d="M26.7,48.3l-0.2,0c-0.1,0.1-0.2,0.1-0.3,0.1c-0.4,0-0.1-0.6-0.6-0.6c-0.1,0-0.3,0-0.5,0.3
					c-0.1,0.2,0.3,0.6,0.5,0.6c0.1,0,0.2-0.1,0.3-0.2c0,0.3-0.1,0.6-0.1,0.9c-0.1,0-0.2,0.2-0.3,0.3c-0.2,0.3,0.1,0.8,0.4,0.8
					c0.1,0,0.4-0.2,0.5-0.3l0.1,0c-0.2,0.3,0.2,0.3,0.5,0.3l1,0c0.2-0.1,0.2-0.2,0.4-0.2c0,0.1-0.1,0.3,0.1,0.3c0.4,0,1,0,1.3-0.6
					c0,0-0.1,0-0.1,0c0.1-0.1,0.1-0.1,0.1-0.2c0,0,0.1,0,0.1,0c0.1-0.4-0.2-0.5-0.7-0.5c-0.6,0-1.1,0.4-1.7,0.4
					c-0.3,0-0.5-0.1-0.7-0.2c-0.1,0-0.3,0.2-0.1-0.1c0-0.1,0.1-0.1,0.1-0.1c-0.1-0.2-0.5,0.1-0.3-0.4l0.5,0
					C27,48.6,26.4,48.7,26.7,48.3z"/>
				<path fill="#6B7384" d="M24.3,49.6c0,0-0.2,0.1-0.3,0.3c0,0,0.4,0.5,0.5,0.5c0.2,0,0.4-0.3,0.6-0.5c0.1-0.2,0.1-0.6-0.2-0.6
					C24.6,49.2,24.4,49.6,24.3,49.6z"/>
				<path fill="#6B7384" d="M26.6,47.1c-0.2,0-0.7,0-0.9,0.2c0,0,0.6,0.2,0.6,0.2c0.1,0,0.2-0.1,0.3-0.2l0.1-0.2
					C26.6,47.2,26.7,47.1,26.6,47.1z"/>
				<path fill="#6B7384" d="M26.4,46.9c0.1-0.2,0.2-0.3,0.3-0.4c0.2-0.4-0.4,0-0.1-0.4c-0.1,0-0.3-0.1-0.2-0.3
					c-0.1,0-0.3,0.1-0.4,0.3c-0.2,0.3,0,0.4,0,0.6c0,0-0.2,0.1-0.2,0.2C25.4,47.1,25.9,47.1,26.4,46.9z"/>
				<path fill="#6B7384" d="M26.5,45.1l0.2-0.3c-0.1,0-0.2,0-0.4,0c-0.1,0.2,0,0.2,0,0.3L26.5,45.1z"/>
				<path fill="#6B7384" d="M27.5,45.5c0.1,0,0.2-0.1,0.3-0.1c0,0.1-0.1,0.2,0,0.2c0.1,0,0.3-0.1,0.4-0.1c0.2,0,0.2,0.1,0.4,0.1
					c-0.2,0-0.9,0-1.1,0.3c-0.2,0.3,0.1,0.4,0.2,0.4c-0.1,0.1-0.1,0.1-0.2,0.1c-0.1,0.2,0.1,0.3,0.3,0.3c0.2,0,0.3-0.1,0.5-0.4
					c0,0.1,0.1,0.3,0.2,0.3l0.1-0.2l0.2,0c0-0.1,0-0.2,0.1-0.3c0.1-0.1,0.2-0.2,0.3-0.3c-0.1,0.2-0.2,0.3,0,0.3
					c0.1,0,0.6-0.5,0.8-0.5c0.1,0,0.2,0,0.3-0.1c0.1-0.1,0.1-0.1,0.2-0.3c-0.1,0-0.3-0.2-0.4-0.2c0,0-0.3,0.2-0.2,0
					c0.1-0.1,0.2-0.1,0.2-0.3c0.1-0.1-0.1-0.1,0-0.3c0.1-0.2,0.2-0.3,0-0.3l-0.1,0l0,0.1l-0.1,0.2l-0.1,0c0-0.2,0.2-0.4,0.1-0.5
					c-0.1-0.1-0.3,0.1-0.4,0c-0.1-0.1,0.2-0.6,0.1-0.7c-0.1-0.1-0.3-0.2-0.6-0.2c-0.1,0.2,0,0.3,0.1,0.4l-0.2,0
					c-0.2-0.1-0.3,0-0.5,0.2c0,0-0.1,0.3,0,0.3c0.1,0,0.3-0.1,0.3,0c-0.1,0.1-0.2,0.2-0.2,0.2c-0.1,0-0.1-0.1-0.2-0.1
					c-0.1,0-0.2,0-0.4,0.2c-0.1,0.2,0.1,0.3,0.2,0.4c0,0-0.1,0.1-0.2,0.1c-0.1,0-0.2-0.1-0.2-0.2l-0.2,0c-0.3,0.5-0.1,0.5,0.3,0.5
					c-0.2,0.1-0.2,0.2-0.4,0.2C27.4,45.4,27.4,45.5,27.5,45.5z"/>
				<path fill="#6B7384" d="M27.2,56.4c-0.1,0.2-0.1,0.4,0.1,0.4c0.2,0,0.6-0.2,0.7-0.4C28.4,55.9,27.6,55.7,27.2,56.4z"/>
				<path fill="#6B7384" d="M28.8,52c0.2,0,0.4-0.2,0.6-0.2c0.1,0,0.2,0.1,0.3,0.1c0.1,0,0.2-0.1,0.4-0.3c-0.1-0.2-0.2-0.5-0.6-0.5
					c-0.3,0-0.3-0.1-0.5-0.1c-0.1,0-0.3,0.1-0.3,0.3c-0.1,0.2,0,0.3,0.1,0.4C28.4,52,28.6,52,28.8,52z"/>
				<path fill="#6B7384" d="M28.6,56c0,0-0.2,0.1-0.3,0.2c-0.1,0.1,0,0.1,0.1,0.1c0.1,0,0.1,0,0.3,0C28.7,56.2,28.7,56,28.6,56z"/>
				<path fill="#6B7384" d="M27.5,55c-0.2,0-0.7,0.4-0.5,0.4C27.1,55.4,27.3,55.3,27.5,55z"/>
				<path fill="#6B7384" d="M32.8,56.9c-0.1,0-0.2,0-0.2-0.1c0-0.3-0.1-0.1-0.4-0.1c-0.2,0-0.1-0.3,0-0.6c-0.3,0-0.6-0.2-0.4-0.6
					c-0.2,0-0.2-0.1-0.3-0.1c0.2-0.3,0.3-0.3,0.6-0.4c0-0.1-0.1-0.2-0.1-0.2c-0.1,0-0.2,0-0.4,0c0.2-0.2,0.4-0.2,0.6-0.2
					c0-0.2,0-0.4-0.2-0.4l-0.2,0l0.1-0.3c-0.3-0.1-0.4-0.3-0.7-0.5c0.2-0.3-0.1-0.3-0.3-0.3l-0.3,0c-0.4,0-0.2-0.6-0.4-0.8
					c-0.1-0.2-0.6-0.3-0.8-0.3c-0.2,0-0.5,0.4-0.7,0.4c-0.1,0-0.1-0.2-0.2-0.2c-0.1,0-0.3,0.2-0.3,0.2c-0.1,0,0.1-0.3,0.2-0.3
					c0.2-0.4,0.4-1,0-1c-0.5,0-1.4,0.2-1.8,0.8c-0.1,0.2,0,0.3-0.1,0.5c-0.1,0.1-0.4,0.3-0.4,0.3c-0.2,0,0-0.2,0-0.3
					c0,0,0.1-0.2,0.2-0.3c-0.1,0-0.1-0.1,0-0.2c0.3-0.5,0.7-0.5,1-0.9c0,0-0.3-0.2-0.3-0.2c-0.4,0-0.9,0.3-1.4,0.6
					c0,0-0.1,0.1-0.1,0.1c0,0-0.1-0.1-0.2-0.1c-0.1,0-0.1-0.1-0.2-0.1c-0.1,0-0.4,0.1-0.5,0.3c-0.1,0.2,0,0.3-0.1,0.5
					c-0.1,0.2-0.4,0.2-0.6,0.3c-0.3,0.3-0.4,0.5-0.8,0.8c-0.6,0.5-0.5-0.3-0.4-0.5c0.1-0.2,0.3-0.2,0.5-0.4c0,0,0,0,0,0
					c0.2-0.1,0.3-0.2,0.5-0.4l-0.2,0c0.3-0.3,0.2-0.1,0.4-0.1c0.4,0,0.8-0.4,1.1-0.7c0,0,0.4-0.2,0.4-0.3c0.1-0.1,0.1-0.1,0.1-0.2
					c-0.4,0-0.7-0.2-1.1-0.2c-0.3,0-0.5,0.2-0.5,0.3c0,0.1-0.1,0.2-0.1,0.2l-0.3,0l-0.2,0.3c-0.1,0.3-0.3,0.5-0.3,0.7c0,0,0,0,0,0
					c-0.3,0-0.5,0.6-0.8,0.7c0.1-0.1,0.2-0.3,0.4-0.5c-0.1,0-0.2-0.1-0.2-0.1c0.1-0.2,0,0,0.2-0.3c0.1-0.1-0.1-0.1-0.3,0
					c0,0-0.1,0-0.1,0c0.2-0.1,0.6-0.3,0.8-0.6c0.1-0.1,0-0.2,0-0.2l-0.3,0c0-0.1-0.2-0.2-0.1-0.4c0.3-0.5,0.3-0.9-0.2-0.9
					c-0.2,0-0.3,0.2-0.4,0.4c-0.2,0.1-0.3,0-0.5,0.3c-0.1,0.2-0.1,0.3-0.2,0.4C21.1,51,21,51,20.8,51.3c-0.4,0.6,0.7,0.2,0.3,0.8
					c0,0,0,0,0,0l-0.1,0c-0.2,0-0.3-0.2-0.4-0.2l-0.2,0.3c0,0.3,0.2,0.4,0.4,0.6c-0.3,0.2-0.8,0.2-1.2,0.8c-0.5,0.1,0.2-0.4,0.2-0.6
					c0-0.1-0.2-0.2-0.4-0.2c-0.1,0-0.2,0.1-0.4,0.1c0.1-0.3,0.2-0.6,0.4-1c0.1-0.2,0.5-0.3,0.7-0.6c0.2-0.3,0-0.4-0.2-0.4
					c-0.2,0-0.5,0.1-0.6,0.3c0,0.1-0.1,0.1-0.1,0.2c-0.3,0.1-0.1,0-0.3,0c-0.1,0-0.3,0.1-0.4,0.2c-0.1,0.2-0.5,0.9-0.5,1.2
					c-0.1,0.1-0.2,0.1-0.3,0.1c-0.2,0,0.2-0.4,0.2-0.6c0.1-0.2,0.1-0.4-0.1-0.5l-0.3,0c0,0.1-0.1,0.2-0.2,0.3
					c-0.2,0.1-0.3,0.1-0.5,0.1c0.1-0.3,0.2-0.5-0.2-0.5c-0.2,0-0.5,0.2-0.6,0.3c0-0.1,0.4-0.6,0.2-0.6c-0.4,0-2.1,0.6-2.7,1.4
					c0,0,0,0.2,0,0.2c-0.2,0-0.5,0.1-0.7,0.1c-0.2,0-0.3,0-0.4-0.1c0.3-0.1,0.5-0.2,0.6-0.3c0,0,0.1-0.1,0.1-0.1c0,0,0,0,0,0
					c0,0,0,0,0,0c0.4-0.4,1.4-1,1.8-1.1c0.2,0,0.9-0.2,1.1-0.4c0.3-0.4,0-0.7-0.3-0.7c-0.2,0-0.5,0.2-0.5,0.1
					c-0.2,0-0.2-0.2-0.4-0.3c-0.2-0.1-0.4,0.1-0.6,0.1c-0.3,0-0.3-0.2-0.7,0c-0.1,0.2-0.2,0.5-0.3,0.6c-0.3,0.4-0.9,0.7-1.4,1.1
					c-0.2-0.2-0.2-0.5-0.7-0.5c-0.2,0-0.5,0.2-0.7,0.2c-0.1,0,0-0.3,0.1-0.5c-0.3,0.1-0.6,0.4-0.9,0.4c-0.2,0,0.1-0.8,0-0.8
					c-0.2,0-0.6,0.5-0.9,0.5c-0.1,0-0.1-0.1,0-0.2c-0.5,0.1-0.7,0.2-1.2,0.3C7.7,51.7,7,52,7,51.9C7.1,51.5,6.7,52,6.5,52
					c-0.9,0-0.7,0.4-0.8,0.4c-0.3,0-0.8-0.1-0.9-0.5c0,0,0-0.2,0-0.2c-0.2,0.1-0.1,0-0.1,0l-7,7.3c0,0,0,0,0,0l7-7.2
					c-0.2-0.1-0.1-0.3-0.5-0.3c-0.2,0-0.5,0.1-0.7,0.1c-0.4,0-1.1-0.1-1-0.4l-1,0c-0.1-0.1,0-0.2,0-0.3l-0.6,0
					c-0.1-0.1,0-0.1-0.1-0.2c-0.2,0.1-0.5,0.3-0.5,0.2c0.1-0.1,0.2-0.1,0.3-0.2c-0.1-0.1,0-0.3-0.1-0.3c-0.2,0-0.7,0.4-1,0.5
					c-0.3,0.1-0.2,0-0.5,0c-1,0.3-2.2,0.9-3.4,1.6l-0.7,0c-0.1,0.1-0.7,0.5-0.7,0.5c-0.1,0.1,0.2,0.3,0.3,0.4c0,0.1-0.4,0.6-0.4,0.7
					c0.1,0.2,0.4,0.3-0.1,0.8c-0.2,0.1-0.2,0-0.4,0c-0.3,0-0.7,0.2-0.1-0.4l-0.2,0c-0.6,0.3-1.4,0.5-2,0.7c-0.1,0.2-0.1,0.3,0.1,0.3
					c-0.1,0.1-0.2,0.1-0.2,0.2c-0.2,0.2-0.1,0.2-0.4,0.5l0.7,0c0.3,0,0.2,0.1,0.4,0.1c0.3,0,0.7-0.3,0.9-0.3c0.1,0,0.1,0,0.2,0
					l-0.3,0.3c0-0.1,0-0.1-0.2,0c0,0-0.1,0.3-0.2,0.4c-0.2,0.2-1.7,0.7-1.8,0.7c-0.1,0-0.2,0-0.4,0.1v2.8c0,0,0.1,0,0.1,0h0.2
					c-0.1,0-0.2,0.1-0.3,0.2v0.5c0.4-0.1,0.7-0.3,1-0.6l0.3-0.3c0.6-0.6,2.5-1.5,2.8-1.5h0.2c-0.1,0.1-0.1,0.1-0.2,0.2
					c-0.6,0.2-1.1,0.4-1.5,0.8c-0.1,0.1-0.1,0.1-0.2,0.2c0,0-0.1,0-0.3,0.1c-0.1,0.1,0,0.1,0,0.1c0.3,0,1.9-0.6,2.4-0.9
					c0-0.1,0-0.1,0.1-0.2c0.2-0.1,0.6-0.2,0.8-0.3c-0.4,0.6,0.2,0.7,0.5,0.8l0.8,0c0.1,0.3,0.7,0.3,0.7,0.6c0,0.1-0.2,0.6,0.1,0.6
					c0.1,0,0.3-0.2,0.5-0.3c0,0.1,0,0.2,0.2,0.2c0.2-0.1,0.2,0,0.2,0.1c-0.1,0.1-0.3,0.2-0.5,0.4c-0.1,0.1-0.1,0.3,0,0.3
					c0.2,0,0.3-0.2,0.6-0.2l-0.2,0.2c-0.1,0.1-0.4,0.1-0.5,0.3c-0.1,0.1-0.2,0.3,0,0.3c0.3,0,0.4,0,0.2,0.3l-0.2,0.3
					c-0.2,0.2-0.1,0.5,0.2,0.5c0.1,0,0.1,0,0.2,0c0,0,0.1-0.1,0.1-0.1c0,0-0.1,0-0.1,0.1c-0.1,0.1,0,0.1-0.1,0.2
					c-0.2,0.2-0.7,0.7-0.5,0.7c0.1,0,0.2,0,0.2,0.1c0,0.2-0.4,0.4-0.3,0.5c0,0,0.2,0.3,0.1,0.3c-0.2,0.4-0.6,0.8-0.1,0.8
					c-0.2,0.3,0.5,0.1,0.3,0.6c-0.1,0.2,0.3,0.2,0.3,0.4c0,0,0.1,0.1,0.1,0.1h0v0l0,0c-0.1,0.2,0,0.2-0.1,0.4
					c-0.1,0.2-0.4,0.4-0.6,0.5c0-0.2,0-0.3-0.2-0.3c-0.1,0-0.3,0-0.3,0.1c-0.3,0.4,0,0.5-0.4,0.9C-3.7,68.6-5,69.6-5.2,70
					c-0.2,0.4-0.9,1-1,1.4c-0.2,0.1-0.4,0.2-0.4,0.3C-6.8,72.2-7.1,73-6.7,73c-0.7,0.7-0.4,0.9-0.6,1.5c-0.1,0.1-0.3,0.3-0.2,0.4
					c0.4,0.2,1.1,0.6,0.9,1.1h0l-0.1,0.1c-0.2,0.4-0.1,0.5-0.2,0.8C-7,77-7.4,77.5-7.3,77.6c0.2,0.2,0.2,0.5,0.2,0.9
					c0,0.2-0.4,0.1-0.5,0.1c0,0.3,0.4,0.2,0.5,0.4C-7,79.3-7,79.5-7,79.7l-0.3,0.4c0,0.1,0,0.1,0.1,0.2c0.1,0.1,0,0.5,0.3,0.5
					c0,0.1,0,0.4,0,0.4c0.1,0,0.3-0.2,0.3-0.3c0.1-0.1,0.1-0.4-0.2-0.3c-0.2-0.2,0-0.6,0.2-1c0.1-0.4-0.1-0.5,0.1-0.9
					c0.1-0.3,0.2-0.5,0.2-0.7c0-0.2-0.3-0.2-0.2-0.4c0.1-0.3,0.1-0.5,0.4-0.9c0-0.1,0.1-0.2,0.2-0.2c0.1,0.2,0.4,0.2,0.6,0.3
					c0.1,0.1-0.2,0.4-0.2,0.6c0,0.2-0.2,0.4-0.2,0.6c0.1,0.2,0.1,0.4,0.2,0.6c0.1,0,0.1,0,0.2,0c-0.3,0.4,0.2,0.4,0.2,0.7
					c0,0.2-0.3,0.4-0.3,0.5c0.1,0.2,0.3,0.2,0.4,0.4c0.1,0.4,0.4,0.9,0.2,1.5c0,0.1,0.1,0.2-0.1,0.4c-0.1,0.2-0.4,0.3-0.5,0.5
					c-0.1,0.2-0.1,0.3,0,0.3C-5.6,83-5,83.1-4.9,83.4c0,0,0,0.1,0.1,0.1c0.2,0.1,0.3,0.1,0.5,0.2C-4.1,83.8-4.2,84-4,84
					c0.2,0.1,0.4,0,0.5,0c0.1,0.1,0.5,0.5,0.8,0.5c0.2,0,0.3,0,0.4,0c0.1,0,0.1,0.2,0.3,0.2c0.3,0,0.6-0.3,1-0.3
					c0.2,0,0.2,0.1,0.3,0.1h0.1c0.4,0.2,0.2,0.6,0.7,0.9c0.3,0.2,0.6,0.1,0.9,0.2c0.2,0.1,0.3,0.3,0.7,0.3c0.1,0,0.3-0.1,0.4-0.1
					h0.1c-0.1,0.4,0.1,0.6,0.3,0.8c0,0.1,0.1,0.1,0.1,0.3c-0.1,0.3-0.4,0.5-0.2,0.7h0.2c0,0,0-0.1,0.1-0.2c0,0,0.5,0.4,0.5,0.5
					c0,0.1-0.1,0.3,0.2,0.4c0,0,0,0.1,0,0.1c0.1,0,0.5-0.1,0.6,0c0.1,0.1,0.1,0.5,0.4,0.5c0.2,0,0.3-0.1,0.5-0.3
					c0,0-0.1-0.1-0.1-0.2C5,88.3,5.8,88,5.9,88c0.2,0,0.2,0.2,0.3,0.3c-0.1,0.1-0.2,0.1-0.2,0.2c0,0.1,0.1,0.1,0.2,0.1
					c0,0,0,0,0.1,0c0,0-0.1,0.1-0.1,0.1c-0.2,0.3,0.2,0.3,0,0.6c-0.1,0.2-0.2,0.2-0.4,0.4c-0.1,0.1,0,0.2-0.1,0.4l0,0.1l-0.2,0.1
					c0,0.1,0,0.1,0.1,0.2c-0.4,0.5-0.9,0.3-1.3,0.7C4,91.4,3.6,91.9,3,91.9c-0.3,0.7-0.8,0.7-1.1,1.1c-0.1,0.2-0.3,0.6,0,0.6
					c0.2,0,0.2-0.1,0.3,0c-0.2,0.3-0.7,0.3-1,0.6c-0.1,0.1-0.4,0.3-0.5,0.5c-0.2,0.3-0.1,0.6,0.1,0.8c0.1,0.1,0.2,0,0.3,0.1
					c0,0.1-0.1,0.4,0,0.5c0,0,0.2,0,0.2,0.1c0,0.3,0,0.5,0,0.9c-0.1,0.4,0.2,0.7,0.2,1.1c0,0.2,0.2,0.4,0.1,0.6
					c-0.1,0.2-0.3,0.4-0.2,0.5c0.2,0.3,0.4,0.5,1,0.7c0.3,0.1,0.4,0.1,0.6,0.3c0.2,0.2,0.4,0.2,0.7,0.3c0.3,0.2,0.6,0.4,0.6,0.8
					c0,0.2-0.4,1.2-0.5,1.3c-0.1,0.3-0.6,0.7-0.7,1l-0.4,0.7c-0.1,0.2-0.4,0.5-0.5,0.6L2,105.2c-0.3,0.6-1.1,1-1.4,1.6
					c-0.1,0.3-0.5,0.5-0.5,0.8l-0.6,1.3c-0.4,0.4-0.5,0.7-0.9,1.1c-0.1,0.1-0.2,0.1-0.3,0.1c-0.2,0.1-0.4,0.4-0.5,0.5
					c-0.4,0.2-0.9,0.6-1.1,1c-0.1,0.1-0.3,0.6-0.2,0.6c0,0,0.1,0.1,0.1,0.2c0,0.1-0.1,0.1-0.3,0.1c-0.2,0.3-0.5,0.4-0.7,0.8
					c-0.1,0.2-0.2,0.6,0.1,0.6c0.2,0,0.3-0.1,0.5-0.2c0.1,0,0.2,0,0.2,0l-0.1,0.3l-2.2,2.5c-0.4,0,0-0.3-0.5-0.3
					c-0.1,0-0.3,0.1-0.3,0.2h0l-0.1,0.2c0,0.2,0.1,0.5,0.1,0.6c-0.1,0.3-0.8,0.4-1,0.7c-0.2,0.3-0.1,0.9-0.3,1.2l-0.1,0.2
					c-0.2,0.4,0.6,0.3,0.4,0.7c-0.1,0.1-0.2,0.2-0.3,0.3c0.1,0,0.1,0.1,0.2,0.1c-0.1,0.2-0.6,0.1-0.7,0.3c0,0,0.1,0.1,0.2,0.2
					c0.2,0.2,0.3,0.5,1.1,0.5c0,0.1,0,0.2,0.2,0.2h0.5c-0.2,0.3,0.5,0.3,0.8,0.4c0.4,0.1-0.1,0.5,0.6,0.5h0.8c0.1,0,0.2-0.1,0.3-0.1
					h0.3c0.3,0,1.1-0.3,1.5-0.3c0.2,0,0.3,0,0.5,0c-0.7-0.2-1.3-0.4-1.8-0.7c-0.3-0.2,0.2-1-0.2-1.2c-0.2,0-0.3-0.2-0.2-0.4
					c0.2-0.3,0.4-0.6,0.9-0.8c0.3-0.2,0.7,0,1-0.3c0.3-0.2,0.3-0.4,0.6-0.6c0.5-0.2,1.2-0.3,1.4-0.8c0.3-0.5-1.1-0.3-0.7-0.9
					c0.1-0.3,0.6-0.5,1.1-0.6c0.2,0,0.7,0,0.8-0.2c0.4-0.4,0.5-0.7,1.1-1c-0.1,0-0.3-0.1-0.2-0.3c0.3,0,0.3,0.2,0.6,0.2
					c0.1,0,0.3-0.1,0.4-0.2c0-0.1-0.1-0.1-0.2-0.2c-0.1,0-0.3,0.1-0.4,0.1c-0.2,0-0.3-0.4-0.2-0.7c0-0.1,0.2-0.2,0.4-0.2
					c0.5,0,0.5,0.2,1.1,0.2c0.2,0,0.7-0.1,0.7-0.2l0.1-0.2c0.3-0.2,0.3-0.7,0.7-1c0.3-0.2,1.1,0,1.5,0c0.7-0.1,1.2-0.1,1.8-0.3
					c0.3-0.2,0.6-0.3,0.9-0.5c0.2-0.1,0.2-0.2,0.3-0.4c0.1-0.2-0.3-0.2-0.3-0.4c0-0.2,0.1-0.4-0.1-0.5c-0.1-0.1-0.4-0.1-0.3-0.3
					c0-0.1,0.2-0.1,0.2-0.1c0.4,0,0.6,0.2,1,0.2c0.2,0,0.7,0.2,1.1,0.2c1.2,0,1.7-0.8,2.4-1.3c0.6-0.4,1.1-0.5,1.8-0.9
					c0.3-0.2,0.3-0.3,0.6-0.6l0,0c0.4-0.4,0.7-0.6,1.3-0.8l0.3-0.8c0.1-0.3,0.2-0.6,0.6-0.8c0.2-0.1,0.6-0.1,0.8-0.4
					c0.6-0.5,1.1-0.2,1.9-0.6c0.1,0,0.1-0.1,0.3-0.2c0.4-0.1,0.8-0.1,1.2-0.1c0.4,0,1-0.2,1.2-0.4c0.1-0.1,0.1-0.3,0.2-0.4
					c0.5-0.3,0.6-0.5,1.1-0.9c0.1-0.1,0.2-0.4,0.3-0.6c0-0.1,0.3-0.3,0.4-0.4c0,0,0.2-0.1,0.2-0.2c0.1-0.2,0.3-0.5,0.4-0.8
					c0.1-0.4,0-0.9,0.4-1.2c0.3-0.2,0.5-0.2,0.9-0.5c0.2-0.2,0.3-0.2,0.5-0.3c0.8-0.7,1.8-1,2.2-2.3c0.1-0.4,0.1-0.7-0.3-0.8
					c-0.3-0.1-0.5,0-0.8,0c-0.3-0.1-0.9-0.6-1-0.8c-0.2-0.1-0.5-0.2-0.9-0.3l-0.9,0.1c-0.4,0-0.4-0.3-0.9-0.3
					c-0.2,0-0.3,0.1-0.5,0.2h-0.2c0.1-0.1,0.1-0.3,0.1-0.4c0-0.1-0.2-0.1-0.3-0.2c-0.2-0.1-0.9-0.5-1.3-0.5c-0.3,0-0.7,0.4-1.1,0.6
					c-0.1,0.1-0.2,0.2-0.3,0.2c-0.1,0-0.1-0.1,0-0.2h-0.5c0-0.2,0-0.3-0.2-0.4c-0.1,0-0.3,0-0.2-0.2c0.2-0.5,0.9-0.7,1.4-1
					c0.1-0.2-0.2-0.2-0.3-0.3c0-0.2-0.1-0.7,0-0.9c-0.3-0.1-0.5-0.6-0.9-0.6h-0.1l0,0c-0.2,0-0.5-0.1-0.6-0.2l-0.5,0
					c-0.5-0.1-1.4,0-1.4-0.5c-0.1,0-0.3,0-0.3-0.1c-0.1-0.4-0.3-0.4-0.5-0.7h-0.6c0-0.2,0.2-0.5,0-0.5c-0.3-0.1-0.7-0.1-0.7-0.4
					l0.1-0.1c0,0,0.2,0,0.3,0c0,0-0.3-0.1-0.5-0.1c-0.1,0-0.5,0-0.6,0.1c-0.2,0.2-0.4,0.2-0.7,0.2c-0.2,0-0.4,0-0.3-0.2l-1.1,0
					c-0.1,0-0.2-0.1-0.1-0.3c-0.3-0.1-0.7-0.1-0.6-0.4l-0.4,0c-0.1,0.2,0.2,0.1,0.2,0.3h-0.5c-0.2,0.1-0.5,0.1-0.7,0.3
					c-0.1,0.2,0.1,0.3,0,0.5c0,0.1-0.3,0.3-0.3,0.3c-0.2,0-0.2-0.3-0.1-0.5c0.1-0.2,0.4-0.4,0.5-0.7c0.1,0,0.2-0.1,0.3-0.2
					c0,0,0-0.2-0.1-0.2c-0.3,0-0.5,0.2-0.8,0.3c-0.6,0.1-0.9,0.2-1.5,0.3C8.8,87,8.6,87,8.3,87.3c-0.1,0.1-0.3,0.4-0.4,0.4
					c-0.2,0.1-0.4,0.1-0.5,0.3c0,0-0.2,0.1-0.2,0.1l-0.1,0.1c-0.2,0-0.1,0-0.2,0c-0.1,0-0.1,0.1-0.2,0.1c0.1-0.1,0.2-0.1,0.2-0.1
					c-0.2-0.2-0.3-0.5-0.9-0.5c-0.5,0-1,0.3-1.5,0.3c-0.4,0-0.2-0.3-0.3-0.4c-0.2-0.1-0.6-0.3-0.4-0.7l0.6-1
					c0.2-0.2,0.5-0.6,0.6-0.7l0.2-0.3c-0.3-0.1-0.3-0.4-0.7-0.4c-0.7,0-1.3,0.1-1.9,0.1c-0.1,0-0.2-0.1-0.1-0.2l0.1-0.1
					c0.2-0.1,0.5-0.2,0.6-0.3l0.5-0.8h0.2l-0.1,0.1c0.2-0.2,0.4-0.3,0.6-0.6c0.2-0.3,0.7-0.6,0.9-0.9l0.1-0.2c-0.1,0-0.4,0-0.4,0
					c-0.1,0-0.2-0.1-0.4-0.1c-0.5,0-1.3,0.2-1.6,0.7C2.7,82.6,2.2,82.8,2,83c-0.1,0.1-0.3,0.3-0.4,0.3c-0.1,0-0.1-0.1-0.3-0.1
					c-0.4,0-0.9,0.2-1.2,0.2c-0.2,0-0.1-0.2-0.2-0.2c-0.4-0.1-0.2-0.4-0.4-0.7c-0.1-0.1-0.1-0.4-0.1-0.5c0-0.1,0.2-0.2,0.2-0.4
					c0-0.1-0.1-0.2,0.1-0.3l0.7-0.9c0.2-0.3,0.4-0.4,0.7-0.7C1,79.6,1,79.5,1,79.4l0,0c0,0,0,0,0,0c0,0,0-0.1,0-0.2
					c0.4-0.5,0.9-1,1.4-1.1c0.2-0.1,0.3,0.1,0.6-0.1c0.4-0.2,0.9-0.6,1.4-0.6c0.2,0,0.2,0.2,0.4,0.2c0.1,0,0.3-0.1,0.4-0.1
					c0.4,0,0.4,0.6,1.1,0.3c-0.1-0.1,0.1-0.3,0.3-0.5c-0.1,0-0.1,0-0.3,0c0.4-0.1,0.7-0.1,1.1-0.1c0,0.1,0,0.1,0,0.1
					c0.1,0,0.3-0.1,0.5-0.1c0.4,0,0.4,0.4,0.7,0.4c0.2,0,0.4-0.2,0.5-0.2c0.8,0,0,1-0.1,1.6c0,0.3,0.1,0.4,0.2,0.6
					c0,0.2-0.2,0.4,0.1,0.4c0.3,0,0.6-0.3,0.8-0.7c0.2-0.3,0.1-0.5,0.2-0.7l0-0.1c0.3-0.5-0.1-0.7,0.2-1.3c0.7-1.2,2-1.5,3.1-2l0,0
					c0.2-0.1,0.2-0.2,0.4-0.2c0.2,0,0.3-0.2,0.6-0.2c0.1,0,0.2-0.1,0.3-0.2L15,74.5l0.1-0.1c0.2,0,0.2,0,0.4-0.2
					c-0.1,0-0.2,0-0.2-0.1c0.1,0,0.3-0.1,0.3-0.2l0.1-0.2l-0.1,0c0-0.1,0-0.1,0.1-0.3c0.1-0.2,0.2-0.5,0.2-0.6c0,0,0.1-0.1,0.1-0.2
					c-0.1,0.2-0.1,0.4-0.1,0.6l-0.1,0.2c0,0,0,0.1,0,0.1c0.1,0,0.7-0.6,0.8-0.7c0.1-0.1,0-0.2,0-0.3l0.1-0.1c0,0,0,0.1,0,0.1
					c0.1,0,0.8-0.6,0.9-0.7c0,0-0.1-0.1,0-0.2c0,0,0.1-0.1,0.2-0.1c0.1,0,0.1,0,0.1,0c0.2,0,0.4,0,0.7-0.1c-0.1-0.1-0.3,0-0.4,0
					l-0.2,0c0.5-0.2,1-0.1,1.4-0.4c0,0.1,0.4,0,0.6-0.1l0.1-0.1c0,0-0.2,0.1-0.2,0.1c-0.1,0-0.1-0.2,0-0.3c0,0,0-0.1,0-0.2
					c0.3-0.6,1-0.8,1.4-1.1c0.2-0.1,0.2,0,0.4,0c0.2,0,0.5-0.1,0.7-0.3c0,0,0-0.1,0-0.1l0,0l0-0.1c0,0,0.1,0,0.2,0
					c0.1,0,0.5,0.1,0.7,0c0.2-0.1,0.3-0.3,0.6-0.3c-0.1,0.2-0.1,0.3,0.1,0.3c-0.4,0-1.1,0.3-1.3,0.7c-0.1,0.2,0,0.4,0.1,0.4
					c0.1,0,0.7-0.5,1-0.6c0.1,0,1.4-0.5,1.5-0.6c0.1-0.2-0.3-0.2-0.4-0.2c-0.5,0-1-0.5-0.8-0.9c0-0.1,0.2-0.2,0.4-0.4
					c-0.1,0-0.2,0-0.4,0c0.2-0.1,0.8-0.2,0.9-0.6c0.2-0.3-0.4-0.3-0.7-0.3c-0.7,0-1.3,0.5-1.8,0.6c0.4-0.5,0.7-0.3,1.2-0.7
					c0.3-0.2,0.3-0.4,0.6-0.5c0.7-0.2,1-0.1,1.6-0.1c0.8,0,1.1,0.3,1.8-0.4c0.4-0.3,1.6-0.4,1.9-0.9c0.2-0.4,0.1-0.6,0.1-0.8
					c-0.1,0,0.1-0.2,0-0.3l0.1-0.2c-0.4,0.2-1.3,0.5-1.7,0.5c0,0-0.1,0-0.1-0.1c0.4-0.2,1.3-0.3,1.5-0.6c0.1-0.1-0.1-0.1,0-0.2
					c-0.4,0-1.1-0.1-0.8-0.7l0-0.1c-0.3,0-0.4-0.2-0.5-0.4c0.1,0,0.3-0.1,0.4-0.3c0.1-0.2,0-0.3,0.1-0.5c-0.1,0-0.2-0.2-0.2-0.4
					c0.2,0.2,0.5,0.1,0.8,0.3c0,0,0,0.2,0.1,0.2c0.1,0,0.2-0.1,0.2-0.2c0.2-0.5-0.4-0.8-0.5-1.2l0.2,0c0,0.2,0.8,0.6,1,0.7
					c0.1-0.2,0.4-0.5,0.5-0.7c0.1-0.2-0.1-0.3-0.1-0.4c0-0.1,0-0.1,0.2-0.3l-0.2,0c0.1-0.3-0.1-0.1-0.3-0.2c-0.1-0.1-0.1-0.4,0-0.6
					l-0.2,0l0.1-0.3c0,0.1,0.1,0,0.2,0l0.1-0.2c-0.1,0-0.2,0.1-0.3,0c0,0,0.3-0.2,0.4-0.2c0.7,0,0.2,1.1,0.9,1.1
					c0.2,0,0.3-0.3,0.4-0.5c0.3,0,0.4-0.1,0.4-0.2c0-0.1,0,0,0.1-0.2c0.2,0,0.4-0.1,0.5-0.3C33.1,57.1,33,56.9,32.8,56.9z M-0.8,61
					c0.1-0.1,0-0.2,0-0.2C-0.8,60.8-0.7,60.9-0.8,61c-0.1,0.2-0.3,0.5-0.3,0.6c0,0,0,0,0,0c0,0,0,0,0,0C-1.1,61.5-0.9,61.2-0.8,61z
					 M-1.7,59.9c-0.1,0-0.2-0.1-0.2-0.2C-1.9,59.8-1.8,59.9-1.7,59.9c0.2,0,0.4-0.2,0.6-0.3C-1.3,59.7-1.5,59.9-1.7,59.9z M-1.3,77
					c0.1-0.5-0.2-0.6-0.7-0.7C-1.5,76.5-1.2,76.5-1.3,77z M-1.5,62.7c0.1-0.1,0.3-0.1,0.4-0.3c0.3-0.3,0.2-0.4,0.1-0.5
					c0,0.1,0.1,0.2-0.1,0.5C-1.2,62.6-1.3,62.6-1.5,62.7z M-1,77.8c0.1,0,0.2-0.1,0.4-0.1C-0.8,77.8-0.9,77.8-1,77.8z M-0.6,60.3
					c0.1-0.3,0.1-0.5,0.1-0.8C-0.6,59.8-0.6,60-0.6,60.3z M0.5,78c0.1-0.4,0-0.7-0.5-0.7h0C0.5,77.4,0.5,77.7,0.5,78z M11.2,66.5
					c0,0.1,0,0.2,0,0.3C11.2,66.6,11.2,66.6,11.2,66.5z M22.9,67.6C22.9,67.6,22.9,67.6,22.9,67.6C22.9,67.6,22.9,67.6,22.9,67.6
					C22.9,67.5,22.9,67.5,22.9,67.6C22.9,67.5,22.9,67.5,22.9,67.6z M13.9,71c-0.2,0-0.1-0.3,0-0.4c0,0.1,0,0.2,0.1,0.2
					c0.2,0,0.2-0.1,0.3-0.2c0.2-0.1,0.5-0.1,0.7-0.1c0.2,0,0.2,0.1,0.4,0.1C15,70.8,14.2,71,13.9,71z M15.7,69
					c-0.2,0.3-0.9,1.1-1.1,1.1l0,0c-0.1-0.1,0-0.3,0.1-0.5c-0.2,0.1-0.2,0.1-0.4,0.1c0.2-0.2,0.4-0.4,0.6-0.6
					c0.1-0.2-0.3-0.5-0.4-0.5c-0.3,0-0.2,0.4-0.9,0.4c-0.2,0-0.5,0.5-0.6,0.7l-0.3,0.5c-0.1,0.2-0.5,0.7-0.8,0.7
					c-0.2,0-0.3-0.2-0.2-0.3c0.3-0.4,0.9-1.3,1.5-1.7c-0.2,0-0.3,0.1-0.5,0.2c0.2-0.3,1.2-0.8,1.5-0.8c0.1,0,0.4,0.1,0.7,0l0.1-0.2
					c-0.3,0-0.4-0.2-0.8-0.2c-0.2,0-0.3,0.2-0.6,0.2c-0.1,0-0.2-0.1-0.1-0.2l-0.3,0c0.2-0.1,0.3-0.2,0.4-0.4c-0.3,0-0.8,0.4-0.9,0.4
					c-0.1,0-0.3,0.2-0.6,0.2c-0.1,0-0.2,0-0.1-0.2c-0.1,0-0.2,0.1-0.4,0.1h-0.2c0.7-0.5,1.2-0.7,1.9-1c-0.6,0-1,0-1.1-0.3
					c0.1,0.3,0.5,0.3,1.1,0.3c0.2-0.1,0.2,0,0.5-0.1c0.2-0.1,0.3-0.4,0.5-0.4c0.2,0,0.1,0.3,0.1,0.4c0.1-0.1,0.1-0.2,0.2-0.2l0.1,0
					c0.1,0,0.4,0.6,0.4,0.6c0,0.2-0.2,0.4-0.2,0.5c0.1,0.4,0.7,0.3,0.9,0.6l0.4,0c0.1,0.1,0.3,0.3,0.1,0.6c-0.1,0.1-0.2,0.2-0.3,0.2
					C15.8,69.3,15.7,69.1,15.7,69z M17.9,69.6c-0.4,0.6-1.3,0.5-1.8,0.5c-0.1,0-0.1,0-0.2,0c0,0,0,0.1,0,0.1c0-0.1,0-0.1,0-0.1
					c0-0.1,0.2-0.1,0.3-0.1C16.6,69.8,17.5,69.6,17.9,69.6C17.9,69.6,17.9,69.6,17.9,69.6C17.9,69.6,17.9,69.6,17.9,69.6z
					 M26.6,60.4c-0.3,0-0.1-0.4-0.3-0.4c-0.2,0,0-0.7,0.2-1c0,0,0.1,0,0.1,0c0.1,0,0,0.1,0.2,0.1c0.1,0,0.3-0.1,0.4-0.3
					c0.2,0.3,0.3,0.6,0.6,0.8C27.5,59.9,26.9,60.4,26.6,60.4z M29,56.7c-0.1,0.2-0.6,0.6-0.8,0.8c-0.2,0.1-0.3,0-0.5,0.3
					c-0.1,0.1,0,0.3,0.1,0.4c-0.2,0.1-0.6,0.2-0.7,0.2l-0.6,0c-0.1,0-0.2,0.1-0.4,0.1c0-0.1,0-0.2,0-0.3c-0.4-0.1-0.1-0.6-0.5-0.6
					c-0.2,0-0.3,0.2-0.5,0.2c-0.4,0-0.5-0.3-0.9-0.3c-0.2,0-0.5,0.1-0.7,0.4c-0.1,0.1,0.1,0.3-0.1,0.6c0,0,0-0.1,0-0.1
					c-0.1,0-0.1,0.1-0.2,0.1c0-0.2,0-0.2,0.1-0.5c-0.4,0-0.9,0.7-1,1l-0.1,0.3c-0.1,0.1-0.2,0.2-0.3,0.2c-0.1,0.1-0.2,0-0.4,0.3
					c0.1,0,0.4-0.1,0.6,0c-0.1,0.2-0.3,0.3-0.1,0.3c0.1,0,0.1,0,0.2-0.1c0,0,0.1,0,0.1,0c-0.1,0-0.1,0-0.1,0.1c0,0.7,0.3,0.9-0.3,2
					C21.6,62.2,20.3,63,20,63c0.4,0.3-0.4,1.2-0.3,1.5c-0.1,0.1-0.4,0.2-0.5,0.4c-0.2,0-0.5,0.3-0.6,0.2c-0.2-0.3-0.4-0.9-0.1-1.3
					c0.3-0.5,0.7-1,0.4-1.3l-1,0c-0.3-0.5-0.7-0.7-1.2-1c-0.1,0-0.2-0.3-0.4-0.3c-0.2,0-0.5,0.3-0.7,0.3c0.3-0.4,0.7-1.3,0.3-1.3
					c-0.1,0-0.3,0.1-0.5,0.2c0.2-0.2,0.2-0.3,0.5-0.8c0.5-0.7,0.9-1.1,1.5-1.5c0.2-0.1,0.9-0.8,1-0.8c0.3-0.1,0.6,0.1,0.9-0.3
					c0.2-0.3-0.3-0.3-0.4-0.4c0.1,0.1-0.1-0.3,0.7,0.1c0.2,0.1,0.3-0.4,0.5-0.4l0.3,0c0.3,0,0.8-0.4,1.1-0.6l0.2-0.3
					c-0.4-0.1-0.9,0-0.7-0.6l0.2,0c0.1,0.1,0.1,0.4,0.4,0.4c0.2,0,0.8-0.4,0.9-0.6c0-0.1,0-0.4,0.1-0.4c0.3,0,0.2,0.3,0.4,0.3
					c0.1,0,0.3-0.1,0.5-0.1c0-0.1,0.2-0.4,0.2-0.1c0,0.1,0.3-0.1,0.6-0.2c0,0,0,0,0,0l0.6,0c0,0.1,0.1,0.3,0.2,0.3c0.6,0,1.6,0,2,0
					c-0.1,0.1-0.3,0.4-0.1,0.4c0.2,0,0.8-0.6,1-0.6c0.1,0,0.4,0.8,0.5,0.9c-0.1,0-0.3,0-0.4,0.2c0,0-0.1,0.2,0,0.2
					c0.2,0,0.4-0.2,0.5-0.2C28.7,55.4,29.2,56.2,29,56.7z"/>
				<path fill="#6B7384" d="M33.7,45.5l-0.3,0c0.3-0.2,0.6-0.3,0.9-0.4c0.2-0.1,0.4,0.1,0.6-0.1c0.5-0.4,1.1-1,1.6-1.3
					c0.5-0.2,1.2-0.4,1.6-0.8c-0.3,0-0.7,0.1-0.8-0.1c0.8-0.4,1.1-0.1,1.8-0.6c0.1-0.1,0.3,0,0.4-0.2c0.1-0.3-0.5-0.2-0.5-0.4
					c0-0.1,0-0.2,0-0.3c-0.1,0-0.1-0.1-0.1-0.1l-1,0.4c0.1,0,0.1-0.1,0.3-0.2c0-0.3-0.9-0.3-1.2-0.3l-0.3,0c-0.1,0-0.1-0.1-0.2-0.1
					c-0.1,0-0.3,0.3-0.5,0.3c-0.2,0-0.1-0.2-0.3-0.2c-0.1,0-0.1,0-0.2,0.1l-1.2,0c-0.1,0-0.2,0-0.4,0.2c-0.2,0.2,0,0-0.2,0
					c-0.3,0-0.6,0.4-0.9,0.8c-0.1-0.1-0.3-0.4-0.5-0.4c-0.2,0-0.3,0.4-0.6,0.4c0,0.1-0.1,0.1-0.2,0.1l-0.2,0c-0.3,0-1.1,0.2-1.4,0.6
					l0.2,0c0.1,0,0.1-0.1,0.2-0.1l0.3,0c-0.2,0.1-0.3,0.1-0.5,0.3c0,0,0.1,0.1,0.1,0.1c0.2,0,0.4-0.3,0.6-0.3c0.1,0,0.1,0,0.2,0
					c-0.4,0.1-0.6,0.1-1,0.5c0.1,0,0.3,0,0.5,0c-0.1,0-0.3,0.1-0.4,0.2c0,0.2,0.2,0.4,0.4,0.4c0.1,0,0.2-0.1,0.3-0.2l0.1,0
					c-0.2,0.2,0,0.3,0.2,0.3c0.1,0,0.2-0.2,0.3-0.2c0.1,0,0.1,0.1,0.3,0.1c0.3,0,0.7-0.1,1-0.4l0.2,0c-0.3,0.3-0.5,0.3-0.8,0.5
					l-0.5,0c-0.1,0.1-0.1,0.1-0.2,0.2c-0.1,0.1,0.1,0.4,0.1,0.5c-0.3,0.1-0.2-0.4-0.4-0.6c-0.2-0.1-0.4,0-0.6,0c-0.1,0-0.1,0-0.2,0
					c-0.1,0.1-0.1,0.2,0,0.2c-0.1,0-0.3,0-0.4,0.1c-0.2,0.3,0.6,0.3,0.3,0.8c-0.3,0.5-0.5,0.3-0.9,0.5c-0.2,0.1-0.4,0.3-0.7,0.6
					l-0.1,0.2l0.2,0c0.1-0.1,0.1-0.1,0.2-0.1l0.2,0c-0.2,0.4,0,0.6,0,0.8l-0.2,0c-0.1-0.2-0.1-0.5-0.4-0.5c-0.1,0-0.2-0.1-0.4,0.2
					c-0.2,0.3,0,0.4,0.1,0.5c-0.4,0.3-0.8,0-1.3,0.7c0,0,0,0.1,0,0.1c0.1,0,0.2-0.1,0.2-0.2c0.3,0.2,0.5,0.3,0.9,0.3
					c0.2,0,0.3-0.2,0.5-0.2l0.9,0c0.2,0,0,0.3,0.3,0.3c0.3,0,1.1-0.3,1.3-0.6c0.1-0.2-0.1-0.1-0.1-0.1l-0.3,0
					c0.3-0.6,0.6-0.3,0.9-0.8c0.1-0.1,0-0.1,0.1-0.3l0.6,0c0.3-0.2,0.6-0.6,0.9-0.8c0.1-0.2,0-0.3-0.1-0.4
					C33.5,45.9,33.6,45.9,33.7,45.5z"/>
				<path fill="#6B7384" d="M44.3,56.4l0.4-0.3c0-0.1,0.2-0.2,0.3-0.3l0.6,0c0.6-0.3,0.9-0.2,1.5-0.4c0.4-0.2,0.6-0.6,1.1-0.8
					c0.3-0.1,0.4-0.1,0.6-0.3c-0.3-0.1-1.4-0.1-1.3-0.6c0.1,0,0.3-0.1,0.3-0.2c0-0.1-0.1-0.2,0-0.4c0.1,0.1,0.1,0,0.2,0
					c0.5,0,0.2,0.8,0.9,0.8c0.1,0,0.4,0,0.4-0.2c0.2-1-0.6-1.2-0.9-1.8l0-0.3c0,0,0.1,0,0.2,0c0,0.3,0.3,0.8,0.6,0.8
					c0.2,0,0.2-0.3,0.3-0.5c0.1-0.5-0.5-0.3-0.5-0.8l0.2,0c0.1,0.2,0.2,0.3,0.3,0.4c0.2-0.4,0.6-0.1,0.8-0.6c-0.1,0-0.1-0.1-0.1-0.3
					c0.2,0,0.5-0.2,0.6-0.5c-0.1-0.1-0.5-0.1-0.4-0.3c0-0.2,0.2-0.2,0.4-0.2c0-0.1,0-0.2,0.1-0.4c0-0.3-0.1-0.4-0.1-0.7
					c-0.2,0-0.4,0-0.3-0.3c0-0.1,0.1-0.3,0.3-0.3c0.2,0,0.8,0.2,0.9-0.3c0.1-0.4-0.4-0.3-0.4-0.6c0.1,0,0.2-0.1,0.2-0.1
					c-0.1-0.1-0.2-0.3-0.4-0.3c-0.1,0-0.2,0.1-0.3,0c0.1-0.2,0.2-0.6,0.3-0.7c0.3-0.2,0.5-0.4,0.6-0.7c0-0.1,0-0.1,0-0.3
					C51.7,45,52,45,52,44.7c0-0.2,0.1,0,0-0.2c0.2-0.1,0.5-0.1,0.6-0.5c-0.1,0.1-0.1,0.1-0.2,0c0.5,0,0.8-0.5,1.1-0.7
					c0.1,0,0.3-0.2,0.3-0.4c0-0.2-0.4-0.6-0.6-0.6c-0.1,0-0.2,0-0.2,0.2l-0.5,0c-0.2,0.1-0.2,0.2-0.4,0.3c0,0-0.2,0-0.2,0l-0.7,0
					c-0.2,0.2-0.9,1.3-1.2,1.4c0.1-0.2,1-1.3,1-1.5c0-0.3,0-0.5-0.2-0.5c-0.3,0-1.2,1-1.4,1c-0.1,0,0.5-0.7,0.6-0.8
					c-0.2-0.1-2,0.2-2.1,0l2.3-0.2c0.3-0.2,1-0.1,1.2-0.7c-0.2-0.1-0.6,0-0.9-0.2c-0.4-0.3-0.7-1-1.3-1l-1.4,0c-0.5,0-1,0.5-1.5,0.5
					c-0.2,0-0.2,0-0.4,0L45.7,41l-0.2,0c-0.2-0.1-0.3-0.1-0.6-0.1c-0.3,0-0.6,0.1-1,0.3c0,0.1,0.1,0.1,0.1,0.3c-0.1,0-0.4,0-0.5,0.2
					c-0.1,0.3,0.2,0.5,0.4,0.7l-0.5,0c-0.2-0.2-0.3-0.6-0.7-0.6c-0.1,0-0.3,0-0.3,0.2c0,0.1,0,0.2-0.1,0.4l-0.2,0
					c-0.2-0.1-0.3-0.1-0.3-0.4l-0.2,0.2c0,0.1,0,0.2-0.1,0.3c-0.2,0-0.1-0.5-0.2-0.5c-0.3,0-0.6,0.3-0.9,0.4c-0.4,0-0.6,0.2-1.1,0.2
					c-0.4,0.1-0.4,0.8-0.8,0.8c-0.1,0-0.2,0-0.2-0.1c-0.4,0.3-1,0.7-1.5,0.9c-0.1,0-0.3,0.1-0.3,0.3c-0.1,0.3,0.5,0.3,0.7,0.3
					c-0.2,0.4-0.4,0.7-0.7,0.9c-0.3,0.2-0.6,0-1,0.1c-0.3,0.1-0.5,0.3-0.7,0.4c-0.3,0.1-0.6-0.1-0.9,0.5c-0.1,0.3,0.7,0.7,0.8,0.7
					l0.4,0c0.1,0,0.1-0.1,0.2-0.2l0.5,0c-0.1,0.2-0.1,0.3-0.3,0.4l-0.7,0c-0.1,0.1-0.2,0.1-0.3,0.1l-0.3,0c-0.1,0-0.4,0.1-0.5,0.3
					c0.2,0.1,0.2,0,0.4,0c0.1,0,0.2,0.2,0.3,0.3c-0.1,0.2-0.2,0.2-0.4,0.3c0,0.3,0.3,0.4,0.6,0.4c0.1,0,0.1,0.1,0.2,0
					c0,0,0-0.1-0.1-0.1c0.1,0,0.1-0.1,0.3-0.1c0.1,0,0.2,0.1,0.3,0.1c0.2,0,0.3-0.2,0.5-0.2l0.4,0c1.3,0,1.6,1.5,1.4,2.9l-0.1,0.3
					c0.1,0,0.3,0,0.2,0.3c-0.1,0.4-0.4,0.4-0.6,0.7c-0.1,0.3,0,0.3,0.2,0.3c0.2,0,0.3-0.3,0.4-0.3c0.4,0,0.2,0.8,0.6,1
					c0,0.1-0.1,0.3-0.2,0.3c-0.3,0-0.4-0.3-0.7-0.3c-0.1,0-0.1-0.1-0.2,0c-0.1,0.5,0.8,0.6,1.1,0.7c-0.3,0.5-0.5,0.6-0.8,1.1
					c-0.2-0.1-0.2-0.1-0.4,0l0,0c-0.4,0.3-0.6,0.6-0.9,0.9L36.1,57c0.1-0.1,0.2-0.1,0.3,0c-0.1,0.2-0.2,0.2-0.3,0.4
					c-0.2,0.5,0.1,0.6,0.1,1c0,0.2-0.1,0.5-0.1,0.6c0.2,0.1,0.4-0.3,0.5,0.1c-0.1,0.1-0.2,0.1-0.3,0.3c-0.2,0.5,0.1,1.2,0.3,1.5
					c0,0-0.1,0.3,0,0.3c0.2,0.2,0.4,0.1,0.3,0.5c0.2,0,0.5-0.2,0.7-0.2c0.4,0,0.1,0.8,0.5,0.8c0.1,0,0.2-0.1,0.3-0.1
					c0,0.1,0,0.2,0.1,0.2c0.4,0,0.5-0.9,0.9-1.1c0-0.2,0.2-0.6,0.3-0.9c0.1-0.5,0.8-0.3,0.9-0.9c0.1-0.2-0.1-0.3-0.1-0.4
					c0-0.1,0.1-0.1,0.2-0.2c0,0,0-0.1,0-0.2c0.2-0.6,0.9-0.4,1.3-0.8c0.2-0.2,0.2-0.3,0.4-0.4l-0.1,0.3h0.2c0.4-0.3,0.8-0.2,1.2-0.5
					C43.9,57,44,56.7,44.3,56.4z"/>
				<path fill="#6B7384" d="M37,55c0.2,0,0.5-0.1,0.7-0.3c-0.3-0.1-0.2-0.6-0.6-0.6c-0.1,0-0.3,0.1-0.4,0.3c-0.1,0.2-0.1,0.6,0,0.6
					L37,55z"/>
				<path fill="#6B7384" d="M51,49.4c0,0.1-0.1,0.1-0.2,0.2c0,0.1,0,0.3,0.1,0.3c0.1,0,0.4-0.2,0.4-0.3l-0.2,0l0-0.2L51,49.4z"/>
				<path fill="#6B7384" d="M29.4,66.3l-0.2,0.1l0-0.1l-0.3,0l0.1-0.2l0.1-0.1c0-0.1-0.1-0.1-0.2-0.1c-0.1,0-0.2,0.1-0.3,0.1
					l0.1-0.1c0.2-0.3,0.6-0.5,0.8-0.9c0-0.1,0-0.2,0-0.2c-0.2,0-0.5,0.3-0.7,0.5c-0.4,0.4-0.9,1.1-1.5,1.4c0,0.1,0,0.1,0.1,0.1
					l0,0.1c0,0-0.4,0.3-0.4,0.3c0,0.1,0,0.2,0.1,0.2c0.2,0,0.3-0.1,0.5-0.1c0.2,0,0.2,0.1,0.4,0.1c0.1,0,0.2,0,0.4-0.1
					c0,0.2,0.3,0.1,0.4,0.1c-0.1,0.1-0.2,0.1-0.3,0.3c0,0,0.1,0,0.1,0c0.2,0,0.4-0.3,0.7-0.5c0.1,0.1-0.2,0.5,0,0.5c0,0,0.1,0,0.1,0
					c0,0.1-0.1,0.2,0.1,0.2c0.2,0,0.3-0.2,0.4-0.4c0.1-0.2,0-0.2,0-0.4c-0.1,0.1-0.1,0.1-0.2,0.1c0-0.1,0-0.2,0-0.3
					c0-0.1,0.2-0.1,0.3-0.3c-0.1,0-0.2,0-0.2,0.1c0.1-0.3,0.2-0.4,0.2-0.6C29.7,66.3,29.5,66.3,29.4,66.3z"/>
				<path fill="#6B7384" d="M100.5,46.9c0.1,0,0-0.2,0-0.3c0.1,0.1,0.2,0.2,0.3,0.2c0.1,0,0.1-0.1,0.1-0.1c0.1,0,0-0.1,0.1-0.1
					c0.1,0,0.3,0.2,0.3,0.2c0.1,0,0.1-0.2,0.1-0.2l0.3,0c-0.1-0.1-0.1-0.3-0.3-0.6c-0.3-0.1-1.3-0.5-1.5-0.5c-0.1,0,0,0.2,0.2,0.5
					c-0.3,0-0.8-0.5-1.1-0.5c-0.2,0-0.3,0.3,0,0.7C99.7,46.6,100.2,46.9,100.5,46.9z"/>
				<path fill="#6B7384" d="M18.5,64c0,0,0,0.1-0.1,0.1c0,0.1,0.2,0.2,0.3,0.2c0,0,0.1,0,0.1,0C19,64,18.7,64,18.5,64z"/>
				<path fill="#6B7384" d="M-2.9,65.5c-0.1,0-0.2,0.1-0.3,0.1h0.1c0,0,0.1,0.1,0.2,0.1c-0.1,0.1-0.2,0.1-0.3,0.2
					C-3.3,66-3,66.2-2.7,66.2c-0.1,0.1-0.2,0.1-0.3,0.2c0.1,0.2,0.3,0.6,0.6,0.6l0.1,0l0.1-0.2c0-0.4-0.1-0.8-0.5-1.1
					C-2.7,65.7-2.7,65.5-2.9,65.5z"/>
				<path fill="#6B7384" d="M-3.7,64.6c0.2,0,0.1-0.3,0.2-0.3c0.1-0.1,0.2-0.1,0.2-0.2c0.1-0.1,0-0.1,0.1-0.2
					c0.2-0.2,0.3-0.3,0.3-0.4c-0.1,0.1-0.3,0.2-0.4,0.2c-0.1,0,0.3-0.2,0.3-0.2c-0.1,0-0.1-0.1-0.2-0.1l-0.1,0.1
					c0,0.1-0.2,0.3-0.1,0.3c0.1,0,0,0.2,0,0.2c0,0-0.1,0.1-0.2,0.2C-3.8,64.4-3.8,64.6-3.7,64.6z"/>
				<path fill="#6B7384" d="M-9.1,60.9c-0.2,0-0.4,0.1-0.7,0.2v0.3c0.2-0.1,0.4-0.2,0.7-0.3l0.2-0.2H-9.1z"/>
				<path fill="#6B7384" d="M60.8,72.9c-0.3-0.1-0.4,0.1-0.6,0.1c-0.2,0-0.4-0.2-0.8-0.1l0,0.1c0.1,0.1,0.2,0.1,0.2,0.1
					c0.3,0.1,0.5,0.4,0.8,0.4c0,0,0.1,0.1,0.1,0.1c0.1,0,0.1-0.1,0.1-0.1c0-0.1-0.1-0.2-0.1-0.3c0-0.1,0.1-0.2,0.1-0.2L60.8,72.9z"
					/>
				<path fill="#6B7384" d="M57.9,71c0.1-0.1,0.1-0.5,0.2-0.7c-0.1,0-0.1-0.1-0.1-0.2c-0.1,0-0.2,0.2-0.3,0.2c0,0-0.1,0-0.1,0
					C57.7,70.5,57.7,71,57.9,71z"/>
				<path fill="#6B7384" d="M57.6,71.7c0,0.1-0.1,0.2-0.1,0.3c0,0.1,0,0.4,0.2,0.4c0.1,0,0.5-0.2,0.5-0.5c0-0.3,0-0.4-0.1-0.7
					c-0.1,0-0.1-0.1-0.2-0.1c-0.2,0-0.2,0.2-0.4,0.2C57.5,71.5,57.6,71.6,57.6,71.7z"/>
				<path fill="#6B7384" d="M55.1,72.1c0-0.1-0.1-0.2-0.1-0.2c-0.1,0-0.2,0.1-0.3,0.1c0,0,0.1,0.1,0.2,0.1
					C55,72.2,55,72.1,55.1,72.1z"/>
				<path fill="#6B7384" d="M58.7,62.6c0-0.2-0.1-0.1-0.1-0.3l-0.3,0l0,0.2C58.4,62.6,58.5,62.6,58.7,62.6l0,0.2
					C58.7,62.7,58.7,62.7,58.7,62.6z"/>
				<path fill="#6B7384" d="M58.9,62.8L58.9,62.8c0-0.1-0.1,0-0.1,0c0,0,0.1,0.1,0.2,0.1c0.3,0,0.2-0.6,0.5-0.7
					c-0.1-0.3-0.1-0.4-0.4-0.4c-0.1,0-0.3,0.4-0.3,0.5c0,0.1,0.2,0.2,0.3,0.3C59.1,62.6,59,62.7,58.9,62.8z"/>
				<path fill="#6B7384" d="M62.1,60.5c-0.3,0-0.3,0.3-0.3,0.4c0,0.1,0,0.2,0,0.2c0.1-0.2,0.2-0.2,0.2-0.4
					C61.9,60.7,62,60.6,62.1,60.5z"/>
				<path fill="#6B7384" d="M63.3,60.5c0.1,0,0.2-0.1,0.2-0.2l0-0.2c0,0,0.1-0.1,0.1-0.2c-0.1,0-0.1-0.1-0.2-0.2
					c0,0-0.1,0.1-0.1,0.2c0,0.1,0.1,0.1,0.1,0.2c-0.1,0-0.2,0.1-0.3,0.1C63.2,60.3,63.2,60.5,63.3,60.5z"/>
				<path fill="#6B7384" d="M66.2,74.5c-0.3-0.1-0.7-0.2-1.1-0.1c0.2,0.1,0.5,0.1,0.7,0.1C65.9,74.5,66,74.6,66.2,74.5z"/>
				<path fill="#6B7384" d="M70.4,74.2c-0.3,0-0.7,0.2-1,0.3c0,0,0.1,0.1,0.1,0.1c0,0.1,0.1,0.1,0.1,0.1c0.2,0,0.5-0.1,0.5-0.2
					c0-0.1,0-0.2,0-0.2C70.2,74.3,70.3,74.4,70.4,74.2z"/>
				<path fill="#6B7384" d="M83.4,86c-0.3,0-0.4,0-0.6,0.1c0,0.1,0.2,0.1,0.3,0.1C83.2,86.2,83.4,86.1,83.4,86z"/>
				<path fill="#6B7384" d="M72.2,51.8c0,0-0.1,0.3-0.1,0.4c0,0.2,0.1,0.2,0.3,0.2c0.2,0,0.3-0.2,0.5-0.3l-0.1-0.2
					c-0.2,0-0.3-0.3-0.5-0.3C72.2,51.7,72.2,51.8,72.2,51.8z"/>
				<path fill="#6B7384" d="M75.5,51.1c0.1,0.2,0.4,0.4,0.6,0.4c0,0,0.2,0,0.1-0.1C76.1,51.1,75.4,50.8,75.5,51.1z"/>
				<path fill="#6B7384" d="M78.7,48.6c0.1,0,0.4-0.1,0.4-0.2c-0.2-0.1-0.3-0.3-0.4-0.3c-0.1,0-0.1,0.2-0.1,0.3
					C78.6,48.5,78.7,48.6,78.7,48.6z"/>
				<path fill="#6B7384" d="M102,48.2L102,48.2c0.3,0,0.6,0,0.9,0.2l0.4,0c-0.3-0.4-0.8-0.7-1.1-0.7C101.8,47.7,101.9,47.9,102,48.2
					z"/>
				<path fill="#6B7384" d="M103.9,46.9c0.2,0,0.5-0.1,0.3-0.2c-0.1-0.1-0.2-0.2-0.3-0.2c0,0-1.4-0.2-1.6-0.3l0.2,0.1
					C102.9,46.7,103.6,46.9,103.9,46.9z"/>
				<path fill="#6B7384" d="M101.3,47.4c0.1,0.2,0.2,0.2,0.3,0.2c0.1,0,0.1-0.1,0-0.2C101.5,47.2,101.1,47.2,101.3,47.4z"/>
				<path fill="#6B7384" d="M25.1,66c0.1,0.2,0.4,0.5,0.7,0.5c0.1,0,0.2,0,0.3-0.1C25.8,66.2,25.7,65.9,25.1,66z"/>
				<path fill="#6B7384" d="M24.4,67.9c0,0-0.1,0.1-0.1,0.1c-0.1,0.1,0.4,0.4,0.5,0.4c0,0,0.2-0.1,0.3-0.2l0-0.1l-0.5,0
					C24.5,68.1,24.4,68,24.4,67.9z"/>
				<path fill="#6B7384" d="M26.1,68c0-0.1,0-0.1,0-0.2c-0.2,0-0.6,0.5-0.6,0.6c0,0.1,0,0.2,0.2,0.2c0.2,0,0.4-0.1,0.5-0.2l0.1-0.1
					C25.7,68.3,26,68.2,26.1,68z"/>
			</g>
		</g>
		<path fill="#D1D6E6" d="M25.2,81.7H13c-0.6,0-1.1-0.5-1.1-1.1v-1.4c0-0.6,0.5-1.1,1.1-1.1h12.2c0.6,0,1.1,0.5,1.1,1.1v1.4
			C26.3,81.2,25.8,81.7,25.2,81.7z"/>
		<path fill="#D1D6E6" d="M104.2,34.8H97c-0.5,0-1-0.4-1-1v-1.3c0-0.5,0.4-1,1-1h7.3c0.5,0,1,0.4,1,1v1.3
			C105.2,34.4,104.8,34.8,104.2,34.8z"/>
		<path fill="#D1D6E6" d="M93.2,34.8H82.5c-0.5,0-1-0.4-1-1v-1.3c0-0.5,0.4-1,1-1h10.7c0.5,0,1,0.4,1,1v1.3
			C94.2,34.4,93.7,34.8,93.2,34.8z"/>
		<path fill="#D1D6E6" d="M55.8,81.6H30.4c-0.6,0-1.1-0.5-1.1-1.1V79c0-0.6,0.5-1.1,1.1-1.1h25.3c0.6,0,1.1,0.5,1.1,1.1v1.5
			C56.9,81.1,56.4,81.6,55.8,81.6z"/>
		<path fill="#F0F0F0" d="M27.7,68.9H13.3c-1,0-1.9-0.8-1.9-1.9v-2.2c0-1,0.8-1.9,1.9-1.9h14.5c1,0,1.9,0.8,1.9,1.9V67
			C29.6,68,28.8,68.9,27.7,68.9z"/>
		<path fill="#F0F0F0" d="M52.1,68.9H37.6c-1,0-1.9-0.8-1.9-1.9v-2.2c0-1,0.8-1.9,1.9-1.9h14.5c1,0,1.9,0.8,1.9,1.9V67
			C53.9,68,53.1,68.9,52.1,68.9z"/>
		<path fill="#F0F0F0" d="M76.4,68.9H61.9c-1,0-1.9-0.8-1.9-1.9v-2.2c0-1,0.8-1.9,1.9-1.9h14.5c1,0,1.9,0.8,1.9,1.9V67
			C78.2,68,77.4,68.9,76.4,68.9z"/>
		<path fill="#F0F0F0" d="M100.7,68.9H86.2c-1,0-1.9-0.8-1.9-1.9v-2.2c0-1,0.8-1.9,1.9-1.9h14.5c1,0,1.9,0.8,1.9,1.9V67
			C102.6,68,101.7,68.9,100.7,68.9z"/>
		<circle fill="#7BB227" cx="28" cy="45.1" r="7.5"/>
		<circle fill="#2FACF2" cx="18.7" cy="45.1" r="7.5"/>
	</g>
</g>
</svg>
