<?xml version="1.0" encoding="utf-8"?>
<!-- Generator: Adobe Illustrator 18.0.0, SVG Export Plug-In . SVG Version: 6.00 Build 0)  -->
<!DOCTYPE svg PUBLIC "-//W3C//DTD SVG 1.1//EN" "http://www.w3.org/Graphics/SVG/1.1/DTD/svg11.dtd">
<svg version="1.1" id="icon_x5F_prem-int_x5F_remotepc"
	 xmlns="http://www.w3.org/2000/svg" xmlns:xlink="http://www.w3.org/1999/xlink" x="0px" y="0px" viewBox="0 0 225.8 100"
	 enable-background="new 0 0 225.8 100" xml:space="preserve">
<circle fill="#D1D6E6" cx="50" cy="50" r="50"/>
<path fill="#4B505E" d="M47.8,65.1c-1.3,0.2-14.7,2.5-14.8,2.7s0,0.9,0,0.9l26.9,2.1l4.3-4c0,0,0.1-0.4,0-0.6
	C64.1,65.8,49,64.9,47.8,65.1z"/>
<path fill="#4B505E" d="M29.3,28.1c0.1-0.6,0.6-1.1,1.2-1.1l48.1-5.5c0.6-0.1,1,0.3,1,0.8c0,0.5-0.1,1.4-0.1,2l-1.9,35.2
	c0,0.6-0.5,1-1.1,1l-51.4-0.8c-0.6,0-0.9-0.5-0.9-1L29.3,28.1z"/>
<path fill="#FFFFFF" d="M31.2,30.8c0.1-0.6,0.6-1.1,1.2-1.1l42.8-4.6c0.6-0.1,1,0.3,0.9,0.9l-2.2,29.2c0,0.6-0.5,1-1.1,1l-44.5-0.1
	c-0.6,0-0.9-0.5-0.9-1L31.2,30.8z"/>
<polygon fill="#4B505E" points="52.8,66 51.7,58.5 56.6,58.5 58,65.8 "/>
<circle fill="#D1D6E6" cx="175.8" cy="50" r="50"/>
<path fill="#4B505E" d="M177.4,65.1c1.3,0.2,14.7,2.5,14.8,2.7s0,0.9,0,0.9l-26.9,2.1l-4.3-4c0,0-0.1-0.4,0-0.6
	C161.2,65.8,176.2,64.9,177.4,65.1z"/>
<path fill="#4B505E" d="M195.9,28.1c-0.1-0.6-0.6-1.1-1.2-1.1l-48.1-5.5c-0.6-0.1-1,0.3-1,0.8c0,0.5,0.1,1.4,0.1,2l1.9,35.2
	c0,0.6,0.5,1,1.1,1l51.4-0.8c0.6,0,0.9-0.5,0.9-1L195.9,28.1z"/>
<path fill="#8792A4" d="M194.1,30.8c-0.1-0.6-0.6-1.1-1.2-1.1l-42.8-4.6c-0.6-0.1-1,0.3-0.9,0.9l2.2,29.2c0,0.6,0.5,1,1.1,1
	l44.5-0.1c0.6,0,0.9-0.5,0.9-1L194.1,30.8z"/>
<polygon fill="#4B505E" points="172.4,66 173.5,58.5 168.6,58.5 167.2,65.8 "/>
<g>
	<path fill="#4B505E" d="M14.3,69.6c-1.1,0.3-2.2,0.6-2.5,0.7c-0.3,0.1-0.6,0.3-0.6,0.6c0,0.2,0.2,0.4,0.5,0.5
		c0.3,0,0.5,0.2,0.6,0.3c0.1,0.1,1,0.3,2.1,0.4l42.4,4.5c1.1,0.1,2.7-0.3,3.7-0.9l3.5-2.3c0.9-0.6,1.7-1.4,1.7-1.7s-0.9-0.7-2-0.8
		l-41.1-2.9c-1.1-0.1-2.9,0.1-3.9,0.4L14.3,69.6z"/>
</g>
<polygon fill="#6B7384" points="12.7,70.4 12.7,69.9 19.9,67.9 20.6,67.9 20.6,67.7 21.4,67.4 49.2,69.5 49.2,69.9 49.6,69.9 
	50.2,69.6 54.2,69.9 54.2,70.3 54.6,70.3 55.2,69.9 64.2,70.6 64.2,71 58.7,74.6 "/>
<g>
	<path fill="#4B505E" d="M210.9,69.6c1.1,0.3,2.2,0.6,2.5,0.7c0.3,0.1,0.6,0.3,0.6,0.6c0,0.2-0.2,0.4-0.5,0.5
		c-0.3,0-0.5,0.2-0.6,0.3c-0.1,0.1-1,0.3-2.1,0.4l-42.4,4.5c-1.1,0.1-2.7-0.3-3.7-0.9l-3.5-2.3c-0.9-0.6-1.7-1.4-1.7-1.7
		s0.9-0.7,2-0.8l41.1-2.9c1.1-0.1,2.9,0.1,3.9,0.4L210.9,69.6z"/>
</g>
<polygon fill="#6B7384" points="212.5,70.4 212.5,69.9 205.3,67.9 204.6,67.9 204.6,67.7 203.8,67.4 176,69.5 176,69.9 175.6,69.9 
	175,69.6 171,69.9 171,70.3 170.6,70.3 170,69.9 161,70.6 161,71 166.6,74.6 "/>
<polygon fill="#9CC55D" points="54.9,33.6 43.8,44.8 48,44.8 45.5,49.4 48.9,51.2 51.7,46.1 54.9,49.2 "/>
<circle fill="#2FACF2" cx="133.3" cy="50.6" r="1.8"/>
<circle fill="#2FACF2" cx="125.9" cy="50.3" r="1.8"/>
<circle fill="#2FACF2" cx="100.1" cy="50" r="1.8"/>
<circle fill="#0C8FD0" cx="113" cy="50" r="4.9"/>
<circle fill="#2FACF2" cx="92.4" cy="50.2" r="1.8"/>
<circle fill="#2FACF2" cx="84.9" cy="50" r="1.8"/>
<circle fill="#2FACF2" cx="140.7" cy="50.3" r="1.8"/>
<polygon fill="#9CC55D" points="196.9,48.7 172.9,39.5 164.6,45 150.1,39.4 149.9,36.7 164,41 172.3,35.4 195.7,41.6 "/>
</svg>
