<?xml version="1.0" encoding="utf-8"?>
<!-- Generator: Adobe Illustrator 18.0.0, SVG Export Plug-In . SVG Version: 6.00 Build 0)  -->
<!DOCTYPE svg PUBLIC "-//W3C//DTD SVG 1.1//EN" "http://www.w3.org/Graphics/SVG/1.1/DTD/svg11.dtd">
<svg version="1.1" id="icon-internet-id-adult" xmlns="http://www.w3.org/2000/svg" xmlns:xlink="http://www.w3.org/1999/xlink"
	 x="0px" y="0px" viewBox="0 0 114 114" enable-background="new 0 0 114 114" xml:space="preserve">
<circle fill="#D1D6E6" cx="57" cy="57" r="57"/>
<g>
	<path fill="#4B505E" d="M106.5,89.3c0-0.4-0.1-0.8-0.4-1.3L95.6,69.2V25.7c0-0.8-0.7-1.5-1.5-1.5H57H19.9c-0.8,0-1.5,0.7-1.5,1.5
		v43.5L7.9,88c-0.3,0.5-0.5,1-0.4,1.4l0,0v1.1l0,0C7.6,91.4,8.4,92,9.7,92H57h47.3c1.4,0,2.3-0.7,2.2-1.8l0,0V89.3L106.5,89.3z"/>
</g>
<polygon fill="#FFFFFF" points="22.1,27.2 22.1,46.6 22.1,66.2 91.9,66.2 91.9,46.6 91.9,27.2 "/>
<g>
	<path fill="#6B7384" d="M70.6,87.6c0.1,0.5-0.2,0.9-0.7,0.9H44.1c-0.5,0-0.8-0.4-0.7-0.9l0.8-4c0.1-0.5,0.6-0.9,1.1-0.9h23.3
		c0.5,0,1,0.4,1.1,0.9L70.6,87.6z"/>
</g>
<polygon fill="#6B7384" points="77.9,79.6 17.6,79.6 21.2,71.9 75.7,71.9 "/>
<polygon fill="#6B7384" points="96.5,79.6 81.1,79.6 78.7,71.9 92.7,71.9 "/>
<path fill="#9CC55D" d="M73.3,66.2c-0.1-1.2-0.2-2.5-0.1-3.3c0.2-1.9-0.2-8.4-1.1-12c-0.5-2.2-2.8-3.9-4.5-5.2
	c-3.3-2.4-8.1-4.2-10.1-7.9c-0.6-1,2.6-4.1,3.1-5.4c0.4-1.2,1.4-4,1.1-5.2c-0.4-2.3,0.1-4.7-0.1-7.1c0.1,0,0.2,0.1,0.2,0.2
	c0-0.2,0-0.5-0.1-0.7c0.1,0.1,0.1,0.1,0.2,0.2c0-0.2-0.1-0.5-0.1-0.7c0,0,0.2,0.5,0.2,0.2v-0.1c0,0,0,0,0-0.1c0,0.1,0,0.1,0,0.1
	c0-0.1,0-0.2-0.1-0.3c0,0.1,0.1,0.1,0.1,0.2c0-0.3,0.1-0.6,0-0.3c0-0.2-0.1-0.4-0.1-0.7c0,0.1,0.1,0.2,0.2,0.4
	c0-0.3-0.1-0.5-0.1-0.8c0-1.2,0.1-3.2-1.8-4.3c-0.7-0.4-1.6,0.4-2.1-0.5c-0.2-0.4-0.4-1.7-0.9-1.9c-1.4-0.5-2.4-0.6-3.9-0.7
	c-4-0.2-6.7,1.8-9.6,4.2c-0.9,0.8-1.5,4.8-1.1,4.8c0,0.2,0,0.4-0.1,0.6c0.1,0.2,0.2,0.8,0.1,0.7c0.1,0.2,0.2,1,0.5,1.5
	c0.1,0.1,0.6,1.1,0.6,1.3c0.6,2.4-0.6,0.4-0.7,2.1c-0.1,1.3,0.5,2.9,1.1,4.1c0.4,0.8,1.5,1,1.7,1.6c0.9,2.9,0.2,2-1.1,3.4
	c-1.2,1.3-1.5,2.9-2.5,4.1c-2.2,2.7-6.8,4.5-9.5,7c-4.8,4.3-6.6,12.4-6.1,18.7c0,0.4,0,1.1-0.1,1.7h46.8V66.2z"/>
<path fill="#0C8FD0" d="M81.8,45.4v-3c0-1.2-0.2-2.3-0.7-3.4c-0.7-1.5-1.7-2.8-3.2-3.8c-1.4-1-3-1.5-4.8-1.5c-1.7,0-3.3,0.5-4.7,1.4
	C67,36,65.9,37.3,65.2,39c-0.5,1.2-0.7,3.3-0.7,6.4h-3.8v16H86v-16H81.8z M69.6,45.4v-3.1c0.1-1.1,0.5-1.9,1.1-2.6
	c0.6-0.7,1.5-1,2.4-0.9c1,0,1.9,0.4,2.5,1.1c0.7,0.7,1,1.5,1.1,2.4v3.1H69.6z"/>
</svg>
