<?xml version="1.0" encoding="utf-8"?>
<!-- Generator: Adobe Illustrator 18.0.0, SVG Export Plug-In . SVG Version: 6.00 Build 0)  -->
<!DOCTYPE svg PUBLIC "-//W3C//DTD SVG 1.1//EN" "http://www.w3.org/Graphics/SVG/1.1/DTD/svg11.dtd">
<svg version="1.1" id="icon-internet-id-child" xmlns="http://www.w3.org/2000/svg" xmlns:xlink="http://www.w3.org/1999/xlink"
	 x="0px" y="0px" viewBox="0 0 114 114" enable-background="new 0 0 114 114" xml:space="preserve">
<circle fill="#D1D6E6" cx="57" cy="57" r="57"/>
<g>
	<path fill="#4B505E" d="M106.5,89.3c0-0.4-0.1-0.8-0.4-1.3L95.6,69.2V25.7c0-0.8-0.7-1.5-1.5-1.5H57H19.9c-0.8,0-1.5,0.7-1.5,1.5
		v43.5L7.9,88c-0.3,0.5-0.5,1-0.4,1.4l0,0v1.1l0,0C7.6,91.4,8.4,92,9.7,92H57h47.3c1.4,0,2.3-0.7,2.2-1.8l0,0V89.3L106.5,89.3z"/>
</g>
<polygon fill="#FFFFFF" points="22.1,27.2 22.1,46.6 22.1,66.2 91.9,66.2 91.9,46.6 91.9,27.2 "/>
<g>
	<path fill="#6B7384" d="M70.6,87.6c0.1,0.5-0.2,0.9-0.7,0.9H44.1c-0.5,0-0.8-0.4-0.7-0.9l0.8-4c0.1-0.5,0.6-0.9,1.1-0.9h23.3
		c0.5,0,1,0.4,1.1,0.9L70.6,87.6z"/>
</g>
<polygon fill="#6B7384" points="77.9,79.6 17.6,79.6 21.2,71.9 75.7,71.9 "/>
<polygon fill="#6B7384" points="96.5,79.6 81.1,79.6 78.7,71.9 92.7,71.9 "/>
<path fill="#9CC55D" d="M26.2,56c1,0.5,2,1,3.1,1.5c1,0.5,0.7,0.7,0.7,1.8c-0.1,2.3-0.1,4.7,0.2,7c0,0,0,0,0,0.1h53.1
	c-0.1-1-0.1-2.3-0.1-2.2c1.9-1.2-0.4-1.7,0.1-3.6c0.9-3.3-1.9-8.7,0.3-11.7c-0.1,0.2,0.6,3,0.7,3.3c0.2,1.7,0.3,3.4,0.4,5.1
	c0,1.5-0.1,2.9-0.1,4.4c0,1,0,2-0.2,3c0,0.3-0.3,1-0.5,1.6h3.6c0.2-1.1,0.4-2.2,0.6-3.2c1-5.1,0.6-9.9,0.3-15
	c-0.2-2.5-1.2-6.1-0.6-8.5c0.2-0.8,0.9-1.5,0.3-2.2s-1.2-1.5-1.8-2.2c-0.4-0.6-0.8-1-1.2-1.6c-0.7-1.2-2.5-1.4-3-2.4
	c-0.8-1.5-0.6-3.8-0.7-5.5c-0.3-3.6-1.1-13.1-6.7-12.4c-1.4,0.2-2.4-0.7-3.7,0.1c-1,0.5-1.7,1.4-2.4,2.3c-1.2,1.8-1.4,4.7-1.8,6.8
	c-0.4,2.7-0.4,5.5-1.4,8c-0.7,1.9-2.5,3-3.3,4.7c0.1-0.1,0.1-0.1,0.2-0.2c-0.1,0.2-0.1,0.4-0.1,0.6c0-0.2,0.1-0.3,0.1-0.4
	c0,0.2,0,0.5,0,0.7c0-0.1,0-0.1,0.1-0.2c0.4,0.6-2,3.4-2.3,3.9c-1,1.5,0.9,1.6,0.9,3.1c0.1,2.6,0.9,7.6-0.8,9.8
	c0.5-0.6-2.6-7.3-3-8.3c-1-3-2.5-4.4-5.4-5.5c-1-0.4-3.6-1.1-4.1-2.1c-0.5-1.2,0.2-3,0.5-4.3c0.4-1.4,2-0.3,2.3-2.2
	c0.1-0.4,0.8-3.2-0.4-2.4c0.4-0.6-0.2-3.1,0.3-3.2c0-0.2,0-0.3-0.1-0.5c0,0.1,0.1,0.1,0.1,0.2c0.1-1-0.7-2.2-1.3-2.9
	c0.1,0,0.1,0,0.2,0C49,21,48.9,21.1,49.2,21c0.1,0-4.1-2.5-4-2.4C44,18.3,43,18.9,42,19.1c0.1,0,0.1,0,0.2,0c-0.1,0-0.1,0-0.2,0l0,0
	c-1.1,0-1.7,1.8-2.7,2.2c0.1,0,0.1-0.1,0.2,0c-0.5,0.8-2.5,5.3-0.9,6.1c-1.4-0.7-0.2,1.3-0.3,2c0,0.3,0.2,1.5,0.6,1.8
	c0.3,0,0.5,0,0.8,0c3.2,6.5-4.5,5.6-7.9,8.9c-2.8,2.7-4.1,8.7-5.6,12.3C25.6,54,24.5,55.2,26.2,56z M57.7,56.5
	c0.2,0,1.7-0.4,1.7-0.6c-0.2,1-0.7,2.1-1,3.1C58.6,58.6,56.8,56.8,57.7,56.5z"/>
<path fill="#0C8FD0" d="M66.7,45.4v-3c0-1.2-0.2-2.3-0.7-3.4c-0.7-1.5-1.7-2.8-3.2-3.8c-1.4-1-3-1.5-4.8-1.5c-1.7,0-3.3,0.5-4.7,1.4
	c-1.4,0.9-2.5,2.2-3.2,3.9c-0.5,1.2-0.7,3.3-0.7,6.4h-3.8v16h25.3v-16H66.7z M54.5,45.4v-3.1c0.1-1.1,0.5-1.9,1.1-2.6
	c0.6-0.7,1.5-1,2.4-0.9c1,0,1.9,0.4,2.5,1.1c0.7,0.7,1,1.5,1.1,2.4v3.1H54.5z"/>
</svg>
