<?xml version="1.0" encoding="utf-8"?>
<!-- Generator: Adobe Illustrator 18.0.0, SVG Export Plug-In . SVG Version: 6.00 Build 0)  -->
<!DOCTYPE svg PUBLIC "-//W3C//DTD SVG 1.1//EN" "http://www.w3.org/Graphics/SVG/1.1/DTD/svg11.dtd">
<svg version="1.1" id="icon_x5F_internet-300" xmlns="http://www.w3.org/2000/svg" xmlns:xlink="http://www.w3.org/1999/xlink"
	 x="0px" y="0px" viewBox="0 0 96 96" enable-background="new 0 0 96 96" xml:space="preserve">
<g id="_x33_00">
	<g>
		<circle fill="#F1F0F0" cx="48" cy="48" r="48"/>
		<g>
			<path fill="#4C515F" d="M35.6,76.9v-7h2.3l1.3,4.3l1.3-4.3h2.3v7h-1.6v-4.6l-1.4,4.6h-1.2l-1.4-4.6v4.6H35.6z"/>
			<path fill="#4C515F" d="M45.5,76.9H44v-7h1.5v2.3c0.3-0.4,0.8-0.7,1.4-0.7s1.2,0.3,1.7,0.8c0.6,0.6,0.9,1.2,0.9,2
				c0,0.9-0.3,1.5-1,2.1c-0.5,0.4-1.1,0.6-1.6,0.6c-0.7,0-1.2-0.2-1.5-0.6L45.5,76.9L45.5,76.9z M46.8,75.6c0.8,0,1.3-0.6,1.3-1.3
				c0-0.7-0.6-1.3-1.3-1.3c-0.8,0-1.2,0.6-1.2,1.3C45.5,75,46.1,75.6,46.8,75.6z"/>
			<path fill="#4C515F" d="M52,78.6h-1.5v-7h1.4v0.6c0.5-0.5,1-0.7,1.6-0.7s1.2,0.2,1.6,0.6c0.6,0.6,1,1.2,1,2.1
				c0,0.8-0.3,1.4-0.9,2c-0.5,0.5-1.1,0.8-1.7,0.8s-1.2-0.2-1.5-0.7C52,76.3,52,78.6,52,78.6z M53.2,75.6c0.8,0,1.3-0.6,1.3-1.3
				c0-0.8-0.6-1.3-1.3-1.3c-0.7,0-1.2,0.6-1.2,1.2C51.9,75.1,52.5,75.6,53.2,75.6z"/>
			<path fill="#4C515F" d="M58,75.4L58,75.4c0,0.4,0.2,0.6,0.6,0.6c0.4,0,0.6-0.2,0.6-0.5c0-0.5-0.4-0.4-1.1-0.6
				c-1-0.3-1.3-0.8-1.3-1.5c0-1.1,0.8-1.7,2-1.7c1.1,0,1.8,0.6,1.8,1.6h-1.4c-0.1-0.4-0.2-0.5-0.5-0.5s-0.5,0.2-0.5,0.5
				c0,0.4,0.3,0.5,0.9,0.6c1.1,0.3,1.6,0.7,1.6,1.6c0,1.1-0.9,1.8-2.1,1.8c-1.2,0-1.9-0.7-2-1.7H58V75.4z"/>
		</g>
		<g>
			<path fill="#178FCF" d="M25.9,58.1c0,0.1,0,0.2,0,0.3c0,1.3,0.9,2.2,2.6,2.2c1.5,0,2.5-1,2.5-2.4c0-1.7-1.3-2.6-3.9-2.6
				c-0.4,0-0.8,0-1.2,0v-4.4c0.2,0,0.4,0,0.6,0c2.4,0,3.6-1,3.6-2.9c0-1.4-0.8-2.3-1.9-2.3c-1.2,0-1.8,0.7-1.8,1.9
				c0,0.1,0,0.2,0,0.4h-5.6v-0.1c0-4.3,2.9-7,7.4-7c4.3,0,7.1,2.7,7.1,6.5c0,2.2-1.1,3.9-3.4,4.7c3,0.9,4.6,2.8,4.6,5.5
				c0,4.3-3.3,7.7-8.2,7.7c-5.3,0-8.3-2.7-8.3-7.5C20.2,58.1,25.9,58.1,25.9,58.1z"/>
			<path fill="#178FCF" d="M48,65.6c-4.8,0-8.4-3.5-8.4-8.4v-7.7c0-4.8,3.6-8.4,8.4-8.4s8.4,3.6,8.4,8.4v7.7
				C56.4,62.1,52.8,65.6,48,65.6z M50.8,49.6c0-2-1.1-3.1-2.7-3.1c-1.7,0-2.8,1.1-2.8,3.2v7.7c0,2.1,1.1,3.2,2.8,3.2
				c1.6,0,2.7-1.1,2.7-3.1V49.6z"/>
			<path fill="#178FCF" d="M67.6,65.6c-4.8,0-8.4-3.5-8.4-8.4v-7.7c0-4.8,3.6-8.4,8.4-8.4s8.4,3.6,8.4,8.4v7.7
				C76,62.1,72.4,65.6,67.6,65.6z M70.4,49.6c0-2-1.1-3.1-2.7-3.1c-1.7,0-2.8,1.1-2.8,3.2v7.7c0,2.1,1.1,3.2,2.8,3.2
				c1.6,0,2.7-1.1,2.7-3.1V49.6z"/>
		</g>
		<g>
			<g>
				<path fill="#4C515F" d="M32.5,26.6V34h-2v-1c-0.5,0.8-1.2,1.2-2.1,1.2c-1.5,0-2.5-1-2.5-2.7v-4.9h2.2v4c0,1.1,0.2,1.5,1.1,1.5
					c0.9,0,1.2-0.5,1.2-1.5v-4H32.5z"/>
				<path fill="#4C515F" d="M36.2,36.4H34v-9.8h2v0.9c0.7-0.7,1.3-1,2.2-1c0.9,0,1.6,0.3,2.3,0.9c0.9,0.8,1.2,1.7,1.2,2.9
					c0,1.1-0.4,2-1.2,2.8c-0.7,0.7-1.5,1-2.5,1c-0.9,0-1.5-0.3-2.1-1v3.4H36.2z M37.9,32.2c1.1,0,1.8-0.9,1.8-1.8
					c0-1.1-0.8-1.8-1.9-1.8c-1,0-1.7,0.8-1.7,1.8C36.1,31.4,36.9,32.2,37.9,32.2z"/>
				<path fill="#4C515F" d="M46.4,28.2v-1.6h1v-2.4h2.2v2.4h1v1.6h-1V34h-2.2v-5.8H46.4z"/>
				<path fill="#4C515F" d="M51.9,27.6c0.8-0.8,1.7-1.2,2.7-1.2c1.1,0,2,0.4,2.7,1.1c0.8,0.8,1.2,1.7,1.2,2.8c0,1.2-0.4,2-1.2,2.8
					c-0.8,0.8-1.7,1.2-2.8,1.2c-1.2,0-2-0.4-2.8-1.2c-0.7-0.8-1.1-1.7-1.1-2.7C50.9,29.3,51.3,28.3,51.9,27.6z M54.7,32.2
					c1,0,1.7-0.8,1.7-1.8c0-1.1-0.8-1.8-1.7-1.8c-1,0-1.7,0.8-1.7,1.8C53,31.3,53.8,32.2,54.7,32.2z"/>
			</g>
			<path fill="#7BB242" d="M60.5,17.4c-3.2-3-7.4-4.6-12-4.6c-4.5,0-8.6,1.5-11.8,4.4l-1.8-2c3.6-3.4,8.4-5.2,13.6-5.2
				c5.3,0,10.2,1.9,13.8,5.4L60.5,17.4z"/>
			<path fill="#7BB242" d="M56.6,22.1c-2.1-2-5-3.2-8.1-3.2c-3,0-5.8,1.1-7.9,3l-1.8-2c2.6-2.4,6-3.7,9.7-3.7c3.7,0,7.4,1.4,10,3.9
				L56.6,22.1z"/>
		</g>
	</g>
</g>
</svg>
