<?xml version="1.0" encoding="utf-8"?>
<!-- Generator: Adobe Illustrator 18.0.0, SVG Export Plug-In . SVG Version: 6.00 Build 0)  -->
<!DOCTYPE svg PUBLIC "-//W3C//DTD SVG 1.1//EN" "http://www.w3.org/Graphics/SVG/1.1/DTD/svg11.dtd">
<svg version="1.1" id="icon_prem-int-services" xmlns="http://www.w3.org/2000/svg" xmlns:xlink="http://www.w3.org/1999/xlink"
	 x="0px" y="0px" viewBox="0 0 24 24" enable-background="new 0 0 24 24" xml:space="preserve">
<circle fill="#D1D6E6" cx="12" cy="12" r="12"/>
<g>
	<g>
		<path fill="#4B505E" d="M18.9,18.8c0-0.1,0-0.1-0.1-0.2L17.4,16V9.9c0-0.1-0.1-0.2-0.2-0.2H12H6.8c-0.1,0-0.2,0.1-0.2,0.2V16
			l-1.5,2.6c0,0.1-0.1,0.1-0.1,0.2h0v0.2h0c0,0.1,0.1,0.2,0.3,0.2H12h6.6c0.2,0,0.3-0.1,0.3-0.3h0L18.9,18.8L18.9,18.8z"/>
	</g>
	<polygon fill="#FFFFFF" points="7.1,10.1 7.1,12.8 7.1,15.5 16.9,15.5 16.9,12.8 16.9,10.1 	"/>
	<g>
		<path fill="#6B7384" d="M13.8,18.2c0,0.2-0.3,0.4-0.8,0.4h-2c-0.5,0-0.9-0.2-0.8-0.4c0-0.2,0.5-0.4,1-0.4h1.7
			C13.4,17.8,13.8,18,13.8,18.2z"/>
	</g>
	<polygon fill="#6B7384" points="14.9,17.4 6.5,17.4 7,16.3 14.6,16.3 	"/>
	<polygon fill="#6B7384" points="17.5,17.4 15.4,17.4 15,16.3 17,16.3 	"/>
</g>
<circle fill="#7BB227" cx="12" cy="11.6" r="3.1"/>
<circle fill="#BDD893" cx="12" cy="11.6" r="2.5"/>
<polygon fill="#7BB227" points="12,9.9 12.5,11 13.7,11.2 12.9,12 13.1,13.2 12,12.6 10.9,13.2 11.1,12 10.3,11.2 11.5,11 "/>
<path fill="#0C8FD0" d="M15.4,6.1c-0.9-0.9-2.1-1.5-3.4-1.5c-1.3,0-2.5,0.5-3.3,1.4L7.9,5.4c1.1-1.1,2.5-1.7,4-1.7
	c1.6,0,3,0.6,4.1,1.8L15.4,6.1z"/>
<path fill="#0C8FD0" d="M14.2,7.6c-0.6-0.6-1.4-1-2.3-1c-0.8,0-1.6,0.3-2.2,0.9L9.1,6.9c0.8-0.8,1.8-1.2,2.9-1.2
	c1.1,0,2.2,0.5,3,1.3L14.2,7.6z"/>
</svg>
