<?xml version="1.0" encoding="utf-8"?>
<!-- Generator: Adobe Illustrator 18.0.0, SVG Export Plug-In . SVG Version: 6.00 Build 0)  -->
<!DOCTYPE svg PUBLIC "-//W3C//DTD SVG 1.1//EN" "http://www.w3.org/Graphics/SVG/1.1/DTD/svg11.dtd">
<svg version="1.1" id="icon-internet-hacker" xmlns="http://www.w3.org/2000/svg" xmlns:xlink="http://www.w3.org/1999/xlink"
	 x="0px" y="0px" viewBox="0 0 114 114" enable-background="new 0 0 114 114" xml:space="preserve">
<circle fill="#D1D6E6" cx="57" cy="57" r="57"/>
<g>
	<path fill="#4B505E" d="M106.5,89.3c0-0.4-0.1-0.8-0.4-1.3L95.6,69.2V25.7c0-0.8-0.7-1.5-1.5-1.5H57H19.9c-0.8,0-1.5,0.7-1.5,1.5
		v43.5L7.9,88c-0.3,0.5-0.5,1-0.4,1.4l0,0v1.1l0,0C7.6,91.4,8.4,92,9.7,92H57h47.3c1.4,0,2.3-0.7,2.2-1.8l0,0V89.3L106.5,89.3z"/>
</g>
<polygon fill="#FFFFFF" points="22.1,27.2 22.1,46.6 22.1,66.2 91.9,66.2 91.9,46.6 91.9,27.2 "/>
<g>
	<path fill="#6B7384" d="M70.6,87.6c0.1,0.5-0.2,0.9-0.7,0.9H44.1c-0.5,0-0.8-0.4-0.7-0.9l0.8-4c0.1-0.5,0.6-0.9,1.1-0.9h23.3
		c0.5,0,1,0.4,1.1,0.9L70.6,87.6z"/>
</g>
<polygon fill="#6B7384" points="77.9,79.6 17.6,79.6 21.2,71.9 75.7,71.9 "/>
<polygon fill="#6B7384" points="96.5,79.6 81.1,79.6 78.7,71.9 92.7,71.9 "/>
<path fill="#9CC55D" d="M47.3,42.2c-0.2,0.8-2.7,2.3-2.7,2.3s-5.4,2.2-6.9,3.3S32,51.3,30.9,52s-3.1,2.7-3.5,3.4s-1.4,3.5-1.5,4.9
	s0,6,0,6h55.2c0,0-0.3-5.1-0.5-6.2c-0.2-1.2-1.4-6.4-2.6-7.5c-1.3-1.1-5.7-3.7-8.3-4.4c-2.5-0.7-6.7-2-6.7-2s-1.3-0.4-1.6-0.8
	C61.1,45,61,42.7,61,42.7s0-1.6,0-1.7c0-0.1,0.1-1.1,0.2-1.6c0-0.2,0.1-0.3,0.3-0.6c0.3-0.4,0.6-0.8,0.8-1.3
	c0.7-1.7,0.7-3.4,0.8-3.9c0-0.2,0.1-0.1,0.2-0.1c0.6,0.1,1-0.5,1.2-0.8c0.1-0.3,0.3-0.4,0.5-0.7c0.4-0.6,0.6-1.7,0.8-2.2
	c0.1-0.2,0.2-0.6,0.2-0.8c0.1-0.9,0-1.3-0.1-1.7c-0.1-0.2-0.1-0.4-0.2-0.6c0-0.6-0.4-0.9-0.5-0.9c-0.2,0,0.3-1.1,0.3-1.2
	c-0.2-3.5,0.4-3.7-0.2-4.9c-0.1-1.4-2.2-4.8-2.2-4.8c-0.3-0.8-0.4-0.5-0.8-1.1c-1-1.4-1.6-1.7-1.5-1.6c-0.4-0.3-1.5-0.6-2.1-1.3
	c-0.3-0.3-0.8-0.2-1.9-0.7c-1.1-0.5-2.5-0.4-3.7-0.2c-0.8,0.1-1.4,0.4-2.1,1c-0.2,0.2-0.5,0.2-0.7,0.1c-0.2,0-0.4,0.1-0.5,0.3
	s-0.6,0.3-0.9,0.5c-0.4,0.3-0.6,0.7-0.8,1c-0.4,0.5-0.3,0.8-0.7,1.3c-0.1,0.2-0.5,1-0.9,1c-0.6,0.1-2.1,1.8-2.3,2.5
	c-0.8,1.5-1.3,3.6-0.8,4.9c0.6,0.5-0.5,1.8,0.2,2.4c0,0.2-0.2,0.4-0.2,0.4c-0.1,0.1-0.3,0.3-0.3,0.5s-0.1,0.9-0.2,1.3
	c-0.1,0.4-0.1,0.7,0,1.1c0,0.2,0.2,0.7,0.3,1.4c0.2,1.5,0.7,2,0.9,2.3c0.2,0.2,0.1,0.4,0.4,0.8c0.5,0.6,0.9,0.5,1.1,0.5
	c0.2-0.1,0.2,0.1,0.2,0.1s0,0.4,0.1,1c0.2,2.5,1.1,3.7,1.3,4c0.1,0,0.3,0.6,0.3,1.5C47.5,39.7,47.5,41.4,47.3,42.2z"/>
<path fill="#6B9C22" d="M65.2,24l-0.9-0.4c-0.1-0.2-0.2-0.3-0.3-0.4c-0.2-0.1-0.8-0.2-1.7-0.4c-1.3-0.2-2.8-0.2-4.1-0.1
	c-1,0.1-2.1,0.3-3.5,0.3c-0.8,0-1.5-0.1-2.2-0.2c-0.6-0.1-2.2-0.2-3.4-0.2s-2.4,0.2-3,0.4c-0.4,0.1-0.7,0.1-0.8,0.3
	c-0.6,0.1-1.7,0.4-1.9,0.7c-0.2,0.5-0.2,1.2-0.1,1.5c0.1,0.3,0.7,0.8,0.9,1.1c0.2,0.3,0.3,0.9,0.4,1.1c0.1,0.2,0.4,0.6,0.6,0.9
	c0,0.1,0,0.3,0,0.4c0.1,0.3,0.3,0.7,0.8,1s2.1,1,2.8,1.1c0.7,0.1,1.9,0.1,2.5-0.1c0.7-0.2,1-0.5,1.5-1s1-0.9,1.9-1
	c0.9,0,1.3,0.6,1.7,0.9c0.4,0.3,1.1,0.9,1.6,1.1s1,0.3,2.1,0.2c1.1-0.1,2.5-0.8,2.9-1.1c0.4-0.3,0.6-0.5,0.7-0.8
	c0.1-0.4,0.3-0.9,0.3-0.9s0-0.2,0.1-0.4c0.3-0.1,0.6-1,0.6-1.3c0.3-0.6,0.8-0.3,0.8-0.7c0-0.5,0.3-1,0.3-1.3S65.2,24,65.2,24z
	 M52.3,27.9c-0.3,0.1-1,0.2-1.5,0.2s-1.1,0-1.9-0.3c-0.8-0.2-1.2-0.6-1.3-0.8c-0.2-0.2-0.1-0.4-0.1-0.5s0.2-0.3,0.4-0.6
	c0.3-0.3,0.6-0.4,1.5-0.5c0.9-0.1,1.4,0.2,2,0.6c0.6,0.3,1.2,1,1.3,1.2c0,0,0.1,0.1,0.1,0.3C52.8,27.6,52.6,27.7,52.3,27.9z
	 M61.8,27c-0.2,0.2-0.6,0.6-1.3,0.8c-0.8,0.2-1.4,0.3-1.9,0.3s-1.2-0.1-1.5-0.2c-0.3-0.1-0.4-0.3-0.4-0.4s0.1-0.3,0.1-0.3
	c0.2-0.2,0.7-0.9,1.3-1.2c0.6-0.3,1.1-0.6,2-0.6c0.9,0.1,1.2,0.2,1.5,0.5c0.3,0.3,0.4,0.5,0.4,0.6C61.9,26.6,62,26.8,61.8,27z"/>
<path fill="#0C8FD0" d="M62.9,62c-1.6,0-2.3-1.1-1.4-2.5l16.4-26.3c0.9-1.4,2.3-1.4,3.2,0l16.4,26.3c0.9,1.4,0.2,2.5-1.4,2.5H62.9z"
	/>
<path fill="#FFFFFF" d="M77.5,50.5v-9.1h4v9.1H77.5z M81.5,57.1V54h-3.9v3.1H81.5z"/>
</svg>
