<?xml version="1.0" encoding="utf-8"?>
<!-- Generator: Adobe Illustrator 18.0.0, SVG Export Plug-In . SVG Version: 6.00 Build 0)  -->
<!DOCTYPE svg PUBLIC "-//W3C//DTD SVG 1.1//EN" "http://www.w3.org/Graphics/SVG/1.1/DTD/svg11.dtd">
<svg version="1.1" id="icon_int-equip" xmlns="http://www.w3.org/2000/svg" xmlns:xlink="http://www.w3.org/1999/xlink" x="0px"
	 y="0px" viewBox="0 0 100 100" enable-background="new 0 0 100 100" xml:space="preserve">
<circle fill="#D1D6E6" cx="50" cy="50" r="50"/>
<path fill="#0C8FD0" d="M68.1,19.8c-2.6-2.7-6.1-4.3-9.9-4.3c-3.7,0-7.1,1.4-9.7,4.1l-2-2c3.1-3.2,7.3-4.9,11.7-4.9
	c4.6,0,8.8,1.8,11.9,5.1L68.1,19.8z"/>
<path fill="#0C8FD0" d="M64.8,24.1c-1.7-1.8-4.1-2.9-6.6-2.9c-2.4,0-4.7,1-6.4,2.7l-2-2c2.2-2.3,5.2-3.6,8.4-3.6
	c3.3,0,6.4,1.4,8.7,3.8L64.8,24.1z"/>
<g>
	<path fill="#6B7384" d="M38.3,75.8L38.3,76l-1.1,2.5c0,0-1.7,0.1-1.7,0.7s1.2,0.7,4.9,0.9c3.7,0.2,5.9,0.2,9.3-0.2
		c3.4-0.4,10.3-1.2,10.6-1.4c0.3-0.2,0.4-0.5-0.1-0.8s-3.8-1.4-3.8-1.4L38.3,75.8z"/>
	<path fill="#6B7384" d="M57.9,39.3V27.9c0,0,0-0.8,0.6-0.8c0.6,0,0.7,0.8,0.7,0.8l0.3,14.9h-1.7V39.3z"/>
	<path fill="#4B505E" d="M54.6,37.4c0,0,2.3,0.2,3,1.7c0.7,1.4,0.6,3.5,0.6,3.5v31.4c0,0,0.3,2.8-2.8,3.2C52.4,77.4,42,78.6,42,78.6
		s-0.9,0.2-2.2-0.6c-1.3-0.8-1.9-1.6-1.9-2.9c0-1.3,0.2-36.5,0.2-36.5s0.2-2.7,3.7-2.6C43.8,36,54.6,37.4,54.6,37.4z"/>
	<path fill="#8792A4" d="M43.6,36.1c0,0,2.3,0.2,3,1.7c0.7,1.4,0.6,6.1,0.6,6.1v31.4c0,0,0.3,2.8-2.8,3.2S42,78.6,42,78.6
		s-0.9,0.2-2.2-0.6c-1.3-0.8-1.9-1.6-1.9-2.9c0-1.3,0.2-36.5,0.2-36.5s0.2-2.6,3.7-2.6C42.9,36,43.6,36.1,43.6,36.1z"/>
	<path fill="#333842" d="M38.2,38.6c0-0.6,0.5-2,2.5-2c2,0,2.6,1.2,2.6,1.7s0,37.6,0,37.6s-0.3,1.8-2.5,1.8c-2.2,0-2.7-2.2-2.7-2.2
		S38.2,39.1,38.2,38.6z"/>
	<path fill="#6B7384" d="M46.3,75.2h1.9l1.9,4.5h-1.6l-7-0.2l0.4-0.7c0,0,1.5,0.1,2.8-0.7C46.1,77.1,46.3,75.2,46.3,75.2z"/>
	<path fill="#6B7384" d="M55.9,73.9h1.6l1.7,3.9h-1.3l-6.1,0.3l0.3-0.6c0,0,1.3-0.4,2.4-1.1C55.7,75.6,55.9,73.9,55.9,73.9z"/>
	<circle fill="#7BB227" cx="40.7" cy="41.4" r="0.8"/>
	<circle fill="#7BB227" cx="40.7" cy="45.4" r="0.8"/>
	<circle fill="#7BB227" cx="40.7" cy="49.7" r="0.8"/>
	<circle fill="#7BB227" cx="40.7" cy="74.7" r="0.8"/>
</g>
</svg>
