<?xml version="1.0" encoding="utf-8"?>
<!-- Generator: Adobe Illustrator 18.0.0, SVG Export Plug-In . SVG Version: 6.00 Build 0)  -->
<!DOCTYPE svg PUBLIC "-//W3C//DTD SVG 1.1//EN" "http://www.w3.org/Graphics/SVG/1.1/DTD/svg11.dtd">
<svg version="1.1" id="icon_x5F_int-security" xmlns="http://www.w3.org/2000/svg" xmlns:xlink="http://www.w3.org/1999/xlink"
	 x="0px" y="0px" viewBox="0 0 114 114" enable-background="new 0 0 114 114" xml:space="preserve">
<circle fill="#D1D6E6" cx="57" cy="57" r="57"/>
<path fill="#4B505E" d="M106.5,89.3c0-0.4-0.1-0.8-0.4-1.3L95.5,69.2V25.7c0-0.8-0.7-1.5-1.5-1.5H56.9H19.9c-0.8,0-1.5,0.7-1.5,1.5
	v43.5L7.8,88c-0.3,0.5-0.5,1-0.4,1.4h0v1.1h0C7.5,91.4,8.3,92,9.6,92h47.3h47.3c1.4,0,2.3-0.7,2.2-1.8h0L106.5,89.3L106.5,89.3z"/>
<polygon fill="#FFFFFF" points="22,27.2 22,46.6 22,66.2 91.8,66.2 91.8,46.6 91.8,27.2 "/>
<path fill="#6B7384" d="M70.6,88.2c0,0.2-0.1,0.3-0.2,0.3H43.5c-0.2,0-0.3-0.1-0.2-0.3l1.1-5.1c0-0.2,0.2-0.3,0.4-0.3h24.5
	c0.2,0,0.3,0.1,0.4,0.3L70.6,88.2z"/>
<polygon fill="#6B7384" points="77.9,79.6 17.5,79.6 21.2,71.9 75.6,71.9 "/>
<polygon fill="#6B7384" points="96.5,79.6 81,79.6 78.6,71.9 92.6,71.9 "/>
<path fill="#9CC55D" d="M70.2,31.7v-5.6c0-1.8-0.4-3.6-1.1-5.3c-1.1-2.4-2.7-4.4-5-5.9c-2.2-1.6-4.7-2.3-7.4-2.3
	c-2.6,0-5.1,0.8-7.3,2.2c-2.2,1.5-3.9,3.5-5,6c-0.8,1.8-1.1,6.2-1.1,10.8h-6V61h39.4V31.7H70.2z M51.2,26.1c0.1-1.7,0.7-3,1.7-4.1
	c1-1,2.3-1.5,3.8-1.5c1.6,0.1,2.9,0.6,3.9,1.6c1,1,1.6,2.3,1.6,3.8v5.7H51.2V26.1z"/>
<path fill="#0C8FD0" d="M61.5,43.2c0-2.3-1.9-4.2-4.2-4.2S53,40.9,53,43.2c0,1.5,0.7,2.8,1.9,3.5l-0.7,7h6l-0.7-7
	C60.7,46,61.5,44.7,61.5,43.2z"/>
</svg>
