<?xml version="1.0" encoding="utf-8"?>
<!-- Generator: Adobe Illustrator 18.0.0, SVG Export Plug-In . SVG Version: 6.00 Build 0)  -->
<!DOCTYPE svg PUBLIC "-//W3C//DTD SVG 1.1//EN" "http://www.w3.org/Graphics/SVG/1.1/DTD/svg11.dtd">
<svg version="1.1" id="Layer_1" xmlns="http://www.w3.org/2000/svg" xmlns:xlink="http://www.w3.org/1999/xlink" x="0px" y="0px"
	 viewBox="0 0 350 350" enable-background="new 0 0 350 350" xml:space="preserve">
<g>
	<circle fill="#D2D7E7" cx="175" cy="175" r="175"/>
	<g>
		<path fill="#4B505E" d="M327,270.8c0-1.2-0.4-2.6-1.3-4l-32.4-57.7V75.5c0-2.5-2.1-4.6-4.6-4.6H175H61.2c-2.5,0-4.6,2.1-4.6,4.6
			v133.6l-32.3,57.7c-1,1.6-1.4,3.1-1.3,4.4h0v3.3H23c0.3,2.7,2.8,4.5,6.7,4.5H175h145.2c4.4,0,7-2.3,6.8-5.6h0.1L327,270.8
			L327,270.8z"/>
	</g>
	<polyline fill="#3FA8DF" points="67.9,139.6 67.9,200 282.1,200 282.1,139.6 	"/>
	<polyline fill="#5ABBEA" points="282.1,139.6 282.1,80 67.9,80 67.9,139.6 	"/>
	<g>
		<path fill="#3FA8DF" d="M217,267.3c0.1,0.5-0.2,0.9-0.7,0.9h-82.7c-0.5,0-0.8-0.4-0.7-0.9l3.3-15.8c0.1-0.5,0.6-0.9,1.1-0.9h75.4
			c0.5,0,1,0.4,1.1,0.9L217,267.3z"/>
	</g>
	<polygon fill="#7AB142" points="239.3,241 53.9,241 65.1,217.4 232.4,217.4 	"/>
	<polygon fill="#7AB142" points="296.4,241 249,241 241.6,217.4 284.5,217.4 	"/>
</g>
</svg>
