<?xml version="1.0" encoding="utf-8"?>
<!-- Generator: Adobe Illustrator 18.0.0, SVG Export Plug-In . SVG Version: 6.00 Build 0)  -->
<!DOCTYPE svg PUBLIC "-//W3C//DTD SVG 1.1//EN" "http://www.w3.org/Graphics/SVG/1.1/DTD/svg11.dtd">
<svg version="1.1" id="icon-internet-home" xmlns="http://www.w3.org/2000/svg" xmlns:xlink="http://www.w3.org/1999/xlink" x="0px"
	 y="0px" viewBox="0 0 114 114" enable-background="new 0 0 114 114" xml:space="preserve">
<circle fill="#D1D6E6" cx="57" cy="57" r="57"/>
<polygon fill="#6B7384" points="60.6,63.2 60.6,104 13.1,97 13.1,61.4 35.6,39.3 "/>
<polygon fill="#8792A4" points="60.6,63.2 101.1,61 102.1,62.9 101.9,96.6 60.6,104 "/>
<polygon fill="#4B505E" points="79.5,39.2 34.7,38.1 25.6,47.1 25.6,41.7 26.2,41.7 26.2,39.9 24.3,39.9 24.3,37.2 18.6,37.2 
	18.6,39.9 16.7,39.9 16.7,41.7 17.3,41.7 17.3,55.2 8.6,63.8 13.1,63.7 13.1,61.4 35.6,39.3 63,67 106.1,64.1 "/>
<polygon fill="#AAB2BE" points="76.3,100.7 89.8,98.5 89.8,75.8 76.1,77 "/>
<polygon fill="#FFFFFF" points="28.8,78.5 20.2,77.8 20.3,88.1 28.8,89 "/>
<polygon fill="#FFFFFF" points="49.6,79.7 40.9,79.2 41,90.5 49.6,91.1 "/>
<path fill="#7BB227" d="M69,47.6v-4c0-1.5-0.3-3-1-4.5c-0.9-2-2.3-3.7-4.2-5c-1.9-1.3-4-2-6.3-2c-2.3,0-4.3,0.7-6.2,1.9
	c-1.9,1.3-3.3,3-4.3,5.1c-0.7,1.6-1,4.4-0.9,8.5h-5.3v21.2h33.5V47.6H69z M52.8,47.6v-4c0.1-1.4,0.6-2.6,1.5-3.5
	c0.9-0.9,1.9-1.3,3.2-1.3c1.3,0,2.5,0.5,3.3,1.4c0.9,0.9,1.3,2,1.4,3.2v4.1H52.8z"/>
<path fill="#0C8FD0" d="M73,20.9C68.7,16.5,63,14,56.8,14c-6,0-11.6,2.4-15.9,6.7l-3.3-3.2c5.1-5.2,11.9-8,19.1-8
	c7.4,0,14.3,3,19.4,8.4L73,20.9z"/>
<path fill="#0C8FD0" d="M67.6,27.9c-2.8-3-6.7-4.7-10.8-4.7c-4,0-7.7,1.6-10.5,4.4l-3.3-3.2c3.7-3.7,8.5-5.8,13.8-5.8
	c5.3,0,10.5,2.3,14.1,6.2L67.6,27.9z"/>
</svg>
