<?xml version="1.0" encoding="utf-8"?>
<!-- Generator: Adobe Illustrator 18.0.0, SVG Export Plug-In . SVG Version: 6.00 Build 0)  -->
<!DOCTYPE svg PUBLIC "-//W3C//DTD SVG 1.1//EN" "http://www.w3.org/Graphics/SVG/1.1/DTD/svg11.dtd">
<svg version="1.1" id="icon_x5F_internet-50" xmlns="http://www.w3.org/2000/svg" xmlns:xlink="http://www.w3.org/1999/xlink"
	 x="0px" y="0px" viewBox="0 0 114 114" enable-background="new 0 0 114 114" xml:space="preserve">
<circle fill="#F0F0F0" cx="57" cy="57" r="57"/>
<g>
	<path fill="#4B505E" d="M42.1,91.4V83h2.8l1.6,5.1l1.6-5.1h2.8v8.3h-1.9v-5.5l-1.7,5.5h-1.4L44,85.8v5.5H42.1z"/>
	<path fill="#4B505E" d="M53.9,91.4h-1.8V83H54v2.7c0.4-0.5,1-0.8,1.8-0.8c0.8,0,1.5,0.3,2.1,0.9c0.7,0.6,1,1.4,1,2.3
		c0,1-0.4,1.8-1.1,2.5c-0.6,0.5-1.2,0.7-2,0.7c-0.8,0-1.3-0.2-1.9-0.7V91.4z M55.4,89.7c0.9,0,1.6-0.7,1.6-1.5
		c0-0.8-0.7-1.6-1.6-1.6c-0.9,0-1.5,0.7-1.5,1.6C53.9,89.1,54.6,89.7,55.4,89.7z"/>
	<path fill="#4B505E" d="M61.6,93.4h-1.9v-8.3h1.8v0.7c0.5-0.6,1.1-0.8,1.9-0.8c0.8,0,1.4,0.2,2,0.7c0.7,0.6,1.1,1.5,1.1,2.5
		c0,0.9-0.4,1.7-1,2.4c-0.6,0.6-1.3,0.9-2.1,0.9c-0.8,0-1.3-0.3-1.8-0.8V93.4z M63.1,89.8c0.9,0,1.6-0.7,1.6-1.6
		c0-0.9-0.7-1.5-1.6-1.5c-0.8,0-1.5,0.7-1.5,1.5C61.5,89.1,62.2,89.8,63.1,89.8z"/>
	<path fill="#4B505E" d="M68.7,89.5C68.7,89.5,68.7,89.5,68.7,89.5c0,0.4,0.3,0.7,0.7,0.7s0.6-0.2,0.6-0.6c0-0.5-0.5-0.5-1.3-0.7
		c-1.1-0.3-1.6-0.9-1.6-1.9c0-1.2,0.9-2.1,2.4-2.1c1.3,0,2.1,0.7,2.2,1.9h-1.7c-0.1-0.4-0.2-0.6-0.6-0.6c-0.4,0-0.6,0.2-0.6,0.5
		c0,0.4,0.4,0.5,1,0.7c1.3,0.4,1.9,0.8,1.9,1.9c0,1.3-1,2.2-2.5,2.2c-1.4,0-2.3-0.8-2.4-2H68.7z"/>
</g>
<g>
	<path fill="#0C8FD0" d="M42.2,69.9c0.5,1.1,1.8,1.8,3.1,1.8c2.3,0,4-1.6,4-3.9c0-2-1.6-3.6-3.8-3.6c-1.8,0-3,0.8-3.8,2.6l-5.6-1.6
		l2.5-15.6h15.2v5.5H44l-0.9,4.2c1.2-0.7,2.5-1.1,3.9-1.1c5.4,0,9.1,3.9,9.1,9.6c0,6.1-3.9,10.1-10.9,10.1c-5.4,0-9-2.9-10.2-8.1
		H42.2z"/>
	<path fill="#0C8FD0" d="M68.9,77.9c-5.7,0-10-4.1-10-9.9v-9.1c0-5.7,4.3-9.9,10-9.9s10,4.2,10,9.9V68
		C78.9,73.8,74.6,77.9,68.9,77.9z M72.3,58.9c0-2.4-1.3-3.7-3.2-3.7c-2.1,0-3.3,1.3-3.3,3.7V68c0,2.5,1.3,3.7,3.3,3.7
		c1.9,0,3.2-1.3,3.2-3.7V58.9z"/>
</g>
<g>
	<g>
		<path fill="#4B505E" d="M39.5,31.6v8.8h-2.4v-1.2c-0.6,0.9-1.4,1.3-2.5,1.3c-1.8,0-3-1.1-3-3.2v-5.8h2.6v4.8
			c0,1.2,0.3,1.8,1.3,1.8c1,0,1.5-0.6,1.5-1.8v-4.8H39.5z"/>
		<path fill="#4B505E" d="M43.8,43.2h-2.6V31.6h2.4v1c0.8-0.8,1.6-1.1,2.6-1.1c1.1,0,2,0.3,2.7,1c1,0.9,1.5,2.1,1.5,3.4
			c0,1.3-0.5,2.4-1.4,3.3c-0.8,0.8-1.8,1.2-2.9,1.2c-1.1,0-1.9-0.4-2.5-1.1V43.2z M45.8,38.2c1.2,0,2.2-1,2.2-2.2
			c0-1.2-0.9-2.2-2.3-2.2c-1.1,0-2,0.9-2,2.1C43.7,37.2,44.6,38.2,45.8,38.2z"/>
		<path fill="#4B505E" d="M55.9,33.5v-1.9H57v-2.8h2.6v2.8h1.2v1.9h-1.2v6.8H57v-6.8H55.9z"/>
		<path fill="#4B505E" d="M62.5,32.8c0.9-0.9,2-1.4,3.2-1.4c1.3,0,2.4,0.4,3.2,1.3c0.9,0.9,1.4,2.1,1.4,3.3c0,1.3-0.4,2.4-1.3,3.3
			c-0.9,0.9-2,1.4-3.3,1.4c-1.3,0-2.4-0.5-3.3-1.4c-0.8-0.9-1.3-2-1.3-3.2C61.2,34.7,61.7,33.6,62.5,32.8z M65.8,38.2
			c1.1,0,2.1-1,2.1-2.2c0-1.2-0.9-2.2-2.1-2.2c-1.1,0-2.1,1-2.1,2.2C63.8,37.2,64.7,38.2,65.8,38.2z"/>
	</g>
	<path fill="#7BB227" d="M72.7,20.6c-3.7-3.5-8.8-5.5-14.2-5.5c-5.3,0-10.3,1.9-14,5.3L42.3,18c4.3-3.9,10-6.1,16.2-6.1
		c6.3,0,12.1,2.3,16.5,6.4L72.7,20.6z"/>
	<path fill="#7BB227" d="M68.1,26.2c-2.5-2.4-6-3.8-9.6-3.8c-3.6,0-6.9,1.3-9.4,3.5l-2.2-2.4c3.1-2.8,7.2-4.4,11.6-4.4
		c4.5,0,8.8,1.7,11.9,4.7L68.1,26.2z"/>
</g>
</svg>
