<?xml version="1.0" encoding="utf-8"?>
<!-- Generator: Adobe Illustrator 18.0.0, SVG Export Plug-In . SVG Version: 6.00 Build 0)  -->
<!DOCTYPE svg PUBLIC "-//W3C//DTD SVG 1.1//EN" "http://www.w3.org/Graphics/SVG/1.1/DTD/svg11.dtd">
<svg version="1.1" id="icon_x5F_internet-5" xmlns="http://www.w3.org/2000/svg" xmlns:xlink="http://www.w3.org/1999/xlink"
	 x="0px" y="0px" viewBox="0 0 96 96" enable-background="new 0 0 96 96" xml:space="preserve">
<g id="_x35_">
	<g>
		<circle fill="#F1F0F0" cx="48" cy="48" r="48"/>
		<g>
			<path fill="#4C515F" d="M35.6,76.9v-7h2.3l1.3,4.3l1.3-4.3h2.3v7h-1.6v-4.6l-1.4,4.6h-1.2l-1.4-4.6v4.6H35.6z"/>
			<path fill="#4C515F" d="M45.5,76.9H44v-7h1.5v2.3c0.3-0.4,0.8-0.7,1.4-0.7s1.2,0.3,1.7,0.8c0.6,0.6,0.9,1.2,0.9,2
				c0,0.9-0.3,1.5-1,2.1c-0.5,0.4-1.1,0.6-1.6,0.6c-0.7,0-1.2-0.2-1.5-0.6L45.5,76.9L45.5,76.9z M46.8,75.6c0.8,0,1.3-0.6,1.3-1.3
				c0-0.7-0.6-1.3-1.3-1.3c-0.8,0-1.2,0.6-1.2,1.3C45.5,75,46.1,75.6,46.8,75.6z"/>
			<path fill="#4C515F" d="M52,78.6h-1.5v-7h1.4v0.6c0.5-0.5,1-0.7,1.6-0.7c0.7,0,1.2,0.2,1.6,0.6c0.6,0.6,1,1.2,1,2.1
				c0,0.8-0.3,1.4-0.9,2c-0.5,0.5-1.1,0.8-1.7,0.8s-1.2-0.2-1.5-0.7V78.6z M53.2,75.6c0.8,0,1.3-0.6,1.3-1.3c0-0.8-0.6-1.3-1.3-1.3
				c-0.7,0-1.2,0.6-1.2,1.2C51.9,75.1,52.5,75.6,53.2,75.6z"/>
			<path fill="#4C515F" d="M58,75.4L58,75.4c0,0.4,0.2,0.6,0.6,0.6c0.4,0,0.6-0.2,0.6-0.5c0-0.5-0.4-0.4-1.1-0.6
				c-1-0.3-1.3-0.8-1.3-1.5c0-1.1,0.8-1.7,2-1.7c1.1,0,1.8,0.6,1.8,1.6h-1.4c-0.1-0.4-0.2-0.5-0.5-0.5s-0.5,0.2-0.5,0.5
				c0,0.4,0.3,0.5,0.9,0.6c1.1,0.3,1.6,0.7,1.6,1.6c0,1.1-0.9,1.8-2.1,1.8c-1.2,0-1.9-0.7-2-1.7H58V75.4z"/>
		</g>
		<g>
			<path fill="#178FCF" d="M45,58.8c0.4,1,1.5,1.5,2.6,1.5c1.9,0,3.4-1.3,3.4-3.4c0-1.6-1.3-3.1-3.2-3.1c-1.5,0-2.5,0.7-3.2,2.2
				l-4.7-1.3L42,41.8h12.8v4.7h-8.3L45.8,50c1-0.6,2.1-0.9,3.4-0.9c4.5,0,7.7,3.4,7.7,8.1c0,5.2-3.4,8.4-9.2,8.4
				c-4.6,0-7.6-2.4-8.6-6.8H45z"/>
		</g>
		<g>
			<g>
				<path fill="#4C515F" d="M33.2,26.6V34h-2v-1c-0.5,0.8-1.2,1.2-2.1,1.2c-1.5,0-2.5-1-2.5-2.7v-4.9h2.2v4c0,1.1,0.2,1.5,1.1,1.5
					c0.9,0,1.2-0.5,1.2-1.5v-4H33.2z"/>
				<path fill="#4C515F" d="M36.9,36.4h-2.2v-9.8h2v0.9c0.7-0.7,1.3-1,2.2-1c0.9,0,1.6,0.3,2.3,0.9c0.9,0.8,1.2,1.7,1.2,2.9
					c0,1.1-0.4,2-1.2,2.8c-0.7,0.7-1.5,1-2.5,1c-0.9,0-1.5-0.3-2.1-1v3.4H36.9z M38.5,32.2c1.1,0,1.8-0.9,1.8-1.8
					c0-1.1-0.8-1.8-1.9-1.8c-1,0-1.7,0.8-1.7,1.8C36.8,31.4,37.5,32.2,38.5,32.2z"/>
				<path fill="#4C515F" d="M47,28.2v-1.6h1v-2.4h2.2v2.4h1v1.6h-1V34H48v-5.8H47z"/>
				<path fill="#4C515F" d="M52.6,27.6c0.8-0.8,1.7-1.2,2.7-1.2c1.1,0,2,0.4,2.7,1.1c0.8,0.8,1.2,1.7,1.2,2.8c0,1.2-0.4,2-1.2,2.8
					c-0.8,0.8-1.7,1.2-2.8,1.2c-1.2,0-2-0.4-2.8-1.2c-0.7-0.8-1.1-1.7-1.1-2.7C51.5,29.3,51.9,28.3,52.6,27.6z M55.4,32.2
					c1,0,1.7-0.8,1.7-1.8c0-1.1-0.8-1.8-1.7-1.8c-1,0-1.7,0.8-1.7,1.8C53.7,31.3,54.4,32.2,55.4,32.2z"/>
			</g>
			<path fill="#7BB242" d="M61.2,17.4c-3.2-3-7.4-4.6-12-4.6c-4.5,0-8.6,1.5-11.8,4.4l-1.8-2C39.2,11.8,44,10,49.2,10
				c5.3,0,10.2,1.9,13.8,5.4L61.2,17.4z"/>
			<path fill="#7BB242" d="M57.2,22.1c-2.1-2-5-3.2-8.1-3.2c-3,0-5.8,1.1-7.9,3l-1.8-2c2.6-2.4,6-3.7,9.7-3.7c3.7,0,7.4,1.4,10,3.9
				L57.2,22.1z"/>
		</g>
	</g>
</g>
</svg>
