<?xml version="1.0" encoding="utf-8"?>
<!-- Generator: Adobe Illustrator 18.0.0, SVG Export Plug-In . SVG Version: 6.00 Build 0)  -->
<!DOCTYPE svg PUBLIC "-//W3C//DTD SVG 1.1//EN" "http://www.w3.org/Graphics/SVG/1.1/DTD/svg11.dtd">
<svg version="1.1" id="icon_x5F_contact-chat" xmlns="http://www.w3.org/2000/svg" xmlns:xlink="http://www.w3.org/1999/xlink"
	 x="0px" y="0px" viewBox="0 0 40 40" enable-background="new 0 0 40 40" xml:space="preserve">
<path fill="#FFFFFF" d="M24.4,18.4c0,0.8-0.3,1.5-0.8,2.2c-0.5,0.7-1.3,1.2-2.2,1.6c-0.9,0.4-1.9,0.6-3,0.6c-0.5,0-1,0-1.5-0.1
	c-0.7,0.5-1.5,0.9-2.4,1.1c-0.2,0.1-0.5,0.1-0.7,0.1h0c-0.1,0-0.1,0-0.2-0.1c-0.1-0.1-0.1-0.1-0.1-0.2c0,0,0,0,0,0c0,0,0,0,0-0.1
	c0,0,0,0,0,0l0,0l0.1-0.1l0,0c0,0,0,0,0,0l0.4-0.5c0.1-0.1,0.1-0.1,0.2-0.3c0.1-0.1,0.1-0.2,0.2-0.3c0.1-0.1,0.1-0.2,0.2-0.4
	c-0.7-0.4-1.3-0.9-1.6-1.5c-0.4-0.6-0.6-1.2-0.6-1.9c0-0.8,0.3-1.5,0.8-2.2c0.5-0.7,1.3-1.2,2.2-1.6s1.9-0.6,3-0.6
	c1.1,0,2.1,0.2,3,0.6c0.9,0.4,1.6,0.9,2.2,1.6C24.1,16.8,24.4,17.6,24.4,18.4z M27.6,20.5c0,0.7-0.2,1.3-0.6,1.9
	c-0.4,0.6-1,1.1-1.6,1.5c0.1,0.1,0.1,0.3,0.2,0.4c0.1,0.1,0.1,0.2,0.2,0.3l0.4,0.5c0.1,0.1,0.2,0.2,0.2,0.2l0.1,0.1l0.1,0.1l0,0.2
	c0,0,0,0,0,0c0,0.1-0.1,0.1-0.1,0.2C26.4,26,26.3,26,26.2,26c-0.3,0-0.5-0.1-0.7-0.1c-0.9-0.2-1.7-0.6-2.4-1.1
	c-0.5,0.1-1,0.1-1.5,0.1c-1.5,0-2.9-0.4-4-1.1c0.3,0,0.6,0,0.7,0c0.9,0,1.8-0.1,2.6-0.4c0.8-0.3,1.6-0.6,2.3-1.1
	c0.7-0.5,1.2-1.1,1.6-1.8c0.4-0.7,0.6-1.4,0.6-2.2c0-0.4-0.1-0.9-0.2-1.3c0.7,0.4,1.3,0.9,1.7,1.5C27.4,19.2,27.6,19.8,27.6,20.5z"
	/>
</svg>
