<?xml version="1.0" encoding="utf-8"?>
<!-- Generator: Adobe Illustrator 18.0.0, SVG Export Plug-In . SVG Version: 6.00 Build 0)  -->
<!DOCTYPE svg PUBLIC "-//W3C//DTD SVG 1.1//EN" "http://www.w3.org/Graphics/SVG/1.1/DTD/svg11.dtd">
<svg version="1.1" id="icon_x5F_contact-chat" xmlns="http://www.w3.org/2000/svg" xmlns:xlink="http://www.w3.org/1999/xlink"
	 x="0px" y="0px" viewBox="189.7 305.7 12 9.4" width="12" height="9.4" enable-background="new 189.7 305.7 12 9.4" xml:space="preserve">
<path fill="#999999" d="M199.2,309.1c0,0.6-0.2,1.2-0.6,1.7c-0.4,0.6-1,0.9-1.7,1.3c-0.7,0.3-1.5,0.5-2.4,0.5c-0.4,0-0.8,0-1.2-0.1
	c-0.6,0.4-1.2,0.7-1.9,0.9c-0.2,0.1-0.4,0.1-0.6,0.1l0,0c-0.1,0-0.1,0-0.2-0.1s-0.1-0.1-0.1-0.2l0,0c0,0,0,0,0-0.1l0,0l0,0l0.1-0.1
	l0,0l0,0l0.3-0.4c0.1-0.1,0.1-0.1,0.2-0.2c0.1-0.1,0.1-0.2,0.2-0.2s0.1-0.2,0.2-0.3c-0.6-0.3-1-0.7-1.3-1.2
	c-0.3-0.5-0.5-0.9-0.5-1.5c0-0.6,0.2-1.2,0.6-1.7c0.4-0.6,1-0.9,1.7-1.3c0.7-0.3,1.5-0.5,2.4-0.5c0.9,0,1.7,0.2,2.4,0.5
	c0.7,0.3,1.3,0.7,1.7,1.3C199,307.9,199.2,308.5,199.2,309.1z M201.7,310.8c0,0.6-0.2,1-0.5,1.5c-0.3,0.5-0.8,0.9-1.3,1.2
	c0.1,0.1,0.1,0.2,0.2,0.3s0.1,0.2,0.2,0.2l0.3,0.4c0.1,0.1,0.2,0.2,0.2,0.2l0.1,0.1l0.1,0.1v0.2l0,0c0,0.1-0.1,0.1-0.1,0.2
	c-0.1,0.1-0.2,0.1-0.2,0.1c-0.2,0-0.4-0.1-0.6-0.1c-0.7-0.2-1.3-0.5-1.9-0.9c-0.4,0.1-0.8,0.1-1.2,0.1c-1.2,0-2.3-0.3-3.2-0.9
	c0.2,0,0.5,0,0.6,0c0.7,0,1.4-0.1,2.1-0.3s1.3-0.5,1.8-0.9c0.6-0.4,0.9-0.9,1.3-1.4c0.3-0.6,0.5-1.1,0.5-1.7c0-0.3-0.1-0.7-0.2-1
	c0.6,0.3,1,0.7,1.3,1.2C201.6,309.8,201.7,310.2,201.7,310.8z"/>
</svg>
