<?xml version="1.0" standalone="no"?>
<!DOCTYPE svg PUBLIC "-//W3C//DTD SVG 1.1//EN" "http://www.w3.org/Graphics/SVG/1.1/DTD/svg11.dtd">
<svg xmlns="http://www.w3.org/2000/svg">
<metadata>Copyright (C) 2016 by original authors @ fontello.com</metadata>
<defs>
<font id="fontello" horiz-adv-x="1000" >
<font-face font-family="fontello" font-weight="400" font-stretch="normal" units-per-em="1000" ascent="850" descent="-150" />
<missing-glyph horiz-adv-x="1000" />
<glyph glyph-name="tds-chev-down" unicode="&#xe800;" d="M0 623l227 227 546-541 547 541 226-227-773-773-227 227-546 546z" horiz-adv-x="1546" />

<glyph glyph-name="tds-lock" unicode="&#xe801;" d="M0-150v577h140c0 110 7 186 23 230 27 60 67 106 117 140 50 33 107 50 170 53 63 0 120-17 173-53 54-37 90-80 114-137 16-40 26-80 26-123v-110h150v-577h-913z m323 577h257v113c0 33-13 63-37 87-23 23-53 36-90 36-33 0-63-10-86-33-24-23-37-57-40-93v-110z" horiz-adv-x="913" />

<glyph glyph-name="tds-envelope-open" unicode="&#xe802;" d="M517 850l483-333-483-230-517 230 517 333z m-517-510v-490h1000v490l-483-230-517 230 0 0z" horiz-adv-x="1000" />

<glyph glyph-name="tds-chev-left" unicode="&#xe803;" d="M500 850l147-147-350-353 350-353-147-147-500 500 147 147 353 353z" horiz-adv-x="647" />

<glyph glyph-name="tds-chev-right" unicode="&#xe804;" d="M0-3l353 353-353 353 147 147 353-350 147-150-500-500-147 147z" horiz-adv-x="647" />

<glyph glyph-name="tds-pencil-1" unicode="&#xe805;" d="M0-150l63 303 697 697 240-237-697-700-303-63z m73 73l210 47 27 27-160 160-27-27-50-207z" horiz-adv-x="1000" />

<glyph glyph-name="tds-person" unicode="&#xe806;" d="M1071-89c0-15 0-36-3-65h-1068v33c0 14 0 25 0 32 0 21 0 32 0 35 7 33 29 61 64 86 36 25 72 43 111 54 43 14 86 28 129 50 42 21 75 43 96 64 11 14 18 29 18 39 0 15-4 40-11 72-3 14-7 25-11 35-3 11-10 22-14 33-7 10-11 21-14 32-11 25-22 68-32 132-11 25-11 50-11 75 0 71 18 125 54 168 35 43 89 64 157 64s121-21 157-64c36-43 53-97 53-168 0-22-3-47-7-75-10-61-21-104-32-132-3-11-11-22-14-32-7-11-11-22-14-33-4-10-8-21-11-35-7-36-11-57-11-72 0-10 7-25 18-39 21-25 54-46 96-64 43-18 86-36 125-47 40-10 75-28 111-53 36-25 57-50 64-86 0-7 0-18 0-39z" horiz-adv-x="1071" />

<glyph glyph-name="tds-pinterest" unicode="&#xe807;" d="M320 190c-17-87-37-157-57-210-23-57-53-97-96-130-4 50-7 90-7 120 0 30 3 67 10 110 7 43 17 77 23 103 7 27 17 60 27 100 10 40 20 74 23 100-16 34-23 74-20 117 4 43 20 77 47 107 30 26 60 33 100 20 27-10 40-30 43-60 4-30 0-60-13-94-10-33-23-70-33-103-10-33-10-63-4-90 7-27 27-43 64-50 46-10 86 3 120 37 36 33 60 76 73 130 13 53 17 106 10 163-7 57-23 100-53 127-40 43-90 66-150 70-57 3-110-7-160-34-50-26-90-63-120-116s-40-110-34-170c4-14 10-34 24-54 13-20 20-36 20-46 3-10-4-34-17-67-97 23-143 100-140 230 3 93 37 170 103 233s144 100 234 114c110 13 206-7 290-57 83-50 133-123 143-220 17-117-3-223-67-317-60-93-146-136-250-130-13 0-30 4-43 10-13 4-23 10-30 14-7 3-17 10-30 20-13 13-23 20-30 23z" horiz-adv-x="777" />

<glyph glyph-name="tds-plus" unicode="&#xe808;" d="M1000 477v-250h-377v-377h-250v377h-373v250h373v373h250v-373h377z" horiz-adv-x="1000" />

<glyph glyph-name="tds-print" unicode="&#xe809;" d="M821 668h-547v182h547v-182z m-821-92v-211h0v-336h183v274h729v-274h183v274 62 211h-1095z m336-584c47-95 117-146 117-146h547c0 0-95 70-146 194-29 73-33 171-33 171h-547c0 0 14-124 62-219z" horiz-adv-x="1095" />

<glyph glyph-name="tds-cart-remove" unicode="&#xe80a;" d="M233 29c-27 0-47-10-64-27-17-17-27-37-27-64 0-27 10-48 27-64 17-17 37-27 64-27 27 0 47 10 64 27 17 16 27 37 27 64 0 27-10 47-27 64-17 17-40 27-64 27z m642 0c-27 0-47-10-64-27-17-17-27-37-27-64 0-27 10-48 27-64 17-17 37-27 64-27 27 0 47 10 64 27 17 16 27 37 27 64 0 27-10 47-27 64-17 17-40 27-64 27z m139 706h-112l-27 115-449-115h-183l-47 115h-196v-98h132l192-436-155-23 61-203h740v98h-669l-7 24 720 114v409z m-227-297l-61-61-91 95-94-95-61 61 91 91-91 91 61 68 94-95 91 95 61-61-91-91 91-98z" horiz-adv-x="1014" />

<glyph glyph-name="tds-search" unicode="&#xe80b;" d="M1010-46l-273 273c41 64 68 138 68 219 0 222-182 404-404 404s-401-182-401-401 182-400 401-400c87 0 165 27 232 74l269-270 108 101z m-902 495c0 162 131 293 293 293s293-131 293-293-132-293-293-293-293 132-293 293z" horiz-adv-x="1010" />

<glyph glyph-name="tds-square" unicode="&#xe80c;" d="M0-150v1000h1000v-1000h-1000z" horiz-adv-x="1000" />

<glyph glyph-name="tds-trash" unicode="&#xe80d;" d="M0 633v140h290v77h243v-77h290v-140h-823z m43-783v677h737v-677h-737z" horiz-adv-x="823" />

<glyph glyph-name="tds-twitter" unicode="&#xe80e;" d="M601 599c0 70 25 128 74 177 49 49 111 74 181 74 74 0 136-25 181-78 54 12 107 33 161 57-17-57-54-107-112-139 46 8 95 20 145 41-33-50-79-95-128-132v-33c0-119-25-230-78-337-54-107-136-194-251-272-116-74-243-111-391-111-144 0-272 37-387 111 16 0 37-4 62-4 115 0 222 37 312 107-57 0-107 16-148 53s-70 74-86 124c12-4 29-8 45-8 21 0 41 4 66 8-58 12-103 41-144 86-37 46-58 103-58 165 37-8 74-17 120-21-74 54-116 124-116 210 0 41 13 83 33 124 140-169 313-255 523-264 0 25-4 41-4 62z" horiz-adv-x="1235" />

<glyph glyph-name="tds-unlocked" unicode="&#xe80f;" d="M0-150v560h153v137c0 83 30 156 87 213 27 27 60 50 97 67 36 16 76 23 116 23 84 0 154-30 210-87 57-60 87-126 90-210h-176c0 30-14 60-37 84-23 23-53 36-87 36-36 0-63-13-86-36-24-27-37-57-37-87v-137h553v-563h-883z" horiz-adv-x="883" />

<glyph glyph-name="tds-youtube" unicode="&#xe810;" d="M827 137c0-87-4-154-14-194-6-23-16-40-33-56-17-17-37-24-57-24-66-6-170-13-310-13-136 0-240 3-310 13-20 4-40 10-56 24-17 13-27 33-34 56-6 40-13 107-13 194s7 153 13 196c4 24 17 40 34 57 16 17 36 23 56 27 70 6 174 10 310 10 137 0 240-4 310-10 24-4 40-10 57-27 17-13 27-33 33-57 10-43 14-106 14-196z m-650 140h60v53h-174v-53h60v-317h57v317z m93 573h57l-67-223v-150h-57v150c-6 26-16 66-33 120-13 36-27 73-37 103h60l40-147 37 147z m67-890h50v277h-50v-210c-10-17-24-24-34-24-6 0-10 4-10 10 0 0 0 7 0 20v204h-50v-220c0-20 0-34 7-40 3-14 17-20 33-20 17 0 37 10 57 33v-30z m140 703v-96c0-30-7-54-17-67-13-20-33-30-60-30-27 0-47 10-60 30-10 13-13 37-13 67v96c0 30 6 54 13 67 13 20 33 30 60 30 27 0 43-10 60-30 13-13 17-37 17-67z m-50-106v116c0 27-7 40-24 40-16 0-23-13-23-40v-116c0-27 7-40 23-40 14 0 24 13 24 40z m150-514v110c0 27 0 47-7 54-7 20-20 30-40 30-20 0-37-10-53-30v120h-50v-370h50v26c16-20 33-30 53-30 20 0 33 10 40 30 7 14 7 30 7 60z m-50 114v-117c0-23-7-37-24-37-10 0-16 4-26 14v166c6 7 16 14 26 14 17-4 24-17 24-40z m136 596v-280h-50v30c-20-23-40-33-56-33-17 0-27 7-34 20-3 10-3 23-3 43v220h50v-226c0-7 7-14 13-14 10 0 20 7 34 24v216h46z m100-706v6h-50c0-20 0-30 0-33-3-13-10-20-23-20-17 0-27 13-27 37v50h100v56c0 30-6 50-13 64-13 20-33 26-60 26-23 0-43-10-60-26-10-14-13-37-13-64v-93c0-30 6-50 16-63 14-20 34-30 60-30 27 0 47 10 60 30 7 10 10 20 14 30-4 0-4 13-4 30z m-46 106v-23h-50v23c0 27 6 37 23 37 17 3 27-10 27-37z" horiz-adv-x="827" />

<glyph glyph-name="tds-pencil" unicode="&#xe811;" d="M790 850c0 0-750-750-750-750l-40-250 250 37 750 753-210 210z m-567-913l-86-14-64 64 14 86 60 60 136-136-60-60z" horiz-adv-x="1000" />

<glyph glyph-name="tds-minus" unicode="&#xe812;" d="M0 227v250h1000v-250h-1000z" horiz-adv-x="1000" />

<glyph glyph-name="tds-caret-up" unicode="&#xe813;" d="M500 557l500-417h-1000l500 417z" horiz-adv-x="1000" />

<glyph glyph-name="tds-caret-down" unicode="&#xe814;" d="M500 143l-500 414h1000l-500-414z" horiz-adv-x="1000" />

<glyph glyph-name="tds-location" unicode="&#xe815;" d="M640 740c-73 73-160 110-267 110-103 0-193-37-266-110-70-73-107-163-107-267 0-83 17-146 53-193l320-430 324 430c36 47 53 110 53 193 0 104-37 194-110 267z m-167-343c-26-27-60-40-96-40-37 0-70 13-97 40-27 26-40 60-40 96 0 37 13 70 40 97 27 27 60 40 97 40 36 0 70-13 96-40 27-27 40-60 40-97 0-36-13-70-40-96z" horiz-adv-x="750" />

<glyph glyph-name="tds-key" unicode="&#xe816;" d="M543 850c-200 0-360-160-360-360 0-70 20-137 57-193l-240-244v-203h233v177h170v133c44-20 90-30 140-30 200 0 360 160 360 360s-160 360-360 360z m44-417c-57 0-100 47-100 100s46 100 100 100 100-46 100-100-44-100-100-100z" horiz-adv-x="903" />

<glyph glyph-name="tds-gplus" unicode="&#xe817;" d="M1587 443h-174v174h-133v-174h-169v-133h169v-174h133v174h174v133z m-603 5l0 0 0 0h-481v-206h270c-32-133-133-201-270-201-170 0-291 132-291 291s132 306 291 306c79 0 137-21 190-68l138 148c-90 79-212 132-328 132-270 0-503-233-503-508s233-492 503-492 471 169 486 455c-5 42-5 111-5 143z" horiz-adv-x="1587" />

<glyph glyph-name="tds-facebook" unicode="&#xe818;" d="M520 843v-160h-93c-34 0-57-6-70-20-14-13-17-36-17-63v-117h177l-24-176h-153v-457h-187v457h-153v176h153v134c0 73 20 133 64 173s96 60 166 60c57 0 104-3 137-7z" horiz-adv-x="520" />

<glyph glyph-name="tds-ex" unicode="&#xe819;" d="M1000 50l-200-200-300 300-300-300-200 200 300 300-300 300 200 200 300-300 300 300 200-200-300-300 300-300z" horiz-adv-x="1000" />

<glyph glyph-name="tds-cart-empty" unicode="&#xe81a;" d="M1010 736h-768l-47 114h-195v-98h131l189-434-155-24 61-202h734v98h-660l-7 27 717 111v408z m-97-327l-495-74-135 306h626v-232z m50-468c0-51-40-91-91-91-50 0-91 40-91 91 0 50 41 91 91 91 51 0 91-41 91-91z m-643 0c0-51-40-91-91-91-50 0-91 40-91 91 0 50 41 91 91 91 51 0 91-41 91-91z" horiz-adv-x="1010" />

<glyph glyph-name="tds-download" unicode="&#xe81b;" d="M0 850h550l270-277v-723h-820v1000z m120-120v-763h583v566h-213v197h-370z m513-427l-220-256-223 260h153l-3 136h140v-136h153z" horiz-adv-x="820" />

<glyph glyph-name="tds-contact-email" unicode="&#xe81c;" d="M671 374l-671 312v164h1333v-164l-662-312z m0-182l662 311v-653h-1333v653l671-311z" horiz-adv-x="1333" />

<glyph glyph-name="tds-chat" unicode="&#xe81d;" d="M1000 486c0-64-21-127-68-183s-106-101-182-131c-76-34-161-47-250-47-42 0-80 5-123 13-59-42-127-72-199-93-17-4-38-9-59-13h-5c-4 0-8 4-16 9s-9 8-9 17c0 0 0 0 0 4s0 4 0 4c0 0 0 4 0 4l0 5 4 8 5 4c4 5 4 5 4 5l34 38c4 4 8 12 17 21 8 4 17 13 21 21 4 9 8 17 12 30-59 34-105 76-135 123-34 50-51 106-51 161 0 67 21 127 68 182 46 55 106 102 182 131s161 51 250 51c89 0 174-17 250-47 76-33 136-76 182-131 47-59 68-119 68-186z m271-178c0-55-17-110-51-161-34-51-80-94-135-123 4-13 8-21 13-34s12-17 16-26l34-42c9-8 13-17 17-17l9-8 4-9 4-13c0 0 0-4 0-4 0-8-4-13-8-17-4-4-9-4-17-4-21 4-43 8-59 13-73 21-136 51-195 93-43-9-85-13-123-13-127 0-242 30-335 93 25-4 47-4 64-4 76 0 148 13 220 30 68 21 131 51 186 93 60 43 102 93 136 153 34 55 47 118 47 178 0 38-5 72-17 110 59-34 110-76 144-127s46-106 46-161z" horiz-adv-x="1271" />

<glyph glyph-name="tds-call" unicode="&#xe81e;" d="M1000 60c0-13-3-30-7-50-6-20-10-37-16-47-10-23-37-50-87-76-43-24-87-37-130-37-13 0-27 0-37 3-13 4-26 4-40 10-16 4-26 7-33 10l-77 27c-46 17-86 37-123 60-60 37-123 87-187 153-63 64-116 127-153 187-23 37-43 77-60 123l-13 37c-7 20-14 33-17 40-3 7-7 17-10 33l-7 37c-3 13-3 27-3 40 0 43 13 87 37 133 26 44 53 74 76 84 14 6 27 10 50 16 17 4 34 7 47 7 7 0 13 0 17-3 6-4 20-20 36-54 7-10 14-23 20-40 10-16 17-33 27-43 7-13 17-27 20-37 0-3 7-6 13-16 7-10 14-20 17-27 3-7 7-13 7-20 0-10-7-20-20-37-17-13-30-26-47-40-17-10-30-23-43-36-14-14-20-27-20-34 0-3 0-10 3-16l7-14c0-3 3-10 10-16 6-10 10-14 10-14 36-66 76-120 123-166 47-47 103-87 167-124 0 0 6-3 13-6 7-7 13-10 17-10l13-7c7-3 10-3 17-3 10 0 20 6 33 20 13 13 27 26 37 43 13 17 26 33 40 43 13 14 26 20 36 20 7 0 14-3 20-6 7-4 17-10 27-17 10-7 17-10 17-13l83-47c17-10 30-17 40-20 33-17 50-30 53-37-3 0-3-6-3-13z" horiz-adv-x="1000" />

<glyph glyph-name="tds-circle" unicode="&#xe81f;" d="M997 350c0-89-23-175-66-252-44-76-106-135-183-182s-159-66-251-66-172 23-252 66c-76 47-139 106-179 182-43 77-66 159-66 252-3 89 20 176 66 252 50 76 110 135 182 182s156 66 252 66 179-23 252-66 132-106 182-182c46-76 69-159 63-252z" horiz-adv-x="997" />

<glyph glyph-name="tds-checkmark" unicode="&#xe820;" d="M467-150l-467 463 221 220 246-241 562 558 221-221-783-779z" horiz-adv-x="1250" />

<glyph glyph-name="tds-caret-right" unicode="&#xe821;" d="M417 350l-417-500 0 1000 417-500z" horiz-adv-x="417" />

<glyph glyph-name="tds-caret-left" unicode="&#xe822;" d="M0 350l417 500v-1000l-417 500z" horiz-adv-x="417" />

<glyph glyph-name="tds-blogger" unicode="&#xe823;" d="M727 777c43-44 66-97 73-160 3-34 7-60 7-84 0-23-4-43-10-63 46 0 86-13 126-40 40-27 64-73 67-143v-137c0-63-20-123-57-183-36-60-110-97-216-117-24 0-50 0-80 0-30 0-60 0-97 3-73 4-137 4-193 0-114-3-200 24-257 70-60 50-90 127-90 234 0 36 0 73 0 113s0 83 0 130v90c0 30 0 63 0 90 0 13 0 27 3 37 7 66 34 120 77 160 47 40 103 63 170 73l300 0c77-7 133-33 177-73z m-584-620c0-54 34-87 104-100l450-4c66 17 96 50 96 104 0 53-33 86-103 100l-447 3c-66-17-100-53-100-103z m57 413c0-47 30-77 100-90h243c64 17 97 47 100 93s-30 77-100 90h-243c-67-16-100-46-100-93z" horiz-adv-x="990" />

<glyph glyph-name="tds-chev-up" unicode="&#xe824;" d="M1546 77l-226-227-547 541-546-541-227 227 773 773 227-227 546-546z" horiz-adv-x="1546" />

<glyph glyph-name="tds-linkedin" unicode="&#xe825;" d="M251 735c0-35-11-63-35-84s-52-34-91-34h0c-38 0-69 14-90 34-24 21-35 49-35 84s11 63 35 84c24 21 56 31 90 31 39 0 67-10 91-31 24-25 35-53 35-84z m-14-209v-676h-223v676h223z m808-289v-387h-223v362c0 49-10 84-28 112-17 28-48 42-87 42-28 0-52-7-69-25-18-14-35-35-46-59-3-14-7-31-7-56v-376h-223c0 181 0 328 0 439v202l0 32h223v-98h0c11 14 18 28 28 38 11 11 21 21 39 35 14 14 34 25 59 28s49 10 77 10c76 0 139-24 188-76 45-45 69-122 69-223z" horiz-adv-x="1045" />

<glyph glyph-name="tds-business" unicode="&#xe826;" d="M937-87v560h-437v377h-437v-937h-63v-63h1000v63h-63z m-814 874h124v-124h-124v124z m0-187h124v-127h-124v127z m0-187h124v-123h-124v123z m0-186h124v-124h-124v124z m254-314h-190v124h186v-124z m60 187h-124v123h124v-123z m0 187h-124v123h124v-123z m0 186h-124v127h124v-127z m0 190h-124v124h124v-124z m126-250h127v-123h-127v123z m0-186h127v-124h-127v124z m250-314h-186v124h186v-124z m60 187h-123v123h123v-123z m0 187h-123v123h123v-123z m0 0" horiz-adv-x="1000" />

<glyph glyph-name="star" unicode="&#xe827;" d="M320 445l99 303 99-303 320 0-259-187 99-306-259 188-260-188 100 306-259 187 320 0z" horiz-adv-x="838" />

<glyph glyph-name="download-alt" unicode="&#xe828;" d="M0-150l0 135 1000 0 0-135-1000 0z m88 586l228 0 0 414 370 0 0-414 228 0-414-385z" horiz-adv-x="1000" />

<glyph glyph-name="heart" unicode="&#xe829;" d="M380 18l-285 283c-66 65-95 137-95 200 0 109 73 182 183 182 102 0 137-48 197-117 60 69 95 117 198 117 110 0 182-73 182-182 0-63-29-135-95-200z" horiz-adv-x="760" />
</font>
</defs>
</svg>
