<?xml version="1.0" encoding="utf-8"?>
<!-- Generator: Adobe Illustrator 18.0.0, SVG Export Plug-In . SVG Version: 6.00 Build 0)  -->
<!DOCTYPE svg PUBLIC "-//W3C//DTD SVG 1.1//EN" "http://www.w3.org/Graphics/SVG/1.1/DTD/svg11.dtd">
<svg version="1.1" id="icon_x5F_social-youtube" xmlns="http://www.w3.org/2000/svg" xmlns:xlink="http://www.w3.org/1999/xlink"
	 x="0px" y="0px" viewBox="0 0 40 40" enable-background="new 0 0 40 40" xml:space="preserve">
<path fill="#FFFFFF" d="M26.6,23.4c0,1.4-0.1,2.4-0.2,3.1c-0.1,0.4-0.3,0.7-0.5,0.9c-0.3,0.2-0.6,0.4-0.9,0.4
	C23.9,27.9,22.2,28,20,28c-2.2,0-3.9-0.1-5-0.2c-0.3,0-0.6-0.2-0.9-0.4c-0.3-0.2-0.4-0.5-0.5-0.9c-0.2-0.7-0.2-1.7-0.2-3.1
	s0.1-2.5,0.2-3.1c0.1-0.4,0.2-0.7,0.5-0.9c0.3-0.2,0.6-0.4,0.9-0.4c1.1-0.1,2.8-0.2,5-0.2c2.2,0,3.9,0.1,4.9,0.2
	c0.4,0,0.7,0.2,0.9,0.4c0.3,0.2,0.4,0.5,0.5,0.9C26.5,20.9,26.6,22,26.6,23.4z M16.2,21.2h1v-0.8h-2.8v0.8h0.9v5.1h0.9V21.2z
	 M17.7,12h0.9l-1.1,3.6V18h-0.9v-2.4c-0.1-0.4-0.3-1.1-0.5-1.9c-0.2-0.6-0.4-1.2-0.6-1.7h1l0.6,2.4L17.7,12z M18.8,26.3h0.8v-4.4
	h-0.8v3.4c-0.2,0.2-0.4,0.4-0.5,0.4c-0.1,0-0.2-0.1-0.2-0.2c0,0,0-0.1,0-0.3v-3.2h-0.8v3.5c0,0.3,0,0.5,0.1,0.7
	c0.1,0.2,0.2,0.3,0.5,0.3c0.3,0,0.6-0.2,0.9-0.5V26.3z M21,15v1.6c0,0.5-0.1,0.8-0.3,1.1c-0.2,0.3-0.5,0.5-0.9,0.5
	c-0.4,0-0.7-0.2-0.9-0.5c-0.2-0.2-0.2-0.6-0.2-1.1V15c0-0.5,0.1-0.8,0.2-1c0.2-0.3,0.5-0.5,0.9-0.5c0.4,0,0.7,0.2,0.9,0.5
	C20.9,14.1,21,14.5,21,15z M20.2,16.7v-1.9c0-0.4-0.1-0.6-0.4-0.6c-0.3,0-0.4,0.2-0.4,0.6v1.9c0,0.4,0.1,0.6,0.4,0.6
	C20.1,17.3,20.2,17.1,20.2,16.7z M22.6,24.9v-1.8c0-0.4,0-0.7-0.1-0.9c-0.1-0.3-0.3-0.5-0.6-0.5c-0.3,0-0.6,0.2-0.8,0.5v-1.9h-0.8
	v5.9h0.8v-0.4c0.3,0.3,0.5,0.5,0.8,0.5c0.3,0,0.5-0.2,0.6-0.5C22.6,25.7,22.6,25.4,22.6,24.9z M21.8,23.1V25c0,0.4-0.1,0.6-0.4,0.6
	c-0.1,0-0.3-0.1-0.4-0.2v-2.7c0.1-0.1,0.3-0.2,0.4-0.2C21.7,22.5,21.8,22.7,21.8,23.1z M24,13.5V18h-0.8v-0.5
	c-0.3,0.4-0.6,0.6-0.9,0.6c-0.3,0-0.4-0.1-0.5-0.3c0-0.1-0.1-0.4-0.1-0.7v-3.5h0.8v3.6c0,0.1,0.1,0.2,0.2,0.2c0.2,0,0.3-0.1,0.5-0.4
	v-3.4H24z M25.6,24.8v-0.1h-0.8c0,0.3,0,0.5,0,0.5c0,0.2-0.2,0.3-0.4,0.3c-0.3,0-0.4-0.2-0.4-0.6v-0.8h1.6v-0.9c0-0.5-0.1-0.8-0.2-1
	c-0.2-0.3-0.6-0.4-1-0.4c-0.4,0-0.7,0.1-1,0.4c-0.2,0.2-0.2,0.6-0.2,1v1.5c0,0.5,0.1,0.8,0.3,1c0.2,0.3,0.6,0.5,1,0.5
	c0.4,0,0.7-0.2,0.9-0.5c0.1-0.2,0.2-0.3,0.2-0.5C25.6,25.3,25.6,25.1,25.6,24.8z M24.8,23.1v0.4H24v-0.4c0-0.4,0.1-0.6,0.4-0.6
	C24.7,22.5,24.8,22.7,24.8,23.1z"/>
</svg>
