<?xml version="1.0" encoding="utf-8"?>
<!-- Generator: Adobe Illustrator 18.0.0, SVG Export Plug-In . SVG Version: 6.00 Build 0)  -->
<!DOCTYPE svg PUBLIC "-//W3C//DTD SVG 1.1//EN" "http://www.w3.org/Graphics/SVG/1.1/DTD/svg11.dtd">
<svg version="1.1" id="icon_x5F_social-blogger" xmlns="http://www.w3.org/2000/svg" xmlns:xlink="http://www.w3.org/1999/xlink"
	 x="0px" y="0px" viewBox="0 0 40 40" enable-background="new 0 0 40 40" xml:space="preserve">
<path fill="#FFFFFF" d="M23,14.4c0.6,0.6,0.9,1.2,0.9,2.1c0.1,0.4,0.1,0.8,0.1,1.1c0,0.3-0.1,0.6-0.1,0.8c0.6,0,1.1,0.2,1.7,0.5
	c0.5,0.3,0.8,1,0.9,1.9v1.8c0,0.8-0.3,1.6-0.7,2.4c-0.5,0.8-1.4,1.3-2.8,1.5c-0.3,0-0.7,0.1-1,0.1c-0.4,0-0.8,0-1.3,0
	c-1,0-1.8,0-2.5,0c-1.5,0-2.6-0.3-3.4-0.9c-0.8-0.7-1.2-1.7-1.2-3c0-0.5,0-1,0-1.5c0-0.5,0-1.1,0-1.7v-1.2c0-0.4,0-0.8,0-1.2
	c0-0.2,0-0.3,0-0.5c0.1-0.9,0.4-1.6,1-2.1c0.6-0.5,1.3-0.8,2.2-0.9l3.9,0C21.7,13.5,22.5,13.9,23,14.4z M15.4,22.5
	c0,0.7,0.5,1.1,1.4,1.3l5.9,0c0.9-0.2,1.3-0.7,1.3-1.3c0-0.7-0.5-1.1-1.3-1.3l-5.9,0C15.8,21.4,15.4,21.9,15.4,22.5z M16.1,17.1
	c0,0.6,0.4,1,1.3,1.2h3.2c0.8-0.2,1.3-0.6,1.3-1.2c0-0.6-0.4-1-1.3-1.2h-3.2C16.6,16.1,16.1,16.5,16.1,17.1z"/>
</svg>
