<?xml version="1.0" encoding="utf-8"?>
<!-- Generator: Adobe Illustrator 18.0.0, SVG Export Plug-In . SVG Version: 6.00 Build 0)  -->
<!DOCTYPE svg PUBLIC "-//W3C//DTD SVG 1.1//EN" "http://www.w3.org/Graphics/SVG/1.1/DTD/svg11.dtd">
<svg version="1.1" id="Layer_1" xmlns="http://www.w3.org/2000/svg" xmlns:xlink="http://www.w3.org/1999/xlink" x="0px" y="0px"
	 viewBox="0 292.4 612 207.3" enable-background="new 0 292.4 612 207.3" xml:space="preserve">
<metadata><?xpacket begin="﻿" id="W5M0MpCehiHzreSzNTczkc9d"?>
<x:xmpmeta xmlns:x="adobe:ns:meta/" x:xmptk="Adobe XMP Core 5.6-c011 79.156289, 2014/03/31-23:39:12        ">
 <rdf:RDF xmlns:rdf="http://www.w3.org/1999/02/22-rdf-syntax-ns#">
  <rdf:Description rdf:about=""
    xmlns:xmp="http://ns.adobe.com/xap/1.0/"
    xmlns:xmpGImg="http://ns.adobe.com/xap/1.0/g/img/"
    xmlns:xmpTPg="http://ns.adobe.com/xap/1.0/t/pg/"
    xmlns:stDim="http://ns.adobe.com/xap/1.0/sType/Dimensions#"
    xmlns:stFnt="http://ns.adobe.com/xap/1.0/sType/Font#"
    xmlns:xmpG="http://ns.adobe.com/xap/1.0/g/"
    xmlns:dc="http://purl.org/dc/elements/1.1/"
    xmlns:ExtensisFontSense="http://www.extensis.com/meta/FontSense/"
   xmpTPg:NPages="1"
   xmpTPg:HasVisibleTransparency="False"
   xmpTPg:HasVisibleOverprint="False"
   dc:format="image/svg+xml">
   <xmp:Thumbnails>
    <rdf:Alt>
     <rdf:li
      xmpGImg:width="256"
      xmpGImg:height="88"
      xmpGImg:format="JPEG"
      xmpGImg:image="/9j/4AAQSkZJRgABAgEASABIAAD/7QAsUGhvdG9zaG9wIDMuMAA4QklNA+0AAAAAABAASAAAAAEA&#xA;AQBIAAAAAQAB/+4ADkFkb2JlAGTAAAAAAf/bAIQABgQEBAUEBgUFBgkGBQYJCwgGBggLDAoKCwoK&#xA;DBAMDAwMDAwQDA4PEA8ODBMTFBQTExwbGxscHx8fHx8fHx8fHwEHBwcNDA0YEBAYGhURFRofHx8f&#xA;Hx8fHx8fHx8fHx8fHx8fHx8fHx8fHx8fHx8fHx8fHx8fHx8fHx8fHx8fHx8f/8AAEQgAWAEAAwER&#xA;AAIRAQMRAf/EAaIAAAAHAQEBAQEAAAAAAAAAAAQFAwIGAQAHCAkKCwEAAgIDAQEBAQEAAAAAAAAA&#xA;AQACAwQFBgcICQoLEAACAQMDAgQCBgcDBAIGAnMBAgMRBAAFIRIxQVEGE2EicYEUMpGhBxWxQiPB&#xA;UtHhMxZi8CRygvElQzRTkqKyY3PCNUQnk6OzNhdUZHTD0uIIJoMJChgZhJRFRqS0VtNVKBry4/PE&#xA;1OT0ZXWFlaW1xdXl9WZ2hpamtsbW5vY3R1dnd4eXp7fH1+f3OEhYaHiImKi4yNjo+Ck5SVlpeYmZ&#xA;qbnJ2en5KjpKWmp6ipqqusra6voRAAICAQIDBQUEBQYECAMDbQEAAhEDBCESMUEFURNhIgZxgZEy&#xA;obHwFMHR4SNCFVJicvEzJDRDghaSUyWiY7LCB3PSNeJEgxdUkwgJChgZJjZFGidkdFU38qOzwygp&#xA;0+PzhJSktMTU5PRldYWVpbXF1eX1RlZmdoaWprbG1ub2R1dnd4eXp7fH1+f3OEhYaHiImKi4yNjo&#xA;+DlJWWl5iZmpucnZ6fkqOkpaanqKmqq6ytrq+v/aAAwDAQACEQMRAD8A9U4q7FXYq7FXYq7FXjfm&#xA;zXZNY1vzBe6pFLeeU/Ktzb6Tpvl2BuH6Y1q5WIhLj+aJHuI41Q1WtWYGlMVZ55S1a5E76HqU9tJr&#xA;drDHLeWGmQOtlYI61ig9VuVXI3FSCw+IIq4qyjFXYq7FXYq7FXYq7FXYq7FXYqlfmTzT5f8ALOmn&#xA;U9evo9OsA6xG5mJCc3rxXYHrTFWKf8r+/Jr/AKmyx/4Jv+acVTHQPzb/AC08waimm6P5ksby/l/u&#xA;rVZQsjkCtEV+JY0HQYqy7FXYq7FXYq7FXYq7FXYq7FXYq7FXYq7FXYq7FXYq7FWMP5EsfUuZI5CP&#xA;X1qHXVUjZZY0ijdffl6TN8z7YqiD5ZuodM1e20vUpNMvtTunvV1KOKGWRJHKH4kmV43HFPT3FeHQ&#xA;g0IVYneed/zH8nIW82+X/wDEGkx15a95cVmkRB+1cadKxkX+ZmjkZRirJPJ/5m+Q/OEdfLutW97N&#xA;Sr2fL07lKdedvIElFPHjTFWT4q7FXYq7FXYq7FXYq7FUDreh6RrulXOk6xaR3um3aencW0oqrL1+&#xA;gg7gjcHcYq+Bv+chPIHlLyL5/bRfLV5JPbG3S4ubWVhI9rLKzEQlwBUenxYcviodyeuKvNYpZYpU&#xA;lido5Y2DRyKSrKymoII3BBxV9CeQf+cyPNeiaZHp3mfTF8xeiAsWoev9WueA/wB+n05VlP8AlfCf&#xA;Ek4qzq0/5ze8psB9b8t38Jpv6UsMu/8AsvSxVnX5af8AOSPk78wfMUfl/SNM1SC/aGS4kkuI7cQI&#xA;kVKlnSd33LAD4OpxV6zirsVdirsVdirsVdirsVdirsVdirsVdirsVdirsVdirzz8w/yI/L7zu7Xl&#xA;5ZnTtcryj1rTyILkONw0lBxl+bgnwIxV5XrGl/8AOUH5WqZ9F1T/AB35bh39K5ia4uUUfzx8vrNA&#xA;P99SsPEDFWvLP/ObGiuRB5r8u3NjMp4yT2DrOvIbEmKX0WSh7cmOKvT9E/5yM/JjWEUw+Zre1kP2&#xA;o75ZLQqfAtMqJ9zEYqzPTfN/lPVADpmt2F8G+yba6hmB6dODN4jFU2xV2KuxVJdd86+T9ARn1vW7&#xA;HTgvVbm4ijb6FZgxPsBirw/8y/8AnMLypplnNZeSI21nVWBWPUJUaKziJ/ao/GSUjw4hf8rtir4/&#xA;1PU9Q1XUbnUtRne6v7yRprm4kNXeRzVmJ+eKoXFWQaD+X3nrzBD6+ieX9Q1G3H/HxbW0skXy9RV4&#xA;1+nFWRxf84+/nPLIsa+VLwM5oC/pov0szhR9JxV9Vf8AOOP5Fz/l1pt1qettHJ5m1RFjlWIh0trd&#xA;Ty9FX/aZmoZCNthTpUqvZ8VdirsVdirsVdirsVdirsVdirsVdirsVdirsVdirsVdirzv8+/zGm8g&#xA;/lxfavZkDVbplsdLLCoW4mDHnT/iuNHce4GKvzzuJ57ieS4nkaWeZmkllclmZ2NWZidySTviqnir&#xA;sVRdpq2q2dPql5Pbca8fSldKV604kYqjF84ebUDKut36q4o4F1MARWtD8W+KqFx5i8wXKenc6ndz&#xA;J/JJPI48OhY4ql+KuxVUt7ee5uIra3jaa4mdY4YkBZ3dzRVVRuSSaAYq+y/yP/5xa0TQbO313zva&#xA;x6lr8qiSPTJQJLW0ruAy7rLKO5NVHatOWKvoREREVEUKigBVAoABsAAMVbxV2KuxV2KuxV2KuxV2&#xA;KuxV2KuxV2KuxV2KuxV2KuxV2KuxV2KvD/8AnLzypqeuflcl7p8ZmOh3iX11Eoq31f03ikcAfyGR&#xA;WP8Ak1PbFXw3irsVTvQvLM2vp9W0mQS60teGlOQslwK7fVSdpJP+KvtH9jluFVSeaGWGV4ZkaOWN&#xA;ikkbgqyspoVYHcEHFVmKuxV2Kro45JZFjjUvI5CoiglixNAAB1JxV9m/844f846jyskHm/zZDXzJ&#xA;IvLT9PbcWSOKcnHedlPT9j/W6KvoXFXYq7FXYq7FXYq7FXYq7FXYq7FXYq7FXYq7FXYq7FXYq7FX&#xA;Yq7FXYq0yqylWAZWFGU7gg9jir5+/Mv/AJxB8qeYLqbU/Kl0PL19KS0ljw9SxZia/AgKtDX/ACar&#xA;4KMVeD+Y/wDnFv8AOXRXcx6QmrW6V/0jTpklB+UTmOb/AITFXnGr+XfMmhTqmr6ZeaXOD8K3cEtu&#xA;1Rvt6iqe2Ks303z55V81QRaX+ZdtK1yoWO185WIX9IxKBxUXiEUvI123b94B0JxVkB/5xZ826pZL&#xA;qvknWtK81aNL/c3NtP6EtQKlZI5BxjYd1MlR3xVhX5gflH5t8gW1lJ5mNpbXV+zC30+OdZrjgn2p&#xA;WEYZFStBUtuTsNjRVjWg6BrWv6rb6TotnLf6jdNwgtoV5MT4nsqjqWOwG5xV9qfkR/zjbpXkVYdf&#xA;8wenqHm0rWKnxQWXIUKxV+1JvRpD8l7llXuGKuxV2KuxV2KuxV2KuxV2KuxV2KuxV2KuxV2KuxV2&#xA;KuxV2KuxV2KuxV2KuxV2KuxVKfNmsaJovlvUdV10BtIsoWlvFZPVBjXtwoeVfDFXjGt+RP8AnFTz&#xA;5Y/XrTUNK0uaUVW6067h0+VSd/jtZOKA/wCvFXFXz95pjtvyo8xpdflt+YaarKzUmjsg3wqN1EzL&#xA;6tncL7cuv7OKsV80675h81ea4Nc893F1ANU9NmvRbfZtQeIa2hJhRkUdArb+NcVfXv5Gap/zjxom&#xA;lraeTNYtP0jcKq3dxqDiDUJ2H7LCcREqD+zGOP68Ve1ghgCDUHcEdCMVdirsVdirsVdirsVdirsV&#xA;dirsVdirsVdiqQ6b558tajeR2dtdE3Eu0asjqGPWlSKZr8PaeDJIRidz5F2WfsnUYoGco+keYT7N&#xA;g612KuxV2KuxV2KuxV2KpBB568szX62K3RFw0npKGjcAvXjTkRTrmvj2pglPgve65F2U+yNRGHGY&#xA;+mr5jkhPOP5peQvJlzb23mbV49Nnu0MtujpK5ZFPEn92j982DrWR6ff2Wo2FtqFjMtxZXcST21xG&#xA;apJFIoZHU+DKa4qr4qhNY0jTtY0q70rUoFudPvoXt7qBqgPHIpVhUUI2PUbjFXztdf8AOEXlZ9Qe&#xA;W28yXsOnsxK2rQxSSqv8vrVUH58MVeheSP8AnGr8qPKckdzHph1bUY6FbzVGFwQRvVYqLCpBGx4V&#xA;HjirP/MHlny95i019M13T4NRsH629wgdQaUDLXdWHZloRirwfzD/AM4VeSr2/a40TWrzSLZySbOR&#xA;Fu0T2jdmjfj/AKxY++KvZPy3/L/R/IXlS28uaVJLNBAzySXE5BkklkNWY0oo8AB0GKsnxVjHnL8z&#xA;fIvkuW1i8z6tHpsl6rtaq6SvzEZAcj00fpyHXFW9b/MryNonlux8zanq8UGhak0aWN+FkkSVpo2l&#xA;QD01Zt0RjuO2Ko/yt5t8ueatJXVvL19HqGnM7RiePkAHT7SlWCsCK9xiqb4q7FXYq7FXYq7FXYqx&#xA;Hzd+bX5d+T9Ti0vzJrUWnX80K3MUEiTMTE7sivWNHX7UbDr2xVD+Zvzg8neXdW0rTr2SaU6skU0V&#xA;3AqNBHFOSIpJGZ0JVuDH4AxoNxuKqsVv00vQPzD+BfRsLSSOTiKtQNCrECtT9ps47KMen1m20Ikf&#xA;c9zhOTU6Hfecgf8AdUyRfzc0s3HFrGZbev8AeclLU/1On/DZsh2/jv6TX4/HN1R9m8nD9UeL8df2&#xA;MztdSsrqwS/gmVrR0MglrQBR1rXpSm9c3WPNGcOMH0ugyYJwnwEerlTEL/8ANbSYZ2js7WW7Ra1l&#xA;qI1NO61DNT5gZp8vbuMGoxMvsd5h9ncso3OQj5c098tebdL1+N/q3KK4i3lt5KcgD+0KHdcz9Fr8&#xA;eoHp2I6Ou1/ZuTTEcW8T1CUWP5paDc3SQyRTWyNWs0nHgtATvRie2YeLtzDKVEGPmXOzez+aEbBE&#xA;vIWoyfmzoqzlEtLh4Qaer8AJHiFJ/jkD2/ivaMqbI+zmYxsyjfxZfY6jZ31hHf28ga1lXmsh2oB1&#xA;rXpSm+bjFmjOAnE+kujzYJ45mEh6gxHUfzW0i3uWitbaS7RTQzVEan3WoJI+dM0+bt3HGVRBl58n&#xA;d4PZ3LKNykInu5sLurvR7zzZp9zpULQQSzQNLE9aiUy/F3brsds0s8mOeojLGKBI+du+x48sNNOO&#xA;U2QJUfKtkF/zmHoWjz/ll+mZbSJ9VtLq3htr0r+9SORjzQN14t3Gdu8Ax/yj/wA5Sfl/5R8heWtC&#xA;NrfatfWGl2yag1nGnpQuI1BRnldKkE0NBSu1a4q9Y8l/nf5K85eVtU17RGmd9HgkuL/SpVVLxBGj&#xA;OPgDMrB+JCsrEV264qxTQP8AnLX8stT07Vb28ivdK/RSI5huUiZ5y7cFjgEcjFpOXUGlBvWlaKsj&#xA;8ofn15J8w+Q9R873Bl0XRNMuns52vuPMyJHHIOCxNJyLesAqjcntirBp/wDnMXysWluLLyxrF3o8&#xA;LcZNSCRqoANCacmUe3Jx9GKvWPy8/Mzyj5/0dtT8uXZmWIhbu1lHC4gdqkLLHU0rQ0IJU9jtirz7&#xA;zD/zlH5csvMl95f0Hy/qvmS70yR4r2Syi/dq8bFX4/achWFORUDwrirJvyr/ADy8ofmLLdWWnR3G&#xA;n6zYrzu9LvVVJQgYIzoVLBlViFPQg9Riqj+a35++SPy4ljsdRM1/rUyCVNMtApdUNQryu5VUBpt1&#xA;b2pirwP86vzv/L38xfIl5az6JcaX5tsWhfSnvY1ZjE86CZYpUNRVASysADTucVereXvLuia5/wA4&#xA;rWEOr2UV7HaaHcXlqJRX0riKGb05UPVXXkaEYq8z/Ij8+fJX5dflemm6mlzf6vd6ncSRadYoryLG&#xA;yRKryF2RVDEEKBUnwxV7X+WH/ORPkH8wdTbSLH6xpus0ZobG+VFMyoKsYnjaRWKjcqSG70IBOKor&#xA;81fz18q/l1d2emX1td6lrV/H6trp1kis3AsUVnZioAZ1KjjU7dMVY75c/wCco/K175jtfL/mHRNT&#xA;8rXt6ypavqMQWIs54pzJ4unJtgeHHxIxVP8A82Pz28vflpf6fa6xpt9eLqEbSrNZrEVQK3EqfUeP&#xA;4u4GKsY80f8AOXX5caS1rFpdtea5cXFvHcyJbKsawrLGJQkjuf7xUb4goIXcE1BxVlv5Sfnj5T/M&#xA;yK7j0uOey1KxVXutPugvLg5oJI2QsHSux6EHqNxVVLvzS/5yM8kfl/qi6LNFPq2uEK0tjZcD6Ifd&#xA;RK7EBWYbhQCaeAIxV4D+e/5t/lz+Y/lFbqDSJtL87afc28Q+uIomayImZkjlQnkiu4YqwG5qAeuK&#xA;vpTyz5C8pa95V8n6rq2nLdX1npOnCGUvIgKxRJLGkqIypKqyfEqyBgD88VSXzHZwXv5nG1uP7iaa&#xA;2WQdKgxR/D9PTOR1mMT13CeRMfuD2uhyyx9ncUeYjL7yzXzpoulyeV7v/R44zaxGS3ZVClCm4C08&#xA;embvtLTYzglsBwjZ0HZeqyDUx3J4jR82BWGoXkf5dahAhPpteJHyr0R1DMo9qr+OaDFmkNFIDlxU&#xA;9JmwROvgTz4Cfl+PsRPk6fzfZaaZNG0m3uYZ2PK6cVduO3En1U2HhTLezpamELxQiQev4Iau04aX&#xA;JkrLklEjp0/3JR3lTQPM1v5wj1K608WdtMZTcCMqI1DoxAC8mNOdMv0Gkzx1InKPDE3dcuXv73G7&#xA;R1mnlpTjjPikKq+fP3dyV+YdKt7v8x205VEUE01urrGAtFMSF6U79cxdXgE9bwcgTH7g5mi1EoaD&#xA;xOZAl95plnnzQtHtvKFy1tZxQtbGIwuiAMCZFQ/ENzVW3rm27U0uOOmPDEDhqvmHS9j6vLPVR4pE&#xA;8V38iUn024mh/Ki9eInlzaP/AGMkqq3/AArHMPDMjs+RH4shzs8BLtOIP4oFH/lZpWnnRpb5okku&#xA;pJmjZ2AJVVAoor0rWpzI7DwQ8Izq5EuN7Q6ifiiFkRAtIfNWnWdj5/sktEWNJZLaV40FFV2koaAd&#xA;K8a5r9dhjDWREdrMT9rsuzs88mikZbkCQ+xLv+cvf/JN3P8AzHWn/EjnXPFMl/IPypoeiflL5eWx&#xA;t4uWq2EF9qEwUFpprqMSv6h/a4c+AB6AUxV5B5f0qz8nf85kHSNAC2ul6xbTNc2UPwxxiSya6aPi&#xA;NgPWgDqOwIpiqV/l35D0HzT/AM5R+czrFul1ZaPdXt9HZyKGikm+srGnqL0ZV9QtQ9TSu2Kp7/zl&#xA;Qian58/LrybcSfVdBv7uP62sfwLWa4iteZAoKxRVC+FTir6Q07SdM03TIdLsLWK2063jEMFpGoWN&#xA;YwKcQvSmKvmLy7DpvkP/AJy51DSdFdbPQNQtJptTtl+GG3Q2JvmqKcVVZIwy0+yrUHhiqYaB+bk9&#xA;1rmuP+Sn5am/F3Ny1TXJnMEc8wLsrOpKqvxSswBlDEH7IxVjn5bXXmuX/nLQzeZ9Mg0PXrq3mbUt&#xA;Ns5FkiBNgGUkpJMtXVVkPxdd8VTH8mdPs/NX/OTXnjWNdiW4vNImvH0+3nHIxPFdC2ibiR1hiXiP&#xA;AkHr0VZ//wA5b+WtG1D8pL3WbmFP0no0ts9hc0HqD17iOCSPl14ssnIr4qD2xVW8nT/V/wDnFH1+&#xA;PL0fLF9JxrSvG3mNK4qxL/nC3ynoi+UdT80tDHLrM189itwQGeGCKKN+Ck7rzMpLU6jjiqE/5yc0&#xA;mw8t/mT5B85aNEttrd1fFbswgK1wbaWAozAFQzcZWRieoIBNMVZF+bX5meTtN/M2x0/RfJzecPzK&#xA;sI0SCSPkv1VaNMiBkEjMyiUuwC0AbduwVeRf85H6/wDm3rOjaLdeePKlr5etYbmUaZcwzxyXDM6D&#xA;nGyiaRwPgDV4DoMVey/85WSPL+RSyyHlI9zYuzHuzVJP44qyT/nHbyJoflj8sNDu7O2jGpa1ZQah&#xA;qF9xHqyG5QTIhbrxjVwoUbd+pJxV5l+Wlja6Z/zl95xtLGMW9s1nO5ijAVazfVZn2FBT1GriqC/5&#xA;xQsrTzL+YnnjzhrCC41yCaNrdpRyaI3ss7SsoNQCBCqAg7Co6HFWQf8AOaXl3SJvIumeYGhRdWtN&#xA;QjtI7kAB2gmikZomPUgNGGHhvTqcVe0/l5/ygHln/tlWP/UMmKsT80eUPMeo+cLi7soSkLmNobss&#xA;FUNHCu+x5D4lp0zmNd2fmyakyiNtqPuAet7P7TwYtKIzNnex75H4clupWv5m6xANLu7fjBUCZx6a&#xA;K9DUF2B3A60X7sGaGuzDw5Db4fj5MsGTs/AfEid+nM17v2ss07yZZW/lZ9Cnb1BOC9xMu3700PJa&#xA;/wAvEU+WbbD2bGOn8I9eZ83S5+1Jy1IzDauQ8v2sTs9H/MHyxLLDpsYu7N2qOPF0J6cuBIdTTr/H&#xA;NTj0+s0pIgOKP4+Lusup0OrAOQ8Mh8/nyLIfKlr53bU5b7XJQlvInAWhKncGqlVT4Vp4nc5sdBDV&#xA;cZnlO1cv7HV9o5NGMYhhHqB5/wBu5Su90LWH/MpdSW1c2Ilib6xQcaLCqn8RmLk0uQ67j4TwWN/g&#xA;5eLWYh2f4ZkOOjt/nFk/nPTrvUfLV7Z2iepcSBCiVArwkVyN/Zc2naOGWTBKMeZr7wXU9l544tRG&#xA;ctoi/tBDF/Jmi6+2n32h6vbPb6XNE5jZlHISMRuD7dc1XZumzGEsWQVAj7XcdqarAJxzYpA5AfsS&#xA;yw0r8wPLNzNBp8BuIJT1UCSJiOjgVBU5i4sGs0siICwfiHKzajQ6uIlkPDIfA+7zQ+oeUfPct9Fq&#xA;0sPr30rCZirRkxuh+EEE8dgBSm2V5ez9WZjIRcjv02bcPaWiEDiBqA267qf/ADkH5a83eZ/yaTTb&#xA;Gwkv9dee0lntYQvOqEmQ0BC7Z1WnMzjHH9VbvH6kQGSXB9F7e5575S1z/nJL8sfLtv5ZHk//ABJY&#xA;JEJNJuoxJK0CygSGGX0Ty/dsxHFgpB6MVplzQyf8i/yo87jzrqf5ofmIFi8x6irpZ2Hwl4hIAhkb&#xA;gWCcYlEcaVJC15b4qqflD5C87aR+evn3zJrOltaaPqr3g067LxlZVa9V4iFV2Ycol5bgYqyj8/Py&#xA;c/5WR5dthYXC2fmLSHabSrh6hG5gepC7KCyh+CkMOhA98Ved2n5gf85Z6Tp66Fc+S4tT1OJfRi1l&#xA;hzDAbB5GimELNv1qvuOuKpt+Vf8Azj7r0a+ZPMf5h3nr+a/NNnc2MnpsJGtYrxCkzl1onqkfCoT4&#xA;VUUB32VYz+X+lf8AORf5TQ6h5S0nypbeYtOubl7jT9QEqrCJGVUMjN6kbBGCL8EnE+BxVK1/Kb/n&#xA;I/y1+ZUPn7TdPs/MevXUT3F/JJNAlsk9yjRyQcHntXIjQgKU28NsVZJ+Y/5Vfmh5R/NSb8y/ywt0&#xA;vxqJZ9S0yq8uctPXV4maP1IpmUP8Dcg3hQHFUo8+6R/zkn+bnlye3v8Ay/B5f0rT1S6i0sv6U99c&#xA;CgCfvXJHBWZgG4rXbduirNvy+0b8zh+QXmXyj5j0EWF/Z6ReadocEbK0t0JbWULy4ySLy5uF7Yq8&#xA;z/KvR/8AnIb8qNPa/sPKr6tpOrOfr+iNU3EMsR4rKqoS681P2grKR9obDFWVeW/In5r/AJo/mXpX&#xA;nP8AMbTRoXl/QHEmnaO1UZnjYSKoiYs9GkVWleSnIDiBToqr+dPy+/NXyV+c17+ZPkTSovMNlq0b&#xA;LeWDsokjMiIJUIZkf4njDo0dafZIp9pVjv5qflr/AM5DfmnYwa7qmk21g1hIIdL8rR3EQkEUoJmu&#xA;XlkkEfOqIKFgSOwp8SrNvzH8sfmz5w/5x+t9J1XRI185C6h9bTbOSLj6MEjKj8vWljqYwGaj9ew6&#xA;Yq9b/LrTb7S/y+8saZfxGC+sdJsba7gJBKSw2yJIhKkj4WUjY4q8J1Xyf+cfl7/nIzVPOnlzy8mp&#xA;aTqbRQNcySRembaWKFZWC+rHIrI0Xcdu4OKoXXvyz/Nz8rvzL1Dzh+Wliut6HrDSPdaXs3ASv6jQ&#xA;vFzRyFfeKSPcDY9+SqWfmZ5T/wCckPzX0P67qmhQ6TYaXIr6f5dSREnuJHqjzH1JOsak/bK7H4Qa&#xA;nFXvX5Lyed/8A2Np5x0tNI1TTgtjDboQ3O2t4o0jlajyjk1DWh+jFX//2Q=="/>
    </rdf:Alt>
   </xmp:Thumbnails>
   <xmpTPg:MaxPageSize
    stDim:w="8.499742"
    stDim:h="2.878615"
    stDim:unit="Inches"/>
   <xmpTPg:Fonts>
    <rdf:Bag>
     <rdf:li
      stFnt:fontName="MuseoSlab-500"
      stFnt:fontFamily="Museo Slab"
      stFnt:fontFace="500"
      stFnt:fontType="Open Type"
      stFnt:versionString="Version 1.000"
      stFnt:composite="False"
      stFnt:fontFileName="exljbris - MuseoSlab-500.otf"/>
    </rdf:Bag>
   </xmpTPg:Fonts>
   <xmpTPg:PlateNames>
    <rdf:Seq>
     <rdf:li>Cyan</rdf:li>
     <rdf:li>Magenta</rdf:li>
     <rdf:li>Yellow</rdf:li>
     <rdf:li>Black</rdf:li>
    </rdf:Seq>
   </xmpTPg:PlateNames>
   <xmpTPg:SwatchGroups>
    <rdf:Seq>
     <rdf:li
      xmpG:groupName="Default Swatch Group"
      xmpG:groupType="0"/>
    </rdf:Seq>
   </xmpTPg:SwatchGroups>
   <ExtensisFontSense:slug>
    <rdf:Bag>
     <rdf:li
      ExtensisFontSense:Family="Museo Slab"
      ExtensisFontSense:Version="1.000"
      ExtensisFontSense:OutlineFileSize="0"
      ExtensisFontSense:KerningChecksum="0"
      ExtensisFontSense:Foundry="--"
      ExtensisFontSense:FontKind="OpenType - PS"
      ExtensisFontSense:Checksum="1206353100"
      ExtensisFontSense:PostScriptName="MuseoSlab-500"
      ExtensisFontSense:FontSense_1.2_Checksum="784040494"/>
    </rdf:Bag>
   </ExtensisFontSense:slug>
  </rdf:Description>
 </rdf:RDF>
</x:xmpmeta>
                                                                                                    
                                                                                                    
                                                                                                    
                                                                                                    
                                                                                                    
                                                                                                    
                                                                                                    
                                                                                                    
                                                                                                    
                                                                                                    
                                                                                                    
                                                                                                    
                                                                                                    
                                                                                                    
                                                                                                    
                                                                                                    
                                                                                                    
                                                                                                    
                                                                                                    
                                                                                                    
                                                                                                    
                                                                                                    
                                                                                                    
                                                                                                    
                                                                                                    
                                                                                                    
                                                                                                    
                                                                                                    
                                                                                                    
                                                                                                    
                                                                                                    
                                                                                                    
                                                                                                    
                                                                                                    
                                                                                             
<?xpacket end="w"?>
	</metadata>
<g>
	<path fill="#FF7700" d="M179.3,477.3c0-6.5-3.3-12.6-10.2-12.6c-5.6,0-10.2,4.7-10.2,12.6c0,7.9,4.2,13,10.2,13
		C174.2,490.3,179.3,486.6,179.3,477.3L179.3,477.3z M167.2,455.8c8.8,0,11.6,5.1,11.6,5.1l0,0c0,0,0-0.9,0-2.3v-7.5
		c0-1.4-0.5-1.9-1.9-1.9h-3.3v-8.8h9.8c3.7,0,5.6,1.9,5.6,5.6v41.5c0,0.9,0.5,1.9,1.9,1.9h3.3v8.8h-9.3c-3.7,0-5.1-1.9-5.1-4.2
		c0-0.9,0-1.4,0-1.4l0,0c0,0-3.3,6.5-13,6.5c-11.2,0-18.2-8.8-18.2-21.4C148.1,464.7,156,455.8,167.2,455.8L167.2,455.8z
		 M101.1,467.5c0-1.4-0.5-1.9-1.9-1.9h-3.3v-8.8h9.3c3.7,0,5.6,1.9,5.6,4.7v1.4c0,0.9,0,1.9,0,1.9l0,0c1.9-3.3,6.1-8.4,14.4-8.4
		c9.3,0,14.4,4.7,14.4,15.8V488c0,0.9,0.5,1.9,1.9,1.9h3.3v8.8h-9.8c-3.7,0-5.6-1.9-5.6-5.6V474c0-5.1-1.4-8.4-6.5-8.4
		c-5.6,0-9.8,3.3-11.2,8.4c-0.5,1.9-0.9,3.7-0.9,5.6v19.1h-10.2v-31.2H101.1z M80.6,472.2c0-5.1-3.7-8.4-7.9-8.4
		c-5.1,0-8.8,3.3-10.2,8.4H80.6L80.6,472.2z M72.7,455.8c11.6,0,18.2,8.8,18.2,19.6c0,1.4-0.5,3.7-0.5,3.7H61.9
		c0.9,7.5,6.1,11.2,12.1,11.2c6.5,0,11.6-4.7,11.6-4.7l4.2,7c0,0-6.1,6.1-16.3,6.1c-13.5,0-22.4-9.8-22.4-21.4
		C51.7,464.7,60.1,455.8,72.7,455.8L72.7,455.8z M25.6,490.3c5.6,0,10.2-4.7,10.2-12.6s-4.2-13-10.2-13c-5.6,0-10.2,4.2-10.2,13
		C15.4,484.3,18.6,490.3,25.6,490.3L25.6,490.3z M5.1,451.2c0-1.4-0.5-1.9-1.9-1.9H0v-8.8h9.8c3.7,0,5.6,1.9,5.6,5.6v12.1
		c0,1.9,0,3.3,0,3.3l0,0c0,0,3.7-5.6,12.6-5.6c11.2,0,18.2,8.8,18.2,21.4c0,13-7.9,21.4-19.1,21.4c-8.4,0-12.1-5.6-12.1-5.6l0,0
		c0,0,0,0.9,0,2.8v2.3H5.1V451.2L5.1,451.2z"/>
	<path d="M265.9,420.5c0,0,8.4,6.1,20.5,4.2c9.8-1.4,23.8-8.8,33.1-26.1c-3.7,2.3-10.2,2.8-13.5,2.8c-10.7-0.5-19.1-3.7-28.4-9.8
		c-12.6-7.5-28.4-18.2-28.4-18.2s36.3,41,101.5,54c-1.4,6.5-9.3,11.6-23.8,3.7c-14-7.5-34-14.4-48.4-19.6
		c-23.8-8.4-47-8.4-63.3-19.1c-27-17.7-1.4-42.8-1.4-42.8s-55.4-27-64.7-31.2c-0.9-0.5-1.4-2.8,1.4-1.9
		c13.5,5.6,60.5,25.2,93.2,30.3c51.2,7.9,105.7,7,121.1-12.1c7-8.8,9.8-13,3.3-16.3c-12.1-6.1-11.2-10.2-9.8-10.2
		c7,0,33.1-0.9,36.8,0.9s13,11.2,18.6,12.1c5.6,0.9,39.6,2.8,39.6,2.8s-2.3,20.5-19.6,21.9c-11.6,0.9-31.7-4.2-53.1,21.4
		c-21.4,26.1-75,67.5-102.5,67.5C267.3,435.4,261.8,426,265.9,420.5L265.9,420.5z M146.7,306.3c-3.3,0-6.5,2.3-7.9,5.1
		c-1.4,3.3-1.4,6.5,0.5,9.8l0,0l0,0c-0.9-2.8-0.5-6.1,0.9-8.8l0,0C141.6,310.1,143.9,307.7,146.7,306.3
		C146.7,306.8,146.7,306.8,146.7,306.3C146.7,306.8,146.7,306.3,146.7,306.3L146.7,306.3z M142.5,298.9c-5.6,0.5-10.2,3.3-12.6,7.9
		c-2.3,4.7-2.3,10.2,0.5,14.9l0,0l0,0c-1.4-4.7-0.5-9.3,1.4-13.5l0,0C134.1,304,137.9,300.8,142.5,298.9
		C142.5,299.4,142.5,299.4,142.5,298.9L142.5,298.9L142.5,298.9z M136.5,292.4c-6.5,0.5-12.6,4.2-15.8,10.2
		c-2.8,6.1-2.8,13,0.9,18.6l0,0l0,0c-1.4-5.6-0.9-12.1,1.9-17.2l0,0C126.2,298.4,130.9,294.7,136.5,292.4L136.5,292.4L136.5,292.4
		L136.5,292.4z"/>
	<path d="M586.8,477.7c0-7.5-3.7-14.4-11.6-14.4c-6.5,0-11.6,5.1-11.6,14.4c0,8.8,4.7,14.4,11.6,14.4
		C581.3,492.2,586.8,488,586.8,477.7L586.8,477.7z M573.8,456.3c9.3,0,12.6,6.5,12.6,6.5l0,0c0,0,0-1.4,0-2.8v-10.2
		c0-1.4-0.5-1.9-1.9-1.9h-3.3v-6.5h7.9c3.7,0,5.1,1.4,5.1,5.1v43.3c0,1.4,0.5,1.9,1.9,1.9h3.3v6.5H592c-3.7,0-5.1-1.9-5.1-4.2
		c0-1.4,0-2.3,0-2.3l0,0c0,0-3.3,7.5-13.5,7.5c-11.2,0-18.2-8.8-18.2-21.4C555.6,464.7,563.1,456.3,573.8,456.3L573.8,456.3z
		 M510.9,465.6c0-1.4-0.5-1.9-1.9-1.9h-3.3v-6.5h7.5c3.3,0,5.1,1.4,5.1,4.7v1.4c0,1.4,0,2.3,0,2.3l0,0c1.4-3.7,6.5-9.3,15.4-9.3
		c9.8,0,14,5.1,14,15.8v17.7c0,1.4,0.5,1.9,1.9,1.9h3.3v6.5h-7.9c-3.7,0-5.1-1.4-5.1-5.1V474c0-5.6-0.9-10.2-7.5-10.2
		c-6.5,0-11.2,4.2-13,9.8c-0.5,1.4-0.9,3.3-0.9,5.6v19.1h-7.9L510.9,465.6L510.9,465.6z M478.8,492.6c6.5,0,10.7-7,10.7-13v-0.9
		h-1.9c-6.1,0-16.8,0.5-16.8,7.9C470.9,489.4,473.7,492.6,478.8,492.6L478.8,492.6z M487.6,472.6h1.9v-0.5c0-7-2.8-9.8-8.8-9.8
		c-1.9,0-6.5,0.5-6.5,3.3v2.3h-7.5v-4.2c0-6.5,10.2-7.5,14-7.5c13,0,16.8,7,16.8,15.8v17.2c0,1.4,0.5,1.9,1.9,1.9h3.3v6.5h-7.5
		c-3.7,0-5.1-1.9-5.1-4.7c0-1.4,0-2.3,0-2.3l0,0c0,0-3.3,7.9-13,7.9c-7,0-14-4.2-14-12.6C463,473.5,480.7,472.6,487.6,472.6
		L487.6,472.6z M438.7,492.6c6.5,0,11.6-5.1,11.6-14.4c0-8.8-4.7-14.4-11.6-14.4c-6.1,0-11.6,4.2-11.6,14.9
		C427.1,485.2,430.8,492.6,438.7,492.6L438.7,492.6z M419.2,449.8c0-1.4-0.5-1.9-1.9-1.9h-3.3v-6.5h7.9c3.7,0,5.1,1.4,5.1,5.1V460
		c0,1.9,0,3.3,0,3.3l0,0c0,0,3.7-6.5,13-6.5c11.2,0,17.7,8.8,17.7,21.4c0,13-7.9,21.4-18.6,21.4c-9.3,0-13-7-13-7l0,0
		c0,0,0,1.4,0,3.3v2.8h-7.5L419.2,449.8L419.2,449.8z M397.3,477.7c0-7.5-3.7-14.4-11.6-14.4c-6.5,0-11.6,5.1-11.6,14.4
		c0,8.8,4.7,14.4,11.6,14.4C391.2,492.2,397.3,488,397.3,477.7L397.3,477.7z M384.2,456.3c9.3,0,12.6,6.5,12.6,6.5l0,0
		c0,0,0-1.4,0-2.8v-10.2c0-1.4-0.5-1.9-1.9-1.9h-3.3v-6.5h7.9c3.7,0,5.1,1.4,5.1,5.1v43.3c0,1.4,0.5,1.9,1.9,1.9h3.3v6.5h-7.5
		c-3.7,0-5.1-1.9-5.1-4.2c0-1.4,0-2.3,0-2.3l0,0c0,0-3.3,7.5-13.5,7.5c-11.2,0-18.2-8.8-18.2-21.4
		C365.6,464.7,373.5,456.3,384.2,456.3L384.2,456.3z M339.1,492.6c6.5,0,10.7-7,10.7-13v-0.9h-1.9c-6.1,0-16.8,0.5-16.8,7.9
		C331.6,489.4,333.9,492.6,339.1,492.6L339.1,492.6z M347.9,472.6h1.9v-0.5c0-7-2.8-9.8-8.8-9.8c-1.9,0-6.5,0.5-6.5,3.3v2.3H327
		v-4.2c0-6.5,10.2-7.5,14-7.5c13,0,16.8,7,16.8,15.8v17.2c0,1.4,0.5,1.9,1.9,1.9h3.3v6.5h-7.5c-3.7,0-5.1-1.9-5.1-4.7
		c0-1.4,0-2.3,0-2.3l0,0c0,0-3.3,7.9-13,7.9c-7,0-14-4.2-14-12.6C323.7,473.5,341.4,472.6,347.9,472.6L347.9,472.6z M298.1,492.2
		c7.9,0,14-6.1,14-14.9c0-8.4-6.5-14.4-14-14.4c-7.9,0-14,6.1-14,14.4C284.1,486.1,290.2,492.2,298.1,492.2L298.1,492.2z
		 M298.1,456.3c12.1,0,21.9,8.8,21.9,21.4c0,12.6-9.8,21.4-21.9,21.4c-12.1,0-21.9-8.8-21.9-21.4C276.2,465.2,286,456.3,298.1,456.3
		L298.1,456.3z M252,465.6c0-1.4-0.5-1.9-1.9-1.9h-3.3v-6.5h7.5c3.7,0,5.1,1.4,5.1,4.7v2.8c0,1.4,0,2.8,0,2.8l0,0
		c1.9-6.1,6.5-10.7,13-10.7c0.9,0,1.9,0,1.9,0v7.9c0,0-0.9-0.5-2.3-0.5c-5.1,0-9.8,3.7-11.6,9.8c-0.9,2.3-0.9,4.7-0.9,7.5v16.8h-7.9
		L252,465.6L252,465.6z M224,492.6c6.5,0,11.6-5.1,11.6-14.4c0-8.8-4.7-14.4-11.6-14.4c-6.1,0-11.6,4.2-11.6,14.9
		C212.4,485.2,216.1,492.6,224,492.6L224,492.6z M204.9,449.8c0-1.4-0.5-1.9-1.9-1.9h-3.3v-6.5h7.9c3.7,0,5.1,1.4,5.1,5.1V460
		c0,1.9,0,3.3,0,3.3l0,0c0,0,3.7-6.5,13-6.5c11.2,0,17.7,8.8,17.7,21.4c0,13-7.9,21.4-18.6,21.4c-9.3,0-13-7-13-7l0,0
		c0,0,0,1.4,0,3.3v2.8h-7.5L204.9,449.8L204.9,449.8z"/>
	<text transform="matrix(1 0 0 1 599.4769 451.2697)" fill="#231F20" font-family="'MuseoSlab-500'" font-size="15.5925">®</text>
</g>
</svg>
