<?xml version="1.0" encoding="utf-8"?>
<!-- Generator: Adobe Illustrator 18.0.0, SVG Export Plug-In . SVG Version: 6.00 Build 0)  -->
<!DOCTYPE svg PUBLIC "-//W3C//DTD SVG 1.1//EN" "http://www.w3.org/Graphics/SVG/1.1/DTD/svg11.dtd">
<svg version="1.1" id="Layer_1" xmlns="http://www.w3.org/2000/svg" xmlns:xlink="http://www.w3.org/1999/xlink" x="0px" y="0px"
	 viewBox="0 318.5 611.3 52.6" enable-background="new 0 318.5 611.3 52.6" xml:space="preserve">
<g>
	<path fill="#333333" d="M6.6,318.5c-2.5,0.2-4.7,1.5-5.7,3.8c-1.3,2.1-1.1,4.7,0.2,6.8l0,0l0,0c-0.6-2.1-0.2-4.5,0.6-6.4l0,0
		C2.8,320.8,4.5,319.3,6.6,318.5L6.6,318.5L6.6,318.5z M8.7,321c-1.9,0-3.8,1.1-4.7,3c-0.8,1.7-0.8,3.8,0.2,5.5l0,0l0,0
		c-0.4-1.9-0.2-3.6,0.6-5.1l0,0C5.7,322.7,7,321.7,8.7,321L8.7,321L8.7,321z M10.2,323.8c-1.3,0-2.3,0.8-3,1.9
		c-0.4,1.1-0.4,2.3,0.2,3.4l0,0l0,0c-0.2-1.1-0.2-2.1,0.4-3.2l0,0C8.3,324.8,9.1,324.2,10.2,323.8L10.2,323.8L10.2,323.8z
		 M54.2,365.4c0,0,3,2.3,7.6,1.5c3.6-0.6,8.7-3.2,12.1-9.6c-1.5,0.8-3.6,1.1-4.9,1.1c-4-0.2-7-1.3-10.4-3.6
		c-4.7-2.8-10.4-6.6-10.4-6.6s13.2,14.9,37.2,19.8c-0.4,2.3-3.4,4.2-8.7,1.5c-5.1-2.8-12.3-5.3-17.8-7.2c-8.7-3.2-17.2-3-23.2-7
		c-10.2-6.6-0.8-15.5-0.8-15.5S14.7,329.5,11.3,328c-0.4-0.2-0.6-1.1,0.4-0.6c4.9,1.9,22.3,9.3,34.2,11c18.9,2.8,38.9,2.5,44.4-4.5
		c2.5-3.2,3.4-4.9,1.1-5.9c-4.5-2.1-4-3.6-3.6-3.8c2.5,0,12.1-0.2,13.4,0.4s4.9,4,6.8,4.5c2.1,0.4,14.4,1.1,14.4,1.1s-0.6,7.4-7,8.1
		c-4.2,0.4-11.7-1.5-19.5,7.9c-7.9,9.6-27.4,24.9-37.6,24.9C54.6,370.9,52.5,367.5,54.2,365.4z"/>
	<path fill="#FF7700" d="M136.8,332.7c0-0.8-0.4-1.5-1.3-1.5H133v-6.8h7.6c3,0,4.2,1.3,4.2,4.2v9.3c0,1.5-0.2,2.8-0.2,2.8h0.2
		c0,0,2.8-4.5,9.8-4.5c8.7,0,14.2,6.8,14.2,16.8c0,10.2-6.2,17-14.9,17c-6.8,0-9.6-4.5-9.6-4.5l0,0c0,0,0.2,0.8,0.2,2.1v1.7H137
		v-36.7h-0.2V332.7z M152.7,363.3c4.2,0,8.1-3.6,8.1-10c0-6.2-3.2-10.2-8.1-10.2c-4.2,0-8.1,3-8.1,10.2
		C144.7,358.4,147.4,363.3,152.7,363.3z M189.7,336.3c9.1,0,14.2,6.8,14.2,15.3c0,0.8-0.2,3-0.2,3h-22.3c0.6,5.7,4.9,8.7,9.6,8.7
		c5.1,0,9.1-3.6,9.1-3.6l3.4,5.5c0,0-4.9,4.9-13,4.9c-10.6,0-17.4-7.6-17.4-17C173.3,343.3,179.9,336.3,189.7,336.3z M195.6,349.1
		c-0.2-3.8-2.8-6.6-6.2-6.6c-4,0-7,2.5-7.9,6.6H195.6z M211.8,345.2c0-0.8-0.4-1.5-1.3-1.5H208v-6.6h7.4c2.8,0,4.2,1.3,4.2,3.6v0.8
		c0,0.6-0.2,1.5-0.2,1.5h0.2c1.5-2.8,4.9-6.8,11.5-6.8c7.2,0,11.3,3.8,11.3,12.3V361c0,0.8,0.4,1.5,1.5,1.5h2.5v6.8h-7.6
		c-3,0-4.2-1.3-4.2-4.2v-14.9c0-3.8-1.1-6.6-5.1-6.6c-4.2,0-7.4,2.8-8.7,6.6c-0.4,1.3-0.6,2.8-0.6,4.2v14.9H212v-24.2h-0.2V345.2z
		 M263.6,336.3c7,0,9.3,3.8,9.3,3.8h0.2c0,0,0-0.8,0-1.9v-5.5c0-0.8-0.4-1.5-1.3-1.5h-2.5v-6.8h7.6c3,0,4.2,1.3,4.2,4.2v32.5
		c0,0.8,0.4,1.5,1.5,1.5h2.5v6.8h-7.4c-3,0-4-1.5-4-3.2c0-0.6,0-1.3,0-1.3h-0.2c0,0-2.5,5.3-10,5.3c-8.7,0-14.4-6.8-14.4-17
		C249,342.9,254.9,336.3,263.6,336.3z M273.2,353.1c0-4.9-2.5-10-7.9-10c-4.5,0-8.1,3.6-8.1,10c0,6.2,3.2,10.2,7.9,10.2
		C269.1,363.3,273.2,360.3,273.2,353.1z"/>
	<path d="M293.1,331.4c0-0.8-0.4-1.5-1.5-1.5h-2.5v-5.3h6.2c2.8,0,4,1.3,4,4V339c0,1.5-0.2,2.5-0.2,2.5h0.2c0,0,2.8-5.3,10.4-5.3
		c8.5,0,14,6.8,14,16.8c0,10.2-6.2,16.8-14.4,16.8c-7.2,0-10-5.3-10-5.3h-0.2c0,0,0.2,1.1,0.2,2.3v2.1h-6.2V331.4z M308.2,364.8
		c5.1,0,9.1-4.2,9.1-11.5c0-7-3.8-11.5-9.1-11.5c-4.7,0-9.1,3.4-9.1,11.5C299.1,359.3,302.3,364.8,308.2,364.8z M330.1,344
		c0-0.8-0.4-1.5-1.5-1.5h-2.5v-5.1h5.7c2.8,0,4,1.1,4,3.8v2.1c0,1.3-0.2,2.1-0.2,2.1h0.2c1.5-4.7,5.1-8.3,10.2-8.3
		c0.8,0,1.7,0.2,1.7,0.2v6.2c0,0-0.8-0.2-1.9-0.2c-3.8,0-7.4,2.8-8.9,7.4c-0.6,1.9-0.8,3.8-0.8,5.7v13h-6.2V344H330.1z M366.2,336.5
		c9.6,0,17.2,7,17.2,16.8s-7.6,16.8-17.2,16.8s-17.2-7-17.2-16.8S356.7,336.5,366.2,336.5z M366.2,364.8c6.2,0,11-4.9,11-11.5
		s-4.9-11.5-11-11.5c-5.9,0-10.8,4.7-10.8,11.5C355.2,359.9,360.1,364.8,366.2,364.8z M405.5,349.5h1.5v-0.4c0-5.7-2.1-7.6-7-7.6
		c-1.5,0-5.3,0.4-5.3,2.5v1.9h-5.9v-3.2c0-5.3,7.9-5.9,11-5.9c10.4,0,13.2,5.5,13.2,12.5v13.6c0,1.1,0.4,1.5,1.5,1.5h2.5v5.1h-5.7
		c-2.8,0-4-1.5-4-3.6c0-1.1,0.2-1.9,0.2-1.9h-0.2c0,0-2.5,6.4-10.2,6.4c-5.5,0-10.8-3.4-10.8-9.8C386.2,350.1,400,349.5,405.5,349.5
		z M398.3,365.2c5.1,0,8.5-5.5,8.5-10.2v-1.1h-1.5c-4.7,0-13,0.2-13,6.2C392.4,362.6,394.3,365.2,398.3,365.2z M433.8,336.5
		c7.4,0,9.8,4.9,9.8,4.9h0.2c0,0-0.2-1.1-0.2-2.1v-7.9c0-0.8-0.4-1.5-1.5-1.5h-2.3v-5.3h6.2c2.8,0,4,1.3,4,4v34
		c0,1.1,0.4,1.5,1.5,1.5h2.5v5.3h-6c-2.8,0-3.8-1.3-3.8-3.4c0-0.8,0-1.7,0-1.7H444c0,0-2.5,5.7-10.4,5.7c-8.7,0-14-6.8-14-16.8
		C419.3,343.1,425.3,336.5,433.8,336.5z M443.8,353.3c0-5.7-3-11.5-9.1-11.5c-5.1,0-9.1,4.2-9.1,11.5c0,7,3.8,11.5,9.1,11.5
		C439.3,364.8,443.8,361.4,443.8,353.3z M461.4,331.4c0-0.8-0.4-1.5-1.5-1.5h-2.5v-5.3h6.2c2.8,0,4,1.3,4,4V339
		c0,1.5-0.2,2.5-0.2,2.5h0.2c0,0,2.8-5.3,10.4-5.3c8.5,0,14,6.8,14,16.8c0,10.2-6.2,16.8-14.7,16.8c-7.2,0-10-5.3-10-5.3h-0.2
		c0,0,0.2,1.1,0.2,2.3v2.1h-5.9V331.4z M476.3,364.8c5.1,0,9.1-4.2,9.1-11.5c0-7-3.8-11.5-9.1-11.5c-4.7,0-9.1,3.4-9.1,11.5
		C467.3,359.3,470.3,364.8,476.3,364.8z M514.7,349.5h1.5v-0.4c0-5.7-2.1-7.6-7-7.6c-1.5,0-5.3,0.4-5.3,2.5v1.9h-5.7v-3.2
		c0-5.3,7.9-5.9,11-5.9c10.4,0,13.2,5.5,13.2,12.5v13.6c0,1.1,0.4,1.5,1.5,1.5h2.5v5.1h-5.9c-2.8,0-4-1.5-4-3.6
		c0-1.1,0.2-1.9,0.2-1.9h-0.2c0,0-2.5,6.4-10.2,6.4c-5.5,0-10.8-3.4-10.8-9.8C495.6,350.1,509.4,349.5,514.7,349.5z M507.7,365.2
		c5.1,0,8.5-5.5,8.5-10.2v-1.1h-1.5c-4.7,0-13,0.2-13,6.2C501.8,362.6,503.7,365.2,507.7,365.2z M533,344c0-0.8-0.4-1.5-1.5-1.5H529
		v-5.1h5.9c2.8,0,4,1.3,4,3.6v1.3c0,1.1-0.2,1.9-0.2,1.9h0.2c1.3-2.8,5.1-7.4,12.1-7.4c7.6,0,11,4,11,12.3v13.8
		c0,1.1,0.4,1.5,1.5,1.5h2.5v5.1h-6c-2.8,0-4-1.3-4-4v-15.1c0-4.5-0.8-8.1-5.9-8.1c-4.9,0-8.9,3.2-10.2,7.9
		c-0.4,1.3-0.6,2.8-0.6,4.2v15.1H533V344L533,344z M582.5,336.5c7.4,0,9.8,4.9,9.8,4.9h0.2c0,0-0.2-1.1-0.2-2.1v-7.9
		c0-0.8-0.4-1.5-1.5-1.5h-2.5v-5.3h6.2c2.8,0,4,1.3,4,4v34c0,1.1,0.4,1.5,1.5,1.5h2.5v5.3h-5.9c-2.8,0-3.8-1.3-3.8-3.4
		c0-0.8,0-1.7,0-1.7h-0.2c0,0-2.5,5.7-10.4,5.7c-8.7,0-14-6.8-14-16.8C567.8,343.1,574,336.5,582.5,336.5z M592.5,353.3
		c0-5.7-3-11.5-9.1-11.5c-5.1,0-9.1,4.2-9.1,11.5c0,7,3.6,11.5,9.1,11.5C588,364.8,592.5,361.4,592.5,353.3z"/>
	<g>
		<path fill="#231F20" d="M607.1,323.8c2.3,0,4.2,1.9,4.2,4.5c0,2.3-1.9,4.5-4.2,4.5s-4.2-1.9-4.2-4.5
			C602.9,325.9,604.8,323.8,607.1,323.8z M607.1,331.8c1.9,0,3.4-1.5,3.4-3.6c0-1.9-1.5-3.6-3.4-3.6s-3.4,1.5-3.4,3.6
			C603.7,330.1,605.2,331.8,607.1,331.8z M605.6,325.9h1.7c0.8,0,1.5,0.6,1.5,1.3s-0.4,1.1-0.8,1.3l0,0c0,0,0,0,0.2,0.2l0.8,1.7
			h-0.8l-0.8-1.7h-0.6v1.7H606v-4.5H605.6z M607.3,328c0.4,0,0.6-0.2,0.6-0.8c0-0.4-0.2-0.6-0.6-0.6h-0.6v1.5h0.6V328z"/>
	</g>
</g>
</svg>
