<?xml version="1.0" encoding="utf-8"?>
<!-- Generator: Adobe Illustrator 18.0.0, SVG Export Plug-In . SVG Version: 6.00 Build 0)  -->
<!DOCTYPE svg PUBLIC "-//W3C//DTD SVG 1.1//EN" "http://www.w3.org/Graphics/SVG/1.1/DTD/svg11.dtd">
<svg version="1.1" xmlns="http://www.w3.org/2000/svg" xmlns:xlink="http://www.w3.org/1999/xlink" x="0px" y="0px"
	 viewBox="0 0 350 350" enable-background="new 0 0 350 350" xml:space="preserve">
<g id="Layer_6">
</g>
<g id="Layer_1">
</g>
<g id="Layer_2">
</g>
<g id="Layer_3">
</g>
<g id="Layer_4">
	<g>
		<circle fill="#D1D6E6" cx="175" cy="175" r="175"/>
		<g>
			<path fill="#0C8FD0" d="M63.6,140.2c0.4-20,9-32.7,20.2-40.6c11.2-8.1,25.3-11,36.5-11c32.3,0,52,22,52,45.3
				c0,22.9-15.9,31.4-22,34.8c31.2,10.5,31.2,34.5,31.2,40.1c0,28.9-28,52-61.4,52c-19.3,0-41-7.4-51.8-23.3
				c-7.4-10.8-8.5-23.3-9.2-29.4H102c0.9,3.8,3.8,15.2,19.1,15.5c12.3,0,18.2-8.1,18.2-18.6c0-15.7-16.1-16.8-22.2-16.8h-15V157h7.2
				c3.8,0,20.8,0,20.8-16.6c0-7.2-3.4-14.6-11.7-14.6c-12.3,0-12.8,10.3-13,14.3H63.6z"/>
		</g>
		<polygon fill="#92D5F8" points="129.7,192.1 157.3,195.7 137.7,215.4 142.7,242.7 118,230.1 93.5,243.4 97.9,215.9 77.7,196.8 
			105.1,192.5 117.1,167.4 		"/>
		<path fill="#6B7384" d="M254.3,91.6V76.5c0-1.8-1.5-3.3-3.3-3.3h-1c-1.8,0-3.3,1.5-3.3,3.3v12.2c-0.1,0-0.1,0-0.2,0H232h-14.4
			c-7,0-12.7,5.7-12.6,12.8c0,0-0.3,5.2,0.5,58.2c0,54.4,2,100.3,2,100.3c0,2.9,5.9,6.4,16.5,6.4h7.5h8.1c11.1,0,17-4.1,17-6.4
			c0,0,2-56.6,2-103.2c0.5-46.8,0.5-53.2,0.5-53.2C259.1,98.3,257.2,94.2,254.3,91.6z"/>
		<circle fill="#9CC55D" cx="232" cy="115.5" r="14.2"/>
		<g>
			<circle fill="#6B9C22" cx="226.8" cy="115.5" r="1.9"/>
			<circle fill="#6B9C22" cx="232" cy="115.5" r="1.9"/>
			<circle fill="#6B9C22" cx="237.1" cy="115.5" r="1.9"/>
		</g>
		<path fill="#FFFFFF" d="M250.2,147.1h-36.4c-1.2,0-2.1,1-2.1,2.1v9.8v1.2v11c0,1.2,1,2.1,2.1,2.1h36.4c1.2,0,2.1-1,2.1-2.1v-11
			v-1.2v-9.8C252.3,148,251.4,147.1,250.2,147.1z"/>
		<g>
			<g>
				<path fill="#4B505E" d="M223,196.2c0,1-0.8,1.8-1.8,1.8h-6c-1,0-1.8-0.8-1.8-1.8v-3.7c0-1,0.8-1.8,1.8-1.8h6
					c1,0,1.8,0.8,1.8,1.8V196.2z"/>
			</g>
			<g>
				<path fill="#4B505E" d="M236.8,196.2c0,1-0.8,1.8-1.8,1.8h-6c-1,0-1.8-0.8-1.8-1.8v-3.7c0-1,0.8-1.8,1.8-1.8h6
					c1,0,1.8,0.8,1.8,1.8V196.2z"/>
			</g>
			<g>
				<path fill="#4B505E" d="M250.6,196.2c0,1-0.8,1.8-1.8,1.8h-6c-1,0-1.8-0.8-1.8-1.8v-3.7c0-1,0.8-1.8,1.8-1.8h6
					c1,0,1.8,0.8,1.8,1.8V196.2z"/>
			</g>
			<g>
				<path fill="#4B505E" d="M223,207c0,1-0.8,1.8-1.8,1.8h-6c-1,0-1.8-0.8-1.8-1.8v-3.7c0-1,0.8-1.8,1.8-1.8h6c1,0,1.8,0.8,1.8,1.8
					V207z"/>
			</g>
			<g>
				<path fill="#4B505E" d="M236.8,207c0,1-0.8,1.8-1.8,1.8h-6c-1,0-1.8-0.8-1.8-1.8v-3.7c0-1,0.8-1.8,1.8-1.8h6
					c1,0,1.8,0.8,1.8,1.8V207z"/>
			</g>
			<g>
				<path fill="#4B505E" d="M250.6,207c0,1-0.8,1.8-1.8,1.8h-6c-1,0-1.8-0.8-1.8-1.8v-3.7c0-1,0.8-1.8,1.8-1.8h6
					c1,0,1.8,0.8,1.8,1.8V207z"/>
			</g>
			<g>
				<path fill="#4B505E" d="M223,218.2c0,1-0.8,1.8-1.8,1.8h-6c-1,0-1.8-0.8-1.8-1.8v-3.7c0-1,0.8-1.8,1.8-1.8h6
					c1,0,1.8,0.8,1.8,1.8V218.2z"/>
			</g>
			<g>
				<path fill="#4B505E" d="M236.8,218.2c0,1-0.8,1.8-1.8,1.8h-6c-1,0-1.8-0.8-1.8-1.8v-3.7c0-1,0.8-1.8,1.8-1.8h6
					c1,0,1.8,0.8,1.8,1.8V218.2z"/>
			</g>
			<g>
				<path fill="#4B505E" d="M250.6,218.2c0,1-0.8,1.8-1.8,1.8h-6c-1,0-1.8-0.8-1.8-1.8v-3.7c0-1,0.8-1.8,1.8-1.8h6
					c1,0,1.8,0.8,1.8,1.8V218.2z"/>
			</g>
			<g>
				<path fill="#4B505E" d="M223,229.4c0,1-0.8,1.8-1.8,1.8h-6c-1,0-1.8-0.8-1.8-1.8v-3.7c0-1,0.8-1.8,1.8-1.8h6
					c1,0,1.8,0.8,1.8,1.8V229.4z"/>
			</g>
			<g>
				<path fill="#4B505E" d="M236.8,229.4c0,1-0.8,1.8-1.8,1.8h-6c-1,0-1.8-0.8-1.8-1.8v-3.7c0-1,0.8-1.8,1.8-1.8h6
					c1,0,1.8,0.8,1.8,1.8V229.4z"/>
			</g>
			<g>
				<path fill="#4B505E" d="M250.6,229.4c0,1-0.8,1.8-1.8,1.8h-6c-1,0-1.8-0.8-1.8-1.8v-3.7c0-1,0.8-1.8,1.8-1.8h6
					c1,0,1.8,0.8,1.8,1.8V229.4z"/>
			</g>
		</g>
		<path fill="#7BB227" d="M238.3,255.3h-12.6c-1.2,0-2.2-1-2.2-2.2v0c0-1.2,1-2.2,2.2-2.2h12.6c1.2,0,2.2,1,2.2,2.2v0
			C240.5,254.3,239.5,255.3,238.3,255.3z"/>
	</g>
</g>
<g id="Layer_5">
</g>
<g id="Layer_7">
</g>
</svg>
