<?xml version="1.0" encoding="utf-8"?>
<!-- Generator: Adobe Illustrator 18.0.0, SVG Export Plug-In . SVG Version: 6.00 Build 0)  -->
<!DOCTYPE svg PUBLIC "-//W3C//DTD SVG 1.1//EN" "http://www.w3.org/Graphics/SVG/1.1/DTD/svg11.dtd">
<svg version="1.1" id="Layer_1" xmlns="http://www.w3.org/2000/svg" xmlns:xlink="http://www.w3.org/1999/xlink" x="0px" y="0px"
	 viewBox="0 0 350 350" enable-background="new 0 0 350 350" xml:space="preserve">
<g>
	<circle fill="#D2D7E7" cx="175" cy="175" r="175"/>
	<path fill="#3FA8DF" d="M252.2,283.9c-0.2-4.8-0.7-8.8-5.3-23.2c-4.6-14.4-7.4-18.1-7.4-18.1c-0.7-0.9-2-1.9-3-2.3
		c0,0-24.3-7.9-62.3-7.9s-61.2,8.8-61.2,8.8c-1,0.3-2.2,1.4-2.7,2.4c0,0-9.7,22.7-11.3,30.5c-1.7,7.8-1.8,13.3-1.7,16.4
		c0.2,3.2,1.7,5.6,6.3,9.1c4.6,3.5,8.8,3.9,8.8,3.9c1.1,0.1,2.9,0.3,4,0.4c0,0,5.2,0.4,12.8,1v0.3c0,2.2,1.8,4,4,4h6
		c2,0,3.6-1.5,3.9-3.4c10.4,0.6,21.9,1.1,30.4,1.1c9.2-0.1,21.2-0.5,32.1-0.9c0.4,1.8,2,3.2,3.9,3.2h6c2.1,0,3.9-1.7,4-3.9
		c6.7-0.3,11.8-0.6,13.9-0.8c6.3-0.5,8.5-1.2,14.9-6.1C254.7,293.6,252.4,288.7,252.2,283.9z"/>
	<g>
		<path fill="#4B505E" d="M192.8,61.2H175h-17.7c-8.6,0-15.6,7-15.4,15.6c0,0-0.4,6.3,0.6,71.4c0,66.7,2.5,111.9,2.5,111.9
			c0,3.6,7.3,7.8,20.2,7.8h9.2h10c13.6,0,20.9-5,20.9-7.8c0,0,2.5-58.3,2.5-115.5c0.6-57.4,0.6-65.2,0.6-65.2
			C208.3,68.2,201.4,61.2,192.8,61.2z"/>
	</g>
	<circle fill="#7AB142" cx="175" cy="93.9" r="17.4"/>
	<g>
		<circle fill="#FFFFFF" cx="168.7" cy="93.9" r="2.3"/>
		<circle fill="#FFFFFF" cx="175" cy="93.9" r="2.3"/>
		<circle fill="#FFFFFF" cx="181.3" cy="93.9" r="2.3"/>
	</g>
	<path fill="#3FA8DF" d="M150.1,147.2v14.9c0,1.4,1.2,2.6,2.6,2.6h44.6c1.4,0,2.6-1.2,2.6-2.6v-14.9"/>
	<path fill="#5ABBEA" d="M199.9,148.7v-13.4c0-1.4-1.2-2.6-2.6-2.6h-44.6c-1.4,0-2.6,1.2-2.6,2.6v13.4"/>
	<g>
		<g>
			<path fill="#7AB142" d="M164,193.4c0,1-0.8,1.8-1.8,1.8H154c-1,0-1.8-0.8-1.8-1.8V188c0-1,0.8-1.8,1.8-1.8h8.3
				c1,0,1.8,0.8,1.8,1.8V193.4z"/>
		</g>
		<g>
			<path fill="#7AB142" d="M180.9,193.4c0,1-0.8,1.8-1.8,1.8h-8.3c-1,0-1.8-0.8-1.8-1.8V188c0-1,0.8-1.8,1.8-1.8h8.3
				c1,0,1.8,0.8,1.8,1.8V193.4z"/>
		</g>
		<g>
			<path fill="#7AB142" d="M197.8,193.4c0,1-0.8,1.8-1.8,1.8h-8.3c-1,0-1.8-0.8-1.8-1.8V188c0-1,0.8-1.8,1.8-1.8h8.3
				c1,0,1.8,0.8,1.8,1.8V193.4z"/>
		</g>
		<g>
			<path fill="#7AB142" d="M164,206.6c0,1-0.8,1.8-1.8,1.8H154c-1,0-1.8-0.8-1.8-1.8v-5.4c0-1,0.8-1.8,1.8-1.8h8.3
				c1,0,1.8,0.8,1.8,1.8V206.6z"/>
		</g>
		<g>
			<path fill="#7AB142" d="M180.9,206.6c0,1-0.8,1.8-1.8,1.8h-8.3c-1,0-1.8-0.8-1.8-1.8v-5.4c0-1,0.8-1.8,1.8-1.8h8.3
				c1,0,1.8,0.8,1.8,1.8V206.6z"/>
		</g>
		<g>
			<path fill="#7AB142" d="M197.8,206.6c0,1-0.8,1.8-1.8,1.8h-8.3c-1,0-1.8-0.8-1.8-1.8v-5.4c0-1,0.8-1.8,1.8-1.8h8.3
				c1,0,1.8,0.8,1.8,1.8V206.6z"/>
		</g>
		<g>
			<path fill="#7AB142" d="M164,220.4c0,1-0.8,1.8-1.8,1.8H154c-1,0-1.8-0.8-1.8-1.8V215c0-1,0.8-1.8,1.8-1.8h8.3
				c1,0,1.8,0.8,1.8,1.8V220.4z"/>
		</g>
		<g>
			<path fill="#7AB142" d="M180.9,220.4c0,1-0.8,1.8-1.8,1.8h-8.3c-1,0-1.8-0.8-1.8-1.8V215c0-1,0.8-1.8,1.8-1.8h8.3
				c1,0,1.8,0.8,1.8,1.8V220.4z"/>
		</g>
		<g>
			<path fill="#7AB142" d="M197.8,220.4c0,1-0.8,1.8-1.8,1.8h-8.3c-1,0-1.8-0.8-1.8-1.8V215c0-1,0.8-1.8,1.8-1.8h8.3
				c1,0,1.8,0.8,1.8,1.8V220.4z"/>
		</g>
		<g>
			<path fill="#7AB142" d="M164,234c0,1-0.8,1.8-1.8,1.8H154c-1,0-1.8-0.8-1.8-1.8v-5.4c0-1,0.8-1.8,1.8-1.8h8.3
				c1,0,1.8,0.8,1.8,1.8V234z"/>
		</g>
		<g>
			<path fill="#7AB142" d="M180.9,234c0,1-0.8,1.8-1.8,1.8h-8.3c-1,0-1.8-0.8-1.8-1.8v-5.4c0-1,0.8-1.8,1.8-1.8h8.3
				c1,0,1.8,0.8,1.8,1.8V234z"/>
		</g>
		<g>
			<path fill="#7AB142" d="M197.8,234c0,1-0.8,1.8-1.8,1.8h-8.3c-1,0-1.8-0.8-1.8-1.8v-5.4c0-1,0.8-1.8,1.8-1.8h8.3
				c1,0,1.8,0.8,1.8,1.8V234z"/>
		</g>
	</g>
	<path fill="#4B505E" d="M202.3,46.2c0-2.2-1.8-4.1-4.1-4.1H197c-2.2,0-4.1,1.8-4.1,4.1V70c0,2.2,1.8,4.1,4.1,4.1h1.2
		c2.2,0,4.1-1.8,4.1-4.1V46.2z"/>
</g>
</svg>
