<?xml version="1.0" encoding="utf-8"?>
<!-- Generator: Adobe Illustrator 18.0.0, SVG Export Plug-In . SVG Version: 6.00 Build 0)  -->
<!DOCTYPE svg PUBLIC "-//W3C//DTD SVG 1.1//EN" "http://www.w3.org/Graphics/SVG/1.1/DTD/svg11.dtd">
<svg version="1.1" xmlns="http://www.w3.org/2000/svg" xmlns:xlink="http://www.w3.org/1999/xlink" x="0px" y="0px"
	 viewBox="0 0 350 350" enable-background="new 0 0 350 350" xml:space="preserve">
<g id="Layer_6">
</g>
<g id="Layer_1">
</g>
<g id="Layer_2">
</g>
<g id="Layer_3">
</g>
<g id="Layer_4">
	<g>
		<circle fill="#D1D6E6" cx="175" cy="175" r="175"/>
		<polyline fill="#0C8FD0" points="95.2,181.6 142,167.6 169,205.4 157.8,231.1 125.4,241.9 94.8,237.4 111.9,200.5 87.6,190.6 
			95.2,181.6 95.2,181.6 95.2,181.6 		"/>
		<g>
			<path fill="#0C8FD0" d="M169.4,91.8v35.6h-59.2l-3.6,22.6c4.5-2.5,9.4-4.9,22.4-4.9c39.2,0,55.4,32.7,55.4,55.6
				c0,25.3-19.1,60.3-63.7,60.3c-35.6,0-58.3-21.5-63.2-47.8h42.6c3.8,5.2,10.8,10.3,19.5,10.3c12.1,0,22.4-9.9,22.4-22
				c0-10.8-7.8-21.7-22.6-21.7c-8.3,0-16.8,3.1-21.7,14.3l-34.3-8.5l14.3-93.9H169.4z"/>
		</g>
		<polygon fill="#92D5F8" points="134.2,189.4 161.8,193 142.2,212.7 147.2,240 122.5,227.4 98,240.7 102.4,213.2 82.2,194.1 
			109.6,189.8 121.6,164.7 		"/>
		<path fill="#6B7384" d="M254.3,91.6V76.5c0-1.8-1.5-3.3-3.3-3.3h-1c-1.8,0-3.3,1.5-3.3,3.3v12.2c-0.1,0-0.1,0-0.2,0H232h-14.4
			c-7,0-12.7,5.7-12.6,12.8c0,0-0.3,5.2,0.5,58.2c0,54.4,2,100.3,2,100.3c0,2.9,5.9,6.4,16.5,6.4h7.5h8.1c11.1,0,17-4.1,17-6.4
			c0,0,2-56.6,2-103.2c0.5-46.8,0.5-53.2,0.5-53.2C259.1,98.3,257.2,94.2,254.3,91.6z"/>
		<circle fill="#9CC55D" cx="232" cy="115.5" r="14.2"/>
		<g>
			<circle fill="#6B9C22" cx="226.8" cy="115.5" r="1.9"/>
			<circle fill="#6B9C22" cx="232" cy="115.5" r="1.9"/>
			<circle fill="#6B9C22" cx="237.1" cy="115.5" r="1.9"/>
		</g>
		<path fill="#FFFFFF" d="M250.2,147.1h-36.4c-1.2,0-2.1,1-2.1,2.1v9.8v1.2v11c0,1.2,1,2.1,2.1,2.1h36.4c1.2,0,2.1-1,2.1-2.1v-11
			v-1.2v-9.8C252.3,148,251.4,147.1,250.2,147.1z"/>
		<g>
			<g>
				<path fill="#4B505E" d="M223,196.2c0,1-0.8,1.8-1.8,1.8h-6c-1,0-1.8-0.8-1.8-1.8v-3.7c0-1,0.8-1.8,1.8-1.8h6
					c1,0,1.8,0.8,1.8,1.8V196.2z"/>
			</g>
			<g>
				<path fill="#4B505E" d="M236.8,196.2c0,1-0.8,1.8-1.8,1.8h-6c-1,0-1.8-0.8-1.8-1.8v-3.7c0-1,0.8-1.8,1.8-1.8h6
					c1,0,1.8,0.8,1.8,1.8V196.2z"/>
			</g>
			<g>
				<path fill="#4B505E" d="M250.6,196.2c0,1-0.8,1.8-1.8,1.8h-6c-1,0-1.8-0.8-1.8-1.8v-3.7c0-1,0.8-1.8,1.8-1.8h6
					c1,0,1.8,0.8,1.8,1.8V196.2z"/>
			</g>
			<g>
				<path fill="#4B505E" d="M223,207c0,1-0.8,1.8-1.8,1.8h-6c-1,0-1.8-0.8-1.8-1.8v-3.7c0-1,0.8-1.8,1.8-1.8h6c1,0,1.8,0.8,1.8,1.8
					V207z"/>
			</g>
			<g>
				<path fill="#4B505E" d="M236.8,207c0,1-0.8,1.8-1.8,1.8h-6c-1,0-1.8-0.8-1.8-1.8v-3.7c0-1,0.8-1.8,1.8-1.8h6
					c1,0,1.8,0.8,1.8,1.8V207z"/>
			</g>
			<g>
				<path fill="#4B505E" d="M250.6,207c0,1-0.8,1.8-1.8,1.8h-6c-1,0-1.8-0.8-1.8-1.8v-3.7c0-1,0.8-1.8,1.8-1.8h6
					c1,0,1.8,0.8,1.8,1.8V207z"/>
			</g>
			<g>
				<path fill="#4B505E" d="M223,218.2c0,1-0.8,1.8-1.8,1.8h-6c-1,0-1.8-0.8-1.8-1.8v-3.7c0-1,0.8-1.8,1.8-1.8h6
					c1,0,1.8,0.8,1.8,1.8V218.2z"/>
			</g>
			<g>
				<path fill="#4B505E" d="M236.8,218.2c0,1-0.8,1.8-1.8,1.8h-6c-1,0-1.8-0.8-1.8-1.8v-3.7c0-1,0.8-1.8,1.8-1.8h6
					c1,0,1.8,0.8,1.8,1.8V218.2z"/>
			</g>
			<g>
				<path fill="#4B505E" d="M250.6,218.2c0,1-0.8,1.8-1.8,1.8h-6c-1,0-1.8-0.8-1.8-1.8v-3.7c0-1,0.8-1.8,1.8-1.8h6
					c1,0,1.8,0.8,1.8,1.8V218.2z"/>
			</g>
			<g>
				<path fill="#4B505E" d="M223,229.4c0,1-0.8,1.8-1.8,1.8h-6c-1,0-1.8-0.8-1.8-1.8v-3.7c0-1,0.8-1.8,1.8-1.8h6
					c1,0,1.8,0.8,1.8,1.8V229.4z"/>
			</g>
			<g>
				<path fill="#4B505E" d="M236.8,229.4c0,1-0.8,1.8-1.8,1.8h-6c-1,0-1.8-0.8-1.8-1.8v-3.7c0-1,0.8-1.8,1.8-1.8h6
					c1,0,1.8,0.8,1.8,1.8V229.4z"/>
			</g>
			<g>
				<path fill="#4B505E" d="M250.6,229.4c0,1-0.8,1.8-1.8,1.8h-6c-1,0-1.8-0.8-1.8-1.8v-3.7c0-1,0.8-1.8,1.8-1.8h6
					c1,0,1.8,0.8,1.8,1.8V229.4z"/>
			</g>
		</g>
		<path fill="#7BB227" d="M238.3,255.3h-12.6c-1.2,0-2.2-1-2.2-2.2v0c0-1.2,1-2.2,2.2-2.2h12.6c1.2,0,2.2,1,2.2,2.2v0
			C240.5,254.3,239.5,255.3,238.3,255.3z"/>
	</g>
</g>
<g id="Layer_5">
</g>
<g id="Layer_7">
</g>
</svg>
