<?xml version="1.0" encoding="utf-8"?>
<!-- Generator: Adobe Illustrator 18.0.0, SVG Export Plug-In . SVG Version: 6.00 Build 0)  -->
<!DOCTYPE svg PUBLIC "-//W3C//DTD SVG 1.1//EN" "http://www.w3.org/Graphics/SVG/1.1/DTD/svg11.dtd">
<svg version="1.1" id="icon-phone-international" xmlns="http://www.w3.org/2000/svg" xmlns:xlink="http://www.w3.org/1999/xlink"
	 x="0px" y="0px" viewBox="0 0 114 114" enable-background="new 0 0 114 114" xml:space="preserve">
<circle fill="#D1D6E6" cx="57" cy="57" r="57"/>
<path fill="#FFFFFF" d="M82.5,80.6C69,94.5,46.8,94.9,32.8,81.4C18.9,67.9,18.5,45.7,32,31.8C45.5,17.8,67.8,17.5,81.7,31
	C95.7,44.5,96,66.7,82.5,80.6z"/>
<path fill="#92D5F8" d="M73.8,25.8c-0.1-0.1-0.2-0.1-0.3-0.1l-0.2-0.1l0.1,0.1l0,0l0,0L73.8,25.8C73.9,25.8,73.9,25.8,73.8,25.8
	c0.1,0.1,0.2,0.1,0.2,0.1l0,0C74,25.9,73.9,25.9,73.8,25.8 M72.5,25.2L72.2,25c0.1,0,0.1,0.1,0.2,0.1C72.5,25.1,72.5,25.1,72.5,25.2
	c0.1,0,0.2,0.1,0.3,0.2C72.8,25.3,72.7,25.2,72.5,25.2 M71.8,24.8l-0.2-0.1l-0.2-0.1c-0.2-0.1-0.3-0.2-0.5-0.2c0,0-0.1,0-0.1-0.1
	c0.1,0.1,0.3,0.1,0.4,0.2l-0.1,0c0.1,0,0.1,0.1,0.2,0.1l0.1,0c0.1,0,0.1,0,0.1,0.1l0,0C71.6,24.7,71.7,24.7,71.8,24.8L71.8,24.8
	l0.4,0.2C72.1,24.9,72,24.9,71.8,24.8 M91,47.7c0-0.2-0.1-0.4-0.1-0.5L91,47.7C91,47.7,91,47.7,91,47.7C91,47.7,91,47.8,91,47.7
	L91,47.7 M90.6,46.5l-0.2-0.6c-0.1-0.4-0.3-0.8-0.4-1.2l-0.1-0.3l-0.3-0.9c0.4,0.9,0.5,1.3,0.9,2.4l0.3,0.9L90.6,46.5 M77.5,28.1
	c-0.4-0.3-0.9-0.6-1.3-0.9l0,0C76.6,27.5,77.1,27.8,77.5,28.1C77.5,28.1,77.5,28.1,77.5,28.1 M75.8,27C75.8,27,75.8,27,75.8,27
	L75.8,27C75.8,26.9,75.8,26.9,75.8,27L75.8,27c0,0,0.1,0,0.2,0.1l0.1,0.1C76,27.1,75.9,27.1,75.8,27 M76,27.1L76,27.1L76,27.1
	C76,27.1,76,27.1,76,27.1 M75.9,27c0.6,0.4,1.1,0.7,1.6,1.1C77,27.8,76.4,27.4,75.9,27 M92,53.6L92,53.6L92,53.6L92,53.6 M92.1,54.3
	L92.1,54.3L92.1,54.3C92.1,54.4,92.1,54.4,92.1,54.3 M92.1,54.3L92.1,54.3c0,0,0-0.1,0-0.1v0C92.1,54.2,92.1,54.3,92.1,54.3
	L92.1,54.3 M92.1,54C92.1,54,92.1,54,92.1,54c0-0.1,0-0.2,0-0.2C92.1,53.9,92.1,54,92.1,54L92.1,54 M92,53.7
	C92,53.7,92,53.8,92,53.7C92,53.8,92,53.7,92,53.7 M91.8,51.6l0-0.3l0.1,0.5v0c0,0.1,0,0.2,0,0.3c0,0,0,0,0,0
	C91.8,51.9,91.8,51.8,91.8,51.6 M91,47.8C91,47.8,91,47.7,91,47.8c0,0.1,0.1,0.2,0.1,0.4L91,47.8 M33.6,30.2
	c-0.3,0.2-0.5,0.4-0.8,0.7C33.1,30.7,33.4,30.4,33.6,30.2 M43.5,29.4c0,0,0.1-0.1,0.1-0.1c0.1-0.1,0.1-0.2,0.1-0.2l-0.2,0l-0.3,0.1
	L43,29.5c0.1,0,0.2,0,0.3,0L43.5,29.4 M42.9,28.9L42.9,28.9l0.1-0.2C43,28.8,42.9,28.8,42.9,28.9c-0.1,0-0.1,0-0.2,0
	c0,0-0.1,0-0.3,0.1c0,0-0.1,0-0.2,0.1c0,0,0,0.1,0,0.1c0,0,0.1,0,0.1,0C42.6,29.1,42.8,29,42.9,28.9 M49,24l0.3-0.1l0-0.2l-0.3,0
	c-0.1,0-0.2,0-0.2,0L48.5,24l-0.2,0.1l0.4,0L49,24 M75.1,26.5c-0.1-0.1-0.2-0.1-0.4-0.2l-0.1,0c0.1,0,0.1,0.1,0.2,0.1
	c0.2,0.1,0.3,0.2,0.5,0.3l0,0c0,0-0.1-0.1-0.1-0.1l0,0C75.1,26.6,75.1,26.6,75.1,26.5 M73.5,25.6c-0.1-0.1-0.2-0.1-0.4-0.2
	c0.1,0,0.1,0.1,0.2,0.1c-0.1,0-0.1-0.1-0.2-0.1l0,0c0,0,0.1,0,0.1,0.1l0,0c-0.3-0.1-0.6-0.3-0.7-0.4l0,0c-0.2-0.1-0.4-0.2-0.6-0.3
	l1.5,0.8L73.5,25.6L73.5,25.6 M73.9,25.8c0,0-0.1,0-0.1-0.1l-0.1,0l-0.2-0.1L73.9,25.8L73.9,25.8 M63.3,22.1c-0.1,0-0.3-0.1-0.3-0.1
	l0,0l0,0C62.8,22,62.6,22,62.6,22c0.1,0,0.2,0,0.3,0.1l-0.1,0l-0.2,0l0,0c0,0-0.1,0-0.1,0c0,0,0.1,0,0.1,0l0,0l-0.1,0l0,0
	c0.3,0.1,0.4,0.1,0.5,0.1c-0.2,0-0.4-0.1-0.6-0.1c0,0,0.2,0.1,0.4,0.1l0,0c0,0,0.1,0,0.1,0l0,0c0,0,0.2,0,0.3,0.1c0,0-0.1,0-0.1,0
	C63.1,22.2,63.2,22.2,63.3,22.1c0,0.1,0.1,0.1,0.1,0.1l0.1,0c0.1,0,0.2,0.1,0.3,0.1c-0.1,0-0.1,0-0.2-0.1c0,0,0.1,0,0.1,0
	C63.7,22.2,63.5,22.2,63.3,22.1L63.3,22.1L63.3,22.1 M63.4,22.2L63.4,22.2L63.4,22.2L63.4,22.2 M65.6,22.8L65.6,22.8
	c-0.3-0.1-0.5-0.1-0.7-0.2c0,0-0.1,0-0.1,0c-0.2-0.1-0.4-0.1-0.7-0.2c0,0-0.3-0.1-0.5-0.1l0.1,0c0,0,0,0-0.2,0c-0.1,0-0.2,0-0.2-0.1
	c-0.2,0-0.5-0.1-0.7-0.1l0,0c0.1,0,0.2,0,0.2,0.1c0,0,0.1,0,0.1,0c0.4,0.1,0.4,0.1,0.4,0.1c0,0,0,0-0.3-0.1c0,0-0.1,0-0.1,0
	c0,0-0.1,0-0.1,0c0,0-0.1,0-0.1,0c-0.1,0-0.1,0-0.2,0c0.1,0,0.1,0,0.2,0.1h0c0,0-0.1,0-0.1,0c-0.1,0-0.1,0-0.2-0.1c0,0,0.1,0,0.1,0
	c0,0-0.1,0-0.1,0l0,0c0.4,0.1,0.8,0.2,1.1,0.3c-0.2,0-0.3-0.1-0.5-0.1c0.2,0.1,0.4,0.1,0.7,0.2c0,0,0,0-0.2-0.1
	c0.1,0,0.3,0.1,0.4,0.1l0,0l0,0c0,0-0.2-0.1-0.3-0.1c-0.1,0-0.1,0-0.1,0l0,0c0.1,0,0.1,0,0.3,0.1l0.1,0l-0.1,0l0.1,0
	c0.1,0,0.2,0,0.2,0.1l0.1,0c0,0,0,0-0.1,0l0,0l-0.1,0l0,0c0,0,0,0-0.1,0c0,0,0,0,0.1,0c0.1,0,0.1,0,0.2,0.1l0,0l0,0
	c0.1,0,0.1,0,0.1,0c0,0,0,0-0.1-0.1l0,0c0.1,0,0.1,0,0.3,0.1l0,0c-0.1,0-0.1,0-0.1,0c0,0,0.3,0.1,0.4,0.1c0.1,0,0.2,0.1,0.7,0.2l0,0
	c0,0-0.6-0.2-0.7-0.3l0,0c-0.1,0-0.3-0.1-0.4-0.1l0,0c0,0,0,0-0.5-0.2c0,0,0.1,0,0.1,0c0.7,0.2,0.7,0.2,1.2,0.4l0,0
	c0,0-0.1,0-0.2-0.1C65.3,22.7,65.4,22.8,65.6,22.8l0.1,0.1C65.7,22.8,65.7,22.8,65.6,22.8C65.5,22.8,65.6,22.8,65.6,22.8L65.6,22.8
	 M91.7,51.2c-0.2-1.2-0.4-2.4-0.7-3.5c-0.1-0.1-0.3-0.2-0.6-0.3c-0.5-0.1-1.1-0.2-2-0.3c0,0,0.1,0.5,0,0.6l0,0.1l0,0l0,0
	c0,0-0.1,0-0.1,0l0,0l0,0l0,0l0,0l0-0.1l0-0.1c0,0-0.1,0-0.1,0c0,0-0.2,0-0.2-0.1l0,0l0,0l0,0.1c0.1,0.1,0.1,0.1,0.2,0.2
	C88,48,88,48,88,48l0,0.1c0,0,0.1,0.1,0.1,0.2c0,0,0,0.1,0,0.2l0,0.1l0,0.1c0.1,0.3,0.2,0.5,0.3,0.8c0.1,0.3,0.1,0.3,0.2,0.4
	c0,0,0,0,0.1,0l0.1,0c0-0.1,0-0.2,0-0.3l0.1,0.1c0.7,1.6,0.7,1.6,0.7,1.8c0,0,0,0.1,0,0.1c0,0.7,0.4,1.2,0.6,1.8
	c0.1,0.3-0.1,0.7,0.1,1c0.1,0.3,0.2,0.6,0.3,0.8l0,0.1l0.4,2.4c0,0.4,0,0.7-0.1,1.1c0,0.2,0.1,0.4,0.1,0.5c0,0,0.1,0,0.1,0
	c0.1-0.2,0.1-0.3,0.2-0.5c0.1,0,0.1,0,0.2,0l0,0l0,0.1c0-0.1,0-0.1,0.1-0.2c0-0.2,0.1-0.4,0.3-0.5c0-0.1,0-0.1,0-0.2
	c0-0.2,0.2-0.7,0.2-0.7l0.1,0.1c0-0.4,0-0.7,0-0.7l0,0c0-0.2,0-0.3,0-0.5c0-1.1-0.1-2.2-0.2-3.2l0,0.1c0-0.2,0-0.3-0.1-0.5
	c0-0.2-0.1-0.4-0.1-0.6c0-0.1,0-0.1,0-0.2c0,0.3,0,0.3,0.1,1l0,0l0,0c0,0,0-0.1,0-0.1l0,0c0,0.1,0,0.2,0,0.3
	c-0.1-0.1-0.1-0.5-0.1-0.6l0-0.1c0,0,0,0,0,0c0,0,0,0.1,0.1,0.1c0-0.1,0-0.1,0-0.3l0,0l0,0c0-0.1-0.1-0.2-0.1-0.2c0,0,0,0,0,0
	c0-0.2-0.1-0.4-0.1-0.6c-0.2-0.7-0.5-1.4-0.5-2.1c0.1,0,0.2,0.1,0.4,1.1c0.2,0.7,0.3,1,0.4,1.1l0,0l0,0l0-0.1c0,0,0,0,0,0
	C91.7,51,91.7,51,91.7,51.2L91.7,51.2 M91,47.7c-1.2-4.7-3.4-9-6.3-12.7l0.8,1.1c1.1,1.5,1.1,1.5,2.8,4.6c0.8,1.6,0.8,1.6,2.1,5.1
	L91,47.7L91,47.7 M77.9,31.5c0.1,0,0.2,0,0.3,0l-0.1,0l0,0l0,0C78,31.5,78,31.5,77.9,31.5l0-0.1l0,0l0,0l0,0l0,0l0,0L77.9,31.5
	L77.9,31.5L77.9,31.5 M71.9,25.7c-0.1-0.1-0.3-0.2-0.4-0.2l0,0l0,0l0,0h0l-0.1,0l0,0C71.5,25.5,71.7,25.6,71.9,25.7
	C71.8,25.7,71.8,25.7,71.9,25.7 M78.1,31.6c1.7,0.1,3,0.3,3.6,0.5c0.2,0.1,0.4,0.1,0.5,0.2L82,32c-2.6-2.5-2.6-2.5-4.1-3.6l-2-1.4
	l0,0c-0.1-0.1-0.4-0.3-0.7-0.4c0.1,0.1,0.2,0.1,0.3,0.2v0l0.1,0.1l0,0c0.3,0.2,0.6,0.3,0.8,0.7l0,0c-0.2-0.2-0.5-0.3-0.7-0.5l0,0
	c-0.1-0.1-0.2-0.1-0.3-0.2c-0.1-0.1-0.1-0.1-0.1-0.1c-0.1-0.1-0.2-0.1-0.3-0.2l0,0c-0.1-0.1-0.1-0.1-0.2-0.1c0,0,0,0,0,0
	c0,0,0.1,0.1,0.2,0.1c0,0,0.1,0,0.1,0c0.2,0.1,0.4,0.2,0.6,0.4c0.3,0.2,0.3,0.2,0.4,0.3c0.1,0,0.1,0.1,0.3,0.2c0,0,0,0,0.1,0
	c0.1,0.1,0.3,0.2,0.4,0.3c0,0-0.1,0-0.1-0.1c-0.1,0-0.1-0.1-0.1-0.1c0,0-0.1,0-0.1-0.1l0,0c0.1,0.1,0.2,0.2,0.4,0.4v0
	c0.2,0.2,0.5,0.3,0.7,0.5l0,0c-0.1,0-0.1,0-0.2-0.1l0,0c-0.1,0-0.3-0.1-0.6-0.3c0.2,0.2,0.2,0.3,0.4,0.4c0.1,0.1,0.1,0.1,0.1,0.1
	c0,0,0.1,0,0.1,0c0.1,0,0.2,0.1,0.3,0.2c0,0-0.1,0-0.1,0l0.1,0c-0.3,0-0.8-0.5-1-0.6c-0.1,0-0.1,0-0.1,0l-0.3-0.2
	c-0.5-0.4-1-0.6-1.5-0.9c0.2,0.1,0.9,0.4,0.9,0.4c0.1,0,0.2,0,0.2,0c0.1,0,0.2,0.1,0.3,0.2c0,0,0,0,0,0l0,0c0,0,0-0.1,0-0.1
	c-0.6-0.6-1.7-1.1-1.9-1.1c-0.1-0.1-0.1-0.1-0.2-0.1c-0.1-0.1-0.2-0.1-0.2-0.1c0,0,0,0,0,0c-0.1-0.1-0.2-0.1-0.4-0.2l-0.1,0
	c0.1,0.1,0.1,0.1,0.2,0.1c0,0,0,0,0,0c-0.1,0-0.1,0-0.3-0.2c0,0,0,0-0.1,0c-0.1-0.1-0.1-0.1-0.3-0.2L73,26l0,0c0,0,0,0-0.4-0.1
	c-0.1,0-0.1-0.1-0.1-0.1l0.1,0c0,0-0.1-0.1-0.2-0.1c-0.4-0.2-0.6-0.3-0.6-0.3c0.1,0.1,0.2,0.1,0.3,0.2c-0.1,0-0.2-0.1-0.2-0.1
	c0,0-0.1,0-0.1-0.1c-0.1,0-0.1-0.1-0.1-0.1c-0.1,0-0.1,0-0.2,0c0.3,0.1,0.3,0.1,0.3,0.2c0,0,0.1,0.1,0.1,0.1l0.1,0l0,0
	c-0.2-0.1-0.2-0.2-0.4-0.2c-0.1,0-0.1,0-0.1,0l-0.2-0.1l-0.1,0l0,0l0,0l-0.1,0c0.1,0.1,0.1,0.1,0.2,0.2l0,0c0,0-0.1,0-0.2-0.1
	c-0.1,0-0.1,0-0.1,0l0,0.1c0.1,0.1,0.2,0.2,0.5,0.2c0.1,0,0.1,0.1,0.2,0.1l-0.1,0c-0.1,0-0.2-0.1-0.3-0.1c0,0-0.1,0-0.1,0
	c0.3,0.2,0.3,0.2,0.4,0.3c-0.3-0.1-0.5-0.2-0.8-0.4c0,0,0,0.1,0.1,0.1c0,0,0.4,0.2,0.5,0.3c-0.1,0-0.1,0-0.3-0.2l0,0.1l0,0
	c0,0,0.1,0.1,0.1,0.1c0.1,0.1,0.2,0.1,0.3,0.1c0,0,0.1,0.1,0.1,0.1l0,0C71.4,26.3,71,26,71,26c0,0.1,0.1,0.1,0.2,0.2
	c0,0-0.1,0-0.1,0c0,0,0,0,0.2,0.2c0,0-0.1,0-0.1,0c0,0,0,0.1,0.1,0.1l0,0c0,0,0.1,0.1,0.1,0.1l0,0l0,0.1c0,0,0.1,0,0.1,0
	c0,0,0-0.1,0-0.1l0.1,0l0-0.1c0,0,0.1-0.1,0.1-0.1c0.2,0,0.2,0,0.3,0.1c0,0-0.1,0-0.1,0l0,0l-0.1,0c0.1,0.1,0.3,0.4,0.4,0.4l-0.1,0
	c0,0,0.5,0.8,0.6,0.9l-0.1-0.1c0,0.1,0,0.1,0,0.2c0,0-0.1,0.1-0.1,0.1c0,0,0.1,0.1,0.1,0.1l0.1,0c0.1,0,0.1,0,0.1,0
	c0.1,0.1,0.1,0.1,0.1,0.1c0,0,0,0.1,0,0.1l-0.1,0c0,0.1,0,0.1,0,0.2c0,0.1,0,0.1,0.1,0.2l0,0c0,0-0.1,0-0.1-0.1c-0.1,0-0.1,0-0.1,0
	l0.1,0.1c0,0,0.1,0.1,0.1,0.1l0,0.1l-0.1,0c0,0,0,0,0,0h0h0h0h0l0,0h0l0,0c0,0.1,0,0.1-0.1,0.2h-0.1l0,0.1c0.1,0.1,0.2,0.2,0,0.2
	c0,0,0,0.1,0,0.1c0.1,0.1,0.1,0.1,0.2,0.2l0,0c0.1,0.1,0.2,0.2,0.3,0.3c0,0,0,0,0,0l0,0.1c0,0.1,0.1,0.1,0.1,0.2c0.1,0,0.1,0,0.2,0
	c0.2,0,0.2,0.1,0.2,0.1l0,0.1c0,0.1,0.1,0.1,0.1,0.2l0,0c0.1,0.2,0.1,0.2,0.4,0.2c0.1,0.1,0.1,0.1,0.1,0.2l0,0.1c0.4,0,0.7,0,1,0.1
	c0-0.1,0-0.1,0-0.2l0.1,0l0.1,0c0-0.1,0-0.1-0.1-0.2c0.2,0,0.5,0.4,0.5,0.4c0.6,0.1,1.2,0.1,1.7,0.1l0-0.1l0.1,0
	c0-0.1-0.1-0.4-0.1-0.4c0,0-0.1-0.1-0.1-0.1c-0.1-0.1-0.1-0.1-0.3-0.1c-0.2-0.2-0.4-0.3-0.5-0.5c-0.2-0.2-0.3-0.4-0.5-0.6
	c0-0.2-0.2-0.3-0.3-0.5l0.1,0c0-0.1,0-0.1-0.1-0.2c0,0,0.1,0,0.1,0C75,28.8,75,28.8,75,28.8l0-0.1l0.1,0c0-0.4-0.4-0.4-0.6-0.6
	l0-0.1c-0.1-0.1-0.2-0.2-0.2-0.3c0,0,0.1,0,0.1,0c0,0,0,0,0,0l0,0h0h0l0,0h0h0h0c0.1,0,0.2,0.1,0.3,0.2l0-0.1c0.1,0,0.1,0,0.4,0.2
	c0.1,0.1,0.2,0.2,0.3,0.2c0,0-0.1,0-0.1,0c0.4,0.3,0.4,0.4,0.4,0.5c0,0-0.1,0-0.1,0l0,0c0.5,0.8,0.5,0.8,0.9,1.2
	c0.1,0.1,0.1,0.1,0.1,0.1c0,0,0.8,0.6,1.1,0.7l0,0c0,0,0-0.1,0-0.1c0.1,0,0.2,0,0.2,0c0,0,0-0.1,0-0.1c0.1,0,0.2,0,0.3,0l0-0.1
	c0,0,0,0,0,0c0.1,0.1,0.2,0.1,0.3,0.2c0.1,0,0.1,0,0.2,0l0.1,0.1l0,0.1c0,0,0,0-0.2,0c0,0.1,0,0.1,0.2,0.4c-0.2,0-0.3-0.1-0.4-0.2
	l0,0c-0.1,0-0.1,0-0.2,0l0,0l0,0.1c0,0-0.1,0-0.1,0l-0.1,0C78.1,31.4,78.1,31.5,78.1,31.6L78.1,31.6 M74.7,31.3c-0.3,0-0.7,0-1-0.1
	l0,0c0,0.1,0,0.1,0,0.1c0,0,0.1,0,0.1,0.1l0,0.1c0.2,0,0.2,0,0.2,0l0,0c0,0,0,0,0.2,0.1l0.1,0c0.1,0,0.1,0.1,0.2,0.1
	c0,0,0.1,0,0.1-0.1l0,0c0.1,0,0.1,0,0.1,0l0-0.1C74.7,31.5,74.6,31.4,74.7,31.3L74.7,31.3 M76.8,31.5c-0.5,0-1.1-0.1-1.7-0.1
	c0.1,0.1,0.2,0.2,0.3,0.3l0,0l0,0.1c0,0,0.1,0.2,0.2,0.2c0.2,0.1,0.2,0.1,0.3,0.2l0.1,0.1l0.1,0.1c0.1,0.2,0.3,0.3,0.4,0.3
	c0,0,0.1,0,0.1,0.1c0,0.1,0,0.1,0.1,0.2l0,0c0,0.1,0.1,0.1,0.1,0.2c0.1,0,0.3,0,0.4,0c-0.2-0.3-0.2-0.3-0.1-0.4c0,0,0,0,0.1,0l0.1,0
	c0.1,0,0.1,0.1,0.2,0.1c0,0,0-0.1,0-0.1c0,0,0,0,0.1,0c0-0.1-0.1-0.2-0.2-0.2c0.1,0,0.1,0,0.2,0c-0.1-0.1-0.1-0.1-0.1-0.2
	c0,0-0.1,0-0.1,0c-0.1,0-0.1-0.1-0.2-0.1c0,0,0-0.1,0-0.1c-0.1-0.2-0.3-0.4-0.3-0.6L76.8,31.5L76.8,31.5L76.8,31.5 M91,47.7
	c-1.2-4.7-3.4-9-6.3-12.7c-0.7-0.9-1.7-2-2.5-2.8c-0.1-0.1-0.2-0.1-0.5-0.2c-0.6-0.2-1.9-0.3-3.6-0.5c-0.1,0-0.2,0-0.3,0
	c0.1,0,0.1,0,0.1,0l0,0h0l0,0h0h0h0h0l0.1,0.1c-0.1,0-0.1,0-0.2,0.1c0.1,0.2,0.3,0.2,0.4,0.3c0-0.1,0-0.1,0-0.2
	c0.3,0,0.7,0.5,0.7,0.5c-0.1,0.1-0.1,0.1,0.1,0.3c0,0.1,0,0.1,0,0.1c0,0,0,0-0.4-0.3l0,0c0,0-0.1-0.1-0.1-0.2c0,0-0.1,0-0.1,0
	c0.3,0.8,0.4,1.1,0.8,1.4l0,0.1c-0.4-0.1-0.4-0.1-0.5-0.1c0,0.2,0.2,0.3,0.3,0.4l0,0c-0.2-0.1-0.4-0.3-0.6-0.4c0,0,0,0-0.2,0.4
	c-0.1,0-0.1,0-0.2,0c-0.2,0.3-0.5-0.2-0.6-0.3c0,0-0.1,0-0.1,0c0,0,0,0.1,0,0.1c0,0-0.1,0-0.1,0c-0.1,0-0.1,0-0.2,0c0,0-0.1,0-0.1,0
	c0,0.1,0.1,0.1,0.1,0.2c0,0.1-0.1,0.1-0.1,0.1c-0.2,0-0.2,0-0.3-0.2l-0.1,0c0,0-0.1,0-0.1,0c0-0.1-0.1-0.1-0.1-0.1l-0.1-0.1
	c0.1-0.1,0.1-0.1,0.2-0.1c0.1,0,0.3,0.1,0.4,0.2l0.1-0.1c-0.1-0.2-0.4-0.7-0.4-0.7c-0.1-0.1-0.1-0.1-0.2-0.1c-0.1,0-0.1,0-0.2,0.1
	c0,0,0,0.1,0,0.1c0,0.1,0,0.1,0,0.1C76.2,33,76,33,76,32.7c0-0.1-0.1-0.1-0.1-0.1c-0.4,0.1-0.3-0.6-0.7-0.7c0,0,0,0,0,0.3
	c0,0-0.1,0.1-0.2,0.1c0,0.1,0.1,0.1,0.1,0.2c0,0,0,0,0,0.1c0,0,0,0.1,0,0.1l-0.1,0.1c0,0.1,0,0.1,0.6,0.8c0,0,0,0.1,0,0.1
	c0,0.1,0.1,0.1,0.1,0.2c0.1,0.1,0.2,0.2,0.3,0.3c0,0.1,0.1,0.1,0.1,0.2c0,0-0.1,0-0.1,0c-0.1,0-0.2,0-0.2,0l-0.1,0
	c-0.1,0-0.2,0-0.4,0c0,0,0,0.1,0,0.1c-0.1,0-0.1,0.1-0.2,0.1c0,0.2,0,0.2-0.1,0.3l-0.1-0.1c0,0-0.1,0-0.1,0l-0.1,0c0,0-0.1,0-0.1,0
	c0,0,0,0.1,0,0.2l0.2,0.1c0,0.1,0.1,0.2,0.1,0.3c-0.2,0-0.2,0-0.4,0.4c0,0-0.1,0-0.1,0c-0.1,0-0.1,0-0.2,0c0,0.2,0.1,0.4,0.2,0.5
	c-0.2,0-0.2,0-0.4,0c0,0.1,0.1,0.2,0.1,0.3c-0.1,0-0.2,0-0.3,0c-0.1,0-0.1,0-0.3-0.1c-0.1-0.1-0.1-0.1-0.1-0.1c0,0-0.1-0.1-0.2-0.1
	c0,0.1,0,0.2,0.1,0.3l0.1,0c0,0.1,0.1,0.2,0.1,0.2l0.1,0.1c0,0,0,0.1,0,0.1c-0.5,0-0.8-0.2-0.8-0.2c-0.4,0.2-0.4,0.2-0.4,0.2
	c0,0,0,0.1,0,0.1c0.1,0.1,0.1,0.1,0.1,0.1c0.2,0.2,0.4,0.2,0.4,0.2c0.1,0,0.1,0,0.1,0c0.2,0.1,0.4,0.3,0.6,0.5
	c0.1,0.2,0.1,0.4,0.2,0.5c0.4,0.4,1,1.2,0.6,1.6c0,0,0,0.1,0,0.1c-0.2,0.1-0.2,0.1-0.3,0.2c0,0-0.1,0-0.1,0
	c-0.3-0.1-0.6-0.1-0.8-0.3c-0.3,0-0.6,0-0.8,0c-0.4-0.1-0.4-0.1-0.4-0.1c-0.1,0-0.1,0-0.1-0.1l-0.1,0.1c0,0,0,0.1,0,0.1
	c-0.2,0.1-0.3,0.1-0.5,0.1l0,0.1c0.3,0.3,0.2,0.8,0.5,1.1c0,0.2,0.1,0.4,0.1,0.6c0,0,0,0.1,0,0.1c-0.3,0.3-0.2,0.6,0,0.8l0.1,0.1
	c0,0.1,0,0.1,0,0.2c0,0,0,0.1,0,0.1c-0.1,0.1-0.1,0.2,0,0.5c0.1,0,0.2,0,0.3,0c0.3-0.1,0.5,0.1,0.8,0.1c0,0,0,0,0.4,0.2
	c0.1,0.1,0.2,0.3,0.3,0.4c0,0,0-0.1,0-0.1l-0.1,0c1.2-0.7,2.2-1.1,2.2-1.1c0-0.1-0.1-0.2-0.1-0.4c-0.3-0.4-0.3-0.4-0.2-0.9
	c0-0.1,0-0.1,0-0.2c0.1,0,0.1,0,0.2,0c0,0,0.1-0.1,0.1-0.2c0.1,0,0.1,0,0.2-0.1l0-0.1c0.2,0,0.5,0,0.5,0c0-0.1,0-0.2,0-0.3l0-0.1
	c-0.2-0.4-0.2-0.6-0.2-0.6c0.2-0.1,0.2-0.1,0.5,0h0h0h0l0,0h0h0l0,0h0c0.3,0.2,0.3,0.2,0.4,0.2c0.1,0,0.2,0,0.2,0c0,0,0.1,0,0.1,0
	c0-0.3,0-0.3,0-0.4c0.1,0,0.1,0,0.2,0c0.1,0,0.2,0,0.3-0.3c0.6,0.2,0.7,0.8,1.1,1c0.1,0.1,0.1,0.1,0.2,0.3c0.7,0.5,2,1.5,2.2,2.3
	c-0.3,0.1-0.3,0.1-0.3,0.2c-0.3,0.1-0.5,0-0.8,0c0,0,0,0.1,0.1,0.1c0.3,0.2,0.4,0.5,0.7,0.6c0.1,0,0.3,0,0.4,0
	c0-0.1-0.1-0.3-0.1-0.4c0.1-0.1,0.2-0.2,0.3-0.3c0-0.1,0-0.3-0.1-0.4c0,0,0.1-0.1,0.2-0.1c0-0.1,0-0.1,0-0.2c0-0.1-0.1-0.1-0.1-0.2
	c-0.1,0-0.2,0-0.2,0c-0.1-0.1-0.1-0.1-0.1-0.1c0,0,0-0.1,0-0.1c0.1-0.1,0.2,0,0.2,0c0.2,0.1,0.3,0.2,0.3,0.3c0-0.2-0.1-0.4-0.2-0.6
	c-0.5-0.2-0.8-0.7-0.8-0.7c-0.3,0-0.4-0.3-0.7-0.4c-0.1-0.3-0.4-0.5-0.6-0.7c0,0-0.1,0-0.1,0c-0.2-0.4-0.2-0.4-0.4-0.4
	c-0.1-0.1-0.1-0.2-0.1-0.3l0-0.1c0-0.1,0-0.1,0-0.1C79.7,39,79.7,39,79.7,39c0.3-0.1,1.6,1.3,1.6,1.3c0.1,0.2,0.2,0.2,0.4,0.2
	c0,0,0.1,0.1,0.1,0.1c0.2,0.3,0.6,0.4,0.8,0.7c0.3,0.5,0.4,1.1,0.7,1.6c0.1,0,0.1,0,0.2,0c0.1,0.2,0.2,0.3,0.2,0.5
	c-0.1,0-0.1,0-0.2,0c0,0,0-0.1,0-0.1c0,0-0.1,0-0.1,0c0,0.2,0.1,0.3,0.4,0.6c0,0,0-0.1,0.1-0.1c0.3,0.1,0.3,0.5,0.4,0.7
	c0.1,0,0.1,0,0.2,0.1c0,0,0.1,0,0.1,0c0-0.2,0-0.2,0-0.3c0-0.1,0-0.1,0-0.1c0-0.1-0.1-0.1-0.1-0.2l0.1-0.1c0,0,0.1,0.1,0.1,0.1
	c0.1,0,0.1,0,0.1,0c0-0.1,0-0.1-0.1-0.4c0,0,0.1,0,0.1,0l0-0.1c-0.2-0.2-0.2-0.2-0.3-0.3c0.1,0.2,0.1,0.2,0.1,0.3
	c-0.1,0-0.2,0-0.8-1c0-0.1,0-0.1-0.1-0.2c0,0,0-0.1,0-0.1l0.1,0.1c0.2,0.2,0.2,0.2,0.2,0.2c0.1,0,0.1,0,0.1,0l0.1,0
	c0-0.1,0-0.1-0.1-0.2c0,0,0-0.1,0-0.1c0.3-0.2,0.4,0.1,0.6,0.2c0.1,0.2,0.1,0.2,0.2,0.3c0,0,0.1,0.1,0.1,0.2l-0.1,0.1
	c0.1,0.3,0.4,0.5,0.4,0.8c0,0.1,0.1,0.1,0.1,0.2c0,0,0,0.1,0,0.1c0,0.1,0,0.1,0.2,0.3l0,0.1l0,0l0,0.1l0.1,0.1l0,0
	c0,0.1,0.1,0.2,0.1,0.2l0,0.1l0,0.1c0.1,0.2,0.1,0.2,0.1,0.3l0,0.1l0,0c0-0.1,0-0.1,0-0.2l0-0.1c0-0.1,0-0.2-0.1-0.2
	c0,0,0-0.1,0-0.1c0-0.1,0-0.1,0-0.1l0,0l0,0l0,0.1l0,0c0,0.1,0.1,0.1,0.1,0.2l0,0.1l0,0.1l0,0l0,0c0.1,0,0.1,0,0.1,0.1
	c0.1,0,0.1,0,0.1,0l0,0l0,0l0-0.1l0-0.1c-0.1-0.2-0.1-0.2-0.1-0.3l0-0.1l0-0.1c0.1,0,0.1,0,0.2,0.1c0,0,0.1,0.1,0.1,0.2
	c0,0.1,0.1,0.1,0.1,0.2l0,0.1l0,0l0,0l0,0c0.1,0,0.2,0,0.3,0c0-0.1,0-0.1-0.1-0.2l0-0.1c0-0.1-0.1-0.1-0.1-0.2l0.1,0l0,0l0,0
	c0,0,0,0,0.2,0.2c0.1,0,0.1,0,0.1,0l0,0l0,0l0,0l0,0c0,0,0.1,0.1,0.1,0.1l0,0.1c0.1,0.2,0.1,0.2,0.1,0.4c0,0.3,0.1,0.5,0.2,0.6
	l0,0.1c0.1,0.1,0.1,0.1,0.1,0.3l0,0l0,0.1c0,0.1,0,0.1,0,0.2v0.1c0,0.3,0,0.3,0,0.4l0,0l0,0.1l0,0.1c0.9,0.2,1.6,0.3,2,0.4
	C90.7,47.5,90.9,47.6,91,47.7 M92.1,54.4L92,53.7v0c0,0,0-0.1,0-0.1l0,0c-0.1-0.6-0.1-1.1-0.1-1.1l0,0c0,0.2,0,0.3,0,0.4
	c0.1,1,0.2,2.1,0.2,3.2l0,0v-0.2c0-0.2,0-0.4,0-0.6l0,0c0,0,0,0.1,0,0.1C92.1,55.3,92.1,54.9,92.1,54.4 M91.8,51.8l-0.1-0.5
	c-0.2-1.1-0.5-2.5-0.7-3.6l0,0c0.3,1.1,0.5,2.3,0.7,3.5C91.8,51.4,91.8,51.5,91.8,51.8L91.8,51.8L91.8,51.8 M70,31.3L70,31.3l-0.1,0
	c0,0,0,0.1-0.1,0.1l-0.1,0l0,0l0,0.1c0,0-0.1,0.1-0.1,0.1c0,0,0,0.1,0,0.1l0.1,0l0.1,0c0,0,0,0,0-0.1l0,0v0l0,0c0.1,0,0.1,0,0.1,0
	l0,0l0,0l0-0.1l0,0C70,31.3,70,31.3,70,31.3 M74.5,34.9c0-0.1-0.1-0.1-0.1-0.2c-0.2-0.1-0.3-0.3-0.4-0.4l-0.1,0c0,0,0,0,0,0.2
	c-0.1,0-0.1,0-0.4-0.5c-0.1,0-0.1,0-0.2,0c-0.1-0.2-0.1-0.3-0.1-0.3c-0.1-0.1-0.2-0.1-0.3-0.2l-0.1,0c-0.1-0.1-0.2-0.2-0.3-0.3
	c0-0.1-0.3-0.3-0.4-0.3c-0.2,0-0.5-0.1-0.3-0.3c0-0.1,0-0.1,0-0.1c0.1,0,0.1,0,0.1,0c0,0,0-0.1-0.1-0.1c-0.1-0.1,0.1-0.2,0-0.3
	c-0.1-0.1-0.1-0.2-0.2-0.3c-0.2,0-0.5,0-0.7,0c0-0.1,0-0.1,0-0.1c0-0.1-0.1-0.1-0.1-0.2c0,0,0.1-0.1,0.1-0.2
	c-0.1-0.1-0.1-0.1-0.1-0.1l-0.1,0c0,0-0.1,0-0.1,0c0,0-0.1,0-0.3,0l0,0c0.1,0.1,0.1,0.2,0.1,0.3c0,0.1,0.1,0.2,0.1,0.3
	c-0.1,0-0.2-0.1-0.4-0.1c-0.2,0,0,0.3,0,0.3c0.1,0.1,0.2,0,0.3,0.1v0.1c0,0,0,0.1,0,0.1c0,0.1,0.1,0.1,0.1,0.2c-0.2,0-0.2,0-0.1,0.2
	c0.1,0,0.1,0,0.2,0c0,0,0,0,0.3,0.1c0,0,0.1,0,0.1,0c0-0.1,0-0.1,0-0.2c0,0,0.3,0.3,0.3,0.4c-0.2,0-0.1,0.1,0,0.2c0.1,0,0.2,0,0.4,0
	l0-0.1c0.2,0.1,0.3,0.4,0.6,0.6c0,0.2,0,0.2,0.1,0.2c0.1,0.1,0.1,0.2,0.1,0.2l-0.2,0c-0.1,0-0.1-0.1-0.2-0.1l0,0l-0.1,0
	c0,0,0,0,0,0.1l0,0.1c0,0-0.1,0-0.1,0l0,0.1c0.1,0.1,0.4,0,0.5,0.2c0,0,0,0-0.1,0c0,0.1,0,0.1,0,0.1c0,0,0,0-0.1,0l0,0h0h0l0,0h0h0
	h0h0c0.1,0.4,0.2,0.3,0.3,0.2c0,0,0.6,0.1,0.6,0.1c0,0,0.1,0.1,0,0.2c-0.1,0.1-0.3,0-0.4,0.1c0,0,0,0.1,0,0.1c-0.1,0-0.1,0-0.2,0
	c0.1,0.2,0.1,0.2,0.1,0.3C72.3,36,72.3,36,72.2,36c0.1,0.1,0.1,0.1,0.3,0l0.1-0.1l0-0.1c0.1,0,0.1,0.1,0.2,0.1c0.1,0,0.2,0,0.2,0
	c-0.1-0.2-0.1-0.2-0.1-0.2c0.6,0.1,0.6,0,0.6-0.1l0,0c0.1,0,0.2,0.1,0.4,0.2l0,0c0.1,0,0.2,0,0.3,0c0,0,0-0.1,0-0.1
	c0.1,0,0.1,0,0.2,0c0-0.1-0.2-0.2-0.2-0.3l0-0.1c0,0,0,0,0-0.1c0,0,0.1,0,0.1,0c0,0,0-0.1,0-0.2C74.4,34.9,74.4,34.9,74.5,34.9
	 M70.1,33.5L70.1,33.5L70.1,33.5L70.1,33.5 M71.2,33.6c0-0.1-0.2-0.2-0.2-0.2c0-0.1,0-0.1-0.1-0.2c0,0,0,0-0.1-0.1c0,0-0.1,0-0.1,0
	c0,0-0.1,0-0.1-0.1l0,0c-0.1,0-0.2,0.1-0.2,0.1l0,0.1l-0.1,0c-0.1-0.1-0.2-0.1-0.3-0.2c-0.1,0-0.1,0-0.2,0c0.1,0.1,0.1,0.3,0.2,0.4
	l0,0l0,0l-0.1,0c0,0-0.1,0-0.1,0l0,0c0,0-0.1,0.1-0.1,0c-0.1-0.1-0.1-0.1-0.2,0c0.1,0.2,0.2,0.4,0.2,0.6c0.1,0,0.1,0,0.3,0
	c0,0.1,0.1,0.2,0.1,0.3c-0.1,0-0.1,0-0.2,0c-0.1,0.1,0.1,0.2,0,0.4c-0.1,0-0.1,0.1,0,0.2c0.1,0.1,0.2,0.1,0.2,0.1
	c0.1,0,0.1-0.1,0.2-0.1c0,0,0.1,0,0.2,0.1c0.1,0,0.1-0.1,0.1-0.1c0,0,0,0,0-0.1c0,0,0,0,0.1-0.1c0.2,0,0.5,0,0.7,0c0,0,0-0.1,0-0.1
	c0-0.1-0.1-0.1-0.1-0.2c0.1-0.1,0.1-0.1,0.1-0.1c0-0.1-0.1-0.2-0.2-0.5c0-0.1,0-0.1-0.1-0.2C71.2,33.8,71.2,33.7,71.2,33.6
	 M86.9,74.4C86.9,74.4,86.9,74.3,86.9,74.4c0.8-1.4,0.8-1.4,0.7-1.6c-0.1,0.2-0.1,0.2-0.8,1.3c-0.3,0-0.2,0.3-0.3,0.4
	c-0.2-0.1-0.2-0.1-0.9,0.8c-0.3,0.4-0.4,0.9-0.8,1.2l0,0c-0.3,0.3-0.5,0.6-0.7,0.9c0,0,0,0.1-0.1,0.1c-0.1,0.1-0.2,0.3-0.3,0.5
	c0,0.1-0.1,0.1-0.1,0.2c-0.1,0.2-0.3,0.3-0.4,0.5l0,0c0,0,0.1,0,0.1,0c-0.1,0.1-0.1,0.1-0.1,0.2l0,0v0c0.6-0.1,3.1-3.7,3.1-3.7
	c0-0.1,0.1-0.1,0.1-0.2c0-0.1,0.1-0.1,0.1-0.2c0,0,0-0.1,0.1-0.1C86.7,74.6,86.8,74.5,86.9,74.4 M91.6,60.6c0-0.2,0-0.3-0.1-0.4
	c0,0.1-0.1,0.1-0.1,0.2c-0.1,0-0.2,0-0.2,0.1c0,0,0,0-0.2,0c0,0-0.1-0.1-0.1-0.2c0-0.7,0-0.7-0.1-0.9c0-1.5-1-2.8-0.9-4.3
	c0-0.1,0-0.2,0-0.3c0,0-0.6-4.5-2.4-7c0,0,0,0-0.1,0c0,0-0.1,0.1-0.1,0.2l-0.1,0c-0.9-0.4-1.7-1.2-2.8-1.3c0.1,0.5,0.2,0.9,0.3,1.4
	c-0.1,0-0.1,0-0.2,0c0,0-0.1,0-0.2,0c-0.2-0.2-0.3-0.5-0.6-0.5c-0.2,0-0.5,0-0.7-0.1c-0.1-0.1-0.1-0.3-0.2-0.4
	c-0.4-0.5-1.1-0.5-1.6-0.9c-0.6-0.4-0.2-1.2-0.7-1.6c0-0.1,0-0.1,0-0.2c0.1-0.1,0.2-0.2,0.3-0.3c-0.3-0.2-0.3-0.2-0.6-0.3
	c-0.4,0.1-0.4,0.1-1.2,0.2c-0.1,0.1-0.2,0.2-0.3,0.2c-0.5-0.4-0.5-0.4-1.3-0.2c0,0.1-0.1,0.1-0.1,0.2c-0.3,0-0.6,0-0.9,0.1
	c0,0.1,0,0.3-0.1,0.4c-0.3,0.1-0.5,0-0.8,0.1c0,0-0.1,0-0.2,0c-0.1,0-0.2,0-0.2,0c0,0,0,0-0.1,0c-0.5,0-0.6-0.1-0.8-0.2
	c-0.1,0-0.1-0.1-0.2-0.1c-0.2,0.3,0,0.7-0.1,1c-0.3,0-0.3,0-0.6,0c0,0.3,0.1,0.6,0.1,0.9c-0.2,0-0.5,0-0.7,0.1c0,0.5-0.1,1,0,1.5
	c0,0.1,0,0.3,0,0.4c-0.2,0-0.4,0-0.6,0.1c0,0.7-0.5,0.9-0.8,0.9c-0.2,0-1.1,2.2-1.1,2.2c-0.1,0-0.1,0-0.2,0c0,0,0,0-0.2,0
	c-0.1,0-0.1,0.1-0.2,0.1c0.1,1.2-0.1,1.2-0.5,1.4c0,0.1,0,0.1-0.1,0.2c0,0.1,0,0.3,0.1,0.4c0.8,0.2,0.8,0.2,0.9,0.3
	c-0.2,0.4-0.2,0.4-0.2,1.9c0,0.1,0,0.2,0,0.2c0,0.2,0,0.2-0.4,0.6c0,0.3,0.1,0.6,0.2,0.8c0,0.1,0,0.2,0,0.4c0,0,0.8,1.4,1.6,1.9
	c0,0.3-0.1,1.3,1.1,1.4c0.8,1.7,0.9,1.8,1.7,1.7c0.1-0.1,0.1-0.3,0.2-0.4c0.3-0.1,0.5,0,0.8,0c0,0,0.1,0,0.1,0c0.2,0,0.2,0,0.6,0
	c0.2,0.2,0.2,0.2,1.2,0.2c0.3-0.7,0.6-0.6,1.2-0.5c0,0,0.1,0,0.1,0c0,0,0.5-0.5,1-0.2c0.1,0.9,0.1,0.9,0.4,1.1c0.5,0,1,0,1.4,0.1
	c0,0.2-0.1,0.5-0.1,0.7c-0.2,0.5-0.2,0.5-0.7,2.1c-0.1,0-0.2,0.1-0.3,0.2c0.1,0.1,0.2,0.2,0.3,0.3c0.1,0.3,0,0.7,0.3,1
	c-0.1,1,0.4,2-0.1,2.9c0,0.1-0.1,0.1-0.1,0.4c0,0.1,0,0.3,0.1,0.4L79,73.5c-0.9,0.6-0.7,2.7-0.7,2.7c-0.3,0.6-0.3,0.9-0.3,1
	c-0.2,0.3-0.4,0.6-0.6,1c0,0-1.1,2.7-1.2,3.2c0,0,0,0.1-0.1,0.1c-0.3,0.2-0.3,0.2-0.4,0.4c0,0,0.1,0,0,0.1c0,0-0.1,0.1-0.1,0.2
	c0,0.1,0,0.1,0,0.2c0.1,0,0.3,0,0.6,0c0.1,0,0.3-0.1,0.4-0.1c0.2,0,0.3,0,0.6,0c1.6-1.5,3.7-2.6,5.3-4.1l3.7-4.6
	c0.1-0.1,0.1-0.2,0.2-0.5c0.1-0.1,0.1-0.3,0.2-0.4c0.2-0.4,0.4-0.8,0.6-1.3c0.1-0.7,0.5-1.4,0.7-2.1c0,0,0-0.1,0.1-0.2
	c0.6-1.4,1.6-2.6,2.2-4C91.3,62.4,91.3,62.4,91.6,60.6 M59.6,68.8c0,0,0-1.1-0.6-1.4c-0.2,0-0.4,0-0.5,0c-0.8-0.3-0.8-0.3-0.9-0.8
	c-0.5-0.3-0.5-0.3-0.9-0.2c-0.2,0-0.5,0-0.7,0c-0.7-0.3-0.7-0.3-0.9-0.2c0,0.1,0,0.1,0,0.2c-0.2,0.1-0.2,0.1-0.6,0
	c0-0.1,0-0.1,0-0.2c0.1-0.1,0.2-0.1,0.3-0.2c-0.2-0.2-0.7-0.5-1.3-0.6c0,0-0.1,0-0.3-0.1c-0.3-0.1-0.3-0.2-0.7-0.1
	c0,0.2,0,0.4,0,0.5c-0.2,0-0.3,0-0.5,0c0-0.1,0-0.1,0-0.3c0.1-0.1,0.1-0.2,0.2-0.3c0,0,0.1-0.1,0.1-0.1c0,0-0.1-0.1-0.1-0.2
	c0,0-0.3-0.1-0.6-0.2h-0.1c0,0-0.1,0-0.3,0c0,0.4,0,0.6-0.4,0.5c0-0.1,0-0.2,0-0.3l0-0.2c0.2,0,0.3,0,0.5-0.1c0.1-0.6,0-0.9,0-1
	c-0.1,0-0.2,0-0.3,0c0-0.2,0-0.4-0.1-0.7c-0.1-0.2-0.2-0.4-0.3-0.6c-0.6-0.1-0.6-0.3-0.7-0.5c-0.9-0.3-0.9-0.3-0.9-0.4
	c-0.3-0.1-0.6,0-0.9,0c-0.1,0-0.1,0-0.2,0c-1.4-0.3-1.4-0.8-1.4-1.1c-0.5-0.3-0.5-0.3-0.7-0.4c0,0,0-0.1-0.2-0.1
	c-0.3-0.2-0.3-0.2-0.3-0.5c0,0-0.1,0-0.2,0c-0.2,0.1-0.3,0.1-0.5,0.2c-0.1-0.1-0.1-0.1-0.2-0.5c0.1,0,0.1,0,0.2-0.1c0,0,0-0.1,0-0.2
	c-0.3-0.1-0.3-0.1-0.5-0.2L44,59c0,0,0,0-0.1,0c-0.1,0-0.2-0.1-0.3-0.1c-0.1,0.2-0.2,0.4-0.3,0.6c-0.1,0-0.1,0-0.2,0
	C42.8,59,42.8,59,42.4,59c-0.2,0-0.4,0-0.6,0c-0.1,0-0.2-0.1-0.3-0.1c0-0.1,0-0.2-0.1-0.4c-0.3-0.1-0.5-0.3-0.7-0.3
	c0,0-0.1,0.1-0.1,0.1c0,0,0,0-0.6,0.7c0.1,0.7,0.1,0.7,0.1,0.9c0,0-0.1,0.1-0.1,0.1c-0.2-0.3-0.7-1.3,0.1-1.9l0-0.1
	c-0.1,0-0.2,0-0.3,0c-0.3,0.1-0.3,0.1-0.3,0.5c-0.2,0-0.4,0-0.6,0c-0.7,0.5-0.7,0.5-1,0.5c0,0.2,0,0.5,0,0.7
	c-0.1,0.1-0.1,0.1-0.4,0.2c0,0.5-0.7,0.8-0.4,1.3c0,0,0.1,0,0.2,0c0,0.5,0.6,1,0.1,1.4c-0.1,0.9-0.1,0.9-0.4,0.9
	c0,0.1,0.1,0.3,0.1,0.4c-0.1,0.1-0.2,0.1-0.2,0.2c0,0.1,0,0.2,0,0.2c-0.3,0.1-0.3,0.3-0.3,0.7c-0.1,0-0.2,0-0.4,0.1
	c0.1,0.3,0.1,0.7,0.2,1c0.2,0.1,0.3,0,0.5,0c0,0.1,0,0.1,0,0.2c0,0-0.1,0.1-0.1,0.1c-0.1,0-0.2,0.1-0.3,0.2c0.1,0.3-0.2,0.7,0.1,1
	c0,0,0,0.1,0,0.1c0.2,1,1.4,1.2,1.7,2.1c0,0.1,0,0.2,0.1,0.3c0.2,0.3,0.3,0.7,0.6,1c0.6,0.5,0.6,1.9,1.7,1.7c1-0.1,1.1,1.3,2.1,1.3
	c0.1,0.3,0.2,0.7,0.3,1c0,0.1,0,0.2,0.1,0.3l0,0c0,0,0,0.1,0.1,0.2c0,0,0.1,0.1,0.1,0.1c0,0,0,0,0,0.2c0,0.1,0,0.2,0.1,0.3l0,0
	c0,0,0,0.1,0.1,0.2c0,0,0,0.1,0.1,0.2l0,0.1c0,0,0,0.1,0,0.2c0,0.1,0.1,0.2,0.2,0.3c0,0,0,0.1,0,0.1c0,0,0,0.1,0,0.1
	c0,0.3,0,0.7,0.1,1c0.1,0.3,0.1,0.3,0.2,1.3c0,0,0,0,0.1,0.1c0.7,1.1,0.9,1.5,0.7,2c0,0.1,0.1,0.1,0.1,0.2c0,0,0,0.1,0.1,0.1
	c0.1,0.1,0.1,0.1,0.1,0.7c0.4,0.4,0.5,1,0.9,1.3c0.3,0.2,0.2,0.7,0.6,0.9c0.1,0,0.1,0,0.2,0l-0.4-0.6c0.1,0,0.1,0,0.2,0
	c0,0.1,0.1,0.1,0.1,0.2c0,0,0,0.1,0,0.2c0.1,0.1,0.2,0.2,0.3,0.4c0,0,0,0,0.4,0.7c-0.1-0.1-0.2-0.1-0.3-0.2l0-0.1
	c0,0-0.1-0.1-0.1-0.1c0,0,0,0-0.1,0c0,0.1,0.1,0.1,0.2,0.2c0.3,0.2,0.3,0.2,0.5,0.4c-0.2-0.1-0.3-0.2-0.4-0.2
	c0.1,0.1,0.1,0.1,0.1,0.2c0,0,0,0.1,0,0.2c0.3,0.2,0.7,0.3,1,0.6c-0.1,0-0.2,0.1-0.3,0.2c0,0,0,0,0.1,0.1c0.1,0.1,0.2,0.1,0.3,0.2
	c0,0,0,0,0.1,0.2c0.2,0.1,0.4,0.3,0.5,0.4l0,0.1l0.1,0c0,0,0,0,0.2,0c0.1,0.1,0.2,0.2,0.3,0.2l0,0l1.2,0.6c0,0,0,0,0.1,0.1
	c0.2,0.1,0.2,0.1,0.5,0.1c0,0,0,0,0.2,0c0.1,0,0.2,0,0.3,0c0,0,0.1-0.1,0.1-0.1c-0.2-0.1-0.2-0.1-0.5-0.1c0,0-0.1-0.1-0.2-0.1
	c0,0-0.2-0.2-0.5-0.4c0,0,0,0-0.1-0.1c-0.1-0.1-0.3-0.2-0.4-0.3c0,0,0,0-0.1-0.1c0-0.1-0.1-0.1-0.2-0.2c0,0-0.1-0.1-0.1-0.1
	c0.1,0,0.2,0,0.2,0c-0.1-0.1-0.1-0.2-0.2-0.3c0,0,0.1-0.1,0.1-0.1c0-0.1-0.1-0.2-0.1-0.3c0,0,0.1-0.1,0.1-0.1c0,0-0.1-0.1-0.2-0.1
	c0,0-0.1,0-0.2,0C49,86.4,49,86.4,49,86.3c0,0,0,0,0-0.2c0,0,0.1-0.1,0.1-0.1c0.1,0,0.2,0,0.3,0c-0.1-0.1-0.1-0.2-0.2-0.5
	c0-0.2-0.1-0.3-0.1-0.5c0.1,0,0.1,0,0.2,0c0,0,0-0.1,0-0.2c0,0,0,0-0.1-0.1h0h0l0,0h0h0h0h0l0,0c0,0-0.1,0.1-0.1,0.1
	c-0.1-0.1-0.1-0.1-0.3-0.4c0-0.1-0.1-0.1-0.1-0.2c0,0,0.1,0,0.1,0c0.1,0,0.2,0.1,0.3,0.2c0.1,0,0.3,0,0.4,0c0,0-0.1-0.1-0.1-0.1
	c0,0,0,0-0.1-0.2c0-0.2,0-0.2-0.2-0.4c0-0.1,0-0.1-0.1-0.2c0.1,0,0.2,0,0.4,0c0,0,0.1,0,0.2,0c0,0,0.1,0,0.2-0.1c0.1,0,0.2,0,0.4,0
	c0,0,0.1,0,0.2,0c0-0.3,0.2-0.5,0.3-0.7l0-0.1c0-0.1,0-0.2-0.1-0.2c0,0-0.1,0-0.2,0c0-0.1,0-0.1-0.1-0.2c-0.2-0.2-0.5-0.3-0.6-0.5
	c0.1,0,0.2,0,0.3,0c1.1,0.3,1.3,0.3,1.4-0.1c0.3-1.4,0.5-1.5,0.6-1.6c0,0.1,0,0.2,0,0.3c0,0,0.1,0,0.2,0c0.2-0.2,0.4-0.7,0.4-0.7
	c0-0.3,0.4-0.3,0.5-0.6c0.1-0.4-0.4-0.7-0.2-1.2c0,0,0.6-0.7,0.9-0.9c0.2,0,0.3,0,0.5,0c0.1-0.1,0.1-0.1,0.4-0.3c0.4,0,0.8,0,1.2,0
	c0-0.1,0.1-0.2,0.1-0.3c0.2-0.1,0.4-0.4,0.4-0.6c0.1,0,0.2-0.1,0.3-0.2c0-0.4,0-0.4,0.2-0.7c0.1-0.1,0.1-0.1,0.3-0.9
	c0,0,0-0.1,0.1-0.2c0.2-0.3,0.2-0.5,0.2-0.6c0-0.1,0-0.1,0-0.3c0,0,0-0.1,0-0.2c0-0.1,0-0.2,0-0.3c0-0.2,0-0.4,0.1-0.7
	c0.1,0,0.1,0,0.7-0.8c0.2,0,0.3-0.1,0.4-0.2l0.8-1.1C59.6,69,59.6,69,59.6,68.8 M42.9,54.4L42.9,54.4c0-0.1-0.1,0-0.2-0.1
	c-0.1-0.1,0-0.2,0-0.3C42.4,54,42.3,54,42.1,54c-0.1,0-0.1,0-0.2,0c-0.1,0-0.2-0.1-0.3-0.1c0,0-0.1,0-0.1,0c-0.1,0-0.1,0.2-0.2,0.2
	l-0.4,0c-0.2,0-0.2-0.2-0.3-0.2c-0.2,0-0.3-0.2-0.4-0.2l-0.7,0c-0.1,0-0.1,0-0.4,0.1c0,0.2,0,0.5,0,0.7c0.2,0.3,0.3,0.4,0.4,0.4
	c0.1,0,0.1,0,0.2,0c0.2,0,0.2,0,0.3-0.2c0.1-0.1,0.3-0.1,0.3-0.1c0.1,0,0.2,0.1,0.3,0.1c0.1,0,0.2-0.1,0.4-0.1
	c0.4,0,0.8-0.1,0.8-0.1c0.1,0,0.1,0,0.2,0c0.1,0,0.5,0.1,0.5,0.1c0.1,0,0.1,0,0.2,0C42.8,54.5,42.9,54.4,42.9,54.4 M37.4,54.7
	L37.4,54.7c0-0.1,0.1-0.2,0-0.3c0,0-0.1,0-0.2,0c-0.1,0-0.1-0.1-0.2-0.1l-0.1,0c-0.2,0-0.4,0-0.6,0c0,0.1,0.1,0.1,0.1,0.2l0,0.1
	c0,0,0,0,0.2,0c0.1,0,0.3,0.1,0.3,0.1c0,0,0,0.1,0,0.1c0,0.1,0,0.1,0,0.1c0.1,0,0.1,0,0.2,0C37.3,54.9,37.3,54.9,37.4,54.7
	 M36.9,53.4c0.5,0,1,0,1.5,0c-0.1-0.2-0.4-0.7-0.7-0.7c-0.1,0-0.1,0-0.2,0c-0.2,0-0.4,0.1-0.6,0c-0.1-0.1-0.2-0.2-0.3-0.3
	c-0.2-0.1-0.4-0.2-0.5-0.3c-0.2-0.1-0.2-0.1-0.2-0.2c0-0.1,0-0.1-0.2-0.1c-0.1,0-0.3,0-0.4,0c-0.1,0-0.1,0-0.2,0.1
	c-0.1,0.1-0.2,0-0.2,0c-0.1,0-0.2,0-0.4,0c-0.3,0-0.3,0-0.4,0c-0.4,0.4,0.2,1.1,0.6,0.8c0.1-0.1,0.2-0.2,0.3-0.3c0,0,0.2,0,0.3,0
	c0,0,0.4,0.1,0.4,0.4c0,0.1,0,0.1,0.1,0.1c0.3,0.2,0.4,0.2,0.5,0.1c0.1,0,0.2,0,0.2,0.1C36.4,53.1,36.6,53.4,36.9,53.4 M65.8,28
	c0-0.1-0.1-0.2-0.1-0.3c0,0-0.1-0.1-0.1-0.1c-0.1-0.1-0.1-0.1-0.3-0.1c-0.1-0.3-0.1-0.3-0.2-0.4c-0.1,0-0.2,0-0.3,0
	c-0.1,0-0.1,0-0.3,0.2c-0.1,0-0.3-0.1-0.4-0.1c-0.2,0-0.3,0.1-0.3,0.1c-0.1,0-0.1,0-0.1,0.1c-0.1,0-0.2,0-0.3,0c0,0,0-0.1-0.1-0.1
	c0,0,0-0.1-0.1-0.1c0-0.1-0.1-0.1-0.1-0.1l-0.1,0c0,0,0,0.1,0.1,0.1c-0.1,0-0.1,0-0.5,0c0,0-0.4,0.1-0.1,0.3c0.1,0,0.2-0.1,0.4,0
	l0.3,0.2c0,0,0,0.1,0.1,0.2c-0.1,0-0.4-0.1-0.7,0c0,0.1,0.1,0.1,0.1,0.2c0.1,0,0.1,0,0.1,0c0.1,0,0.2,0,0.3,0l0,0
	c0,0.1,0.1,0.2,0.1,0.3l0.1,0.1c0,0,0.1,0,0.1,0c0.1,0,0.3,0,0.4,0c0,0,0.1,0,0.1,0c0.2,0,0.3,0.2,0.5,0.2c0,0,0.5,0.1,0.5-0.1
	c0-0.1,0-0.1,0.1-0.2c0.1,0,0.1,0,0.2,0c0.1-0.1,0.1-0.1,0.1-0.2C65.3,27.9,65.3,27.9,65.8,28 M50.7,36.6L50.7,36.6
	c0-0.1,0-0.2,0-0.2c-0.2,0-0.2,0-0.3,0c0,0-0.3-0.2-0.3-0.3C50,36,50,36,50,36c-0.1,0-0.3,0-0.4,0c-0.1,0-0.1-0.1-0.2-0.1
	c0.2-0.3,0.2-0.3,0.4-0.4c0,0,0.2-0.2,0.1-0.3c0,0,0,0,0-0.1c0,0-0.1,0-0.1,0c0,0-0.2,0-0.3,0.1c-0.1,0.1,0,0.2-0.1,0.3
	c-0.1,0.2-0.1,0.2-0.2,0.3c0,0-1,0.9-1,1c0,0-0.1,0.1-0.1,0.3c0,0.1,0,0.1,0,0.2c0.5,0,0.9,0,1.4,0c0.1,0,0.2,0,0.3,0.2
	c0.2,0.3,0.3,0.3,0.5,0.4c0,0,0,0,0.1-0.1c0,0,0.2-0.1,0.2-0.5C50.5,36.9,50.5,36.9,50.7,36.6 M46.9,36.1L46.9,36.1
	c0,0-0.1-0.1-0.1-0.1c0,0-0.1,0-0.1,0c-0.1,0-0.1,0-0.2,0c-0.1-0.1-0.2-0.1-0.2-0.2c0-0.1-0.1-0.1-0.1-0.1c0,0-0.1,0-0.1,0
	c-0.1,0-0.1,0.1-0.2,0.1c0.1,0,0.1,0,0.2,0.1c0,0,0,0.1,0.1,0.2l0,0c0,0,0.1,0.1,0.1,0.1c0,0,0.1,0.1,0.1,0.1c0,0,0,0,0.1,0.1
	C46.5,36.4,46.6,36.4,46.9,36.1 M59.3,21.7c-0.1,0-0.2,0-0.3,0c0,0-0.1,0-0.1,0l0,0h0l0,0h0l0,0h0l0,0l0,0c0,0,0.1,0,0.1,0
	c-0.1,0-0.1,0-0.2,0l0,0h0h0h0h0h0h0l0,0c0,0,0,0,0,0l0,0c-0.1-0.1-0.1-0.1-0.1-0.1c0,0,0,0-0.1-0.1c-0.1,0-0.1,0-0.1,0c0,0,0,0,0,0
	l0,0l0.1,0c0,0-0.1,0-0.1,0l0,0h0l0,0c-0.1,0-0.1,0-0.2,0c0,0-0.1,0-0.1,0c0,0-0.1,0-0.1,0h0l0,0h0l0,0l0,0h0h0l0,0h0h0l0,0l0,0h0v0
	h0l0,0l-0.1,0l0,0c0.1,0,0.2,0,0.2,0c0.1,0,0.1,0,0.2,0l0,0l-0.1,0h0c0,0,0,0,0,0c-0.1,0-0.1,0-0.2,0l0,0c0,0,0,0-0.1,0l-0.1,0h-0.1
	h0l0,0l0,0l-0.1,0l0,0l0,0c0.1,0,0.2,0,0.2,0c0,0-0.1,0-0.1,0l0,0c0,0-0.1,0-0.1,0h0c-0.1,0-0.1,0-0.2,0l0,0l0,0c0,0,0,0-0.1,0
	l-0.1,0c0,0,0,0-0.1,0c0,0-0.1,0-0.1,0c0,0,0,0,0,0H57l0,0h0l-0.1,0v0l0,0l0,0v0v0l0,0l0,0l0,0v0h0h0l0,0l0,0h0l0,0h0l0,0h0l0,0l0,0
	l0,0v0l0,0l0,0l0,0h0h0l0,0l0,0l0,0l0,0v0l0,0l0,0l0,0l0,0l0,0l0,0l0,0h0l0,0l0,0l0,0l0,0l0,0l0,0l0,0l0,0h0l0,0l0,0l0,0h0
	c0,0-0.1,0-0.1,0l0,0h0l0,0l0,0v0l0,0l0,0l0,0l0,0l0,0l0,0l0,0l0,0l0,0l0,0l0,0l0,0v0v0v0l0,0v0l0,0l0,0l0,0l0,0l0,0l0,0l0,0l0,0h0
	c0,0,0,0-0.1,0l0,0l0,0l0,0l0,0l-0.1,0l0,0l0,0c0,0,0,0,0,0l0.1,0l0,0l0,0l0,0l0,0l0,0l0,0l0,0l0,0l0,0l0,0l0,0l0,0l0,0l0,0l0,0l0,0
	l0,0h0l0,0l0,0l0,0l0,0h0l0,0l0,0l0,0h0h0l0,0l0,0l0,0l0,0l0,0l0,0l0,0l0,0h0l0,0h0h0l0,0h0l0,0l0,0l0,0l0,0l0,0l0,0l0,0l0,0h0h0
	l0,0h0l0,0h0h0h0v0l0,0v0l0,0l0,0l0,0l0,0h0l0,0l0,0l0,0l0,0l0,0l0,0h0l0,0l0,0l0,0l0,0l0,0l0,0c0,0,0,0-0.1,0l0,0l0,0l0,0h0l-0.1,0
	c0,0-0.1,0-0.1,0l0,0l0,0l0,0c-0.1,0-0.1,0-0.2,0l-0.1,0l0,0l0,0l-0.1,0l-0.1,0c-0.1,0-0.1,0-0.2,0c0,0-0.1,0-0.1,0l0,0l-0.1,0l0,0
	h0l0,0l0,0l0,0l0,0l0,0l0,0h0l0,0c0,0-0.1,0-0.1,0l0,0c0,0-0.1,0-0.1,0l0,0l0,0l0,0h0c0,0,0.1,0,0.1,0l0,0l0,0c0,0-0.1,0-0.1,0l0,0
	l0,0l0,0c0,0-0.1,0-0.1,0.1c0,0-0.1,0-0.1,0l0,0l-0.1,0h0c0,0-0.1,0-0.1,0l-0.1,0c0,0,0,0-0.1,0c0,0-0.1,0-0.1,0l0,0c0,0,0,0-0.1,0
	l-0.1,0l0,0c0,0,0,0-0.1,0l-0.1,0c-0.1,0-0.1,0-0.2,0l0,0l0,0l0,0l0,0l0,0l0,0l0,0l0,0l-0.1,0c-0.2,0.1-0.2,0.1-0.2,0.1l0,0l0,0
	c0,0,0.1,0,0.1,0l0,0l0,0l0,0l0.1,0c0,0,0,0,0,0l0.1,0l0,0c0,0,0.1,0,0.1,0l0,0c0,0,0,0,0,0l0,0c0,0-0.1,0-0.1,0.1l0,0l0,0
	c0,0-0.1,0-0.1,0h0l0,0l0,0h0l0,0l0,0h0h0h0h0h0l0,0h0l0,0c0,0,0,0,0,0c0,0-0.1,0-0.1,0h0l-0.1,0l0,0l-0.1,0c0,0-0.1,0-0.1,0
	c-0.1,0-0.1,0-0.1,0.1l0,0c0,0,0.1,0,0.1,0.1l0,0l-0.1,0l0,0l0,0l0,0l0,0l0,0l0,0l0,0l0,0l0,0l0,0l0,0l0,0l0,0l0.1,0h0l0,0l0,0l0,0
	l0.1-0.1c0,0,0,0,0,0c0,0,0.1,0,0.1,0l0,0l0,0l0,0l0,0l0,0h0.1l0,0c0,0,0.1,0,0.1,0l0,0l0,0l0,0l0,0h0h0h0h0l0,0h0l0,0l0,0h0l0,0h0
	l0,0h0l0,0h0l0,0l0,0l0.1,0l0,0l0,0h0.1l0.1,0h0l0,0l0,0l0,0l0,0c0,0,0.1,0,0.1,0l0,0l0,0l0,0l0.1,0l0,0h0v0l0,0c0,0,0,0,0,0l0,0
	c0,0-0.1,0.1-0.1,0.2v0l0,0l0,0h0l0,0l0,0l0,0l0,0.1l0,0l0,0.1l0,0l0,0l0,0l0,0.1l0,0.1l0,0l0,0.1l0,0c0,0-0.1,0,0,0.1
	c0,0,0,0.1-0.1,0.1c-0.1,0.1-0.1,0.1-0.1,0.1c0,0,0.1,0,0.1,0c0,0,0,0.1-0.1,0.1c0,0-0.1,0-0.1,0c0,0.1-0.1,0.1-0.1,0.2
	c0,0-0.1,0-0.1,0c0,0,0,0.1-0.1,0.1l0,0.1c0,0,0.1,0,0.1,0c0,0,0,0,0.1,0l0,0c0.1,0,0.2,0,0.3,0c0-0.1,0-0.1,0.3-0.1
	c0,0.1-0.1,0.2,0.1,0.2h0h0h0h0h0h0h0h0c0.1,0,0.1,0.1,0.2,0.1l0,0l0,0c0,0-0.1,0-0.1,0L54,25h-0.1h0c-0.1,0-0.2,0-0.2-0.1
	c-0.4,0-0.4,0-0.4,0.1l0.1,0.1c-0.1,0.1-0.3,0.1-0.4,0.2l0,0c0.2,0,0.2,0,0.3,0.2l0.1,0c0.2-0.1,0.2-0.1,0.4-0.1
	c0-0.1,0-0.1,0.1-0.2c-0.1,0-0.1,0-0.2,0l0,0c0,0-0.1,0-0.1,0l0.1-0.1c0,0,0.1,0,0.2,0c0.1,0.1,0.1,0.1,0.2,0.1h0.2c0,0,0.1,0,0.1,0
	l0,0.1l0,0c-0.1,0-0.1,0.1-0.2,0.1c0,0,0,0,0,0.1c0.1,0.1,0.1,0.1,0.1,0.1c0,0.1,0,0.1-0.1,0.2c-0.1,0-0.1,0-0.2,0
	c-0.1,0-0.1,0.1-0.2,0.1h0c0,0,0,0-0.1,0c0,0-0.1,0-0.1,0c0,0.1-0.1,0.2-0.1,0.3c0,0-0.1,0-0.1,0c-0.3,0.2-0.3,0.2-0.3,0.2
	c0,0,0,0,0,0.1c0,0,0,0.1,0,0.1c0.2,0,0.2,0.1,0.2,0.1c0,0.2-0.2,0.1-0.2,0.3l0,0.1c0,0,0,0.1,0.1,0.2c0.1,0,0.2-0.1,0.4-0.1
	c0,0,0,0,0.1,0l0,0c0,0,0,0.1,0,0.1c0,0,0,0-0.1,0l0,0C53,27.7,53,27.7,53,27.8c0.2,0,0.3-0.2,0.5-0.2c0,0.1,0,0.2-0.1,0.3
	c-0.1,0.1-0.2,0.1-0.3,0.1c-0.1,0,0.4,1,0.4,1c0.3,0.5,0.6,0.7,0.8,0.7c0,0,0.1,0,0.1,0c0.1,0,0.1,0,0.2,0l0.1,0c0.1,0,0.1,0,0.2,0
	c0,0.3,0.3,0.3,0.5,0.4c0.1,0.1,0.7,0.1,0.7-0.2c0,0,0-0.1,0-0.1c0-0.3,0.6-0.7,0.2-1c0,0-0.2-0.2,0.1-0.2c0,0,0.1,0,0.1,0
	c0.1,0,0.1,0,0.2,0c0.1-0.2,0.1-0.2,0.3-0.4c0-0.1,0-0.2,0-0.4l0,0c0-0.2-0.1-0.2-0.1-0.3l0-0.1c0.1-0.1,0.3,0,0.4-0.1
	c0.1-0.1,0-0.1,0-0.2c0.1,0,0.3,0,0.4,0c0-0.1,0-0.1,0-0.2c0.1,0,0.2,0,0.2,0c0,0.2,0,0.2,0,0.2c0.2,0,0.4-0.2,0.6-0.3
	c0,0,0,0,0.1,0c0.1,0,0.1,0,0.3,0l0-0.1c0.1-0.1,0.2-0.2,0.3-0.3c0.1,0,0.1,0,0.1-0.2c0,0,0.1,0,0.1,0c0,0,0,0,0-0.1
	c0.1-0.1,0.1-0.1,0.1-0.3v0l0,0l0.1,0l0,0l0,0l0,0l0,0l0,0l0,0c0.1,0,0.1,0,0.2,0c0.2,0,0.3,0.1,0.4,0.1c0.2,0,0.2-0.3,0.4-0.3
	c0.1,0,0.3-0.1,0.4-0.1c0.2,0,0.1-0.3,0.3-0.3c0.1,0,0.2,0,0.3,0c0.1,0,0.1,0,0.1-0.2l0,0l-0.1,0l-0.1,0.1l0,0.1l-0.1,0
	c0,0,0,0-0.1,0c-0.1,0-0.2-0.1-0.3-0.1c0,0,0,0-0.1,0c-0.4,0-0.4-0.1-0.5-0.2c0,0,0-0.1,0-0.1c0.4-0.1,0.4-0.1,0.5-0.1
	c0.2,0.1,0.2,0.3,0.4,0.3l0,0l0-0.1c0.1,0,0.2,0,0.3,0c-0.1-0.2-0.3-0.3-0.5-0.4c-0.1-0.1-0.4-0.2-0.4-0.4l0,0
	c0.2,0.1,0.2,0.1,0.2,0.1c0,0,0,0,0.1,0l0.1,0c0-0.1,0-0.1-0.1-0.2c0,0,0,0,0-0.1c0-0.1-0.2-0.2-0.3-0.1c-0.1,0-0.1,0-0.2,0l0.1-0.1
	c0,0,0,0-0.2-0.1l0,0c0.1,0,0.1,0,0.2,0c0,0,0,0.1,0.1,0.1c0.1,0,0.1,0,0.2,0l0,0h0.1c0,0,0,0,0.1,0c0.1,0,0.1,0,0.2,0
	c0-0.3-0.4-0.2-0.5-0.3l0,0c0.2,0,0.3,0,0.3,0l0-0.1l0.1,0l0.1,0c0,0,0.1,0,0.1,0c-0.2-0.1-0.4-0.2-0.5-0.3c0,0,0,0,0.1,0
	c0,0-0.1-0.1-0.1-0.1C60.9,23,60.9,23,60.9,23c0,0,0,0,0,0c-0.1-0.1-0.3,0-0.4-0.2l0,0c0,0,0,0,0.1-0.1c0,0,0,0,0.1,0
	c0,0,0.1,0,0.2,0.1c0,0,0,0,0,0c0,0.1,0,0.1,0.2,0.2l0,0c-0.1-0.1-0.2-0.2-0.3-0.3l0,0l0,0c-0.1,0-0.1,0-0.3,0c0,0,0,0-0.1,0l-0.1,0
	c0,0-0.1-0.1-0.1-0.1l0,0l0,0l0.1,0c-0.1,0-0.3-0.1-0.4-0.1l0,0.1c0,0-0.1,0-0.2-0.1l0,0c-0.1-0.1-0.1-0.1-0.2-0.1l0.1,0l0,0l0,0
	c0,0,0,0,0,0C59.6,22,59.6,22,59.6,22l0.1,0l0,0l0,0l-0.1,0c-0.1,0-0.1,0-0.2,0l0,0c0,0,0.1,0,0.1,0l0,0L59.3,21.7l0.1,0
	C59.3,21.7,59.3,21.7,59.3,21.7 M55.9,21.6c0,0,0.1,0,0.1,0L55.9,21.6L55.9,21.6L55.9,21.6l0.2,0L55.9,21.6L55.9,21.6l-0.1,0
	L55.9,21.6L55.9,21.6L55.9,21.6L55.9,21.6L55.9,21.6c-0.1,0-0.2,0-0.2,0l0.1,0l-0.1,0c0,0-0.1,0-0.1,0l0,0l-0.2,0c0,0-0.1,0-0.1,0
	l0,0l0.1,0c-0.1,0-0.3,0-0.4,0l-0.2,0l0.1,0c-0.1,0-0.2,0-0.3,0c0,0,0.1,0,0.1,0l0,0c0.1,0,0.1,0,0.2,0l-0.1,0l0.1,0l-0.1,0
	c-0.1,0-0.2,0-0.3,0l0,0l0.1,0l0,0c-0.1,0-0.2,0-0.3,0l0,0h0l-0.2,0l0,0l-0.2,0l0,0l0,0l-0.3,0c-0.1,0-0.1,0-0.2,0l0,0l0,0l0.3,0
	l0.2,0l0.1,0l-0.2,0l-0.3,0l-0.2,0c0.1,0,0.1,0,0.5-0.1l0,0c0,0,0.1,0,0.1,0l0.2,0l0.2,0c0.1,0,0.2,0,0.4,0l0,0l-0.1,0
	c-0.1,0-0.3,0-0.4,0.1l0.1,0l0,0l0,0l-0.2,0c0,0-0.1,0-0.1,0l-0.1,0l-0.1,0c-0.1,0-0.2,0-0.3,0l-0.1,0l-0.1,0c-0.1,0-0.1,0-0.2,0
	l0,0l-0.1,0l-0.2,0l0.1,0l-0.1,0l-0.1,0c0.2-0.1,0.2-0.1,0.2-0.1l0,0l-0.1,0l-0.2,0l-0.1,0L52.3,22l-0.2,0.1l0,0l0.1,0
	c-0.1,0-0.2,0-0.3,0.1c-0.1,0-0.1,0-0.2,0.1l0.2-0.1l0,0l-0.1,0l-0.1,0l-0.2,0c-0.1,0-0.1,0-0.2,0.1l-0.1,0.1l0,0c0,0,0.1,0,0.1,0
	l0.1,0L51,22.4l-0.2,0.1c0.1,0,0.1,0,0.5-0.1l-0.3,0.1l-0.3,0.1l-0.1,0l0-0.1l0-0.1c0,0-0.1,0-0.1,0c-0.5,0.2-0.5,0.2-0.7,0.2
	l-0.3,0.1l-0.2,0.1l0,0.1c0.1,0,0.2,0,0.3-0.1c0,0,0,0,0.4,0l0,0c0.1,0,0.1,0,0.2,0c0,0,0.1,0,0.1,0c-0.1,0.1-0.1,0.1-0.2,0.1
	c0,0,0.1,0,0.2,0c0,0,0.1,0,0.1,0c0.5-0.1,0.5-0.1,0.6-0.2l0.1-0.1L51,22.7l0.2-0.1l0.2,0l0.3-0.1l0.2-0.1l0.1,0
	c0.2,0,0.4-0.1,0.6-0.2c0,0,0.1,0,0.1,0c0,0,0.1,0,0.2-0.1l0,0h0l-0.2,0l-0.2,0l0.1-0.1c0.1,0,0.3-0.1,0.4-0.1l0.1,0l-0.1,0
	c0.1,0,0.1,0,0.4-0.1l0.1-0.1l0.1,0l-0.1,0l0.1,0l0.2,0l0.2-0.1l0,0c0,0,0.1,0,0.1,0l0.1,0l0.2,0l0.1,0c0.2,0,0.4-0.1,0.6-0.1l0.1,0
	l0.1,0l0.1,0c-0.1,0-0.1,0-0.3,0l0.1,0l0.1,0h0.1c0,0,0.1,0,0.1,0c0.1,0,0.2,0,0.3,0C55.8,21.6,55.8,21.6,55.9,21.6 M51.9,22.1
	c0.1,0,0.2-0.1,0.3-0.1c0,0,0,0,0.1,0l0.2,0c0,0,0.1,0,0.2,0l0.1,0c-0.1,0-0.1,0-0.2,0c0,0,0.3-0.1,0.5-0.1c0.1,0,0.2,0,0.4-0.1
	c-0.1,0-0.2,0-0.3,0l0,0c-0.2,0-0.2,0-0.2,0l-0.1,0c-0.1,0-0.3,0.1-0.4,0.1l0,0l-0.1,0l-0.3,0.1l-0.2,0c-0.1,0-0.2,0-0.3,0.1l0,0
	c-0.1,0-0.2,0-0.3,0.1l-0.1,0l0.1,0l0.1,0l0.1,0c-0.2,0.1-0.2,0.1-0.4,0.1l-0.1,0l-0.2,0l-0.1,0l-0.3,0.1l0,0l0.2,0l0,0l0.2-0.1l0,0
	c0,0,0,0,0.2-0.1l0.2-0.1l0,0c0.2-0.1,0.2-0.1,0.3-0.1l0,0C51.7,22.2,51.7,22.2,51.9,22.1 M49.8,22.7c0.1,0,0.4-0.1,0.5-0.2l-0.2,0
	L49.8,22.7L49.8,22.7 M49.7,23.3L49.7,23.3l0.2-0.1l-0.1-0.1l-0.1,0l-0.3,0.1l-0.4,0.1l-0.2,0l-0.1,0l-0.2,0l0.2-0.1l0.3-0.1
	l0.2-0.1c0,0-0.1,0-0.1,0c-0.1,0-0.3,0-0.8,0.3L48,23.3l-0.2,0.1l-0.1,0.1l0.2,0c0.1,0,0.2-0.1,0.2-0.1c0,0-0.1,0.1-0.1,0.1l0,0
	c0,0,0,0,0.2,0c0.1,0,0.2,0,0.3,0l0.2,0l0.2-0.1l-0.1,0.1c0.5,0,0.5,0,0.6-0.1C49.5,23.4,49.6,23.3,49.7,23.3 M46.7,23.6
	C46.7,23.6,46.7,23.6,46.7,23.6l0.2-0.1L46.7,23.6 M47.5,23.5l0.3-0.1l0.1-0.1l0.2-0.1l-0.1,0l-0.3,0.1l-0.2,0.1l-0.2,0.1
	c0,0,0.1,0,0.1,0l0,0.1L47.5,23.5 M48.6,23l0.3-0.1l0.2-0.1l0.2-0.1c0,0-0.1,0-0.1,0l0,0l-0.2,0l-0.3,0.1L48.6,23L48.6,23L48.6,23
	 M49.8,22.6c0.1,0,0.1,0,0.2-0.1C50,22.5,50,22.5,49.8,22.6C49.9,22.5,49.9,22.5,49.8,22.6l-0.3,0c-0.1,0-0.1,0-0.2,0.1l0.1,0l0.1,0
	L49.8,22.6 M50.1,22.4l0.2-0.1l0.2-0.1l-0.1,0l0.2-0.1l-0.2,0L50.1,22.4l-0.3,0l0,0l0.1,0L50.1,22.4L50.1,22.4z M51.3,22.1l0.2,0
	l0.3-0.1l0.1,0l0,0c-0.1,0-0.2,0-0.3,0.1l0,0L51.3,22.1 M49.4,22.5l0.2-0.1l0.3-0.1l0.1,0l0.3-0.1l0.1,0l0.1,0l-0.1,0l0.2,0l0.1,0
	l-0.1,0l-0.2,0l-0.2,0.1l0.1,0l-0.1,0l-0.3,0.1l-0.1,0l-0.2,0.1l0.1,0L49.4,22.5l0.2-0.1l0,0l0,0L49.4,22.5L49.4,22.5 M49,22.6
	l0.1,0l0.2-0.1l-0.1,0L49,22.6L49,22.6L49,22.6z M48.1,23c0,0,0.3-0.1,0.3-0.1C48.4,22.9,48.4,22.9,48.1,23l0.2-0.2l-0.1,0
	c-0.5,0.2-0.6,0.2-0.6,0.2l0,0l0,0L48.1,23L48,22.9L47.7,23l-0.3,0.1l0.2-0.1l0.4-0.2l0.1-0.1L47.7,23c-0.2,0.1-0.3,0.2-0.5,0.2
	l0,0.1l0.2,0l0.1,0l-0.2,0.1l-0.4,0.2l0.2-0.1l0.1,0l0.1,0l0.2-0.1c0.1,0,0.2-0.1,0.4-0.1C48,23.1,48.1,23.1,48.1,23 M46.7,23.4
	c0.1,0,0.1-0.1,0.1-0.1l0,0C46.8,23.3,46.7,23.3,46.7,23.4l-0.3,0.1C46.5,23.4,46.5,23.4,46.7,23.4 M48.3,22.8l0.2,0l0.4-0.1
	l0.2-0.1C48.7,22.6,48.5,22.7,48.3,22.8 M46.6,26.5l0.3-0.2l0.1-0.2c-0.4,0-0.4,0-0.4,0c0,0-0.1,0.1-0.4,0.2l-0.1,0.2l0.2,0
	L46.6,26.5 M46.8,24c0.4-0.2,0.4-0.2,0.4-0.2l0,0c0,0-0.1,0-0.1,0l0-0.1c-0.2,0-0.2,0-0.3,0c-0.4,0.2-0.4,0.2-0.5,0.2
	c-0.2,0.1-0.3,0.2-0.5,0.3c-0.2,0.1-0.3,0.2-0.5,0.3l0.2,0l0.3-0.1l0.3-0.2l0.1,0l0.3-0.1L46.8,24 M44.8,24.7l0.4-0.2l0.2-0.1
	l0.2-0.1l0.1-0.1C46,24,46,24,46.2,23.8l0.1-0.1l-0.1,0L46,23.9l0,0l0,0l-0.2,0L45.5,24l-0.2,0.1c-0.4,0.2-0.4,0.2-0.5,0.2
	c0,0,0,0,0.1-0.1l-0.1,0l-0.3,0.1l-0.1,0.1l-0.1,0.1l0,0c-0.3,0.2-0.3,0.2-0.3,0.3c0,0,0.1,0,0.4-0.1L44.8,24.7 M44.8,24.2l0.4-0.2
	l0.1-0.1l-0.1,0c-0.1,0-0.2,0.1-0.3,0.1L44.8,24.2c0-0.1,0,0-0.2,0.1L44.8,24.2 M44.8,24.1L45,24l-0.1,0L44.8,24.1L44.8,24.1
	L44.8,24.1z M49.3,22.4c0.2,0,0.2,0,0.4-0.1l-0.1,0l-0.2,0L49,22.4l0.1,0l0.1,0C49.2,22.4,49.2,22.4,49.3,22.4L49.3,22.4 M48.7,22.6
	l0.3-0.1l0,0l-0.1,0L48.7,22.6l-0.3,0L48,22.7l0,0l0.1,0l0.1,0l0.2-0.1L48.7,22.6L48.7,22.6 M48.3,22.6L48.3,22.6l0.3-0.1l0.1,0
	l-0.1,0l-0.2,0.1L48.3,22.6L48.3,22.6z M46.5,23.4l0.5-0.2l0.1-0.1l-0.1,0l-0.2,0.1l0.1,0l0.2-0.1c0.1,0,0.2-0.1,0.2-0.1l0.3-0.1
	l-0.1,0l-0.2,0.1l-0.1,0L47.2,23c-0.1,0.1-0.1,0.1-0.5,0.2l0,0c-0.2,0.1-0.2,0.1-0.3,0.1c0,0-0.1,0-0.1,0l0.1-0.1l0.3-0.1l0.1,0
	l-0.1,0l0.1-0.1l0,0l-0.2,0.1l-0.4,0.1L46,23.3l-0.3,0.1l-0.3,0.1l0.1,0l0,0l0.1,0l0.2-0.1l0,0l0.1,0c-0.1,0-0.2,0.1-0.2,0.1l-0.1,0
	l-0.2,0.1l-0.2,0.1l-0.1,0c0,0,0.1,0,0.1,0l0.3-0.1l0.4-0.1l0.1,0c0,0,0.1,0,0.1,0c0,0,0.1,0,0.1,0L46.5,23.4 M47.3,22.9L47.3,22.9
	l0.3-0.1c-0.1,0-0.1,0-0.1,0l0,0L47.3,22.9 M45.7,23.4l0.5-0.2l-0.2,0.1L45.7,23.4L45.7,23.4L45.7,23.4z M47.6,22.8l0.4-0.1l0.1,0
	l-0.3,0.1L47.6,22.8c0,0-1,0.3-1,0.3l0,0l-0.2,0.1L46,23.2l-0.1,0.1l0.3-0.1L46,23.3l0.2-0.1l0.2-0.1l0.1,0l0.3-0.1L47,23l-0.3,0.1
	l0.1,0L47,23L47.6,22.8 M42.7,25.6l0.2-0.1l0.1-0.1l0-0.1l0.2-0.2l0.4-0.2l0.1-0.1l0.5-0.3l0.3-0.2l0.1-0.1c0,0-0.1,0-0.1,0
	c-0.1,0.1-0.3,0.1-0.4,0.2l-0.3,0.1l-0.3,0.2l-0.2,0.1l0,0l0.1-0.1l0.3-0.1l0.2-0.1l0.3-0.2l-0.1,0l-0.2,0.1l-0.2,0.1
	c0,0-0.1,0-0.1,0l-0.2,0.1l-0.1,0l0.2-0.1l0.3-0.1l0,0l0-0.1l-0.1,0l-0.3,0.1l0,0l0.2-0.1l0.3-0.2l0,0l-0.1,0l-0.3,0.1l-0.2,0.1
	l-0.2,0.1L43,24.5l-0.3,0.2l-0.3,0.1l-0.2,0.1l0.1,0L42,25l0.2-0.1l0.1,0L42.2,25L42,25.1l-0.2,0.1l-0.2,0.1l-0.1,0.1
	c0,0,0.1,0,0.1,0l0.2,0c0,0,0.1,0,0.1,0c-0.1,0.1-0.1,0.1-0.3,0.2l-0.2,0c-0.1,0-0.1,0-0.2,0l-0.3,0.1l-0.4,0.3l0.1,0
	c0,0,0.1,0,0.1,0l-0.4,0.3l-0.1,0.1c0.1,0,0.1,0,0.2,0l0.2,0l0.3-0.1l0.2-0.1l0.3-0.1l0.2-0.1l-0.1,0.1l0.1,0L41.6,26l0.1,0l0.2,0
	l0.3-0.2l0.1-0.1l0.1,0L42.7,25.6 M41.1,26.2l0.3-0.2L41.1,26.2l-0.5,0.1l0.1,0l0.3-0.1L41.1,26.2L41.1,26.2z M43.7,24.2l0.3-0.1
	l0.3-0.1l0.3-0.2l0,0l-0.3,0.1l0.1-0.1l0.1-0.1l0,0l-0.2,0c-0.1,0-0.2,0.1-0.3,0.1l-0.5,0.2l-0.7,0.3l-1,0.4L41.8,25l-0.6,0.3
	l0.4-0.2l0.1,0l0.3-0.1c0.5-0.2,1.2-0.5,1.2-0.5L43.7,24.2 M49.7,34.6l0.2-0.2l-0.2-0.2l0.2-0.2l0.1-0.4l-0.5-0.1l0-0.2
	c-0.2,0-0.3,0-0.5,0l-0.5,0.2l-0.3,0.2L48,33.8l0.2-0.3l0.5-0.2l0.6-0.1l0.3-0.2l-0.4,0l-0.3-0.2l-0.4-0.1l-0.2-0.2L48,32.2L48,32
	l0.2,0l0.1-0.2l-0.2-0.4L48,31l-0.2-0.7l0-0.3l-0.5,0.4c-0.1,0.1-0.1,0.2-0.2,0.4l-0.4,0.1l-0.3,0.3l-0.3,0l0-0.2l-0.1-0.2l-0.4,0.1
	l0.3-0.4c0.1-0.2,0.2-0.3,0.3-0.5l0.1-0.3l-0.4,0l-0.2-0.2l-0.1-0.3l-0.3-0.3L45,29l-0.4,0l-0.1-0.1c-0.1,0-0.3,0-0.4,0l-0.3,0.2
	l0,0.3l-0.3,0.4L43.3,30l-0.1,0.3c-0.1,0-0.2,0-0.2,0l-0.2,0.3l-0.3,0.2l0.1,0.2l0.2,0.2l-0.2,0.5c-0.1,0.2-0.2,0.3-0.3,0.5L42,32.7
	L41.5,33L41,33l0,0.5c-0.1,0.2-0.2,0.4-0.3,0.6l0,0.3l-0.2,0.3l-0.4,0.4l-0.5,0.1l0-0.5l-0.1-0.4c0.1-0.1,0.1-0.2,0.2-0.4l0.2-0.5
	l0.3-0.4l-0.5-0.1l-0.4,0l-0.1-0.1l-0.4-0.1l0-0.2l-0.2-0.3l-0.2-0.3L37.8,32l0.1-0.3l0.2-0.6L38.1,31l0-0.2l0.6-0.7l0.7-0.5
	l0.6-0.5l0.4-0.2l0.4-0.2l0.1-0.2l-0.2-0.1l-0.2-0.2l0.3,0.1l0.2,0.1l0.2-0.1l0.3-0.3l0.2,0.1l0.2-0.1l0.2-0.2l0.2-0.1l0.3-0.3
	l-0.2,0l-0.2,0l0.1-0.1l-0.1-0.1l0.2,0l0.2,0.1l0.1,0.1l0.3-0.1l0.4-0.2l0-0.2c0.1,0,0.1,0,0.2,0l0,0.2l-0.3,0.2l-0.4,0.4
	c-0.1,0.1-0.3,0.3-0.4,0.4l-0.3,0.1l-0.1,0.2l0.2,0c-0.1,0.1-0.1,0.1,0,0.2c0.1,0,0.1,0,0.2-0.1l0.3-0.2l0.3,0l0.2,0l0.1,0.1
	c0.1,0,0.2,0,0.3,0l0.2-0.3l-0.2-0.1l0.1-0.3l-0.3,0l0-0.2l-0.2-0.1c0.1-0.1,0.1-0.1,0.2-0.2l0.2,0l0.2-0.1l0.1-0.1
	c0.1,0,0.2,0,0.2,0l0.3-0.2l0.4-0.2l0.2-0.2l0.1-0.2l0.2-0.3l0.2,0l0.3-0.2l0.1-0.2L46,25.5l-0.1-0.2c0.1,0,0.2,0,0.3,0l0.2-0.1
	l0.2,0l0,0.1l0.3,0l0.3-0.1l0-0.2l0.2,0l-0.1,0.2l0.2,0l-0.1,0.2l0.1,0l-0.1,0.2l0.1,0.1L47.4,26l0.2,0.1l0,0.2l-0.2,0.3l-0.5,0.3
	l-0.5,0.3l-0.1,0.3l-0.5,0.1l-0.2-0.1c-0.1,0-0.2,0-0.2,0l-0.5,0.2c-0.1,0.1-0.1,0.2-0.2,0.3L45,28l0.3,0l0.2-0.1l0.2-0.1l0.2,0
	l0.3,0.1l0.1,0.4l-0.1,0.2l0.1,0.3c0.1,0,0.2,0,0.3,0l0.2,0.3l0.5,0l0.3,0.2l0.1-0.2l-0.3-0.4l-0.1-0.2l0-0.2l0.3,0.2l0.5,0.3
	l0.2,0.2c0.1-0.1,0.1-0.2,0.2-0.3l0.3-0.3l-0.2-0.2l0.2-0.4l-0.3-0.1l-0.1-0.5l0.2-0.1l0.2-0.1l0.3,0.5l0.1,0.3l0.3,0l0.3-0.3
	l0.4-0.1L50,27c0.1,0,0.2,0,0.2,0l0.2-0.2l0.1-0.2c-0.1,0-0.3,0-0.4,0c0,0,0-0.1,0.1-0.1L50,26.3l-0.2,0l-0.2-0.1
	c-0.1,0-0.1,0-0.2,0l0.1-0.2l0-0.1c-0.1,0-0.2,0-0.3,0l-0.1,0c0.1-0.1,0.1-0.2,0.2-0.2c0.1,0,0.2,0,0.2,0l0.2-0.1l-0.2-0.1l0.1-0.1
	l0.2,0l0-0.2l-0.2-0.1l0.2-0.1l-0.1-0.1l-0.3,0l0.1-0.1l-0.2,0l-0.1,0l0.3-0.1l-0.1-0.1l-0.4,0.1l0-0.2l0.1-0.1l-0.1,0l0.1-0.1
	l-0.1-0.1c-0.1,0-0.2,0-0.3,0l-0.2,0.1l-0.2,0l-0.1,0l-0.2,0.1l-0.2,0l0.2-0.2l0.3-0.1l0.1-0.2l0.2-0.2c-0.1,0-0.2,0-0.3,0L48,23.9
	l-0.2,0L47.6,24l-0.3,0.2l-0.2,0.2l-0.3,0.1l-0.2,0.2l-0.2,0l0.1-0.2l0.4-0.3l0.3-0.2l0.4-0.2l0.4-0.1c-0.1,0-0.1,0-0.2,0l-0.3,0
	L47,24l-0.6,0.3l-0.7,0.4l0.1,0l0.1,0L45.8,25l-0.1,0L45.4,25l-0.1,0.2c0.1,0,0.1,0,0.2,0l0.2-0.1l0,0.1l0.1,0.1l-0.3,0.1l-0.2,0.2
	l0,0.1l-0.7,0.4l-0.4,0.3l-0.4,0.2l0-0.1l0.3-0.3l0.3-0.2l0.1-0.3L44,26l0.3-0.4l0-0.1l0.3-0.2l0.3-0.2l-0.1,0l0.3-0.2l0.1-0.2
	l-0.2,0l-0.2,0.1l-0.1,0L44.2,25L44,25.2l-0.2,0.1l-0.2,0.2l0,0.1l-0.3,0.2l-0.1,0L42.9,26l0.2,0l0.4-0.2c-0.1,0.1-0.2,0.2-0.3,0.3
	l-0.7,0.3L42,26.8l0-0.2l0.4-0.3c0,0-0.1,0-0.1,0l0.3-0.2c0,0,0.1,0,0.1,0l0.4-0.3l0-0.2l-0.4,0.2l-0.3,0.1l-0.1,0.3l-0.3,0.2
	l-0.3,0.2l-0.5,0.1l0-0.1l-0.1,0l0.1-0.2l-0.4,0.2l-0.5,0.2l-0.3,0.2l-0.6,0.4l0.5-0.5l0.1-0.2l-0.3,0.1l-0.3,0l0.2-0.1l0.3-0.1
	l0.2-0.2l-0.1,0l0.1-0.2l0.2-0.2l0,0l-0.1,0L40,25.9L39.9,26l0.6-0.3L39.9,26l0,0l0.7-0.4l0.1-0.1l-0.5,0.3l-0.3,0.2L39.7,26
	l-0.3,0.1L39,26.3l0.5-0.3l0.2-0.1l0.2-0.1l0.3-0.1l0,0l-0.3,0.1L39.6,26l0,0l0,0c-1,0.6-2.2,1.4-3.2,2c-1.5,1.1-1.5,1.1-4.2,3.5
	L31.7,32l0.1-0.1l-0.2,0.2l-0.3,0.3l-0.1,0.1l-0.3,0.3l-0.1,0.2l-0.2,0.3l-0.1,0.1l0,0l-0.3,0.3l-0.2,0.3l-0.3,0.4l-0.3,0.3l0,0
	L29.3,35l-0.2,0.4l-0.2,0.3l-0.1,0.2l0,0.1l0,0.1l-0.1,0.2l-0.1,0.3l-0.1,0.2l-0.3,0.6c-0.1,0.2-0.2,0.3-0.3,0.5l0.1-0.3l0.2-0.4
	l0.1-0.2l0.1-0.2v-0.1l0.2-0.4l-0.1,0l0.1-0.2l0-0.1v-0.1l-0.1,0.1l-0.2,0.3l-0.1,0.2l-0.1,0.2l-0.1,0.4l-0.2,0.4l-0.3,0.6l-0.3,0.5
	l-0.4,0.6c-0.1,0.2-0.3,0.5-0.4,0.7l-0.1,0.2c-0.1,0.2-0.2,0.3-0.2,0.5L26,41.2l-0.2,0.5l-0.2,0.4l-0.1,0.3L25.3,43l-0.1,0.4l0,0.3
	L25,44.4l0,0.3l-0.1,0.4l0,0.4c0.1,0,0.1,0,0.1,0l0,0.3l0.1,0.2l0,0.4L25,46.8l0,0.5l-0.1,0.8l0.1,0.3l0.1,0.4l0,0.3l-0.2,0.3l0,0.3
	L25,50l0.2,0.3l0.1,0.4L25.1,51l0,0.3l0.2,0.2l0.1,0.3l0.1,0.3l0,0.4l0.1-0.1l0.1-0.4l0-0.4l-0.1-0.2l0-0.4l-0.1-0.3v-0.5l0-0.5
	l-0.1-0.3l0-0.5l-0.1-0.1l0-0.6l-0.1-0.5l0.1-0.6l0.1,0l0.1,0.2l0,0.3l-0.1,0.5l0.1,0.7l0.1,0.6l0.1,0.4l0.1,0.4l0,0.5l0.2,0.3
	l0.1,0.4l0.1,0.5l0.2,0.6l0.1,0.6l0.1,0.3l-0.2,0.2l-0.1,0.4l0.3,0.5l0.3,0.4l0.4,0.2l0.4,0.4l0.5,0.3l0.5,0.4l0.4,0.2l0.3,0
	l0.1-0.2l0.3-0.1l0.4,0.3l0.4,0.5l0.2,0.4c0.1,0,0.2,0,0.4,0c0,0,0.1,0,0.1,0l0.2,0.1l0.2,0.4l0.5,0.2l0-0.3l0.3,0.2
	c0.8,1.4,0.8,1.4,0.8,1.7l0.2,0.2l0.2-0.1l0.3,0.2c0.6,0.6,0.6,0.6,0.8,0.6l0.7,0.4l0.4,0.2l-0.1-0.5l0.2-0.3l0.7,0l0.1,0.3l0.2,0
	l0.1-0.4l-0.3-0.4c-0.2,0-0.5,0-0.7,0l-0.4,0l-0.6,0l-0.3-0.3l-0.4-0.6l0-0.5c0-0.2,0-0.4,0-0.6l0.1-0.8c0-0.2,0-0.3,0-0.5l-0.2-0.4
	l-0.4-0.3l-0.6,0.1l-0.4-0.1l-0.4,0.3l-0.3-0.3l0.3-0.3c0-0.1,0-0.2,0-0.2c0-0.1,0-0.2,0-0.3l0.1-0.3l0.2-0.5c0-0.2,0-0.4,0-0.6
	l0.3-0.2l0.1-0.5l-0.2-0.2l-0.6,0.1l-0.4,0.1l-0.2,0.4l-0.2,0.6l-0.2,0.6l-0.3,0.1l-0.4,0.2L30,54.8l-0.2-0.4l-0.4-0.3l-0.1-0.5
	L29.2,53L29.1,52l0-0.8l0.2-0.6l0.2-0.7l-0.1-0.7l0.4-0.7l0.3,0l0.3-0.4l0.3-0.4l0.4,0.1l0.3,0.1l0.3-0.2l0.1,0.4c0.1,0,0.2,0,0.3,0
	l0.3,0l0-0.3l0.2-0.5l0.4,0l0.3-0.1l0.6,0.1l0.2,0.4c0.1,0,0.1,0,0.2,0l0.2-0.2l0.2-0.1l0.2,0.3l0.2,0.4c0,0.2,0,0.3-0.1,0.5
	l0.1,0.3l0,0.3l0.2,0.2l0.1,0.3l0.2,0.2l0,0.4l0.2,0.1l0.2-0.3l0.2-0.4L36,49.3l0-0.7l-0.2-0.6c0-0.3,0.1-0.6,0.2-1
	c0.1-0.1,0.1-0.3,0.2-0.5l0.4-0.6l0.4-0.2l0.5-0.5l0.5-0.4l0.4-0.2l0.1-0.4l0.4-0.2l-0.2-0.6l-0.1-0.3l0.2-0.3l-0.1-0.3l0.4-0.2
	l0.2,0.4l0.3-0.4l0.3-0.4l0.3-0.2l0.4-0.8c0.2,0,0.4,0,0.6,0l0.5-0.3l0.5-0.1l0-0.3l0.1-0.6l0.4-0.5c0.1,0,0.2,0,0.4,0l0.2-0.3
	l0.5,0l0.5-0.3l0.4-0.4c0.8,0,0.8,0,1.1,0.1c-0.1,0-0.1,0.1-0.2,0.1c-0.2,0-0.4,0-0.7,0c-0.4,0.3-0.4,0.3-0.4,0.6l0.2,0.1l0.3-0.3
	L45,39l0.4-0.1l0.5-0.2l0.5-0.1l0.4-0.4l0.4-0.3l0.1-0.3l-0.5,0.1l-0.4,0.5l-0.5,0l-0.4-0.2l-0.4-0.4l-0.1-0.6l0.5-0.3l0.1-0.5
	l-0.6,0l-0.7,0.2l-0.8,0.4l-0.8,0.7l-0.6,0.4l0.3-0.4l0.4-0.4l0.3-0.2l-0.5-0.1c0.2,0,0.4,0,0.6,0l0.3-0.3L44,36l0.4,0l0.3-0.4
	l0.4-0.1c0.2,0,0.4,0,0.6,0l1,0l0.5,0.1l0.4,0l0.5-0.3l0.5-0.4l0.7-0.1L49.7,34.6"/>
<path fill="#6B7384" d="M57.3,22.1c8.9,0,17.3,3.4,23.8,9.6c6.5,6.3,10.2,14.8,10.4,23.9c0.1,9.1-3.3,17.7-9.6,24.3
	c-3.3,3.4-7.1,6-11.4,7.8c-4.2,1.7-8.6,2.6-13.1,2.6c-8.9,0-17.4-3.4-23.8-9.6C27,74.3,23.3,65.8,23.1,56.7
	C23,47.6,26.4,39,32.7,32.5c3.3-3.4,7.1-6,11.4-7.8C48.3,23,52.8,22.1,57.3,22.1L57.3,22.1 M57.3,17.7c-10.1,0-20.1,3.9-27.7,11.7
	C14.8,44.7,15.2,69,30.5,83.8C38,91,47.6,94.6,57.3,94.6c10.1,0,20.1-3.9,27.7-11.7c14.8-15.2,14.4-39.6-0.9-54.4
	C76.6,21.3,66.9,17.7,57.3,17.7L57.3,17.7z"/>
<circle fill="#0C8FD0" cx="73.3" cy="34.2" r="2.5"/>
<circle fill="#0C8FD0" cx="34.7" cy="39.5" r="2.5"/>
<circle fill="#0C8FD0" cx="51.6" cy="68.7" r="2.5"/>
<circle fill="#0C8FD0" cx="78.1" cy="48.9" r="2.5"/>
<path fill="#6B9C22" d="M38.8,38.5L37.3,37c0,0,0.8-0.8,2.1-1.9l1.4,1.7C39.5,37.7,38.8,38.5,38.8,38.5z M42.9,35.1l-1.3-1.8
	c0.8-0.6,1.5-1.1,2.3-1.6l1.2,1.8C44.3,34.1,43.6,34.6,42.9,35.1z M69.8,33.3c-0.5-0.3-1.3-0.7-2.4-1.1l0.8-2c1.1,0.5,2,0.9,2.5,1.2
	L69.8,33.3z M47.3,32.3l-1-1.9c0.9-0.5,1.7-0.9,2.6-1.2l0.8,2C48.9,31.5,48.1,31.9,47.3,32.3z M64.9,31.3c-0.8-0.3-1.7-0.5-2.5-0.7
	l0.5-2.1c0.9,0.2,1.8,0.5,2.7,0.8L64.9,31.3z M52.1,30.3l-0.6-2.1c0.8-0.2,1.7-0.4,2.5-0.5c0.1,0,0.2,0,0.4,0l0.2,2.2
	c-0.1,0-0.2,0-0.3,0C53.6,30,52.9,30.1,52.1,30.3z M59.8,30c-0.9-0.1-1.8-0.2-2.6-0.2l0.1-2.2c0.9,0,1.9,0.1,2.8,0.3L59.8,30z"/>
<path fill="#6B9C22" d="M75.4,47.2c0,0-0.6-0.6-1.5-1.4l1.4-1.7c2,1.7,2,1.8,2,2.3h-2.2h1.1L75.4,47.2z M71.8,44.1
	c-0.7-0.5-1.4-1-2.2-1.5l1.2-1.8c0.8,0.5,1.5,1,2.3,1.6L71.8,44.1z M67.4,41.2c-0.8-0.4-1.6-0.8-2.4-1.2l0.9-2
	c0.8,0.4,1.7,0.8,2.5,1.3L67.4,41.2z M39,39.6l-0.6-2.1c0,0,1-0.3,2.7-0.6l0.4,2.1C40,39.3,39,39.6,39,39.6z M62.6,39.2
	c-0.4-0.1-0.9-0.3-1.3-0.4c-0.4-0.1-0.8-0.2-1.2-0.3l0.4-2.1c0.4,0.1,0.9,0.2,1.3,0.3c0.5,0.1,1,0.3,1.5,0.4L62.6,39.2z M44.2,38.5
	l-0.3-2.1c0.9-0.1,1.8-0.3,2.7-0.4l0.2,2.2C46,38.3,45.1,38.4,44.2,38.5z M57.5,38.1c-0.8-0.1-1.7-0.2-2.6-0.2l0.1-2.2
	c1,0,1.9,0.1,2.8,0.2L57.5,38.1z M49.5,37.9l-0.1-2.2c0.9-0.1,1.9-0.1,2.8-0.1l0,2.2C51.3,37.8,50.4,37.9,49.5,37.9z"/>
<path fill="#6B9C22" d="M50.9,64.7c0-0.9-0.1-1.8-0.2-2.7l2.2-0.2c0.1,0.9,0.2,1.9,0.2,2.8L50.9,64.7z M50.4,59.5
	c-0.1-0.9-0.3-1.8-0.5-2.6l2.1-0.5c0.2,0.9,0.4,1.8,0.5,2.7L50.4,59.5z M49.2,54.3c-0.3-0.9-0.5-1.7-0.9-2.5l2-0.8
	c0.3,0.8,0.6,1.7,0.9,2.7L49.2,54.3z M47.3,49.4L47.3,49.4c-0.4-0.8-0.9-1.5-1.3-2.2l1.8-1.2c0.5,0.7,1,1.5,1.4,2.4l0,0.1L47.3,49.4
	z M44.3,45.2c-0.6-0.6-1.2-1.2-1.9-1.7l1.4-1.7c0.7,0.6,1.4,1.3,2.1,2L44.3,45.2z M40.3,42c-1.3-0.7-2.2-1-2.2-1l0.6-2.1
	c0,0,1.2,0.3,2.7,1.2L40.3,42z"/>
</svg>
