<?xml version="1.0" encoding="utf-8"?>
<!-- Generator: Adobe Illustrator 18.0.0, SVG Export Plug-In . SVG Version: 6.00 Build 0)  -->
<!DOCTYPE svg PUBLIC "-//W3C//DTD SVG 1.1//EN" "http://www.w3.org/Graphics/SVG/1.1/DTD/svg11.dtd">
<svg version="1.1" id="icon_x5F_tv-equipment" xmlns="http://www.w3.org/2000/svg" xmlns:xlink="http://www.w3.org/1999/xlink"
	 x="0px" y="0px" viewBox="0 0 114 114" enable-background="new 0 0 114 114" xml:space="preserve">
<g>
	<circle fill="#D1D6E6" cx="57" cy="57" r="57"/>
	<g>
		<path fill="#333842" d="M31.9,76.6h-9.4c-0.5,0-0.8-0.4-0.8-0.8v-3.5c0-0.5,0.4-0.8,0.8-0.8h9.4c0.5,0,0.8,0.4,0.8,0.8v3.5
			C32.7,76.2,32.4,76.6,31.9,76.6z"/>
		<path fill="#333842" d="M91.4,76.6h-9.4c-0.5,0-0.8-0.4-0.8-0.8v-3.5c0-0.5,0.4-0.8,0.8-0.8h9.4c0.5,0,0.8,0.4,0.8,0.8v3.5
			C92.2,76.2,91.8,76.6,91.4,76.6z"/>
		<path fill="#4B505E" d="M99.2,73.2H15.1c-0.5,0-0.8-0.4-0.8-0.8c0,0-1.7-2.8-1.7-7.3c0-4.9,1.7-7.3,1.7-7.3c0-0.5,0.4-0.8,0.8-0.8
			h84.1c0.5,0,0.8,0.4,0.8,0.8c0,0,1.4,3,1.4,7.5c0,4.1-1.4,7-1.4,7C100.1,72.9,99.7,73.2,99.2,73.2z"/>
		<path fill="#333842" d="M81,59.9c-2.9,0-5.4,1-6.8,2.5H12.7c-0.1,0.8-0.2,1.7-0.2,2.7c0,1,0.1,1.8,0.2,2.6h61.5
			c1.4,1.5,3.9,2.5,6.8,2.5c2.9,0,5.4-1,6.8-2.5h13.5c0.1-0.7,0.2-1.5,0.2-2.4c0-1.1-0.1-2.1-0.2-3H87.8
			C86.5,60.9,83.9,59.9,81,59.9z"/>
		<ellipse fill="#0C8FD0" cx="20.3" cy="65.1" rx="2.8" ry="1.6"/>
		<ellipse fill="#0C8FD0" cx="64.5" cy="65.2" rx="2.3" ry="1.4"/>
		<circle fill="#7BB227" cx="36" cy="65.4" r="0.7"/>
		<circle fill="#7BB227" cx="41" cy="65.4" r="0.7"/>
		<circle fill="#7BB227" cx="46" cy="65.4" r="0.7"/>
		<path fill="#6B7384" d="M95.4,66.5h-3.9c-0.2,0-0.3-0.1-0.3-0.3v-1.9c0-0.2,0.1-0.3,0.3-0.3h3.9c0.2,0,0.3,0.1,0.3,0.3v1.9
			C95.6,66.4,95.5,66.5,95.4,66.5z"/>
		<g>
			<path fill="#7BB227" d="M79.5,63.7c0.5-0.1,1-0.2,1.6-0.2c0.6,0,1.1,0.1,1.5,0.2l2.2-1.8c-1.1-0.5-2.3-0.8-3.7-0.8
				c-1.5,0-2.8,0.3-3.9,0.8L79.5,63.7z"/>
			<path fill="#7BB227" d="M85.3,62.1l-2.2,1.7c0.6,0.3,0.9,0.7,0.9,1.2c0,0.5-0.5,1-1.2,1.3l2.3,1.8c1.4-0.7,2.2-1.8,2.2-3
				C87.4,63.9,86.6,62.9,85.3,62.1z"/>
			<path fill="#7BB227" d="M82.3,66.5c-0.4,0.1-0.8,0.1-1.2,0.1c-0.4,0-0.8,0-1.2-0.1l-2.3,1.9c1,0.4,2.2,0.6,3.5,0.6
				c1.3,0,2.6-0.3,3.6-0.7L82.3,66.5z"/>
			<path fill="#7BB227" d="M77,68.1l2.2-1.8C78.5,66,78,65.6,78,65c0-0.4,0.3-0.8,0.9-1.1l-2.2-1.7c-1.2,0.7-2,1.7-2,2.9
				C74.7,66.3,75.6,67.4,77,68.1z"/>
		</g>
		<ellipse fill="#0C8FD0" cx="81" cy="65.1" rx="2.5" ry="1.2"/>
	</g>
	<g>
		<path fill="#0C8FD0" d="M77,37.3c-5.3-5.6-12.5-8.7-20.2-8.7c-7.5,0-14.6,3-19.8,8.3l-3.7-3.7c6.3-6.4,14.6-9.9,23.6-9.9
			c9.2,0,17.7,3.7,24,10.3L77,37.3z"/>
		<path fill="#0C8FD0" d="M70.3,45.9c-3.5-3.8-8.4-5.9-13.5-5.9c-5,0-9.7,2-13.2,5.6l-3.8-3.7c4.5-4.6,10.5-7.2,17-7.2
			c6.6,0,12.9,2.8,17.4,7.6L70.3,45.9z"/>
	</g>
</g>
</svg>
