<?xml version="1.0" encoding="utf-8"?>
<!-- Generator: Adobe Illustrator 18.0.0, SVG Export Plug-In . SVG Version: 6.00 Build 0)  -->
<!DOCTYPE svg PUBLIC "-//W3C//DTD SVG 1.1//EN" "http://www.w3.org/Graphics/SVG/1.1/DTD/svg11.dtd">
<svg version="1.1" id="icon-tv-hbo" xmlns="http://www.w3.org/2000/svg" xmlns:xlink="http://www.w3.org/1999/xlink" x="0px"
	 y="0px" viewBox="0 0 228 228" enable-background="new 0 0 228 228" xml:space="preserve">
<circle fill="#D1D6E6" cx="114" cy="114" r="114"/>
<g>
	<g>
		<path fill="#4B505E" d="M114.3,42.9H8.6v109.4v3.4v10.5h96.1v8.8c-17,0.3-40.1,1.3-40.1,1.3c-0.5,0-1.2,0.4-1.4,0.9l-2.1,4.6
			c-0.2,0.5-0.4,1.3-0.4,1.9v1.2c0,0.5,0.4,1,1,1h53.9H167c0.5,0,1-0.4,1-1v-1.2c0-0.5-0.2-1.4-0.4-1.9l-2.1-4.6
			c-0.2-0.5-0.8-0.9-1.4-0.9c0,0-23.1-1-40.1-1.3v-8.8h95.4v-10.5v-3.4V42.9H114.3z"/>
	</g>
	<polygon fill="#FFFFFF" points="19.8,52.4 19.8,99.7 19.8,100.2 19.8,146.1 208.2,146.1 208.2,100.2 208.2,99.7 208.2,52.4 	"/>
	<path fill="#7BB227" d="M127.8,157.9c0,1.2-1,2.2-2.2,2.2h-23.1c-1.2,0-2.2-1-2.2-2.2v-4.2c0-1.2,27.5-1.2,27.5,0V157.9z"/>
</g>
<g>
	<ellipse fill="#007AC3" cx="137.5" cy="99.1" rx="6.5" ry="6.5"/>
	<g>
		<path fill="#007AC3" d="M137.6,82c-7.4,0-13.8,4.8-16.1,11.4c0.1-0.7,0.1-1.4,0.1-2.1c0-2.5-1.4-5.1-3.4-6.6
			c-1.9-1.4-3.8-2.2-6.1-2.2H97.4v33.6h13.8c2.7,0,5.1-1,7.4-2.7c2.2-1.5,3.5-4.3,3.5-6.9c0-0.1,0-0.2,0-0.4
			c2.7,5.9,8.6,9.9,15.5,9.9c9.4,0,17-7.6,17-17S147,82,137.6,82z M106,89.8h3.6c1.8,0,3.6,0.3,3.6,2.6c0.1,2-1.1,3.2-3.5,3.2
			l-3.7,0V89.8z M112.7,107.8c-0.7,0.6-1.8,0.6-2.7,0.6h-4v-6.2h3.7c2.2,0,4.1,0.6,4.2,3.2C113.8,106.2,113.3,107.4,112.7,107.8z
			 M120.8,101.4c-0.7-0.9-1.6-1.7-3-2.5c1.6-0.8,2.6-1.8,3.2-3.1c-0.2,1.1-0.3,2.2-0.3,3.3C120.6,99.8,120.7,100.6,120.8,101.4z
			 M137.5,107.9c-4.9,0-8.8-4-8.8-8.9c0-4.9,4-8.9,8.8-8.9c4.9,0,8.8,4,8.8,8.9C146.4,104,142.4,107.9,137.5,107.9z"/>
		<polygon fill="#007AC3" points="86.9,94.8 79.9,94.8 79.9,82.5 71.3,82.5 71.3,116.1 79.9,116.1 79.9,103 86.8,103 86.8,116.1 
			95.5,116.1 95.5,82.5 86.9,82.5 		"/>
	</g>
	<path fill="#007AC3" d="M151.1,114.2c-0.6,0-1,0.4-1,1c0,0.6,0.5,1,1,1c0.6,0,1-0.4,1-1C152.2,114.6,151.7,114.2,151.1,114.2z
		 M151.1,115.9c-0.4,0-0.7-0.3-0.7-0.7c0-0.4,0.3-0.7,0.7-0.7c0.4,0,0.7,0.3,0.7,0.7C151.9,115.6,151.6,115.9,151.1,115.9z"/>
	<path fill="#007AC3" d="M151.3,115.3c0.1,0,0.3-0.1,0.3-0.3c0-0.3-0.2-0.3-0.4-0.3h-0.4v1.1h0.3v-0.5h0l0.2,0.5h0.3L151.3,115.3z
		 M151.1,115.1H151v-0.2h0.1c0.1,0,0.2,0,0.2,0.1C151.3,115.1,151.2,115.1,151.1,115.1z"/>
</g>
</svg>
