<?xml version="1.0" encoding="utf-8"?>
<!-- Generator: Adobe Illustrator 18.0.0, SVG Export Plug-In . SVG Version: 6.00 Build 0)  -->
<!DOCTYPE svg PUBLIC "-//W3C//DTD SVG 1.1//EN" "http://www.w3.org/Graphics/SVG/1.1/DTD/svg11.dtd">
<svg version="1.1" id="dishtv-packages" xmlns="http://www.w3.org/2000/svg" xmlns:xlink="http://www.w3.org/1999/xlink" x="0px"
	 y="0px" viewBox="0 0 114 114" enable-background="new 0 0 114 114" xml:space="preserve">
<circle fill="#D1D6E6" cx="57" cy="57" r="57"/>
<g>
	<g>
		<path fill="#4B505E" d="M57.2,21.5H4.3v54.7v1.7v5.2h48v4.4c-8.5,0.2-20,0.6-20,0.6c-0.3,0-0.6,0.2-0.7,0.5l-1.1,2.3
			c-0.1,0.2-0.2,0.7-0.2,0.9v0.6c0,0.3,0.2,0.5,0.5,0.5h26.9h25.7c0.3,0,0.5-0.2,0.5-0.5v-0.6c0-0.3-0.1-0.7-0.2-0.9l-1.1-2.3
			c-0.1-0.2-0.4-0.4-0.7-0.5c0,0-11.5-0.5-20-0.6v-4.4h47.7v-5.2v-1.7V21.5H57.2z"/>
	</g>
	<polygon fill="#FFFFFF" points="9.9,26.2 9.9,49.8 9.9,50.1 9.9,73.1 104.1,73.1 104.1,50.1 104.1,49.8 104.1,26.2 	"/>
	<path fill="#7BB227" d="M63.9,79c0,0.6-0.5,1.1-1.1,1.1H51.2c-0.6,0-1.1-0.5-1.1-1.1v-2.1c0-0.6,13.8-0.6,13.8,0V79z"/>
</g>
<g>
	<path fill="#4B505E" d="M42.8,66c-1,0-1.9-0.4-2.6-1.1c-0.7-0.7-1-1.6-1-2.6c0-1,0.4-1.9,1.1-2.6c0.7-0.7,1.6-1,2.6-1
		c1.6,0,3.1,1.1,3.5,2.8h-1.9c-0.4-0.7-0.9-1.1-1.6-1.1c-1.1,0-1.9,0.8-1.9,1.8c0,1.1,0.9,2,1.8,2c0.7,0,1.3-0.4,1.6-1h1.9
		C45.9,65,44.5,66,42.8,66z"/>
	<path fill="#4B505E" d="M47.2,65.9v-7.1h1.5v2.4c0.3-0.5,0.8-0.8,1.5-0.8c1.1,0,1.8,0.7,1.8,1.9v3.5h-1.6V63c0-0.7-0.2-1.1-0.8-1.1
		c-0.6,0-0.9,0.4-0.9,1.1v2.9H47.2z"/>
	<path fill="#4B505E" d="M56.9,65.3c-0.5,0.5-0.9,0.6-1.6,0.6c-0.6,0-1.2-0.2-1.7-0.6c-0.6-0.5-0.9-1.3-0.9-2.1c0-0.8,0.3-1.5,0.9-2
		c0.5-0.5,1.1-0.7,1.8-0.7c0.6,0,1.1,0.2,1.5,0.7v-0.6h1.6v5.3h-1.5V65.3z M55.6,64.5c0.7,0,1.2-0.6,1.2-1.3c0-0.8-0.6-1.3-1.3-1.3
		c-0.7,0-1.3,0.6-1.3,1.3C54.3,63.9,54.8,64.5,55.6,64.5z"/>
	<path fill="#4B505E" d="M59.4,65.9v-5.3h1.5l0,0.7c0.3-0.5,0.8-0.8,1.5-0.8c1.1,0,1.8,0.7,1.8,1.9v3.5h-1.6V63
		c0-0.7-0.2-1.1-0.8-1.1c-0.6,0-0.9,0.4-0.9,1.1v2.9H59.4z"/>
	<path fill="#4B505E" d="M65.3,65.9v-5.3h1.5l0,0.7c0.3-0.5,0.8-0.8,1.5-0.8c1.1,0,1.8,0.7,1.8,1.9v3.5h-1.6V63
		c0-0.7-0.2-1.1-0.8-1.1c-0.6,0-0.9,0.4-0.9,1.1v2.9H65.3z"/>
	<path fill="#4B505E" d="M76.2,64.3c-0.5,1.1-1.4,1.7-2.6,1.7c-0.8,0-1.5-0.3-2-0.9c-0.5-0.5-0.8-1.2-0.8-2c0-0.7,0.3-1.4,0.8-2
		c0.5-0.5,1.2-0.8,2-0.8c1.7,0,2.9,1.2,2.9,3.2c0,0,0,0.1,0,0.2h-4c0.1,0.6,0.5,0.9,1.2,0.9c0.3,0,0.6-0.1,0.8-0.3H76.2z M74.9,62.7
		c-0.2-0.5-0.6-0.8-1.3-0.8c-0.7,0-1.1,0.3-1.2,0.8H74.9z"/>
	<path fill="#4B505E" d="M78.8,58.8v7.1h-1.6v-7.1H78.8z"/>
	<path fill="#4B505E" d="M81.1,64.3C81.1,64.3,81.1,64.3,81.1,64.3c0,0.3,0.2,0.6,0.6,0.6s0.5-0.2,0.5-0.5c0-0.4-0.4-0.4-1.1-0.6
		c-0.9-0.3-1.4-0.8-1.4-1.6c0-1,0.8-1.8,2-1.8c1.1,0,1.8,0.6,1.9,1.6h-1.4c-0.1-0.3-0.2-0.5-0.5-0.5c-0.3,0-0.5,0.2-0.5,0.4
		c0,0.4,0.3,0.5,0.9,0.6c1.1,0.3,1.6,0.7,1.6,1.6c0,1.1-0.8,1.8-2.1,1.8c-1.2,0-1.9-0.6-2-1.7H81.1z"/>
</g>
<g>
	<polygon fill="#6B9C22" points="87.2,43 82.2,43 82.2,38 79.4,38 79.4,43 74.4,43 74.4,45.8 79.4,45.8 79.4,50.8 82.2,50.8 
		82.2,45.8 87.2,45.8 	"/>
	<g>
		<path fill="#0C8FD0" d="M32,48.4c0,0.1,0,0.2,0,0.2c0,1.1,0.7,1.8,2.1,1.8c1.3,0,2.1-0.8,2.1-2c0-1.4-1.1-2.1-3.3-2.1
			c-0.3,0-0.6,0-0.9,0v-3.6c0.2,0,0.3,0,0.5,0c2,0,3-0.8,3-2.4c0-1.2-0.6-1.9-1.5-1.9c-0.9,0-1.5,0.6-1.5,1.6c0,0.1,0,0.2,0,0.3
			h-4.6c0,0,0-0.1,0-0.1c0-3.6,2.4-5.8,6.1-5.8c3.5,0,5.8,2.2,5.8,5.3c0,1.8-0.9,3.3-2.7,3.9c2.5,0.7,3.8,2.3,3.8,4.5
			c0,3.6-2.7,6.3-6.7,6.3c-4.4,0-6.8-2.2-6.8-6.2H32z"/>
		<path fill="#0C8FD0" d="M46.8,48.4c0,0.1,0,0.2,0,0.2c0,1.1,0.7,1.8,2.1,1.8c1.3,0,2.1-0.8,2.1-2c0-1.4-1.1-2.1-3.3-2.1
			c-0.3,0-0.6,0-0.9,0v-3.6c0.2,0,0.3,0,0.5,0c2,0,3-0.8,3-2.4c0-1.2-0.6-1.9-1.5-1.9c-0.9,0-1.5,0.6-1.5,1.6c0,0.1,0,0.2,0,0.3
			h-4.6c0,0,0-0.1,0-0.1c0-3.6,2.4-5.8,6.1-5.8c3.5,0,5.8,2.2,5.8,5.3c0,1.8-0.9,3.3-2.7,3.9c2.5,0.7,3.8,2.3,3.8,4.5
			c0,3.6-2.7,6.3-6.7,6.3c-4.4,0-6.8-2.2-6.8-6.2H46.8z"/>
		<path fill="#0C8FD0" d="M63.6,54.6c-4,0-6.9-2.9-6.9-6.9v-6.3c0-4,3-6.9,6.9-6.9s6.9,2.9,6.9,6.9v6.3
			C70.6,51.7,67.5,54.6,63.6,54.6z M65.9,41.4c0-1.7-0.9-2.5-2.2-2.5c-1.4,0-2.3,0.9-2.3,2.6v6.3c0,1.7,0.9,2.6,2.3,2.6
			c1.3,0,2.2-0.9,2.2-2.5V41.4z"/>
	</g>
</g>
</svg>
