<?xml version="1.0" encoding="utf-8"?>
<!-- Generator: Adobe Illustrator 18.0.0, SVG Export Plug-In . SVG Version: 6.00 Build 0)  -->
<!DOCTYPE svg PUBLIC "-//W3C//DTD SVG 1.1//EN" "http://www.w3.org/Graphics/SVG/1.1/DTD/svg11.dtd">
<svg version="1.1" xmlns="http://www.w3.org/2000/svg" xmlns:xlink="http://www.w3.org/1999/xlink" x="0px" y="0px"
	 viewBox="0 0 114 114" enable-background="new 0 0 114 114" xml:space="preserve">
<g id="Layer_3">
	<circle fill="#D1D6E6" cx="57" cy="57" r="57"/>
</g>
<g id="Layer_2">
	<g>
		<g>
			<path fill="#4B505E" d="M57.8,21.5H4.3v54.7v1.7v5.2h48.6v4.4c-8.6,0.2-20.3,0.6-20.3,0.6c-0.3,0-0.6,0.2-0.7,0.5l-1.1,2.3
				c-0.1,0.2-0.2,0.7-0.2,0.9v0.6c0,0.3,0.2,0.5,0.5,0.5h27.2h26c0.3,0,0.5-0.2,0.5-0.5v-0.6c0-0.3-0.1-0.7-0.2-0.9l-1.1-2.3
				c-0.1-0.2-0.4-0.4-0.7-0.5c0,0-11.7-0.5-20.3-0.6v-4.4h48.2v-5.2v-1.7V21.5H57.8z"/>
		</g>
		<polygon fill="#FFFFFF" points="10,26.2 10,49.8 10,50.1 10,73.1 105.2,73.1 105.2,50.1 105.2,49.8 105.2,26.2 		"/>
		<path fill="#7BB227" d="M64.5,79c0,0.6-0.5,1.1-1.1,1.1H51.7c-0.6,0-1.1-0.5-1.1-1.1v-2.1c0-0.6,13.9-0.6,13.9,0V79z"/>
	</g>
</g>
<g id="icon_x5F_tdstv-packages">
	<g enable-background="new    ">
		<path fill="#4B505E" d="M42.8,66c-1,0-1.9-0.4-2.6-1.1c-0.7-0.7-1-1.6-1-2.6s0.4-1.9,1.1-2.6c0.7-0.7,1.6-1,2.6-1
			c1.6,0,3.1,1.1,3.5,2.8h-1.9c-0.4-0.7-0.9-1.1-1.6-1.1c-1.1,0-1.9,0.8-1.9,1.8c0,1.1,0.9,2,1.8,2c0.7,0,1.3-0.4,1.6-1h1.9
			C45.9,65,44.5,66,42.8,66z"/>
		<path fill="#4B505E" d="M47.2,65.9v-7.1h1.5v2.4c0.3-0.5,0.8-0.8,1.5-0.8c1.1,0,1.8,0.7,1.8,1.9v3.5h-1.6V63
			c0-0.7-0.2-1.1-0.8-1.1s-0.9,0.4-0.9,1.1v2.9H47.2z"/>
		<path fill="#4B505E" d="M56.9,65.3c-0.5,0.5-0.9,0.6-1.6,0.6c-0.6,0-1.2-0.2-1.7-0.6c-0.6-0.5-0.9-1.3-0.9-2.1
			c0-0.8,0.3-1.5,0.9-2c0.5-0.5,1.1-0.7,1.8-0.7c0.6,0,1.1,0.2,1.5,0.7v-0.6h1.6v5.3H57L56.9,65.3L56.9,65.3z M55.6,64.5
			c0.7,0,1.2-0.6,1.2-1.3c0-0.8-0.6-1.3-1.3-1.3s-1.3,0.6-1.3,1.3C54.3,63.9,54.8,64.5,55.6,64.5z"/>
		<path fill="#4B505E" d="M59.4,65.9v-5.3h1.5v0.7c0.3-0.5,0.8-0.8,1.5-0.8c1.1,0,1.8,0.7,1.8,1.9v3.5h-1.6V63
			c0-0.7-0.2-1.1-0.8-1.1s-0.9,0.4-0.9,1.1v2.9H59.4z"/>
		<path fill="#4B505E" d="M65.3,65.9v-5.3h1.5v0.7c0.3-0.5,0.8-0.8,1.5-0.8c1.1,0,1.8,0.7,1.8,1.9v3.5h-1.6V63
			c0-0.7-0.2-1.1-0.8-1.1c-0.6,0-0.9,0.4-0.9,1.1v2.9H65.3z"/>
		<path fill="#4B505E" d="M76.2,64.3c-0.5,1.1-1.4,1.7-2.6,1.7c-0.8,0-1.5-0.3-2-0.9c-0.5-0.5-0.8-1.2-0.8-2c0-0.7,0.3-1.4,0.8-2
			c0.5-0.5,1.2-0.8,2-0.8c1.7,0,2.9,1.2,2.9,3.2c0,0.1,0,0.1,0,0.2h-4c0.1,0.6,0.5,0.9,1.2,0.9c0.3,0,0.6-0.1,0.8-0.3
			C74.5,64.3,76.2,64.3,76.2,64.3z M74.9,62.7c-0.2-0.5-0.6-0.8-1.3-0.8c-0.7,0-1.1,0.3-1.2,0.8H74.9z"/>
		<path fill="#4B505E" d="M78.8,58.8v7.1h-1.6v-7.1C77.2,58.8,78.8,58.8,78.8,58.8z"/>
		<path fill="#4B505E" d="M81.1,64.3L81.1,64.3c0,0.3,0.2,0.6,0.6,0.6s0.5-0.2,0.5-0.5c0-0.4-0.4-0.4-1.1-0.6
			c-0.9-0.3-1.4-0.8-1.4-1.6c0-1,0.8-1.8,2-1.8c1.1,0,1.8,0.6,1.9,1.6h-1.4c-0.1-0.3-0.2-0.5-0.5-0.5s-0.5,0.2-0.5,0.4
			c0,0.4,0.3,0.5,0.9,0.6c1.1,0.3,1.6,0.7,1.6,1.6c0,1.1-0.8,1.8-2.1,1.8c-1.2,0-1.9-0.6-2-1.7L81.1,64.3L81.1,64.3z"/>
	</g>
	<g>
		<polygon fill="#6B9C22" points="87.4,43.2 82.2,43.2 82.2,38 79.3,38 79.3,43.2 74.6,43.2 74.6,45.6 79.3,45.6 79.3,50.8 
			82.2,50.8 82.2,45.6 87.4,45.6 		"/>
		<g enable-background="new    ">
			<path fill="#0C8FD0" d="M32.9,54.2V38.5h-3.4v-3.6h7.9v19.3H32.9z"/>
		</g>
		<g enable-background="new    ">
			<path fill="#0C8FD0" d="M42.6,54.3l4.4-6.1c-0.5,0.1-1,0.1-1.5,0.1c-3,0-5.5-2.7-5.5-6.4c0-4.1,3-7.3,7.2-7.3
				c2.2,0,3.8,0.7,5.3,2.2c1.2,1.3,2,3.2,2,5.1c0,2.6-1.2,4.1-2.4,6l-4.2,6.4H42.6z M47.4,39.2c-1.5,0-2.7,1.2-2.7,2.7
				s1,2.6,2.5,2.6c1.7,0,2.7-1.1,2.7-2.7C50,40.4,48.9,39.2,47.4,39.2z"/>
			<path fill="#0C8FD0" d="M63.3,54.6c-4,0-6.9-2.9-6.9-6.9v-6.3c0-4,3-6.9,6.9-6.9s6.9,2.9,6.9,6.9v6.3
				C70.2,51.7,67.2,54.6,63.3,54.6z M65.6,41.4c0-1.7-0.9-2.5-2.2-2.5c-1.4,0-2.3,0.9-2.3,2.6v6.3c0,1.7,0.9,2.6,2.3,2.6
				c1.3,0,2.2-0.9,2.2-2.5V41.4z"/>
		</g>
	</g>
</g>
</svg>
