<?xml version="1.0" encoding="utf-8"?>
<!-- Generator: Adobe Illustrator 18.0.0, SVG Export Plug-In . SVG Version: 6.00 Build 0)  -->
<!DOCTYPE svg PUBLIC "-//W3C//DTD SVG 1.1//EN" "http://www.w3.org/Graphics/SVG/1.1/DTD/svg11.dtd">
<svg version="1.1" id="icon_x5F_tdstv-premium" xmlns="http://www.w3.org/2000/svg" xmlns:xlink="http://www.w3.org/1999/xlink"
	 x="0px" y="0px" viewBox="0 0 24 24" enable-background="new 0 0 24 24" xml:space="preserve">
<circle fill="#D1D6E6" cx="12" cy="12" r="12"/>
<g>
	<rect x="6.1" y="5.7" fill="#4B505E" width="11.4" height="11.2"/>
	<rect x="6.7" y="6.3" fill="#8792A4" width="10.2" height="10.1"/>
	<rect x="8.6" y="6.3" fill="#FFFFFF" width="6.2" height="10.1"/>
	<rect x="8.2" y="6" fill="#4B505E" width="0.6" height="10.7"/>
	<rect x="14.6" y="6" fill="#4B505E" width="0.6" height="10.7"/>
	<rect x="8.5" y="10.9" fill="#4B505E" width="6.4" height="1"/>
	<rect x="6.4" y="7.5" fill="#4B505E" width="2.1" height="0.6"/>
	<rect x="6.4" y="11.1" fill="#4B505E" width="2.1" height="0.6"/>
	<rect x="6.4" y="9.3" fill="#4B505E" width="2.1" height="0.6"/>
	<rect x="6.4" y="12.8" fill="#4B505E" width="2.1" height="0.6"/>
	<rect x="6.4" y="14.6" fill="#4B505E" width="2.1" height="0.6"/>
	<rect x="6.4" y="16.4" fill="#4B505E" width="2.1" height="0.6"/>
	<rect x="14.9" y="7.5" fill="#4B505E" width="2.1" height="0.6"/>
	<rect x="14.9" y="11.1" fill="#4B505E" width="2.1" height="0.6"/>
	<rect x="14.9" y="9.3" fill="#4B505E" width="2.1" height="0.6"/>
	<rect x="14.9" y="12.8" fill="#4B505E" width="2.1" height="0.6"/>
	<rect x="14.9" y="14.6" fill="#4B505E" width="2.1" height="0.6"/>
	<rect x="14.9" y="16.4" fill="#4B505E" width="2.1" height="0.6"/>
</g>
<g>
	<ellipse fill="#7BB227" cx="16.2" cy="16" rx="3.3" ry="3.3"/>
	<ellipse fill="#BDD893" cx="16.2" cy="16" rx="2.6" ry="2.7"/>
	<polygon fill="#7BB227" points="16.2,14.3 16.8,15.4 18,15.6 17.1,16.5 17.3,17.7 16.2,17.1 15.1,17.7 15.3,16.5 14.4,15.6 
		15.6,15.4 	"/>
</g>
</svg>
