<?xml version="1.0" encoding="utf-8"?>
<!-- Generator: Adobe Illustrator 18.0.0, SVG Export Plug-In . SVG Version: 6.00 Build 0)  -->
<!DOCTYPE svg PUBLIC "-//W3C//DTD SVG 1.1//EN" "http://www.w3.org/Graphics/SVG/1.1/DTD/svg11.dtd">
<svg version="1.1" id="icon_x5F_tv-135" xmlns="http://www.w3.org/2000/svg" xmlns:xlink="http://www.w3.org/1999/xlink" x="0px"
	 y="0px" viewBox="0 0 228 228" enable-background="new 0 0 228 228" xml:space="preserve">
<circle fill="#F0F0F0" cx="114" cy="114" r="114"/>
<g>
	<path fill="#4B505E" d="M60.1,161.4c-3,0-5.6-1.1-7.6-3.2c-1.9-2-2.9-4.6-2.9-7.6c0-2.8,1.1-5.4,3.1-7.4s4.5-3,7.4-3
		c4.8,0,8.8,3.1,10.1,8.1h-5.4c-1.1-2-2.7-3.1-4.7-3.1c-3,0-5.4,2.4-5.4,5.3c0,3.2,2.5,5.7,5.3,5.7c1.9,0,3.6-1,4.7-2.9h5.4
		C68.8,158.4,65,161.4,60.1,161.4z"/>
	<path fill="#4B505E" d="M72.5,161v-20.4h4.3v6.9c0.9-1.5,2.4-2.2,4.3-2.2c3.2,0,5.2,2,5.2,5.5V161h-4.5v-8.3c0-2.2-0.5-3.1-2.2-3.1
		c-1.8,0-2.7,1.1-2.7,3.1v8.3H72.5z"/>
	<path fill="#4B505E" d="M100.5,159.3c-1.3,1.3-2.7,1.8-4.6,1.8s-3.5-0.6-4.8-1.8c-1.8-1.6-2.7-3.6-2.7-6c0-2.2,0.9-4.2,2.5-5.7
		c1.4-1.4,3.2-2.1,5.1-2.1s3.3,0.6,4.3,1.9v-1.7h4.5V161h-4.4L100.5,159.3L100.5,159.3z M97,157c1.9,0,3.6-1.6,3.6-3.7
		c0-2.2-1.6-3.9-3.8-3.9c-2.1,0-3.8,1.7-3.8,3.8C93,155.4,94.7,157,97,157z"/>
	<path fill="#4B505E" d="M107.9,161v-15.4h4.3l-0.1,2.1c0.9-1.5,2.4-2.4,4.4-2.4c3.2,0,5.2,2,5.2,5.5V161h-4.5v-8.3
		c0-2.2-0.5-3.1-2.2-3.1c-1.8,0-2.7,1.1-2.7,3.1v8.3H107.9z"/>
	<path fill="#4B505E" d="M124.8,161v-15.4h4.3l-0.1,2.1c0.9-1.5,2.4-2.4,4.4-2.4c3.2,0,5.2,2,5.2,5.5V161h-4.5v-8.3
		c0-2.2-0.5-3.1-2.2-3.1c-1.8,0-2.7,1.1-2.7,3.1v8.3H124.8z"/>
	<path fill="#4B505E" d="M156.3,156.6c-1.5,3.2-4,4.8-7.5,4.8c-2.4,0-4.2-0.8-5.8-2.5c-1.5-1.6-2.3-3.5-2.3-5.7s0.8-4.1,2.4-5.6
		c1.5-1.5,3.6-2.4,5.7-2.4c4.9,0,8.3,3.5,8.3,9.3c0,0.1,0,0.3,0,0.5h-11.6c0.4,1.6,1.6,2.5,3.6,2.5c0.9,0,1.7-0.3,2.4-0.9
		C151.5,156.6,156.3,156.6,156.3,156.6z M152.5,151.7c-0.5-1.6-1.8-2.4-3.6-2.4c-1.9,0-3.2,1-3.6,2.4H152.5z"/>
	<path fill="#4B505E" d="M163.8,140.6V161h-4.5v-20.4H163.8z"/>
	<path fill="#4B505E" d="M170.4,156.4c0,0.1,0,0.1,0,0.1c0,0.9,0.7,1.5,1.7,1.5s1.5-0.5,1.5-1.3c0-1.3-1.2-1.2-3.2-1.8
		c-2.7-0.8-4-2.3-4-4.6c0-3,2.2-5.1,5.9-5.1c3.2,0,5.2,1.8,5.4,4.7h-4.1c-0.2-1-0.5-1.4-1.3-1.4c-0.9,0-1.4,0.5-1.4,1.3
		c0,1.1,0.9,1.3,2.5,1.7c3.2,0.9,4.7,2.1,4.7,4.6c0,3.1-2.4,5.3-6.2,5.3c-3.4,0-5.6-1.9-5.9-5H170.4z"/>
</g>
<g>
	<polygon fill="#6B9C22" points="201.9,92.3 187.3,92.3 187.3,77.8 179.3,77.8 179.3,92.3 164.7,92.3 164.7,100.3 179.3,100.3 
		179.3,114.9 187.3,114.9 187.3,100.3 201.9,100.3 	"/>
	<g>
		<path fill="#0C8FD0" d="M45.1,124.6V79.3h-9.8V69H58v55.6H45.1z"/>
		<path fill="#0C8FD0" d="M80.6,107.8c0,0.2,0,0.5,0,0.7c0,3.3,2.1,5.2,6.1,5.2c3.7,0,5.9-2.3,5.9-5.8c0-4.1-3.1-6.2-9.5-6.2
			c-0.9,0-1.8,0-2.7,0.1V91.4c0.5,0,0.9,0.1,1.4,0.1c5.8,0,8.7-2.3,8.7-6.8c0-3.4-1.7-5.4-4.5-5.4c-2.7,0-4.2,1.6-4.2,4.6
			c0,0.3,0,0.5,0,0.9H68.6c0-0.1,0-0.2,0-0.2c0-10.2,6.8-16.7,17.7-16.7c10.2,0,16.8,6.4,16.8,15.4c0,5.2-2.6,9.4-7.9,11.3
			c7.1,2,10.9,6.6,10.9,12.9c0,10.2-7.7,18.2-19.4,18.2c-12.6,0-19.6-6.4-19.7-17.8L80.6,107.8L80.6,107.8z"/>
		<path fill="#0C8FD0" d="M126,109.6c1,2.2,3.6,3.7,6.2,3.7c4.6,0,8-3.2,8-7.9c0-4-3.2-7.3-7.6-7.3c-3.6,0-6,1.6-7.5,5.2l-11.3-3.1
			l5.1-31.1h30.4v11.1h-19.6l-1.8,8.4c2.3-1.4,5-2.1,7.9-2.1c10.7,0,18.2,7.9,18.2,19.2c0,12.3-7.9,20.2-21.8,20.2
			c-10.9,0-18.1-5.7-20.5-16.2L126,109.6L126,109.6z"/>
	</g>
</g>
</svg>
