<?xml version="1.0" encoding="utf-8"?>
<!-- Generator: Adobe Illustrator 18.0.0, SVG Export Plug-In . SVG Version: 6.00 Build 0)  -->
<!DOCTYPE svg PUBLIC "-//W3C//DTD SVG 1.1//EN" "http://www.w3.org/Graphics/SVG/1.1/DTD/svg11.dtd">
<svg version="1.1" id="icon-tv-showtime" xmlns="http://www.w3.org/2000/svg" xmlns:xlink="http://www.w3.org/1999/xlink" x="0px"
	 y="0px" viewBox="0 0 228 228" enable-background="new 0 0 228 228" xml:space="preserve">
<circle fill="#D1D6E6" cx="114" cy="114" r="114"/>
<g>
	<g>
		<path fill="#4B505E" d="M114.3,42.9H8.6v109.4v3.4v10.5h96.1v8.8c-17,0.3-40.1,1.3-40.1,1.3c-0.5,0-1.2,0.4-1.4,0.9l-2.1,4.6
			c-0.2,0.5-0.4,1.3-0.4,1.9v1.2c0,0.5,0.4,1,1,1h53.9H167c0.5,0,1-0.4,1-1v-1.2c0-0.5-0.2-1.4-0.4-1.9l-2.1-4.6
			c-0.2-0.5-0.8-0.9-1.4-0.9c0,0-23.1-1-40.1-1.3v-8.8h95.4v-10.5v-3.4V42.9H114.3z"/>
	</g>
	<polygon fill="#FFFFFF" points="19.8,52.4 19.8,99.7 19.8,100.2 19.8,146.1 208.2,146.1 208.2,100.2 208.2,99.7 208.2,52.4 	"/>
	<path fill="#7BB227" d="M127.8,157.9c0,1.2-1,2.2-2.2,2.2h-23.1c-1.2,0-2.2-1-2.2-2.2v-4.2c0-1.2,27.5-1.2,27.5,0V157.9z"/>
</g>
<path fill="#ED1C24" d="M59.2,108.9c1.3,0,2.2-1.1,2.2-2.8c0-3.5-3-4.1-6.3-7.1C55.1,104.9,56.9,108.9,59.2,108.9"/>
<path id="path3682" fill="#ED1C24" d="M82.2,113.2h-4.7v-11.7h-5.1v11.7h-4.7V86.3h4.7v10.8h5.1V86.3h4.7V113.2z M84.1,99.6
	c0-8.2,3-13.4,6.7-13.9c-3.6-4.5-9.7-6.8-15.2-6.8c-6,0-11.5,2.6-15.2,6.8c3.6,0.7,4.8,3.7,4.8,8.3h-4.4c0-2.7-0.6-4.2-2.2-4.2
	c-0.7,0-1.3,0.4-1.6,1c0,0.1-0.1,0.2-0.1,0.3c-0.1,0.4-0.2,0.8-0.2,1.2c0,5.7,9.3,5.4,9.3,14.1c0,3.4-2.6,6.6-5.5,6.6
	c3.9,4.2,9.1,6.7,15.2,6.7c5.9,0,11.2-2.5,15-6.5C87.1,112.5,84.1,107.5,84.1,99.6"/>
<path fill="#ED1C24" d="M88.8,99.2c0-4.5,1.3-9,3.7-9c2.9,0,3.6,7,3.6,9.2c0,4.8-1.5,9.2-3.6,9.2C90,108.6,88.8,104,88.8,99.2"/>
<path fill="#ED1C24" d="M135.6,86.7h-19.7l-1.9,15.4h-0.1l-2.1-15.4h-4.3l-2.3,15.4h-0.1l-1.7-15.4h-4.3l3.5,26.1h4.2l2.4-16.6h0.1
	l2.3,16.6h4.3l2.9-22.1h4.1v22.1h4.8V90.7h4.4v22.1h4.8V86.7L135.6,86.7"/>
<path id="path3688" fill="#ED1C24" d="M139,86.7h6.4l2.1,13.4h0.1l2.2-13.4h6.2v26.1h-4.3V93.6h-0.1l-3.2,19.2h-2.6l-3.2-19.2h-0.1
	v19.2H139V86.7"/>
<path id="path3690" fill="#ED1C24" d="M158.4,86.7h10.8v4h-6v6.7h4.4v4.3h-4.4v7.1h6.3v4h-11.1V86.7"/>
<path id="path3692" fill="#ED1C24" d="M172.5,111.8c0,0.6-0.5,1.1-1,1.1v0c-0.5,0-1-0.4-1-1.1c0-0.6,0.4-1.1,1-1.1
	C172,110.7,172.5,111.2,172.5,111.8z M172.8,111.8c0-0.9-0.6-1.4-1.4-1.4c-0.7,0-1.4,0.5-1.4,1.4c0,0.9,0.6,1.4,1.4,1.4
	C172.2,113.2,172.8,112.7,172.8,111.8z M171.2,111.9h0.1l0.3,0.6h0.4l-0.4-0.6c0.2,0,0.4-0.1,0.4-0.4c0-0.3-0.2-0.4-0.6-0.4h-0.6
	v1.5h0.3L171.2,111.9L171.2,111.9z M171.2,111.7v-0.4h0.2c0.1,0,0.3,0,0.3,0.2c0,0.2-0.1,0.2-0.2,0.2H171.2"/>
</svg>
