<?xml version="1.0" encoding="utf-8"?>
<!-- Generator: Adobe Illustrator 18.0.0, SVG Export Plug-In . SVG Version: 6.00 Build 0)  -->
<!DOCTYPE svg PUBLIC "-//W3C//DTD SVG 1.1//EN" "http://www.w3.org/Graphics/SVG/1.1/DTD/svg11.dtd">
<svg version="1.1" id="pig-icon" xmlns="http://www.w3.org/2000/svg" xmlns:xlink="http://www.w3.org/1999/xlink" x="0px" y="0px"
	 viewBox="0 0 24 24" enable-background="new 0 0 24 24" xml:space="preserve">
<g id="pig-ltblue">
	<path fill="#0C8FD0" d="M24,12c0,6.6-5.4,12-12,12S0,18.6,0,12S5.4,0,12,0S24,5.3,24,12z"/>
	<path fill="#5CC1F5" d="M21.6,13c0,0.3-0.9,0.4-1,0.5c-0.2,0.1-0.3,0.3-1,0.9c-0.7,0.6-2.2,0.8-2.2,0.8s-0.5,2.4-0.8,2.5
		c-0.3,0.2-1.7,0.2-2,0.2c-0.4-0.1-0.8-1.7-0.8-1.7s-1.3,0.1-2.2,0.1s-2.3-0.4-2.3-0.4s-1,1.8-1.4,2S6.3,17.9,6,17.8s-0.7-3-0.7-3
		s-0.8-1-0.9-1.5C4.2,12.8,3.6,10.7,5,9c0.2-0.2,0.3-0.4,0.5-0.5C5.3,8.4,5.1,8.4,4.9,8.4c-0.5,0-1,0.2-0.8,0.5
		c0.1,0.2,0.5,0.2,0.5,0.2s-0.4,0.2-0.7,0C3.4,8.8,4,8.2,4.7,8.1C5,8,5.6,8.1,6,8.2c1.2-0.9,2.6-1.3,5.4-1.4C14.9,6.7,16.2,8,16.2,8
		s0.2-0.5,0.5-0.8c0.7-0.6,1.4-0.7,1.4-0.7s0,0-0.2,0.6s-0.1,1.5-0.1,1.5s0.5,0.1,0.9,0.5c0.8,0.6,1.3,1.7,1.3,1.7s1,0,1.3,0.2
		C21.6,11,21.6,12.8,21.6,13z"/>
	<g>
		<path fill="#FFFFFF" d="M11.7,14.5c0.8,0,1.3-0.5,1.3-1.3c0-0.9-0.6-1.1-1.7-1.4c-1.8-0.5-2.6-1.3-2.6-2.7c0-1.3,0.8-2.4,2.3-2.8
			V4.9h1.8v1.5c1.3,0.3,2.1,1.2,2.2,2.6h-2c0-0.6-0.5-1-1.2-1c-0.8,0-1.3,0.5-1.3,1.1c0,0.2,0.1,0.5,0.3,0.6
			c0.5,0.4,1.3,0.5,2.2,0.7c1.4,0.5,2.2,1.4,2.2,2.7c0,1.6-0.8,2.7-2.4,3.2v1.8h-1.8v-1.7c-1.7-0.4-2.6-1.5-2.6-3.1h2
			C10.3,14.1,10.9,14.5,11.7,14.5z"/>
	</g>
</g>
</svg>
