<?xml version="1.0" encoding="utf-8"?>
<!-- Generator: Adobe Illustrator 20.0.0, SVG Export Plug-In . SVG Version: 6.00 Build 0)  -->
<svg version="1.1" id="Layer_1" xmlns="http://www.w3.org/2000/svg" xmlns:xlink="http://www.w3.org/1999/xlink" x="0px" y="0px"
	 viewBox="0 0 50 50" style="enable-background:new 0 0 50 50;" xml:space="preserve">
<style type="text/css">
	.st0{fill:#BBBBBB;}
</style>
<g>
	<path class="st0" d="M19.2,7.7l1.9,2.5c-4,2.9-6.9,5.7-8.8,8.5S9.5,24,9.5,26c0,1.4,0.5,2.1,1.5,2.1l0.6-0.1c1-0.2,1.8-0.4,2.4-0.4
		c1.8,0,3.3,0.7,4.6,2c1.3,1.3,1.9,2.9,1.9,4.9c0,2.1-0.7,4-2,5.5c-1.4,1.5-2.9,2.3-4.7,2.3c-2.6,0-4.9-1.1-6.8-3.3
		c-2-2.2-3-5.1-3-8.6C4,22,9,14.4,19.2,7.7z M44,7.7l2,2.6c-4,2.9-6.9,5.7-8.8,8.6s-2.8,5.3-2.8,7.3c0,1.4,0.5,2.1,1.4,2.1l0.6-0.1
		c1-0.2,1.8-0.4,2.4-0.4c1.8,0,3.4,0.7,4.6,2c1.3,1.3,1.9,2.9,1.9,4.9c0,2.1-0.7,3.9-2.1,5.5c-1.4,1.5-2.9,2.3-4.7,2.3
		c-2.6,0-4.9-1.1-6.9-3.3s-2.9-5.1-2.9-8.6C28.8,22,33.9,14.4,44,7.7z"/>
</g>
</svg>
