<?xml version="1.0" encoding="utf-8"?>
<!-- Generator: Adobe Illustrator 18.0.0, SVG Export Plug-In . SVG Version: 6.00 Build 0)  -->
<!DOCTYPE svg PUBLIC "-//W3C//DTD SVG 1.1//EN" "http://www.w3.org/Graphics/SVG/1.1/DTD/svg11.dtd">
<svg version="1.1" id="icon-ui-remove-cart" xmlns="http://www.w3.org/2000/svg" xmlns:xlink="http://www.w3.org/1999/xlink"
	 x="0px" y="0px" viewBox="0 0 48 48" enable-background="new 0 0 48 48" xml:space="preserve">
<g>
	<path fill="#0C8FD0" d="M11,38.9c-1.2,0-2.2,0.5-3,1.3c-0.8,0.8-1.2,1.8-1.2,3c0,1.2,0.4,2.2,1.2,3c0.8,0.8,1.8,1.2,3,1.2
		c1.2,0,2.2-0.4,3-1.2c0.8-0.8,1.2-1.8,1.2-3c0-1.2-0.4-2.2-1.2-3C13.2,39.3,12.2,38.9,11,38.9z"/>
	<path fill="#0C8FD0" d="M41.4,38.9c-1.2,0-2.2,0.5-3,1.3c-0.8,0.8-1.2,1.8-1.2,3c0,1.2,0.4,2.2,1.2,3c0.8,0.8,1.8,1.2,3,1.2
		c1.2,0,2.2-0.4,3-1.2c0.8-0.8,1.2-1.8,1.2-3c0-1.2-0.4-2.2-1.2-3C43.7,39.3,42.6,38.9,41.4,38.9z"/>
	<path fill="#0C8FD0" d="M48,5.4h-5.3L41.4,0L20.1,5.4h-8.5L9.2,0H0v4.6h6.2l9.1,20.7l-7.4,1l2.8,9.6h35v-4.6H14.2l-0.4-1.2L48,24.9
		V5.4z M37.3,19.5l-2.9,2.9L30,18l-4.4,4.4l-2.9-2.9l4.4-4.4l-4.4-4.4l2.9-2.9l4.4,4.4l4.4-4.4l2.9,2.9L33,15.1L37.3,19.5z"/>
</g>
</svg>
