<?xml version="1.0" encoding="utf-8"?>
<!-- Generator: Adobe Illustrator 18.0.0, SVG Export Plug-In . SVG Version: 6.00 Build 0)  -->
<!DOCTYPE svg PUBLIC "-//W3C//DTD SVG 1.1//EN" "http://www.w3.org/Graphics/SVG/1.1/DTD/svg11.dtd">
<svg version="1.1" id="icon_x5F_ui-cart-gray-lgr" xmlns="http://www.w3.org/2000/svg" xmlns:xlink="http://www.w3.org/1999/xlink"
	 x="0px" y="0px" viewBox="0 0 40 40" enable-background="new 0 0 40 40" xml:space="preserve">
<path fill="#A1A1A1" d="M32.6,10.3H13.5l-1.2-2.8H7.4v2.4h3.3l4.7,10.8l-3.8,0.6l1.5,5h18.4V24H14.8l-0.2-0.7l17.9-2.7V10.3z
	 M30.2,18.5l-12.3,1.9l-3.3-7.6h15.6V18.5z M31.4,30.2c0,1.2-1,2.3-2.3,2.3c-1.2,0-2.3-1-2.3-2.3c0-1.2,1-2.3,2.3-2.3
	C30.4,28,31.4,29,31.4,30.2z M15.4,30.2c0,1.2-1,2.3-2.3,2.3c-1.2,0-2.3-1-2.3-2.3c0-1.2,1-2.3,2.3-2.3C14.4,28,15.4,29,15.4,30.2z"
	/>
</svg>
