<?xml version="1.0" encoding="utf-8"?>
<!-- Generator: Adobe Illustrator 18.0.0, SVG Export Plug-In . SVG Version: 6.00 Build 0)  -->
<!DOCTYPE svg PUBLIC "-//W3C//DTD SVG 1.1//EN" "http://www.w3.org/Graphics/SVG/1.1/DTD/svg11.dtd">
<svg version="1.1" id="icon-question-white" xmlns="http://www.w3.org/2000/svg" xmlns:xlink="http://www.w3.org/1999/xlink"
	 x="0px" y="0px" viewBox="0 0 12 12" enable-background="new 0 0 12 12" xml:space="preserve">
<path fill="#FFFFFF" d="M6,0C2.7,0,0,2.7,0,6c0,3.3,2.7,6,6,6s6-2.7,6-6C12,2.7,9.3,0,6,0z M6.5,9.6C6.3,9.7,6.1,9.8,5.8,9.8
	c-0.2,0-0.5-0.1-0.6-0.3C5.1,9.4,5,9.2,5,8.9c0-0.3,0.1-0.5,0.3-0.6c0.2-0.2,0.4-0.2,0.6-0.2c0.2,0,0.5,0.1,0.6,0.3
	C6.7,8.5,6.8,8.7,6.7,9C6.7,9.2,6.6,9.4,6.5,9.6z M8.1,5.3C8,5.4,7.8,5.7,7.3,6L7,6.2C6.7,6.4,6.6,6.6,6.6,6.7
	c0,0.1-0.1,0.2-0.1,0.4c0,0.1,0,0.1-0.1,0.1H5.3c-0.1,0-0.1,0-0.1-0.1c0-0.5,0.1-0.9,0.2-1C5.5,6,5.6,5.8,5.8,5.7
	C6,5.5,6.1,5.4,6.3,5.3l0.2-0.1C6.6,5.1,6.7,5,6.7,4.9C6.9,4.7,7,4.5,7,4.3c0-0.2-0.1-0.4-0.2-0.7C6.6,3.5,6.3,3.4,6,3.4
	c-0.4,0-0.6,0.1-0.8,0.4C5,4,5,4.2,5,4.5H3.6c0-0.9,0.4-1.6,1-2c0.4-0.2,0.9-0.4,1.4-0.4c0.7,0,1.3,0.2,1.8,0.5
	c0.5,0.3,0.7,0.9,0.7,1.5C8.4,4.6,8.3,5,8.1,5.3z"/>
</svg>
